<svg width="644" height="198" viewBox="0 0 644 198" fill="none" xmlns="http://www.w3.org/2000/svg">
<path d="M235.904 126.5C231.101 126.5 226.724 125.32 222.773 122.961C218.856 120.569 215.739 117.3 213.423 113.154C211.141 108.975 210 104.224 210 98.8989C210 93.7089 211.107 89.0582 213.321 84.9467C215.535 80.8015 218.584 77.5325 222.467 75.1397C226.384 72.7132 230.863 71.5 235.904 71.5C239.617 71.5 243.074 72.2077 246.276 73.6232C249.512 75.0049 252.151 76.9427 254.195 79.4366V73.1176H269.881V124.882H254.195V118.058C251.811 120.788 249.069 122.877 245.969 124.326C242.87 125.775 239.515 126.5 235.904 126.5ZM240.553 113.306C243.278 113.306 245.697 112.699 247.809 111.486C249.92 110.239 251.572 108.537 252.765 106.381C253.957 104.224 254.553 101.763 254.553 99C254.553 96.2028 253.94 93.7426 252.714 91.6195C251.521 89.4626 249.869 87.7776 247.758 86.5643C245.68 85.3174 243.278 84.6939 240.553 84.6939C237.863 84.6939 235.461 85.3174 233.349 86.5643C231.238 87.7776 229.569 89.4626 228.342 91.6195C227.116 93.7763 226.503 96.2365 226.503 99C226.503 101.763 227.099 104.224 228.291 106.381C229.517 108.537 231.186 110.239 233.298 111.486C235.41 112.699 237.828 113.306 240.553 113.306Z" fill="#EDEDED"/>
<path d="M288.331 124.882V73.1176H304.017V80.5487C305.958 77.6504 308.326 75.4262 311.119 73.8759C313.946 72.292 316.977 71.5 320.213 71.5C322.053 71.5 323.96 71.7696 325.936 72.3088C327.911 72.848 329.563 73.5389 330.892 74.3814L324.352 87.4743C323.194 86.6991 321.831 86.0925 320.264 85.6544C318.732 85.1826 317.301 84.9467 315.973 84.9467C313.929 84.9467 311.987 85.4691 310.148 86.5138C308.309 87.5585 306.827 88.9234 305.703 90.6085C304.579 92.2598 304.017 94.046 304.017 95.9669V124.882H288.331Z" fill="#EDEDED"/>
<path d="M363.498 126.5C359.513 126.5 355.749 125.792 352.207 124.377C348.699 122.961 345.599 121.007 342.908 118.513C340.217 115.985 338.105 113.07 336.573 109.767C335.04 106.431 334.273 102.859 334.273 99.0505C334.273 95.3771 334.989 91.8891 336.419 88.5864C337.884 85.2837 339.928 82.3517 342.55 79.7904C345.207 77.2292 348.307 75.2071 351.849 73.7243C355.426 72.2414 359.292 71.5 363.447 71.5C366.819 71.5 370.055 71.9718 373.155 72.9154C376.289 73.8591 378.809 75.0723 380.717 76.5551L375.352 87.0193C372.797 85.1657 369.63 84.239 365.849 84.239C362.613 84.239 359.871 84.9467 357.623 86.3621C355.375 87.7776 353.655 89.6143 352.462 91.8722C351.304 94.1302 350.725 96.5061 350.725 99C350.725 101.73 351.355 104.224 352.616 106.482C353.876 108.706 355.647 110.475 357.929 111.79C360.246 113.104 362.919 113.761 365.951 113.761C367.824 113.761 369.578 113.508 371.213 113.003C372.848 112.497 374.228 111.823 375.352 110.981L380.717 121.445C378.775 122.894 376.272 124.09 373.206 125.034C370.141 126.011 366.905 126.5 363.498 126.5Z" fill="#EDEDED"/>
<path d="M414.728 126.5C409.926 126.5 405.549 125.32 401.598 122.961C397.681 120.569 394.564 117.3 392.248 113.154C389.966 108.975 388.824 104.224 388.824 98.8989C388.824 93.7089 389.931 89.0582 392.145 84.9467C394.359 80.8015 397.408 77.5325 401.291 75.1397C405.208 72.7132 409.687 71.5 414.728 71.5C418.441 71.5 421.898 72.2077 425.1 73.6232C428.336 75.0049 430.976 76.9427 433.02 79.4366V73.1176H448.705V124.882H433.02V118.058C430.635 120.788 427.893 122.877 424.794 124.326C421.694 125.775 418.339 126.5 414.728 126.5ZM419.378 113.306C422.103 113.306 424.521 112.699 426.633 111.486C428.745 110.239 430.397 108.537 431.589 106.381C432.781 104.224 433.377 101.763 433.377 99C433.377 96.2028 432.764 93.7426 431.538 91.6195C430.346 89.4626 428.694 87.7776 426.582 86.5643C424.504 85.3174 422.103 84.6939 419.378 84.6939C416.687 84.6939 414.286 85.3174 412.174 86.5643C410.062 87.7776 408.393 89.4626 407.167 91.6195C405.941 93.7763 405.327 96.2365 405.327 99C405.327 101.763 405.923 104.224 407.116 106.381C408.342 108.537 410.011 110.239 412.123 111.486C414.235 112.699 416.653 113.306 419.378 113.306Z" fill="#EDEDED"/>
<path d="M467.156 124.882V73.1176H482.841V78.8805C484.851 76.6562 487.355 74.8701 490.352 73.5221C493.384 72.174 496.722 71.5 500.366 71.5C504.385 71.5 507.911 72.3762 510.942 74.1287C514.008 75.8474 516.409 78.257 518.146 81.3575C519.884 84.4243 520.752 88.0135 520.752 92.125V124.882H505.067V95.4108C505.067 91.7037 504.079 88.8223 502.103 86.7665C500.162 84.6771 497.488 83.6323 494.082 83.6323C491.766 83.6323 489.756 84.1042 488.053 85.0478C486.384 85.9577 485.09 87.2215 484.17 88.8391C483.284 90.4231 482.841 92.2261 482.841 94.2482V124.882H467.156Z" fill="#EDEDED"/>
<path d="M560.023 126.5C555.221 126.5 550.844 125.32 546.893 122.961C542.975 120.569 539.859 117.3 537.543 113.154C535.26 108.975 534.119 104.224 534.119 98.8989C534.119 93.7089 535.226 89.0582 537.44 84.9467C539.654 80.8015 542.703 77.5325 546.586 75.1397C550.503 72.7132 554.982 71.5 560.023 71.5C563.736 71.5 567.193 72.2077 570.395 73.6232C573.631 75.0049 576.271 76.9427 578.315 79.4366V73.1176H594V124.882H578.315V118.058C575.93 120.788 573.188 122.877 570.089 124.326C566.989 125.775 563.634 126.5 560.023 126.5ZM564.673 113.306C567.398 113.306 569.816 112.699 571.928 111.486C574.04 110.239 575.692 108.537 576.884 106.381C578.076 104.224 578.672 101.763 578.672 99C578.672 96.2028 578.059 93.7426 576.833 91.6195C575.641 89.4626 573.989 87.7776 571.877 86.5643C569.799 85.3174 567.398 84.6939 564.673 84.6939C561.982 84.6939 559.581 85.3174 557.469 86.5643C555.357 87.7776 553.688 89.4626 552.462 91.6195C551.235 93.7763 550.622 96.2365 550.622 99C550.622 101.763 551.218 104.224 552.411 106.381C553.637 108.537 555.306 110.239 557.418 111.486C559.529 112.699 561.948 113.306 564.673 113.306Z" fill="#EDEDED"/>
<path fill-rule="evenodd" clip-rule="evenodd" d="M96.8893 138.274C92.4712 143.729 86.0595 147.213 79.0637 147.96C72.0678 148.707 65.0603 146.657 59.5814 142.26C54.2818 137.649 51.0372 131.131 50.5609 124.138C50.0846 117.145 52.4156 110.249 57.0414 104.968L94.9653 59.9464C99.3834 54.4925 105.795 51.0091 112.79 50.2617C119.785 49.5143 126.792 51.5641 132.271 55.9606C137.57 60.5711 140.815 67.0888 141.291 74.0813C141.768 81.0737 139.438 87.9686 134.813 93.2504L96.8893 138.274ZM69.0642 131.001C71.5542 133 74.7391 133.932 77.9188 133.592C81.0984 133.253 84.0126 131.669 86.0208 129.19L123.94 84.1784C126.042 81.7776 127.101 78.6438 126.885 75.4657C126.668 72.2875 125.194 69.3249 122.786 67.2289C120.295 65.2309 117.111 64.2992 113.931 64.6387C110.752 64.9782 107.838 66.5611 105.829 69.0396L67.9075 114.042C66.8651 115.231 66.0682 116.613 65.5622 118.109C65.0562 119.605 64.851 121.185 64.9584 122.76C65.0659 124.335 65.4838 125.874 66.1882 127.288C66.8927 128.702 67.87 129.963 69.0642 131.001Z" fill="#EDEDED"/>
<g filter="url(#filter0_f_666_64)">
<path d="M103.536 111.763L118.459 94.061L123.726 98.5715L108.811 116.273L103.536 111.763Z" fill="#B6B6B6"/>
</g>
<g filter="url(#filter1_f_666_64)">
<path d="M76.8659 87.6172L91.3991 71.4112L97.0141 73.9989L82.4882 90.2027L76.8659 87.6172Z" fill="#B6B6B6"/>
</g>
<path fill-rule="evenodd" clip-rule="evenodd" d="M134.006 138.085C136.146 140.838 138.823 143.131 141.875 144.829C144.926 146.526 148.291 147.593 151.766 147.964C155.241 148.335 158.756 148.003 162.1 146.988C165.443 145.973 168.547 144.296 171.224 142.058C173.902 139.82 176.098 137.066 177.682 133.961C179.265 130.857 180.203 127.466 180.44 123.992C180.677 120.517 180.207 117.031 179.059 113.742C177.911 110.453 176.109 107.428 173.76 104.85L135.925 59.9253C131.517 54.4831 125.121 51.0072 118.143 50.2614C111.164 49.5156 104.173 51.561 98.7076 55.9481C93.4209 60.5486 90.184 67.0523 89.7084 74.0298C89.2327 81.0072 91.5573 87.8873 96.1712 93.1577L134.006 138.085ZM161.765 130.827C159.281 132.822 156.104 133.752 152.931 133.413C149.759 133.074 146.852 131.494 144.849 129.021L107.014 84.1052C104.917 81.7096 103.861 78.5826 104.077 75.4112C104.292 72.2399 105.763 69.2837 108.166 67.1922C110.65 65.1976 113.828 64.2676 117.001 64.6064C120.173 64.9452 123.081 66.5251 125.085 68.9989L162.919 113.905C163.959 115.091 164.754 116.47 165.259 117.963C165.764 119.455 165.969 121.032 165.862 122.604C165.755 124.175 165.339 125.71 164.636 127.121C163.934 128.532 162.956 129.792 161.765 130.827Z" fill="#EDEDED"/>
<g filter="url(#filter2_f_666_64)">
<path d="M138.713 67.0895L150.36 83.0859L143.99 83.9906L132.341 67.9986L138.713 67.0895Z" fill="#B6B6B6"/>
</g>
<path d="M125.811 81.2973L135.949 91.8578C149.894 72.4571 134.059 50.7422 117.521 50.1772L113.256 64.7646C123.291 63.16 129.686 72.9986 125.811 81.2973Z" fill="url(#paint0_linear_666_64)"/>
<defs>
<filter id="filter0_f_666_64" x="85.0443" y="75.5692" width="57.1741" height="59.1951" filterUnits="userSpaceOnUse" color-interpolation-filters="sRGB">
<feFlood flood-opacity="0" result="BackgroundImageFix"/>
<feBlend mode="normal" in="SourceGraphic" in2="BackgroundImageFix" result="shape"/>
<feGaussianBlur stdDeviation="9.24592" result="effect1_foregroundBlur_666_64"/>
</filter>
<filter id="filter1_f_666_64" x="58.3739" y="52.9193" width="57.1321" height="55.7752" filterUnits="userSpaceOnUse" color-interpolation-filters="sRGB">
<feFlood flood-opacity="0" result="BackgroundImageFix"/>
<feBlend mode="normal" in="SourceGraphic" in2="BackgroundImageFix" result="shape"/>
<feGaussianBlur stdDeviation="9.24592" result="effect1_foregroundBlur_666_64"/>
</filter>
<filter id="filter2_f_666_64" x="113.849" y="48.5975" width="55.0032" height="53.8851" filterUnits="userSpaceOnUse" color-interpolation-filters="sRGB">
<feFlood flood-opacity="0" result="BackgroundImageFix"/>
<feBlend mode="normal" in="SourceGraphic" in2="BackgroundImageFix" result="shape"/>
<feGaussianBlur stdDeviation="9.24592" result="effect1_foregroundBlur_666_64"/>
</filter>
<linearGradient id="paint0_linear_666_64" x1="123.698" y1="57.7972" x2="132.579" y2="90.7014" gradientUnits="userSpaceOnUse">
<stop stop-color="#EDEDED"/>
<stop offset="1" stop-color="#ECECEC"/>
</linearGradient>
</defs>
</svg>
