<svg width="896" height="536" viewBox="0 0 896 536" fill="none" xmlns="http://www.w3.org/2000/svg">
<g filter="url(#filter0_d_4581_1620)">
<path d="M191 310C191 298.954 199.954 290 211 290H267C278.046 290 287 298.954 287 310V366C287 377.046 278.046 386 267 386H211C199.954 386 191 377.046 191 366V310Z" fill="url(#paint0_radial_4581_1620)"/>
</g>
<circle cx="276.408" cy="337.736" r="2.06423" fill="white"/>
<circle cx="201.064" cy="337.736" r="2.06423" fill="white"/>
<circle cx="271.363" cy="318.9" r="2.06423" transform="rotate(-30 271.363 318.9)" fill="white"/>
<circle cx="206.113" cy="356.572" r="2.06423" transform="rotate(-30 206.113 356.572)" fill="white"/>
<circle cx="257.574" cy="305.112" r="2.06423" transform="rotate(-60 257.574 305.112)" fill="white"/>
<circle cx="219.902" cy="370.362" r="2.06423" transform="rotate(-60 219.902 370.362)" fill="white"/>
<circle cx="238.736" cy="300.065" r="2.06423" transform="rotate(-90 238.736 300.065)" fill="white"/>
<circle cx="238.736" cy="337.002" r="2.06423" transform="rotate(-90 238.736 337.002)" fill="white"/>
<circle cx="238.736" cy="337.178" r="5.037" transform="rotate(-90 238.736 337.178)" fill="white"/>
<circle cx="238.736" cy="375.408" r="2.06423" transform="rotate(-90 238.736 375.408)" fill="white"/>
<circle cx="219.9" cy="305.11" r="2.06423" transform="rotate(-120 219.9 305.11)" fill="white"/>
<circle cx="257.572" cy="370.36" r="2.06423" transform="rotate(-120 257.572 370.36)" fill="white"/>
<circle cx="206.112" cy="318.899" r="2.06423" transform="rotate(-150 206.112 318.899)" fill="white"/>
<circle cx="271.362" cy="356.571" r="2.06423" transform="rotate(-150 271.362 356.571)" fill="white"/>
<line x1="206.905" y1="319.789" x2="206.905" y2="354.825" stroke="white" stroke-width="0.427273"/>
<line x1="270.995" y1="319.789" x2="270.995" y2="354.825" stroke="white" stroke-width="0.427273"/>
<line x1="238.326" y1="300.397" x2="270.322" y2="318.975" stroke="white" stroke-width="0.427273"/>
<line y1="-0.213636" x2="36.9981" y2="-0.213636" transform="matrix(-0.864789 0.502136 0.502136 0.864789 239.254 300.582)" stroke="white" stroke-width="0.427273"/>
<line x1="239.147" y1="375.075" x2="207.151" y2="356.497" stroke="white" stroke-width="0.427273"/>
<line y1="-0.213636" x2="36.9981" y2="-0.213636" transform="matrix(0.864789 -0.502135 -0.502135 -0.864789 238.219 374.891)" stroke="white" stroke-width="0.427273"/>
<line x1="221.219" y1="305.904" x2="254.546" y2="305.904" stroke="white" stroke-width="0.427273"/>
<line x1="201.397" y1="338.147" x2="219.975" y2="306.151" stroke="white" stroke-width="0.427273"/>
<line y1="-0.213636" x2="36.9981" y2="-0.213636" transform="matrix(0.502136 0.864789 0.864789 -0.502136 201.582 337.219)" stroke="white" stroke-width="0.427273"/>
<line x1="276.075" y1="337.326" x2="257.497" y2="369.322" stroke="white" stroke-width="0.427273"/>
<line y1="-0.213636" x2="36.9981" y2="-0.213636" transform="matrix(-0.502136 -0.864789 -0.864789 0.502136 275.891 338.254)" stroke="white" stroke-width="0.427273"/>
<path d="M234.541 410.725H229.705L228.704 413H227.365L231.486 403.9H232.773L236.907 413H235.542L234.541 410.725ZM234.086 409.685L232.123 405.226L230.16 409.685H234.086ZM241.735 406.045C242.403 406.045 243.001 406.192 243.529 406.487C244.058 406.782 244.47 407.193 244.764 407.722C245.068 408.251 245.219 408.862 245.219 409.555C245.219 410.248 245.068 410.864 244.764 411.401C244.47 411.93 244.058 412.341 243.529 412.636C243.001 412.931 242.403 413.078 241.735 413.078C241.241 413.078 240.786 412.983 240.37 412.792C239.963 412.601 239.616 412.324 239.33 411.96V415.522H238.082V406.11H239.278V407.202C239.556 406.821 239.907 406.535 240.331 406.344C240.756 406.145 241.224 406.045 241.735 406.045ZM241.631 411.986C242.073 411.986 242.468 411.886 242.814 411.687C243.17 411.479 243.447 411.193 243.646 410.829C243.854 410.456 243.958 410.032 243.958 409.555C243.958 409.078 243.854 408.658 243.646 408.294C243.447 407.921 243.17 407.635 242.814 407.436C242.468 407.237 242.073 407.137 241.631 407.137C241.198 407.137 240.804 407.241 240.448 407.449C240.102 407.648 239.824 407.93 239.616 408.294C239.417 408.658 239.317 409.078 239.317 409.555C239.317 410.032 239.417 410.456 239.616 410.829C239.816 411.193 240.093 411.479 240.448 411.687C240.804 411.886 241.198 411.986 241.631 411.986ZM250.597 406.045C251.264 406.045 251.862 406.192 252.391 406.487C252.919 406.782 253.331 407.193 253.626 407.722C253.929 408.251 254.081 408.862 254.081 409.555C254.081 410.248 253.929 410.864 253.626 411.401C253.331 411.93 252.919 412.341 252.391 412.636C251.862 412.931 251.264 413.078 250.597 413.078C250.103 413.078 249.648 412.983 249.232 412.792C248.824 412.601 248.478 412.324 248.192 411.96V415.522H246.944V406.11H248.14V407.202C248.417 406.821 248.768 406.535 249.193 406.344C249.617 406.145 250.085 406.045 250.597 406.045ZM250.493 411.986C250.935 411.986 251.329 411.886 251.676 411.687C252.031 411.479 252.308 411.193 252.508 410.829C252.716 410.456 252.82 410.032 252.82 409.555C252.82 409.078 252.716 408.658 252.508 408.294C252.308 407.921 252.031 407.635 251.676 407.436C251.329 407.237 250.935 407.137 250.493 407.137C250.059 407.137 249.665 407.241 249.31 407.449C248.963 407.648 248.686 407.93 248.478 408.294C248.278 408.658 248.179 409.078 248.179 409.555C248.179 410.032 248.278 410.456 248.478 410.829C248.677 411.193 248.954 411.479 249.31 411.687C249.665 411.886 250.059 411.986 250.493 411.986Z" fill="white"/>
<path d="M54.3791 344.668C54.3791 340.192 58.0081 336.563 62.4848 336.563H64.6061C69.0828 336.563 72.7118 340.192 72.7118 344.668V352.305C72.7118 353.033 72.1218 353.623 71.3939 353.623H55.697C54.9691 353.623 54.3791 353.033 54.3791 352.305V344.668Z" stroke="white" stroke-width="0.758123"/>
<rect x="55.6953" y="326" width="15.697" height="15.697" rx="7.84848" fill="#010101"/>
<rect x="57.8164" y="327.273" width="11.4545" height="11.4545" rx="5.72727" fill="white"/>
<path d="M79.3791 344.668C79.3791 340.192 83.0081 336.563 87.4848 336.563H89.6061C94.0828 336.563 97.7118 340.192 97.7118 344.668V352.305C97.7118 353.033 97.1218 353.623 96.3939 353.623H80.697C79.9691 353.623 79.3791 353.033 79.3791 352.305V344.668Z" stroke="white" stroke-width="0.758123"/>
<rect x="80.6953" y="326" width="15.697" height="15.697" rx="7.84848" fill="#010101"/>
<rect x="82.8164" y="327.273" width="11.4545" height="11.4545" rx="5.72727" fill="white"/>
<path d="M105.379 344.668C105.379 340.192 109.008 336.563 113.485 336.563H115.606C120.083 336.563 123.712 340.192 123.712 344.668V352.305C123.712 353.033 123.122 353.623 122.394 353.623H106.697C105.969 353.623 105.379 353.033 105.379 352.305V344.668Z" stroke="white" stroke-width="0.758123"/>
<rect x="106.695" y="326" width="15.697" height="15.697" rx="7.84848" fill="#010101"/>
<rect x="108.816" y="327.273" width="11.4545" height="11.4545" rx="5.72727" fill="white"/>
<path d="M515.145 313.05H510.92L510.114 315H507.956L512.012 305.9H514.092L518.161 315H515.951L515.145 313.05ZM514.482 311.451L513.039 307.967L511.596 311.451H514.482ZM521.252 315.104C520.671 315.104 520.104 315.035 519.549 314.896C518.994 314.749 518.552 314.567 518.223 314.35L518.899 312.894C519.211 313.093 519.588 313.258 520.03 313.388C520.472 313.509 520.905 313.57 521.33 313.57C522.188 313.57 522.617 313.358 522.617 312.933C522.617 312.734 522.5 312.591 522.266 312.504C522.032 312.417 521.672 312.344 521.187 312.283C520.615 312.196 520.143 312.097 519.77 311.984C519.397 311.871 519.072 311.672 518.795 311.386C518.526 311.1 518.392 310.693 518.392 310.164C518.392 309.722 518.518 309.332 518.769 308.994C519.029 308.647 519.402 308.379 519.887 308.188C520.381 307.997 520.962 307.902 521.629 307.902C522.123 307.902 522.613 307.958 523.098 308.071C523.592 308.175 523.999 308.322 524.32 308.513L523.644 309.956C523.029 309.609 522.357 309.436 521.629 309.436C521.196 309.436 520.871 309.497 520.654 309.618C520.437 309.739 520.329 309.895 520.329 310.086C520.329 310.303 520.446 310.454 520.68 310.541C520.914 310.628 521.287 310.71 521.798 310.788C522.37 310.883 522.838 310.987 523.202 311.1C523.566 311.204 523.882 311.399 524.151 311.685C524.42 311.971 524.554 312.37 524.554 312.881C524.554 313.314 524.424 313.7 524.164 314.038C523.904 314.376 523.523 314.64 523.02 314.831C522.526 315.013 521.937 315.104 521.252 315.104ZM528.158 315.104C527.577 315.104 527.01 315.035 526.455 314.896C525.9 314.749 525.458 314.567 525.129 314.35L525.805 312.894C526.117 313.093 526.494 313.258 526.936 313.388C527.378 313.509 527.811 313.57 528.236 313.57C529.094 313.57 529.523 313.358 529.523 312.933C529.523 312.734 529.406 312.591 529.172 312.504C528.938 312.417 528.578 312.344 528.093 312.283C527.521 312.196 527.049 312.097 526.676 311.984C526.303 311.871 525.978 311.672 525.701 311.386C525.432 311.1 525.298 310.693 525.298 310.164C525.298 309.722 525.424 309.332 525.675 308.994C525.935 308.647 526.308 308.379 526.793 308.188C527.287 307.997 527.868 307.902 528.535 307.902C529.029 307.902 529.519 307.958 530.004 308.071C530.498 308.175 530.905 308.322 531.226 308.513L530.55 309.956C529.935 309.609 529.263 309.436 528.535 309.436C528.102 309.436 527.777 309.497 527.56 309.618C527.343 309.739 527.235 309.895 527.235 310.086C527.235 310.303 527.352 310.454 527.586 310.541C527.82 310.628 528.193 310.71 528.704 310.788C529.276 310.883 529.744 310.987 530.108 311.1C530.472 311.204 530.788 311.399 531.057 311.685C531.326 311.971 531.46 312.37 531.46 312.881C531.46 313.314 531.33 313.7 531.07 314.038C530.81 314.376 530.429 314.64 529.926 314.831C529.432 315.013 528.843 315.104 528.158 315.104ZM532.711 308.006H534.739V315H532.711V308.006ZM533.725 307.031C533.353 307.031 533.049 306.923 532.815 306.706C532.581 306.489 532.464 306.221 532.464 305.9C532.464 305.579 532.581 305.311 532.815 305.094C533.049 304.877 533.353 304.769 533.725 304.769C534.098 304.769 534.401 304.873 534.635 305.081C534.869 305.289 534.986 305.549 534.986 305.861C534.986 306.199 534.869 306.481 534.635 306.706C534.401 306.923 534.098 307.031 533.725 307.031ZM543.837 308.006V313.83C543.837 315.113 543.503 316.066 542.836 316.69C542.168 317.314 541.193 317.626 539.911 317.626C539.235 317.626 538.593 317.544 537.987 317.379C537.38 317.214 536.877 316.976 536.479 316.664L537.285 315.208C537.579 315.451 537.952 315.641 538.403 315.78C538.853 315.927 539.304 316.001 539.755 316.001C540.457 316.001 540.972 315.841 541.302 315.52C541.64 315.208 541.809 314.731 541.809 314.09V313.791C541.28 314.372 540.543 314.662 539.599 314.662C538.957 314.662 538.368 314.523 537.831 314.246C537.302 313.96 536.882 313.561 536.57 313.05C536.258 312.539 536.102 311.949 536.102 311.282C536.102 310.615 536.258 310.025 536.57 309.514C536.882 309.003 537.302 308.608 537.831 308.331C538.368 308.045 538.957 307.902 539.599 307.902C540.613 307.902 541.384 308.236 541.913 308.903V308.006H543.837ZM540.002 312.998C540.539 312.998 540.977 312.842 541.315 312.53C541.661 312.209 541.835 311.793 541.835 311.282C541.835 310.771 541.661 310.359 541.315 310.047C540.977 309.726 540.539 309.566 540.002 309.566C539.464 309.566 539.022 309.726 538.676 310.047C538.329 310.359 538.156 310.771 538.156 311.282C538.156 311.793 538.329 312.209 538.676 312.53C539.022 312.842 539.464 312.998 540.002 312.998ZM549.975 307.902C550.842 307.902 551.539 308.162 552.068 308.682C552.605 309.202 552.874 309.973 552.874 310.996V315H550.846V311.308C550.846 310.753 550.725 310.342 550.482 310.073C550.239 309.796 549.888 309.657 549.429 309.657C548.918 309.657 548.51 309.817 548.207 310.138C547.904 310.45 547.752 310.918 547.752 311.542V315H545.724V308.006H547.661V308.825C547.93 308.53 548.263 308.305 548.662 308.149C549.061 307.984 549.498 307.902 549.975 307.902ZM557.637 304.054H559.444L555.154 316.3H553.347L557.637 304.054ZM565.734 307.59V309.995H569.946V311.685H565.734V315H563.628V305.9H570.505V307.59H565.734ZM578.461 311.529C578.461 311.555 578.448 311.737 578.422 312.075H573.131C573.226 312.508 573.451 312.851 573.807 313.102C574.162 313.353 574.604 313.479 575.133 313.479C575.497 313.479 575.817 313.427 576.095 313.323C576.381 313.21 576.645 313.037 576.888 312.803L577.967 313.973C577.308 314.727 576.346 315.104 575.081 315.104C574.292 315.104 573.594 314.952 572.988 314.649C572.381 314.337 571.913 313.908 571.584 313.362C571.254 312.816 571.09 312.196 571.09 311.503C571.09 310.818 571.25 310.203 571.571 309.657C571.9 309.102 572.346 308.673 572.91 308.37C573.482 308.058 574.119 307.902 574.821 307.902C575.505 307.902 576.125 308.049 576.68 308.344C577.234 308.639 577.668 309.063 577.98 309.618C578.3 310.164 578.461 310.801 578.461 311.529ZM574.834 309.436C574.374 309.436 573.989 309.566 573.677 309.826C573.365 310.086 573.174 310.441 573.105 310.892H576.55C576.48 310.45 576.29 310.099 575.978 309.839C575.666 309.57 575.284 309.436 574.834 309.436ZM584.322 314.662C584.123 314.809 583.876 314.922 583.581 315C583.295 315.069 582.992 315.104 582.671 315.104C581.839 315.104 581.193 314.892 580.734 314.467C580.283 314.042 580.058 313.418 580.058 312.595V309.722H578.979V308.162H580.058V306.459H582.086V308.162H583.828V309.722H582.086V312.569C582.086 312.864 582.16 313.093 582.307 313.258C582.463 313.414 582.68 313.492 582.957 313.492C583.278 313.492 583.551 313.405 583.776 313.232L584.322 314.662ZM588.625 315.104C587.879 315.104 587.208 314.952 586.61 314.649C586.02 314.337 585.557 313.908 585.219 313.362C584.889 312.816 584.725 312.196 584.725 311.503C584.725 310.81 584.889 310.19 585.219 309.644C585.557 309.098 586.02 308.673 586.61 308.37C587.208 308.058 587.879 307.902 588.625 307.902C589.361 307.902 590.003 308.058 590.549 308.37C591.103 308.673 591.506 309.111 591.758 309.683L590.185 310.528C589.821 309.887 589.296 309.566 588.612 309.566C588.083 309.566 587.645 309.739 587.299 310.086C586.952 310.433 586.779 310.905 586.779 311.503C586.779 312.101 586.952 312.573 587.299 312.92C587.645 313.267 588.083 313.44 588.612 313.44C589.305 313.44 589.829 313.119 590.185 312.478L591.758 313.336C591.506 313.891 591.103 314.324 590.549 314.636C590.003 314.948 589.361 315.104 588.625 315.104ZM597.125 307.902C597.992 307.902 598.69 308.162 599.218 308.682C599.756 309.202 600.024 309.973 600.024 310.996V315H597.996V311.308C597.996 310.753 597.875 310.342 597.632 310.073C597.39 309.796 597.039 309.657 596.579 309.657C596.068 309.657 595.661 309.817 595.357 310.138C595.054 310.45 594.902 310.918 594.902 311.542V315H592.874V305.354H594.902V308.734C595.171 308.465 595.496 308.262 595.877 308.123C596.259 307.976 596.675 307.902 597.125 307.902ZM542.904 329.425L541.682 330.699V333H539.589V323.9H541.682V328.151L545.712 323.9H548.052L544.282 327.956L548.273 333H545.816L542.904 329.425ZM555.628 329.529C555.628 329.555 555.615 329.737 555.589 330.075H550.298C550.394 330.508 550.619 330.851 550.974 331.102C551.33 331.353 551.772 331.479 552.3 331.479C552.664 331.479 552.985 331.427 553.262 331.323C553.548 331.21 553.813 331.037 554.055 330.803L555.134 331.973C554.476 332.727 553.514 333.104 552.248 333.104C551.46 333.104 550.762 332.952 550.155 332.649C549.549 332.337 549.081 331.908 548.751 331.362C548.422 330.816 548.257 330.196 548.257 329.503C548.257 328.818 548.418 328.203 548.738 327.657C549.068 327.102 549.514 326.673 550.077 326.37C550.649 326.058 551.286 325.902 551.988 325.902C552.673 325.902 553.293 326.049 553.847 326.344C554.402 326.639 554.835 327.063 555.147 327.618C555.468 328.164 555.628 328.801 555.628 329.529ZM552.001 327.436C551.542 327.436 551.156 327.566 550.844 327.826C550.532 328.086 550.342 328.441 550.272 328.892H553.717C553.648 328.45 553.457 328.099 553.145 327.839C552.833 327.57 552.452 327.436 552.001 327.436ZM563.794 326.006L560.635 333.429C560.314 334.235 559.915 334.803 559.439 335.132C558.971 335.461 558.403 335.626 557.736 335.626C557.372 335.626 557.012 335.57 556.657 335.457C556.301 335.344 556.011 335.188 555.786 334.989L556.527 333.546C556.683 333.685 556.86 333.793 557.06 333.871C557.268 333.949 557.471 333.988 557.671 333.988C557.948 333.988 558.173 333.919 558.347 333.78C558.52 333.65 558.676 333.429 558.815 333.117L558.841 333.052L555.812 326.006H557.905L559.868 330.751L561.844 326.006H563.794ZM566.872 333.104C566.292 333.104 565.724 333.035 565.169 332.896C564.615 332.749 564.173 332.567 563.843 332.35L564.519 330.894C564.831 331.093 565.208 331.258 565.65 331.388C566.092 331.509 566.526 331.57 566.95 331.57C567.808 331.57 568.237 331.358 568.237 330.933C568.237 330.734 568.12 330.591 567.886 330.504C567.652 330.417 567.293 330.344 566.807 330.283C566.235 330.196 565.763 330.097 565.39 329.984C565.018 329.871 564.693 329.672 564.415 329.386C564.147 329.1 564.012 328.693 564.012 328.164C564.012 327.722 564.138 327.332 564.389 326.994C564.649 326.647 565.022 326.379 565.507 326.188C566.001 325.997 566.582 325.902 567.249 325.902C567.743 325.902 568.233 325.958 568.718 326.071C569.212 326.175 569.62 326.322 569.94 326.513L569.264 327.956C568.649 327.609 567.977 327.436 567.249 327.436C566.816 327.436 566.491 327.497 566.274 327.618C566.058 327.739 565.949 327.895 565.949 328.086C565.949 328.303 566.066 328.454 566.3 328.541C566.534 328.628 566.907 328.71 567.418 328.788C567.99 328.883 568.458 328.987 568.822 329.1C569.186 329.204 569.503 329.399 569.771 329.685C570.04 329.971 570.174 330.37 570.174 330.881C570.174 331.314 570.044 331.7 569.784 332.038C569.524 332.376 569.143 332.64 568.64 332.831C568.146 333.013 567.557 333.104 566.872 333.104Z" fill="#F7F7F7"/>
<path d="M743.163 323.725H738.327L737.326 326H735.987L740.108 316.9H741.395L745.529 326H744.164L743.163 323.725ZM742.708 322.685L740.745 318.226L738.782 322.685H742.708ZM747.9 320.267C748.117 319.868 748.438 319.565 748.862 319.357C749.287 319.149 749.803 319.045 750.409 319.045V320.254C750.34 320.245 750.245 320.241 750.123 320.241C749.447 320.241 748.914 320.445 748.524 320.852C748.143 321.251 747.952 321.823 747.952 322.568V326H746.704V319.11H747.9V320.267ZM754.887 326.078C754.185 326.078 753.557 325.926 753.002 325.623C752.456 325.32 752.027 324.904 751.715 324.375C751.403 323.838 751.247 323.231 751.247 322.555C751.247 321.879 751.403 321.277 751.715 320.748C752.027 320.211 752.456 319.795 753.002 319.5C753.557 319.197 754.185 319.045 754.887 319.045C755.511 319.045 756.066 319.171 756.551 319.422C757.045 319.673 757.427 320.037 757.695 320.514L756.746 321.125C756.53 320.796 756.261 320.549 755.94 320.384C755.62 320.219 755.264 320.137 754.874 320.137C754.424 320.137 754.016 320.237 753.652 320.436C753.297 320.635 753.015 320.921 752.807 321.294C752.608 321.658 752.508 322.078 752.508 322.555C752.508 323.04 752.608 323.469 752.807 323.842C753.015 324.206 753.297 324.488 753.652 324.687C754.016 324.886 754.424 324.986 754.874 324.986C755.264 324.986 755.62 324.904 755.94 324.739C756.261 324.574 756.53 324.327 756.746 323.998L757.695 324.596C757.427 325.073 757.045 325.441 756.551 325.701C756.066 325.952 755.511 326.078 754.887 326.078ZM761.82 319.045C762.773 319.045 763.501 319.279 764.004 319.747C764.515 320.215 764.771 320.913 764.771 321.84V326H763.588V325.09C763.38 325.411 763.081 325.658 762.691 325.831C762.31 325.996 761.855 326.078 761.326 326.078C760.555 326.078 759.935 325.892 759.467 325.519C759.008 325.146 758.778 324.657 758.778 324.05C758.778 323.443 758.999 322.958 759.441 322.594C759.883 322.221 760.585 322.035 761.547 322.035H763.523V321.788C763.523 321.251 763.367 320.839 763.055 320.553C762.743 320.267 762.284 320.124 761.677 320.124C761.27 320.124 760.871 320.193 760.481 320.332C760.091 320.462 759.762 320.64 759.493 320.865L758.973 319.929C759.328 319.643 759.753 319.426 760.247 319.279C760.741 319.123 761.265 319.045 761.82 319.045ZM761.534 325.116C762.011 325.116 762.422 325.012 762.769 324.804C763.116 324.587 763.367 324.284 763.523 323.894V322.932H761.599C760.542 322.932 760.013 323.287 760.013 323.998C760.013 324.345 760.147 324.618 760.416 324.817C760.685 325.016 761.057 325.116 761.534 325.116ZM770.759 319.045C771.635 319.045 772.328 319.301 772.839 319.812C773.359 320.315 773.619 321.056 773.619 322.035V326H772.371V322.178C772.371 321.511 772.211 321.008 771.89 320.67C771.57 320.332 771.11 320.163 770.512 320.163C769.836 320.163 769.303 320.362 768.913 320.761C768.523 321.151 768.328 321.714 768.328 322.451V326H767.08V319.11H768.276V320.15C768.528 319.795 768.866 319.522 769.29 319.331C769.724 319.14 770.213 319.045 770.759 319.045ZM778.438 319.045C779.391 319.045 780.119 319.279 780.622 319.747C781.133 320.215 781.389 320.913 781.389 321.84V326H780.206V325.09C779.998 325.411 779.699 325.658 779.309 325.831C778.928 325.996 778.473 326.078 777.944 326.078C777.173 326.078 776.553 325.892 776.085 325.519C775.626 325.146 775.396 324.657 775.396 324.05C775.396 323.443 775.617 322.958 776.059 322.594C776.501 322.221 777.203 322.035 778.165 322.035H780.141V321.788C780.141 321.251 779.985 320.839 779.673 320.553C779.361 320.267 778.902 320.124 778.295 320.124C777.888 320.124 777.489 320.193 777.099 320.332C776.709 320.462 776.38 320.64 776.111 320.865L775.591 319.929C775.946 319.643 776.371 319.426 776.865 319.279C777.359 319.123 777.883 319.045 778.438 319.045ZM778.152 325.116C778.629 325.116 779.04 325.012 779.387 324.804C779.734 324.587 779.985 324.284 780.141 323.894V322.932H778.217C777.16 322.932 776.631 323.287 776.631 323.998C776.631 324.345 776.765 324.618 777.034 324.817C777.303 325.016 777.675 325.116 778.152 325.116ZM743.163 341.725H738.327L737.326 344H735.987L740.108 334.9H741.395L745.529 344H744.164L743.163 341.725ZM742.708 340.685L740.745 336.226L738.782 340.685H742.708ZM746.886 334.9H750.721C751.683 334.9 752.537 335.091 753.282 335.472C754.028 335.853 754.604 336.391 755.011 337.084C755.427 337.769 755.635 338.557 755.635 339.45C755.635 340.343 755.427 341.136 755.011 341.829C754.604 342.514 754.028 343.047 753.282 343.428C752.537 343.809 751.683 344 750.721 344H746.886V334.9ZM750.643 342.869C751.38 342.869 752.026 342.726 752.58 342.44C753.144 342.154 753.577 341.755 753.88 341.244C754.184 340.724 754.335 340.126 754.335 339.45C754.335 338.774 754.184 338.18 753.88 337.669C753.577 337.149 753.144 336.746 752.58 336.46C752.026 336.174 751.38 336.031 750.643 336.031H748.186V342.869H750.643ZM760.591 339.957L758.927 341.647V344H757.627V334.9H758.927V339.983L763.867 334.9H765.349L761.462 338.995L765.596 344H764.075L760.591 339.957ZM772.945 339.398H774.193V342.947C773.743 343.32 773.218 343.606 772.62 343.805C772.022 344.004 771.398 344.104 770.748 344.104C769.83 344.104 769.002 343.905 768.265 343.506C767.529 343.099 766.948 342.544 766.523 341.842C766.107 341.131 765.899 340.334 765.899 339.45C765.899 338.566 766.107 337.769 766.523 337.058C766.948 336.347 767.529 335.793 768.265 335.394C769.011 334.995 769.847 334.796 770.774 334.796C771.502 334.796 772.161 334.917 772.75 335.16C773.348 335.394 773.855 335.741 774.271 336.2L773.465 337.006C772.737 336.304 771.858 335.953 770.826 335.953C770.133 335.953 769.509 336.105 768.954 336.408C768.408 336.703 767.979 337.119 767.667 337.656C767.355 338.185 767.199 338.783 767.199 339.45C767.199 340.109 767.355 340.707 767.667 341.244C767.979 341.773 768.408 342.189 768.954 342.492C769.509 342.795 770.129 342.947 770.813 342.947C771.628 342.947 772.339 342.752 772.945 342.362V339.398ZM738.782 364.522C738.288 363.725 737.907 362.81 737.638 361.779C737.369 360.739 737.235 359.625 737.235 358.438C737.235 357.251 737.369 356.137 737.638 355.097C737.907 354.048 738.288 353.134 738.782 352.354H739.965C739.445 353.264 739.064 354.217 738.821 355.214C738.578 356.211 738.457 357.285 738.457 358.438C738.457 359.591 738.578 360.665 738.821 361.662C739.064 362.659 739.445 363.612 739.965 364.522H738.782ZM747.543 359.725H742.707L741.706 362H740.367L744.488 352.9H745.775L749.909 362H748.544L747.543 359.725ZM747.088 358.685L745.125 354.226L743.162 358.685H747.088ZM752.997 362.078C752.434 362.078 751.892 362.004 751.372 361.857C750.852 361.701 750.445 361.506 750.15 361.272L750.67 360.284C750.973 360.501 751.342 360.674 751.775 360.804C752.208 360.934 752.646 360.999 753.088 360.999C754.18 360.999 754.726 360.687 754.726 360.063C754.726 359.855 754.652 359.69 754.505 359.569C754.358 359.448 754.171 359.361 753.946 359.309C753.729 359.248 753.417 359.183 753.01 359.114C752.455 359.027 752 358.928 751.645 358.815C751.298 358.702 750.999 358.512 750.748 358.243C750.497 357.974 750.371 357.597 750.371 357.112C750.371 356.488 750.631 355.99 751.151 355.617C751.671 355.236 752.369 355.045 753.244 355.045C753.703 355.045 754.163 355.101 754.622 355.214C755.081 355.327 755.458 355.478 755.753 355.669L755.22 356.657C754.657 356.293 753.994 356.111 753.231 356.111C752.702 356.111 752.299 356.198 752.022 356.371C751.745 356.544 751.606 356.774 751.606 357.06C751.606 357.285 751.684 357.463 751.84 357.593C751.996 357.723 752.187 357.818 752.412 357.879C752.646 357.94 752.971 358.009 753.387 358.087C753.942 358.182 754.388 358.286 754.726 358.399C755.073 358.503 755.367 358.685 755.61 358.945C755.853 359.205 755.974 359.569 755.974 360.037C755.974 360.661 755.705 361.159 755.168 361.532C754.639 361.896 753.916 362.078 752.997 362.078ZM763.504 355.11L760.163 362.689C759.868 363.391 759.521 363.885 759.123 364.171C758.733 364.457 758.26 364.6 757.706 364.6C757.368 364.6 757.038 364.544 756.718 364.431C756.406 364.327 756.146 364.171 755.938 363.963L756.471 363.027C756.826 363.365 757.238 363.534 757.706 363.534C758.009 363.534 758.26 363.452 758.46 363.287C758.668 363.131 758.854 362.858 759.019 362.468L759.24 361.987L756.198 355.11H757.498L759.903 360.622L762.282 355.11H763.504ZM768.347 355.045C769.223 355.045 769.916 355.301 770.427 355.812C770.947 356.315 771.207 357.056 771.207 358.035V362H769.959V358.178C769.959 357.511 769.799 357.008 769.478 356.67C769.158 356.332 768.698 356.163 768.1 356.163C767.424 356.163 766.891 356.362 766.501 356.761C766.111 357.151 765.916 357.714 765.916 358.451V362H764.668V355.11H765.864V356.15C766.116 355.795 766.454 355.522 766.878 355.331C767.312 355.14 767.801 355.045 768.347 355.045ZM776.558 362.078C775.856 362.078 775.228 361.926 774.673 361.623C774.127 361.32 773.698 360.904 773.386 360.375C773.074 359.838 772.918 359.231 772.918 358.555C772.918 357.879 773.074 357.277 773.386 356.748C773.698 356.211 774.127 355.795 774.673 355.5C775.228 355.197 775.856 355.045 776.558 355.045C777.182 355.045 777.737 355.171 778.222 355.422C778.716 355.673 779.097 356.037 779.366 356.514L778.417 357.125C778.2 356.796 777.932 356.549 777.611 356.384C777.29 356.219 776.935 356.137 776.545 356.137C776.094 356.137 775.687 356.237 775.323 356.436C774.968 356.635 774.686 356.921 774.478 357.294C774.279 357.658 774.179 358.078 774.179 358.555C774.179 359.04 774.279 359.469 774.478 359.842C774.686 360.206 774.968 360.488 775.323 360.687C775.687 360.886 776.094 360.986 776.545 360.986C776.935 360.986 777.29 360.904 777.611 360.739C777.932 360.574 778.2 360.327 778.417 359.998L779.366 360.596C779.097 361.073 778.716 361.441 778.222 361.701C777.737 361.952 777.182 362.078 776.558 362.078ZM784.572 355.045C785.447 355.045 786.141 355.301 786.652 355.812C787.172 356.315 787.432 357.056 787.432 358.035V362H786.184V358.178C786.184 357.511 786.024 357.008 785.703 356.67C785.382 356.332 784.923 356.163 784.325 356.163C783.649 356.163 783.116 356.362 782.726 356.761C782.336 357.151 782.141 357.714 782.141 358.451V362H780.893V352.354H782.141V356.085C782.401 355.756 782.739 355.5 783.155 355.318C783.58 355.136 784.052 355.045 784.572 355.045ZM790.938 356.267C791.154 355.868 791.475 355.565 791.9 355.357C792.324 355.149 792.84 355.045 793.447 355.045V356.254C793.377 356.245 793.282 356.241 793.161 356.241C792.485 356.241 791.952 356.445 791.562 356.852C791.18 357.251 790.99 357.823 790.99 358.568V362H789.742V355.11H790.938V356.267ZM797.872 362.078C797.188 362.078 796.572 361.926 796.026 361.623C795.48 361.32 795.051 360.904 794.739 360.375C794.436 359.838 794.284 359.231 794.284 358.555C794.284 357.879 794.436 357.277 794.739 356.748C795.051 356.211 795.48 355.795 796.026 355.5C796.572 355.197 797.188 355.045 797.872 355.045C798.557 355.045 799.168 355.197 799.705 355.5C800.251 355.795 800.676 356.211 800.979 356.748C801.291 357.277 801.447 357.879 801.447 358.555C801.447 359.231 801.291 359.838 800.979 360.375C800.676 360.904 800.251 361.32 799.705 361.623C799.168 361.926 798.557 362.078 797.872 362.078ZM797.872 360.986C798.314 360.986 798.709 360.886 799.055 360.687C799.411 360.479 799.688 360.193 799.887 359.829C800.087 359.456 800.186 359.032 800.186 358.555C800.186 358.078 800.087 357.658 799.887 357.294C799.688 356.921 799.411 356.635 799.055 356.436C798.709 356.237 798.314 356.137 797.872 356.137C797.43 356.137 797.032 356.237 796.676 356.436C796.33 356.635 796.052 356.921 795.844 357.294C795.645 357.658 795.545 358.078 795.545 358.555C795.545 359.032 795.645 359.456 795.844 359.829C796.052 360.193 796.33 360.479 796.676 360.687C797.032 360.886 797.43 360.986 797.872 360.986ZM806.852 355.045C807.728 355.045 808.421 355.301 808.932 355.812C809.452 356.315 809.712 357.056 809.712 358.035V362H808.464V358.178C808.464 357.511 808.304 357.008 807.983 356.67C807.663 356.332 807.203 356.163 806.605 356.163C805.929 356.163 805.396 356.362 805.006 356.761C804.616 357.151 804.421 357.714 804.421 358.451V362H803.173V355.11H804.369V356.15C804.621 355.795 804.959 355.522 805.383 355.331C805.817 355.14 806.306 355.045 806.852 355.045ZM815.011 362.078C814.326 362.078 813.711 361.926 813.165 361.623C812.619 361.32 812.19 360.904 811.878 360.375C811.575 359.838 811.423 359.231 811.423 358.555C811.423 357.879 811.575 357.277 811.878 356.748C812.19 356.211 812.619 355.795 813.165 355.5C813.711 355.197 814.326 355.045 815.011 355.045C815.696 355.045 816.307 355.197 816.844 355.5C817.39 355.795 817.815 356.211 818.118 356.748C818.43 357.277 818.586 357.879 818.586 358.555C818.586 359.231 818.43 359.838 818.118 360.375C817.815 360.904 817.39 361.32 816.844 361.623C816.307 361.926 815.696 362.078 815.011 362.078ZM815.011 360.986C815.453 360.986 815.847 360.886 816.194 360.687C816.549 360.479 816.827 360.193 817.026 359.829C817.225 359.456 817.325 359.032 817.325 358.555C817.325 358.078 817.225 357.658 817.026 357.294C816.827 356.921 816.549 356.635 816.194 356.436C815.847 356.237 815.453 356.137 815.011 356.137C814.569 356.137 814.17 356.237 813.815 356.436C813.468 356.635 813.191 356.921 812.983 357.294C812.784 357.658 812.684 358.078 812.684 358.555C812.684 359.032 812.784 359.456 812.983 359.829C813.191 360.193 813.468 360.479 813.815 360.687C814.17 360.886 814.569 360.986 815.011 360.986ZM826.734 355.11V362H825.551V360.96C825.3 361.315 824.966 361.593 824.55 361.792C824.143 361.983 823.696 362.078 823.211 362.078C822.292 362.078 821.569 361.827 821.04 361.324C820.511 360.813 820.247 360.063 820.247 359.075V355.11H821.495V358.932C821.495 359.599 821.655 360.106 821.976 360.453C822.297 360.791 822.756 360.96 823.354 360.96C824.013 360.96 824.533 360.761 824.914 360.362C825.295 359.963 825.486 359.4 825.486 358.672V355.11H826.734ZM831.086 362.078C830.522 362.078 829.981 362.004 829.461 361.857C828.941 361.701 828.533 361.506 828.239 361.272L828.759 360.284C829.062 360.501 829.43 360.674 829.864 360.804C830.297 360.934 830.735 360.999 831.177 360.999C832.269 360.999 832.815 360.687 832.815 360.063C832.815 359.855 832.741 359.69 832.594 359.569C832.446 359.448 832.26 359.361 832.035 359.309C831.818 359.248 831.506 359.183 831.099 359.114C830.544 359.027 830.089 358.928 829.734 358.815C829.387 358.702 829.088 358.512 828.837 358.243C828.585 357.974 828.46 357.597 828.46 357.112C828.46 356.488 828.72 355.99 829.24 355.617C829.76 355.236 830.457 355.045 831.333 355.045C831.792 355.045 832.251 355.101 832.711 355.214C833.17 355.327 833.547 355.478 833.842 355.669L833.309 356.657C832.745 356.293 832.082 356.111 831.32 356.111C830.791 356.111 830.388 356.198 830.111 356.371C829.833 356.544 829.695 356.774 829.695 357.06C829.695 357.285 829.773 357.463 829.929 357.593C830.085 357.723 830.275 357.818 830.501 357.879C830.735 357.94 831.06 358.009 831.476 358.087C832.03 358.182 832.477 358.286 832.815 358.399C833.161 358.503 833.456 358.685 833.699 358.945C833.941 359.205 834.063 359.569 834.063 360.037C834.063 360.661 833.794 361.159 833.257 361.532C832.728 361.896 832.004 362.078 831.086 362.078ZM737.365 370.9H741.2C742.162 370.9 743.016 371.091 743.761 371.472C744.506 371.853 745.083 372.391 745.49 373.084C745.906 373.769 746.114 374.557 746.114 375.45C746.114 376.343 745.906 377.136 745.49 377.829C745.083 378.514 744.506 379.047 743.761 379.428C743.016 379.809 742.162 380 741.2 380H737.365V370.9ZM741.122 378.869C741.859 378.869 742.504 378.726 743.059 378.44C743.622 378.154 744.056 377.755 744.359 377.244C744.662 376.724 744.814 376.126 744.814 375.45C744.814 374.774 744.662 374.18 744.359 373.669C744.056 373.149 743.622 372.746 743.059 372.46C742.504 372.174 741.859 372.031 741.122 372.031H738.665V378.869H741.122ZM751.069 375.957L749.405 377.647V380H748.105V370.9H749.405V375.983L754.345 370.9H755.827L751.94 374.995L756.074 380H754.553L751.069 375.957ZM763.424 375.398H764.672V378.947C764.221 379.32 763.697 379.606 763.099 379.805C762.501 380.004 761.877 380.104 761.227 380.104C760.308 380.104 759.481 379.905 758.744 379.506C758.007 379.099 757.427 378.544 757.002 377.842C756.586 377.131 756.378 376.334 756.378 375.45C756.378 374.566 756.586 373.769 757.002 373.058C757.427 372.347 758.007 371.793 758.744 371.394C759.489 370.995 760.326 370.796 761.253 370.796C761.981 370.796 762.64 370.917 763.229 371.16C763.827 371.394 764.334 371.741 764.75 372.2L763.944 373.006C763.216 372.304 762.336 371.953 761.305 371.953C760.612 371.953 759.988 372.105 759.433 372.408C758.887 372.703 758.458 373.119 758.146 373.656C757.834 374.185 757.678 374.783 757.678 375.45C757.678 376.109 757.834 376.707 758.146 377.244C758.458 377.773 758.887 378.189 759.433 378.492C759.988 378.795 760.607 378.947 761.292 378.947C762.107 378.947 762.817 378.752 763.424 378.362V375.398ZM766.212 382.522C766.732 381.612 767.113 380.659 767.356 379.662C767.607 378.665 767.733 377.591 767.733 376.438C767.733 375.285 767.607 374.211 767.356 373.214C767.113 372.217 766.732 371.264 766.212 370.354H767.395C767.898 371.134 768.283 372.044 768.552 373.084C768.821 374.124 768.955 375.242 768.955 376.438C768.955 377.625 768.821 378.739 768.552 379.779C768.283 380.819 767.898 381.733 767.395 382.522H766.212Z" fill="#F7F7F7"/>
<g filter="url(#filter1_d_4581_1620)">
<path d="M191 310C191 298.954 199.954 290 211 290H267C278.046 290 287 298.954 287 310V366C287 377.046 278.046 386 267 386H211C199.954 386 191 377.046 191 366V310Z" fill="url(#paint1_radial_4581_1620)"/>
</g>
<rect x="225.5" y="313.5" width="27" height="49" rx="5.5" stroke="white"/>
<rect x="229" y="317" width="9" height="10" rx="2" fill="white"/>
<rect x="240" y="317" width="9" height="10" rx="2" fill="white"/>
<rect x="229" y="330" width="9" height="10" rx="2" fill="white"/>
<rect x="240" y="330" width="9" height="10" rx="2" fill="white"/>
<rect x="229" y="342.832" width="9.16667" height="10" rx="2" fill="white"/>
<rect x="239.832" y="342.832" width="9.16667" height="10" rx="2" fill="white"/>
<circle cx="239" cy="357.5" r="2.5" fill="white"/>
<g filter="url(#filter2_d_4581_1620)">
<path d="M322.379 149.668C322.379 145.192 326.008 141.563 330.485 141.563H332.606C337.083 141.563 340.712 145.192 340.712 149.668V157.305C340.712 158.033 340.122 158.623 339.394 158.623H323.697C322.969 158.623 322.379 158.033 322.379 157.305V149.668Z" fill="#F7F7F7" stroke="#F7F7F7" stroke-width="0.758123"/>
<rect x="323.695" y="131" width="15.697" height="15.697" rx="7.84848" fill="#1C1C1D"/>
<rect x="325.816" y="132.273" width="11.4545" height="11.4545" rx="5.72727" fill="#F7F7F7"/>
</g>
<g filter="url(#filter3_d_4581_1620)">
<g filter="url(#filter4_d_4581_1620)">
<path d="M356 310C356 298.954 364.954 290 376 290H432C443.046 290 452 298.954 452 310V366C452 377.046 443.046 386 432 386H376C364.954 386 356 377.046 356 366V310Z" fill="url(#paint2_radial_4581_1620)"/>
</g>
<path d="M382.306 359.617L367.902 364.455C366.934 364.78 366.912 366.141 367.869 366.497L382.272 371.858C382.518 371.95 382.789 371.949 383.034 371.856L397.187 366.495C398.137 366.135 398.114 364.785 397.154 364.457L383.001 359.619C382.776 359.542 382.531 359.541 382.306 359.617Z" fill="#313131" stroke="white" stroke-width="0.8125"/>
<path d="M382.306 354.617L367.902 359.455C366.934 359.78 366.912 361.141 367.869 361.497L382.272 366.858C382.518 366.95 382.789 366.949 383.034 366.856L397.187 361.495C398.137 361.135 398.114 359.785 397.154 359.457L383.001 354.619C382.776 354.542 382.531 354.541 382.306 354.617Z" fill="#313131" stroke="white" stroke-width="0.8125"/>
<path d="M382.306 350.117L367.902 354.955C366.934 355.28 366.912 356.641 367.869 356.997L382.272 362.358C382.518 362.45 382.789 362.449 383.034 362.356L397.187 356.995C398.137 356.635 398.114 355.285 397.154 354.957L383.001 350.119C382.776 350.042 382.531 350.041 382.306 350.117Z" stroke="white" stroke-width="0.8125"/>
<path d="M372 349C372 346.791 373.791 345 376 345H389C391.209 345 393 346.791 393 349V359L383.765 362.078C382.944 362.352 382.056 362.352 381.235 362.078L372 359V349Z" fill="white"/>
<rect x="375" y="350" width="14" height="5" rx="2.5" fill="#2A2A2A"/>
<path d="M425.306 359.617L410.902 364.455C409.934 364.78 409.912 366.141 410.869 366.497L425.272 371.858C425.518 371.95 425.789 371.949 426.034 371.856L440.187 366.495C441.137 366.135 441.114 364.785 440.154 364.457L426.001 359.619C425.776 359.542 425.531 359.541 425.306 359.617Z" fill="#313131" stroke="white" stroke-width="0.8125"/>
<path d="M425.306 354.617L410.902 359.455C409.934 359.78 409.912 361.141 410.869 361.497L425.272 366.858C425.518 366.95 425.789 366.949 426.034 366.856L440.187 361.495C441.137 361.135 441.114 359.785 440.154 359.457L426.001 354.619C425.776 354.542 425.531 354.541 425.306 354.617Z" fill="#313131" stroke="white" stroke-width="0.8125"/>
<path d="M425.306 350.117L410.902 354.955C409.934 355.28 409.912 356.641 410.869 356.997L425.272 362.358C425.518 362.45 425.789 362.449 426.034 362.356L440.187 356.995C441.137 356.635 441.114 355.285 440.154 354.957L426.001 350.119C425.776 350.042 425.531 350.041 425.306 350.117Z" stroke="white" stroke-width="0.8125"/>
<path d="M415 349C415 346.791 416.791 345 419 345H432C434.209 345 436 346.791 436 349V359L426.765 362.078C425.944 362.352 425.056 362.352 424.235 362.078L415 359V349Z" fill="white"/>
<rect x="418" y="350" width="14" height="5" rx="2.5" fill="#2A2A2A"/>
<circle cx="404.5" cy="317.5" r="16" stroke="white"/>
<g filter="url(#filter5_d_4581_1620)">
<path d="M398.271 320.334C398.271 317.136 400.863 314.544 404.061 314.544H405.576C408.773 314.544 411.366 317.136 411.366 320.334V325.789C411.366 326.308 410.944 326.73 410.424 326.73H399.212C398.692 326.73 398.271 326.308 398.271 325.789V320.334Z" stroke="white" stroke-width="0.541516"/>
<rect x="399.211" y="307" width="11.2121" height="11.2121" rx="5.60606" fill="#292929"/>
<rect x="400.727" y="307.91" width="8.18182" height="8.18182" rx="4.09091" fill="white"/>
</g>
</g>
<rect x="416.273" y="313.273" width="8.45455" height="8.45455" rx="4.22727" fill="#282828" stroke="white" stroke-width="0.545455"/>
<line x1="418.214" y1="317.384" x2="419.268" y2="318.551" stroke="white" stroke-linecap="round"/>
<line x1="422.917" y1="316.245" x2="419.57" y2="318.857" stroke="white" stroke-linecap="round"/>
<g filter="url(#filter6_d_4581_1620)">
<path d="M506 125C506 113.954 514.954 105 526 105H582C593.046 105 602 113.954 602 125V181C602 192.046 593.046 201 582 201H526C514.954 201 506 192.046 506 181V125Z" fill="url(#paint3_radial_4581_1620)"/>
</g>
<rect x="516" y="131" width="38" height="27" rx="6" fill="white" stroke="white" stroke-width="2"/>
<rect x="526" y="136" width="18" height="18" rx="9" fill="#202020"/>
<line x1="558.5" y1="134.5" x2="592.5" y2="134.5" stroke="white" stroke-linecap="round"/>
<line x1="558.5" y1="144.5" x2="592.5" y2="144.5" stroke="white" stroke-linecap="round"/>
<line x1="534.707" y1="146" x2="541" y2="152.293" stroke="white" stroke-linecap="round"/>
<line x1="534.5" y1="145.5" x2="534.5" y2="135.5" stroke="white" stroke-linecap="round"/>
<line x1="515.5" y1="166.5" x2="546.5" y2="166.5" stroke="white" stroke-linecap="round"/>
<line x1="551.5" y1="166.5" x2="592.5" y2="166.5" stroke="white" stroke-linecap="round"/>
<line x1="589.5" y1="149.5" x2="589.5" y2="159.5" stroke="white" stroke-width="3" stroke-linecap="round"/>
<line x1="582.5" y1="153.5" x2="582.5" y2="159.5" stroke="white" stroke-width="3" stroke-linecap="round"/>
<line x1="575.5" y1="158.5" x2="575.5" y2="159.5" stroke="white" stroke-width="3" stroke-linecap="round"/>
<line x1="515.5" y1="177.5" x2="522.5" y2="177.5" stroke="white" stroke-linecap="round"/>
<line x1="525.5" y1="177.5" x2="592.5" y2="177.5" stroke="white" stroke-linecap="round"/>
<g filter="url(#filter7_d_4581_1620)">
<path d="M641 288C641 276.954 649.954 268 661 268H691C702.046 268 711 276.954 711 288V397C711 408.046 702.046 417 691 417H661C649.954 417 641 408.046 641 397V288Z" fill="url(#paint4_radial_4581_1620)"/>
</g>
<path d="M370.202 405.725H365.366L364.365 408H363.026L367.147 398.9H368.434L372.568 408H371.203L370.202 405.725ZM369.747 404.685L367.784 400.226L365.821 404.685H369.747ZM374.94 402.267C375.156 401.868 375.477 401.565 375.902 401.357C376.326 401.149 376.842 401.045 377.449 401.045V402.254C377.379 402.245 377.284 402.241 377.163 402.241C376.487 402.241 375.954 402.445 375.564 402.852C375.182 403.251 374.992 403.823 374.992 404.568V408H373.744V401.11H374.94V402.267ZM381.926 408.078C381.224 408.078 380.596 407.926 380.041 407.623C379.495 407.32 379.066 406.904 378.754 406.375C378.442 405.838 378.286 405.231 378.286 404.555C378.286 403.879 378.442 403.277 378.754 402.748C379.066 402.211 379.495 401.795 380.041 401.5C380.596 401.197 381.224 401.045 381.926 401.045C382.55 401.045 383.105 401.171 383.59 401.422C384.084 401.673 384.466 402.037 384.734 402.514L383.785 403.125C383.569 402.796 383.3 402.549 382.979 402.384C382.659 402.219 382.303 402.137 381.913 402.137C381.463 402.137 381.055 402.237 380.691 402.436C380.336 402.635 380.054 402.921 379.846 403.294C379.647 403.658 379.547 404.078 379.547 404.555C379.547 405.04 379.647 405.469 379.846 405.842C380.054 406.206 380.336 406.488 380.691 406.687C381.055 406.886 381.463 406.986 381.913 406.986C382.303 406.986 382.659 406.904 382.979 406.739C383.3 406.574 383.569 406.327 383.785 405.998L384.734 406.596C384.466 407.073 384.084 407.441 383.59 407.701C383.105 407.952 382.55 408.078 381.926 408.078ZM388.859 401.045C389.812 401.045 390.54 401.279 391.043 401.747C391.554 402.215 391.81 402.913 391.81 403.84V408H390.627V407.09C390.419 407.411 390.12 407.658 389.73 407.831C389.349 407.996 388.894 408.078 388.365 408.078C387.594 408.078 386.974 407.892 386.506 407.519C386.047 407.146 385.817 406.657 385.817 406.05C385.817 405.443 386.038 404.958 386.48 404.594C386.922 404.221 387.624 404.035 388.586 404.035H390.562V403.788C390.562 403.251 390.406 402.839 390.094 402.553C389.782 402.267 389.323 402.124 388.716 402.124C388.309 402.124 387.91 402.193 387.52 402.332C387.13 402.462 386.801 402.64 386.532 402.865L386.012 401.929C386.367 401.643 386.792 401.426 387.286 401.279C387.78 401.123 388.304 401.045 388.859 401.045ZM388.573 407.116C389.05 407.116 389.461 407.012 389.808 406.804C390.155 406.587 390.406 406.284 390.562 405.894V404.932H388.638C387.581 404.932 387.052 405.287 387.052 405.998C387.052 406.345 387.186 406.618 387.455 406.817C387.724 407.016 388.096 407.116 388.573 407.116ZM397.799 401.045C398.674 401.045 399.367 401.301 399.879 401.812C400.399 402.315 400.659 403.056 400.659 404.035V408H399.411V404.178C399.411 403.511 399.25 403.008 398.93 402.67C398.609 402.332 398.15 402.163 397.552 402.163C396.876 402.163 396.343 402.362 395.953 402.761C395.563 403.151 395.368 403.714 395.368 404.451V408H394.12V401.11H395.316V402.15C395.567 401.795 395.905 401.522 396.33 401.331C396.763 401.14 397.253 401.045 397.799 401.045ZM405.477 401.045C406.43 401.045 407.158 401.279 407.661 401.747C408.172 402.215 408.428 402.913 408.428 403.84V408H407.245V407.09C407.037 407.411 406.738 407.658 406.348 407.831C405.967 407.996 405.512 408.078 404.983 408.078C404.212 408.078 403.592 407.892 403.124 407.519C402.665 407.146 402.435 406.657 402.435 406.05C402.435 405.443 402.656 404.958 403.098 404.594C403.54 404.221 404.242 404.035 405.204 404.035H407.18V403.788C407.18 403.251 407.024 402.839 406.712 402.553C406.4 402.267 405.941 402.124 405.334 402.124C404.927 402.124 404.528 402.193 404.138 402.332C403.748 402.462 403.419 402.64 403.15 402.865L402.63 401.929C402.985 401.643 403.41 401.426 403.904 401.279C404.398 401.123 404.922 401.045 405.477 401.045ZM405.191 407.116C405.668 407.116 406.079 407.012 406.426 406.804C406.773 406.587 407.024 406.284 407.18 405.894V404.932H405.256C404.199 404.932 403.67 405.287 403.67 405.998C403.67 406.345 403.804 406.618 404.073 406.817C404.342 407.016 404.714 407.116 405.191 407.116ZM420.209 405.725H415.373L414.372 408H413.033L417.154 398.9H418.441L422.575 408H421.21L420.209 405.725ZM419.754 404.685L417.791 400.226L415.828 404.685H419.754ZM430.045 401.11V408H428.862V406.96C428.611 407.315 428.277 407.593 427.861 407.792C427.454 407.983 427.008 408.078 426.522 408.078C425.604 408.078 424.88 407.827 424.351 407.324C423.823 406.813 423.558 406.063 423.558 405.075V401.11H424.806V404.932C424.806 405.599 424.967 406.106 425.287 406.453C425.608 406.791 426.067 406.96 426.665 406.96C427.324 406.96 427.844 406.761 428.225 406.362C428.607 405.963 428.797 405.4 428.797 404.672V401.11H430.045ZM436.295 407.597C436.113 407.753 435.888 407.874 435.619 407.961C435.351 408.039 435.073 408.078 434.787 408.078C434.094 408.078 433.557 407.892 433.175 407.519C432.794 407.146 432.603 406.613 432.603 405.92V402.137H431.433V401.11H432.603V399.602H433.851V401.11H435.827V402.137H433.851V405.868C433.851 406.241 433.942 406.527 434.124 406.726C434.315 406.925 434.584 407.025 434.93 407.025C435.312 407.025 435.637 406.917 435.905 406.7L436.295 407.597ZM441.483 401.045C442.358 401.045 443.052 401.301 443.563 401.812C444.083 402.315 444.343 403.056 444.343 404.035V408H443.095V404.178C443.095 403.511 442.935 403.008 442.614 402.67C442.293 402.332 441.834 402.163 441.236 402.163C440.56 402.163 440.027 402.362 439.637 402.761C439.247 403.151 439.052 403.714 439.052 404.451V408H437.804V398.354H439.052V402.085C439.312 401.756 439.65 401.5 440.066 401.318C440.491 401.136 440.963 401.045 441.483 401.045ZM395.938 426.104C395.253 426.104 394.59 426 393.949 425.792C393.316 425.575 392.818 425.298 392.454 424.96L392.935 423.946C393.282 424.258 393.724 424.514 394.261 424.713C394.807 424.904 395.366 424.999 395.938 424.999C396.692 424.999 397.255 424.873 397.628 424.622C398.001 424.362 398.187 424.02 398.187 423.595C398.187 423.283 398.083 423.032 397.875 422.841C397.676 422.642 397.424 422.49 397.121 422.386C396.826 422.282 396.406 422.165 395.86 422.035C395.175 421.87 394.621 421.706 394.196 421.541C393.78 421.376 393.42 421.125 393.117 420.787C392.822 420.44 392.675 419.977 392.675 419.396C392.675 418.911 392.801 418.473 393.052 418.083C393.312 417.693 393.702 417.381 394.222 417.147C394.742 416.913 395.388 416.796 396.159 416.796C396.696 416.796 397.225 416.865 397.745 417.004C398.265 417.143 398.711 417.342 399.084 417.602L398.655 418.642C398.274 418.399 397.866 418.217 397.433 418.096C397 417.966 396.575 417.901 396.159 417.901C395.422 417.901 394.868 418.035 394.495 418.304C394.131 418.573 393.949 418.919 393.949 419.344C393.949 419.656 394.053 419.912 394.261 420.111C394.469 420.302 394.725 420.453 395.028 420.566C395.34 420.67 395.76 420.783 396.289 420.904C396.974 421.069 397.524 421.233 397.94 421.398C398.356 421.563 398.711 421.814 399.006 422.152C399.309 422.49 399.461 422.945 399.461 423.517C399.461 423.994 399.331 424.431 399.071 424.83C398.811 425.22 398.417 425.532 397.888 425.766C397.359 425.991 396.709 426.104 395.938 426.104ZM401.36 416.9H405.195C406.157 416.9 407.011 417.091 407.756 417.472C408.501 417.853 409.078 418.391 409.485 419.084C409.901 419.769 410.109 420.557 410.109 421.45C410.109 422.343 409.901 423.136 409.485 423.829C409.078 424.514 408.501 425.047 407.756 425.428C407.011 425.809 406.157 426 405.195 426H401.36V416.9ZM405.117 424.869C405.854 424.869 406.499 424.726 407.054 424.44C407.617 424.154 408.051 423.755 408.354 423.244C408.657 422.724 408.809 422.126 408.809 421.45C408.809 420.774 408.657 420.18 408.354 419.669C408.051 419.149 407.617 418.746 407.054 418.46C406.499 418.174 405.854 418.031 405.117 418.031H402.66V424.869H405.117ZM415.064 421.957L413.4 423.647V426H412.1V416.9H413.4V421.983L418.34 416.9H419.822L415.935 420.995L420.069 426H418.548L415.064 421.957Z" fill="#F7F7F7"/>
<path d="M289.475 180.725H284.639L283.638 183H282.299L286.42 173.9H287.707L291.841 183H290.476L289.475 180.725ZM289.02 179.685L287.057 175.226L285.094 179.685H289.02ZM296.669 176.045C297.337 176.045 297.935 176.192 298.463 176.487C298.992 176.782 299.404 177.193 299.698 177.722C300.002 178.251 300.153 178.862 300.153 179.555C300.153 180.248 300.002 180.864 299.698 181.401C299.404 181.93 298.992 182.341 298.463 182.636C297.935 182.931 297.337 183.078 296.669 183.078C296.175 183.078 295.72 182.983 295.304 182.792C294.897 182.601 294.55 182.324 294.264 181.96V185.522H293.016V176.11H294.212V177.202C294.49 176.821 294.841 176.535 295.265 176.344C295.69 176.145 296.158 176.045 296.669 176.045ZM296.565 181.986C297.007 181.986 297.402 181.886 297.748 181.687C298.104 181.479 298.381 181.193 298.58 180.829C298.788 180.456 298.892 180.032 298.892 179.555C298.892 179.078 298.788 178.658 298.58 178.294C298.381 177.921 298.104 177.635 297.748 177.436C297.402 177.237 297.007 177.137 296.565 177.137C296.132 177.137 295.738 177.241 295.382 177.449C295.036 177.648 294.758 177.93 294.55 178.294C294.351 178.658 294.251 179.078 294.251 179.555C294.251 180.032 294.351 180.456 294.55 180.829C294.75 181.193 295.027 181.479 295.382 181.687C295.738 181.886 296.132 181.986 296.565 181.986ZM305.531 176.045C306.198 176.045 306.796 176.192 307.325 176.487C307.853 176.782 308.265 177.193 308.56 177.722C308.863 178.251 309.015 178.862 309.015 179.555C309.015 180.248 308.863 180.864 308.56 181.401C308.265 181.93 307.853 182.341 307.325 182.636C306.796 182.931 306.198 183.078 305.531 183.078C305.037 183.078 304.582 182.983 304.166 182.792C303.758 182.601 303.412 182.324 303.126 181.96V185.522H301.878V176.11H303.074V177.202C303.351 176.821 303.702 176.535 304.127 176.344C304.551 176.145 305.019 176.045 305.531 176.045ZM305.427 181.986C305.869 181.986 306.263 181.886 306.61 181.687C306.965 181.479 307.242 181.193 307.442 180.829C307.65 180.456 307.754 180.032 307.754 179.555C307.754 179.078 307.65 178.658 307.442 178.294C307.242 177.921 306.965 177.635 306.61 177.436C306.263 177.237 305.869 177.137 305.427 177.137C304.993 177.137 304.599 177.241 304.244 177.449C303.897 177.648 303.62 177.93 303.412 178.294C303.212 178.658 303.113 179.078 303.113 179.555C303.113 180.032 303.212 180.456 303.412 180.829C303.611 181.193 303.888 181.479 304.244 181.687C304.599 181.886 304.993 181.986 305.427 181.986ZM314.412 173.9H318.247C319.209 173.9 320.063 174.091 320.808 174.472C321.554 174.853 322.13 175.391 322.537 176.084C322.953 176.769 323.161 177.557 323.161 178.45C323.161 179.343 322.953 180.136 322.537 180.829C322.13 181.514 321.554 182.047 320.808 182.428C320.063 182.809 319.209 183 318.247 183H314.412V173.9ZM318.169 181.869C318.906 181.869 319.552 181.726 320.106 181.44C320.67 181.154 321.103 180.755 321.406 180.244C321.71 179.724 321.861 179.126 321.861 178.45C321.861 177.774 321.71 177.18 321.406 176.669C321.103 176.149 320.67 175.746 320.106 175.46C319.552 175.174 318.906 175.031 318.169 175.031H315.712V181.869H318.169ZM331.198 179.594C331.198 179.689 331.189 179.815 331.172 179.971H325.582C325.66 180.578 325.924 181.067 326.375 181.44C326.834 181.804 327.402 181.986 328.078 181.986C328.901 181.986 329.564 181.709 330.067 181.154L330.756 181.96C330.444 182.324 330.054 182.601 329.586 182.792C329.126 182.983 328.611 183.078 328.039 183.078C327.311 183.078 326.665 182.931 326.102 182.636C325.538 182.333 325.101 181.912 324.789 181.375C324.485 180.838 324.334 180.231 324.334 179.555C324.334 178.888 324.481 178.285 324.776 177.748C325.079 177.211 325.491 176.795 326.011 176.5C326.539 176.197 327.133 176.045 327.792 176.045C328.45 176.045 329.035 176.197 329.547 176.5C330.067 176.795 330.47 177.211 330.756 177.748C331.05 178.285 331.198 178.901 331.198 179.594ZM327.792 177.098C327.194 177.098 326.691 177.28 326.284 177.644C325.885 178.008 325.651 178.485 325.582 179.074H330.002C329.932 178.493 329.694 178.021 329.287 177.657C328.888 177.284 328.39 177.098 327.792 177.098ZM338.901 176.11L335.885 183H334.611L331.595 176.11H332.895L335.261 181.635L337.679 176.11H338.901ZM346.102 179.594C346.102 179.689 346.093 179.815 346.076 179.971H340.486C340.564 180.578 340.828 181.067 341.279 181.44C341.738 181.804 342.306 181.986 342.982 181.986C343.805 181.986 344.468 181.709 344.971 181.154L345.66 181.96C345.348 182.324 344.958 182.601 344.49 182.792C344.031 182.983 343.515 183.078 342.943 183.078C342.215 183.078 341.569 182.931 341.006 182.636C340.443 182.333 340.005 181.912 339.693 181.375C339.39 180.838 339.238 180.231 339.238 179.555C339.238 178.888 339.385 178.285 339.68 177.748C339.983 177.211 340.395 176.795 340.915 176.5C341.444 176.197 342.037 176.045 342.696 176.045C343.355 176.045 343.94 176.197 344.451 176.5C344.971 176.795 345.374 177.211 345.66 177.748C345.955 178.285 346.102 178.901 346.102 179.594ZM342.696 177.098C342.098 177.098 341.595 177.28 341.188 177.644C340.789 178.008 340.555 178.485 340.486 179.074H344.906C344.837 178.493 344.598 178.021 344.191 177.657C343.792 177.284 343.294 177.098 342.696 177.098ZM347.835 173.354H349.083V183H347.835V173.354ZM354.417 183.078C353.732 183.078 353.117 182.926 352.571 182.623C352.025 182.32 351.596 181.904 351.284 181.375C350.98 180.838 350.829 180.231 350.829 179.555C350.829 178.879 350.98 178.277 351.284 177.748C351.596 177.211 352.025 176.795 352.571 176.5C353.117 176.197 353.732 176.045 354.417 176.045C355.101 176.045 355.712 176.197 356.25 176.5C356.796 176.795 357.22 177.211 357.524 177.748C357.836 178.277 357.992 178.879 357.992 179.555C357.992 180.231 357.836 180.838 357.524 181.375C357.22 181.904 356.796 182.32 356.25 182.623C355.712 182.926 355.101 183.078 354.417 183.078ZM354.417 181.986C354.859 181.986 355.253 181.886 355.6 181.687C355.955 181.479 356.232 181.193 356.432 180.829C356.631 180.456 356.731 180.032 356.731 179.555C356.731 179.078 356.631 178.658 356.432 178.294C356.232 177.921 355.955 177.635 355.6 177.436C355.253 177.237 354.859 177.137 354.417 177.137C353.975 177.137 353.576 177.237 353.221 177.436C352.874 177.635 352.597 177.921 352.389 178.294C352.189 178.658 352.09 179.078 352.09 179.555C352.09 180.032 352.189 180.456 352.389 180.829C352.597 181.193 352.874 181.479 353.221 181.687C353.576 181.886 353.975 181.986 354.417 181.986ZM363.371 176.045C364.038 176.045 364.636 176.192 365.165 176.487C365.693 176.782 366.105 177.193 366.4 177.722C366.703 178.251 366.855 178.862 366.855 179.555C366.855 180.248 366.703 180.864 366.4 181.401C366.105 181.93 365.693 182.341 365.165 182.636C364.636 182.931 364.038 183.078 363.371 183.078C362.877 183.078 362.422 182.983 362.006 182.792C361.598 182.601 361.252 182.324 360.966 181.96V185.522H359.718V176.11H360.914V177.202C361.191 176.821 361.542 176.535 361.967 176.344C362.391 176.145 362.859 176.045 363.371 176.045ZM363.267 181.986C363.709 181.986 364.103 181.886 364.45 181.687C364.805 181.479 365.082 181.193 365.282 180.829C365.49 180.456 365.594 180.032 365.594 179.555C365.594 179.078 365.49 178.658 365.282 178.294C365.082 177.921 364.805 177.635 364.45 177.436C364.103 177.237 363.709 177.137 363.267 177.137C362.833 177.137 362.439 177.241 362.084 177.449C361.737 177.648 361.46 177.93 361.252 178.294C361.052 178.658 360.953 179.078 360.953 179.555C360.953 180.032 361.052 180.456 361.252 180.829C361.451 181.193 361.728 181.479 362.084 181.687C362.439 181.886 362.833 181.986 363.267 181.986ZM374.806 179.594C374.806 179.689 374.797 179.815 374.78 179.971H369.19C369.268 180.578 369.532 181.067 369.983 181.44C370.442 181.804 371.01 181.986 371.686 181.986C372.509 181.986 373.172 181.709 373.675 181.154L374.364 181.96C374.052 182.324 373.662 182.601 373.194 182.792C372.735 182.983 372.219 183.078 371.647 183.078C370.919 183.078 370.273 182.931 369.71 182.636C369.147 182.333 368.709 181.912 368.397 181.375C368.094 180.838 367.942 180.231 367.942 179.555C367.942 178.888 368.089 178.285 368.384 177.748C368.687 177.211 369.099 176.795 369.619 176.5C370.148 176.197 370.741 176.045 371.4 176.045C372.059 176.045 372.644 176.197 373.155 176.5C373.675 176.795 374.078 177.211 374.364 177.748C374.659 178.285 374.806 178.901 374.806 179.594ZM371.4 177.098C370.802 177.098 370.299 177.28 369.892 177.644C369.493 178.008 369.259 178.485 369.19 179.074H373.61C373.541 178.493 373.302 178.021 372.895 177.657C372.496 177.284 371.998 177.098 371.4 177.098ZM377.735 177.267C377.952 176.868 378.272 176.565 378.697 176.357C379.122 176.149 379.637 176.045 380.244 176.045V177.254C380.175 177.245 380.079 177.241 379.958 177.241C379.282 177.241 378.749 177.445 378.359 177.852C377.978 178.251 377.787 178.823 377.787 179.568V183H376.539V176.11H377.735V177.267Z" fill="#F7F7F7"/>
<path d="M234.541 410.725H229.705L228.704 413H227.365L231.486 403.9H232.773L236.907 413H235.542L234.541 410.725ZM234.086 409.685L232.123 405.226L230.16 409.685H234.086ZM241.735 406.045C242.403 406.045 243.001 406.192 243.529 406.487C244.058 406.782 244.47 407.193 244.764 407.722C245.068 408.251 245.219 408.862 245.219 409.555C245.219 410.248 245.068 410.864 244.764 411.401C244.47 411.93 244.058 412.341 243.529 412.636C243.001 412.931 242.403 413.078 241.735 413.078C241.241 413.078 240.786 412.983 240.37 412.792C239.963 412.601 239.616 412.324 239.33 411.96V415.522H238.082V406.11H239.278V407.202C239.556 406.821 239.907 406.535 240.331 406.344C240.756 406.145 241.224 406.045 241.735 406.045ZM241.631 411.986C242.073 411.986 242.468 411.886 242.814 411.687C243.17 411.479 243.447 411.193 243.646 410.829C243.854 410.456 243.958 410.032 243.958 409.555C243.958 409.078 243.854 408.658 243.646 408.294C243.447 407.921 243.17 407.635 242.814 407.436C242.468 407.237 242.073 407.137 241.631 407.137C241.198 407.137 240.804 407.241 240.448 407.449C240.102 407.648 239.824 407.93 239.616 408.294C239.417 408.658 239.317 409.078 239.317 409.555C239.317 410.032 239.417 410.456 239.616 410.829C239.816 411.193 240.093 411.479 240.448 411.687C240.804 411.886 241.198 411.986 241.631 411.986ZM250.597 406.045C251.264 406.045 251.862 406.192 252.391 406.487C252.919 406.782 253.331 407.193 253.626 407.722C253.929 408.251 254.081 408.862 254.081 409.555C254.081 410.248 253.929 410.864 253.626 411.401C253.331 411.93 252.919 412.341 252.391 412.636C251.862 412.931 251.264 413.078 250.597 413.078C250.103 413.078 249.648 412.983 249.232 412.792C248.824 412.601 248.478 412.324 248.192 411.96V415.522H246.944V406.11H248.14V407.202C248.417 406.821 248.768 406.535 249.193 406.344C249.617 406.145 250.085 406.045 250.597 406.045ZM250.493 411.986C250.935 411.986 251.329 411.886 251.676 411.687C252.031 411.479 252.308 411.193 252.508 410.829C252.716 410.456 252.82 410.032 252.82 409.555C252.82 409.078 252.716 408.658 252.508 408.294C252.308 407.921 252.031 407.635 251.676 407.436C251.329 407.237 250.935 407.137 250.493 407.137C250.059 407.137 249.665 407.241 249.31 407.449C248.963 407.648 248.686 407.93 248.478 408.294C248.278 408.658 248.179 409.078 248.179 409.555C248.179 410.032 248.278 410.456 248.478 410.829C248.677 411.193 248.954 411.479 249.31 411.687C249.665 411.886 250.059 411.986 250.493 411.986Z" fill="#F7F7F7"/>
<path d="M65.2514 380.725H60.4154L59.4144 383H58.0754L62.1964 373.9H63.4834L67.6174 383H66.2524L65.2514 380.725ZM64.7964 379.685L62.8334 375.226L60.8704 379.685H64.7964ZM72.4459 376.045C73.1132 376.045 73.7112 376.192 74.2399 376.487C74.7685 376.782 75.1802 377.193 75.4749 377.722C75.7782 378.251 75.9299 378.862 75.9299 379.555C75.9299 380.248 75.7782 380.864 75.4749 381.401C75.1802 381.93 74.7685 382.341 74.2399 382.636C73.7112 382.931 73.1132 383.078 72.4459 383.078C71.9519 383.078 71.4969 382.983 71.0809 382.792C70.6735 382.601 70.3269 382.324 70.0409 381.96V385.522H68.7929V376.11H69.9889V377.202C70.2662 376.821 70.6172 376.535 71.0419 376.344C71.4665 376.145 71.9345 376.045 72.4459 376.045ZM72.3419 381.986C72.7839 381.986 73.1782 381.886 73.5249 381.687C73.8802 381.479 74.1575 381.193 74.3569 380.829C74.5649 380.456 74.6689 380.032 74.6689 379.555C74.6689 379.078 74.5649 378.658 74.3569 378.294C74.1575 377.921 73.8802 377.635 73.5249 377.436C73.1782 377.237 72.7839 377.137 72.3419 377.137C71.9085 377.137 71.5142 377.241 71.1589 377.449C70.8122 377.648 70.5349 377.93 70.3269 378.294C70.1275 378.658 70.0279 379.078 70.0279 379.555C70.0279 380.032 70.1275 380.456 70.3269 380.829C70.5262 381.193 70.8035 381.479 71.1589 381.687C71.5142 381.886 71.9085 381.986 72.3419 381.986ZM81.3072 376.045C81.9745 376.045 82.5725 376.192 83.1012 376.487C83.6299 376.782 84.0415 377.193 84.3362 377.722C84.6395 378.251 84.7912 378.862 84.7912 379.555C84.7912 380.248 84.6395 380.864 84.3362 381.401C84.0415 381.93 83.6299 382.341 83.1012 382.636C82.5725 382.931 81.9745 383.078 81.3072 383.078C80.8132 383.078 80.3582 382.983 79.9422 382.792C79.5349 382.601 79.1882 382.324 78.9022 381.96V385.522H77.6542V376.11H78.8502V377.202C79.1275 376.821 79.4785 376.535 79.9032 376.344C80.3279 376.145 80.7959 376.045 81.3072 376.045ZM81.2032 381.986C81.6452 381.986 82.0395 381.886 82.3862 381.687C82.7415 381.479 83.0189 381.193 83.2182 380.829C83.4262 380.456 83.5302 380.032 83.5302 379.555C83.5302 379.078 83.4262 378.658 83.2182 378.294C83.0189 377.921 82.7415 377.635 82.3862 377.436C82.0395 377.237 81.6452 377.137 81.2032 377.137C80.7699 377.137 80.3755 377.241 80.0202 377.449C79.6735 377.648 79.3962 377.93 79.1882 378.294C78.9889 378.658 78.8892 379.078 78.8892 379.555C78.8892 380.032 78.9889 380.456 79.1882 380.829C79.3875 381.193 79.6649 381.479 80.0202 381.687C80.3755 381.886 80.7699 381.986 81.2032 381.986ZM93.9587 383.104C92.7454 383.104 91.8007 382.757 91.1247 382.064C90.4487 381.371 90.1107 380.374 90.1107 379.074V373.9H91.4107V379.022C91.4107 380.972 92.2644 381.947 93.9717 381.947C94.8037 381.947 95.4407 381.709 95.8827 381.232C96.3247 380.747 96.5457 380.01 96.5457 379.022V373.9H97.8067V379.074C97.8067 380.383 97.4687 381.384 96.7927 382.077C96.1167 382.762 95.1721 383.104 93.9587 383.104ZM102.266 383.078C101.703 383.078 101.161 383.004 100.641 382.857C100.121 382.701 99.7136 382.506 99.4189 382.272L99.9389 381.284C100.242 381.501 100.611 381.674 101.044 381.804C101.477 381.934 101.915 381.999 102.357 381.999C103.449 381.999 103.995 381.687 103.995 381.063C103.995 380.855 103.921 380.69 103.774 380.569C103.627 380.448 103.44 380.361 103.215 380.309C102.998 380.248 102.686 380.183 102.279 380.114C101.724 380.027 101.269 379.928 100.914 379.815C100.567 379.702 100.268 379.512 100.017 379.243C99.7656 378.974 99.6399 378.597 99.6399 378.112C99.6399 377.488 99.8999 376.99 100.42 376.617C100.94 376.236 101.638 376.045 102.513 376.045C102.972 376.045 103.432 376.101 103.891 376.214C104.35 376.327 104.727 376.478 105.022 376.669L104.489 377.657C103.926 377.293 103.263 377.111 102.5 377.111C101.971 377.111 101.568 377.198 101.291 377.371C101.014 377.544 100.875 377.774 100.875 378.06C100.875 378.285 100.953 378.463 101.109 378.593C101.265 378.723 101.456 378.818 101.681 378.879C101.915 378.94 102.24 379.009 102.656 379.087C103.211 379.182 103.657 379.286 103.995 379.399C104.342 379.503 104.636 379.685 104.879 379.945C105.122 380.205 105.243 380.569 105.243 381.037C105.243 381.661 104.974 382.159 104.437 382.532C103.908 382.896 103.185 383.078 102.266 383.078ZM113.03 379.594C113.03 379.689 113.021 379.815 113.004 379.971H107.414C107.492 380.578 107.756 381.067 108.207 381.44C108.666 381.804 109.234 381.986 109.91 381.986C110.733 381.986 111.396 381.709 111.899 381.154L112.588 381.96C112.276 382.324 111.886 382.601 111.418 382.792C110.958 382.983 110.443 383.078 109.871 383.078C109.143 383.078 108.497 382.931 107.934 382.636C107.37 382.333 106.933 381.912 106.621 381.375C106.317 380.838 106.166 380.231 106.166 379.555C106.166 378.888 106.313 378.285 106.608 377.748C106.911 377.211 107.323 376.795 107.843 376.5C108.371 376.197 108.965 376.045 109.624 376.045C110.282 376.045 110.867 376.197 111.379 376.5C111.899 376.795 112.302 377.211 112.588 377.748C112.882 378.285 113.03 378.901 113.03 379.594ZM109.624 377.098C109.026 377.098 108.523 377.28 108.116 377.644C107.717 378.008 107.483 378.485 107.414 379.074H111.834C111.764 378.493 111.526 378.021 111.119 377.657C110.72 377.284 110.222 377.098 109.624 377.098ZM115.959 377.267C116.175 376.868 116.496 376.565 116.921 376.357C117.345 376.149 117.861 376.045 118.468 376.045V377.254C118.398 377.245 118.303 377.241 118.182 377.241C117.506 377.241 116.973 377.445 116.583 377.852C116.201 378.251 116.011 378.823 116.011 379.568V383H114.763V376.11H115.959V377.267Z" fill="#F7F7F7"/>
<path d="M505.339 72.725H500.503L499.502 75H498.163L502.284 65.9H503.571L507.705 75H506.34L505.339 72.725ZM504.884 71.685L502.921 67.226L500.958 71.685H504.884ZM510.077 69.267C510.293 68.8683 510.614 68.565 511.039 68.357C511.463 68.149 511.979 68.045 512.586 68.045V69.254C512.516 69.2453 512.421 69.241 512.3 69.241C511.624 69.241 511.091 69.4447 510.701 69.852C510.319 70.2507 510.129 70.8227 510.129 71.568V75H508.881V68.11H510.077V69.267ZM517.063 75.078C516.361 75.078 515.733 74.9263 515.178 74.623C514.632 74.3197 514.203 73.9037 513.891 73.375C513.579 72.8377 513.423 72.231 513.423 71.555C513.423 70.879 513.579 70.2767 513.891 69.748C514.203 69.2107 514.632 68.7947 515.178 68.5C515.733 68.1967 516.361 68.045 517.063 68.045C517.687 68.045 518.242 68.1707 518.727 68.422C519.221 68.6733 519.603 69.0373 519.871 69.514L518.922 70.125C518.706 69.7957 518.437 69.5487 518.116 69.384C517.796 69.2193 517.44 69.137 517.05 69.137C516.6 69.137 516.192 69.2367 515.828 69.436C515.473 69.6353 515.191 69.9213 514.983 70.294C514.784 70.658 514.684 71.0783 514.684 71.555C514.684 72.0403 514.784 72.4693 514.983 72.842C515.191 73.206 515.473 73.4877 515.828 73.687C516.192 73.8863 516.6 73.986 517.05 73.986C517.44 73.986 517.796 73.9037 518.116 73.739C518.437 73.5743 518.706 73.3273 518.922 72.998L519.871 73.596C519.603 74.0727 519.221 74.441 518.727 74.701C518.242 74.9523 517.687 75.078 517.063 75.078ZM523.996 68.045C524.95 68.045 525.678 68.279 526.18 68.747C526.692 69.215 526.947 69.9127 526.947 70.84V75H525.764V74.09C525.556 74.4107 525.257 74.6577 524.867 74.831C524.486 74.9957 524.031 75.078 523.502 75.078C522.731 75.078 522.111 74.8917 521.643 74.519C521.184 74.1463 520.954 73.6567 520.954 73.05C520.954 72.4433 521.175 71.958 521.617 71.594C522.059 71.2213 522.761 71.035 523.723 71.035H525.699V70.788C525.699 70.2507 525.543 69.839 525.231 69.553C524.919 69.267 524.46 69.124 523.853 69.124C523.446 69.124 523.047 69.1933 522.657 69.332C522.267 69.462 521.938 69.6397 521.669 69.865L521.149 68.929C521.505 68.643 521.929 68.4263 522.423 68.279C522.917 68.123 523.442 68.045 523.996 68.045ZM523.71 74.116C524.187 74.116 524.599 74.012 524.945 73.804C525.292 73.5873 525.543 73.284 525.699 72.894V71.932H523.775C522.718 71.932 522.189 72.2873 522.189 72.998C522.189 73.3447 522.324 73.6177 522.592 73.817C522.861 74.0163 523.234 74.116 523.71 74.116ZM532.936 68.045C533.811 68.045 534.504 68.3007 535.016 68.812C535.536 69.3147 535.796 70.0557 535.796 71.035V75H534.548V71.178C534.548 70.5107 534.387 70.008 534.067 69.67C533.746 69.332 533.287 69.163 532.689 69.163C532.013 69.163 531.48 69.3623 531.09 69.761C530.7 70.151 530.505 70.7143 530.505 71.451V75H529.257V68.11H530.453V69.15C530.704 68.7947 531.042 68.5217 531.467 68.331C531.9 68.1403 532.39 68.045 532.936 68.045ZM540.614 68.045C541.568 68.045 542.296 68.279 542.798 68.747C543.31 69.215 543.565 69.9127 543.565 70.84V75H542.382V74.09C542.174 74.4107 541.875 74.6577 541.485 74.831C541.104 74.9957 540.649 75.078 540.12 75.078C539.349 75.078 538.729 74.8917 538.261 74.519C537.802 74.1463 537.572 73.6567 537.572 73.05C537.572 72.4433 537.793 71.958 538.235 71.594C538.677 71.2213 539.379 71.035 540.341 71.035H542.317V70.788C542.317 70.2507 542.161 69.839 541.849 69.553C541.537 69.267 541.078 69.124 540.471 69.124C540.064 69.124 539.665 69.1933 539.275 69.332C538.885 69.462 538.556 69.6397 538.287 69.865L537.767 68.929C538.123 68.643 538.547 68.4263 539.041 68.279C539.535 68.123 540.06 68.045 540.614 68.045ZM540.328 74.116C540.805 74.116 541.217 74.012 541.563 73.804C541.91 73.5873 542.161 73.284 542.317 72.894V71.932H540.393C539.336 71.932 538.807 72.2873 538.807 72.998C538.807 73.3447 538.942 73.6177 539.21 73.817C539.479 74.0163 539.852 74.116 540.328 74.116ZM549.548 65.9H553.383C554.345 65.9 555.199 66.0907 555.944 66.472C556.689 66.8533 557.266 67.3907 557.673 68.084C558.089 68.7687 558.297 69.5573 558.297 70.45C558.297 71.3427 558.089 72.1357 557.673 72.829C557.266 73.5137 556.689 74.0467 555.944 74.428C555.199 74.8093 554.345 75 553.383 75H549.548V65.9ZM553.305 73.869C554.042 73.869 554.687 73.726 555.242 73.44C555.805 73.154 556.239 72.7553 556.542 72.244C556.845 71.724 556.997 71.126 556.997 70.45C556.997 69.774 556.845 69.1803 556.542 68.669C556.239 68.149 555.805 67.746 555.242 67.46C554.687 67.174 554.042 67.031 553.305 67.031H550.848V73.869H553.305ZM566.333 71.594C566.333 71.6893 566.325 71.815 566.307 71.971H560.717C560.795 72.5777 561.06 73.0673 561.51 73.44C561.97 73.804 562.537 73.986 563.213 73.986C564.037 73.986 564.7 73.7087 565.202 73.154L565.891 73.96C565.579 74.324 565.189 74.6013 564.721 74.792C564.262 74.9827 563.746 75.078 563.174 75.078C562.446 75.078 561.801 74.9307 561.237 74.636C560.674 74.3327 560.236 73.9123 559.924 73.375C559.621 72.8377 559.469 72.231 559.469 71.555C559.469 70.8877 559.617 70.2853 559.911 69.748C560.215 69.2107 560.626 68.7947 561.146 68.5C561.675 68.1967 562.269 68.045 562.927 68.045C563.586 68.045 564.171 68.1967 564.682 68.5C565.202 68.7947 565.605 69.2107 565.891 69.748C566.186 70.2853 566.333 70.9007 566.333 71.594ZM562.927 69.098C562.329 69.098 561.827 69.28 561.419 69.644C561.021 70.008 560.787 70.4847 560.717 71.074H565.137C565.068 70.4933 564.83 70.021 564.422 69.657C564.024 69.2843 563.525 69.098 562.927 69.098ZM574.036 68.11L571.02 75H569.746L566.73 68.11H568.03L570.396 73.635L572.814 68.11H574.036ZM581.238 71.594C581.238 71.6893 581.229 71.815 581.212 71.971H575.622C575.7 72.5777 575.964 73.0673 576.415 73.44C576.874 73.804 577.442 73.986 578.118 73.986C578.941 73.986 579.604 73.7087 580.107 73.154L580.796 73.96C580.484 74.324 580.094 74.6013 579.626 74.792C579.166 74.9827 578.651 75.078 578.079 75.078C577.351 75.078 576.705 74.9307 576.142 74.636C575.578 74.3327 575.141 73.9123 574.829 73.375C574.525 72.8377 574.374 72.231 574.374 71.555C574.374 70.8877 574.521 70.2853 574.816 69.748C575.119 69.2107 575.531 68.7947 576.051 68.5C576.579 68.1967 577.173 68.045 577.832 68.045C578.49 68.045 579.075 68.1967 579.587 68.5C580.107 68.7947 580.51 69.2107 580.796 69.748C581.09 70.2853 581.238 70.9007 581.238 71.594ZM577.832 69.098C577.234 69.098 576.731 69.28 576.324 69.644C575.925 70.008 575.691 70.4847 575.622 71.074H580.042C579.972 70.4933 579.734 70.021 579.327 69.657C578.928 69.2843 578.43 69.098 577.832 69.098ZM582.971 65.354H584.219V75H582.971V65.354ZM589.552 75.078C588.868 75.078 588.252 74.9263 587.706 74.623C587.16 74.3197 586.731 73.9037 586.419 73.375C586.116 72.8377 585.964 72.231 585.964 71.555C585.964 70.879 586.116 70.2767 586.419 69.748C586.731 69.2107 587.16 68.7947 587.706 68.5C588.252 68.1967 588.868 68.045 589.552 68.045C590.237 68.045 590.848 68.1967 591.385 68.5C591.931 68.7947 592.356 69.2107 592.659 69.748C592.971 70.2767 593.127 70.879 593.127 71.555C593.127 72.231 592.971 72.8377 592.659 73.375C592.356 73.9037 591.931 74.3197 591.385 74.623C590.848 74.9263 590.237 75.078 589.552 75.078ZM589.552 73.986C589.994 73.986 590.389 73.8863 590.735 73.687C591.091 73.479 591.368 73.193 591.567 72.829C591.767 72.4563 591.866 72.0317 591.866 71.555C591.866 71.0783 591.767 70.658 591.567 70.294C591.368 69.9213 591.091 69.6353 590.735 69.436C590.389 69.2367 589.994 69.137 589.552 69.137C589.11 69.137 588.712 69.2367 588.356 69.436C588.01 69.6353 587.732 69.9213 587.524 70.294C587.325 70.658 587.225 71.0783 587.225 71.555C587.225 72.0317 587.325 72.4563 587.524 72.829C587.732 73.193 588.01 73.479 588.356 73.687C588.712 73.8863 589.11 73.986 589.552 73.986ZM598.506 68.045C599.174 68.045 599.772 68.1923 600.3 68.487C600.829 68.7817 601.241 69.1933 601.535 69.722C601.839 70.2507 601.99 70.8617 601.99 71.555C601.99 72.2483 601.839 72.8637 601.535 73.401C601.241 73.9297 600.829 74.3413 600.3 74.636C599.772 74.9307 599.174 75.078 598.506 75.078C598.012 75.078 597.557 74.9827 597.141 74.792C596.734 74.6013 596.387 74.324 596.101 73.96V77.522H594.853V68.11H596.049V69.202C596.327 68.8207 596.678 68.5347 597.102 68.344C597.527 68.1447 597.995 68.045 598.506 68.045ZM598.402 73.986C598.844 73.986 599.239 73.8863 599.585 73.687C599.941 73.479 600.218 73.193 600.417 72.829C600.625 72.4563 600.729 72.0317 600.729 71.555C600.729 71.0783 600.625 70.658 600.417 70.294C600.218 69.9213 599.941 69.6353 599.585 69.436C599.239 69.2367 598.844 69.137 598.402 69.137C597.969 69.137 597.575 69.241 597.219 69.449C596.873 69.6483 596.595 69.93 596.387 70.294C596.188 70.658 596.088 71.0783 596.088 71.555C596.088 72.0317 596.188 72.4563 596.387 72.829C596.587 73.193 596.864 73.479 597.219 73.687C597.575 73.8863 597.969 73.986 598.402 73.986ZM609.942 71.594C609.942 71.6893 609.933 71.815 609.916 71.971H604.326C604.404 72.5777 604.668 73.0673 605.119 73.44C605.578 73.804 606.146 73.986 606.822 73.986C607.645 73.986 608.308 73.7087 608.811 73.154L609.5 73.96C609.188 74.324 608.798 74.6013 608.33 74.792C607.87 74.9827 607.355 75.078 606.783 75.078C606.055 75.078 605.409 74.9307 604.846 74.636C604.282 74.3327 603.845 73.9123 603.533 73.375C603.229 72.8377 603.078 72.231 603.078 71.555C603.078 70.8877 603.225 70.2853 603.52 69.748C603.823 69.2107 604.235 68.7947 604.755 68.5C605.283 68.1967 605.877 68.045 606.536 68.045C607.194 68.045 607.779 68.1967 608.291 68.5C608.811 68.7947 609.214 69.2107 609.5 69.748C609.794 70.2853 609.942 70.9007 609.942 71.594ZM606.536 69.098C605.938 69.098 605.435 69.28 605.028 69.644C604.629 70.008 604.395 70.4847 604.326 71.074H608.746C608.676 70.4933 608.438 70.021 608.031 69.657C607.632 69.2843 607.134 69.098 606.536 69.098ZM612.871 69.267C613.087 68.8683 613.408 68.565 613.833 68.357C614.257 68.149 614.773 68.045 615.38 68.045V69.254C615.31 69.2453 615.215 69.241 615.094 69.241C614.418 69.241 613.885 69.4447 613.495 69.852C613.113 70.2507 612.923 70.8227 612.923 71.568V75H611.675V68.11H612.871V69.267ZM521.999 83.9H525.834C526.796 83.9 527.65 84.0907 528.395 84.472C529.141 84.8533 529.717 85.3907 530.124 86.084C530.54 86.7687 530.748 87.5573 530.748 88.45C530.748 89.3427 530.54 90.1357 530.124 90.829C529.717 91.5137 529.141 92.0467 528.395 92.428C527.65 92.8093 526.796 93 525.834 93H521.999V83.9ZM525.756 91.869C526.493 91.869 527.139 91.726 527.693 91.44C528.257 91.154 528.69 90.7553 528.993 90.244C529.297 89.724 529.448 89.126 529.448 88.45C529.448 87.774 529.297 87.1803 528.993 86.669C528.69 86.149 528.257 85.746 527.693 85.46C527.139 85.174 526.493 85.031 525.756 85.031H523.299V91.869H525.756ZM535.067 86.045C536.02 86.045 536.748 86.279 537.251 86.747C537.762 87.215 538.018 87.9127 538.018 88.84V93H536.835V92.09C536.627 92.4107 536.328 92.6577 535.938 92.831C535.556 92.9957 535.101 93.078 534.573 93.078C533.801 93.078 533.182 92.8917 532.714 92.519C532.254 92.1463 532.025 91.6567 532.025 91.05C532.025 90.4433 532.246 89.958 532.688 89.594C533.13 89.2213 533.832 89.035 534.794 89.035H536.77V88.788C536.77 88.2507 536.614 87.839 536.302 87.553C535.99 87.267 535.53 87.124 534.924 87.124C534.516 87.124 534.118 87.1933 533.728 87.332C533.338 87.462 533.008 87.6397 532.74 87.865L532.22 86.929C532.575 86.643 533 86.4263 533.494 86.279C533.988 86.123 534.512 86.045 535.067 86.045ZM534.781 92.116C535.257 92.116 535.669 92.012 536.016 91.804C536.362 91.5873 536.614 91.284 536.77 90.894V89.932H534.846C533.788 89.932 533.26 90.2873 533.26 90.998C533.26 91.3447 533.394 91.6177 533.663 91.817C533.931 92.0163 534.304 92.116 534.781 92.116ZM542.303 93.078C541.74 93.078 541.198 93.0043 540.678 92.857C540.158 92.701 539.751 92.506 539.456 92.272L539.976 91.284C540.279 91.5007 540.648 91.674 541.081 91.804C541.514 91.934 541.952 91.999 542.394 91.999C543.486 91.999 544.032 91.687 544.032 91.063C544.032 90.855 543.958 90.6903 543.811 90.569C543.664 90.4477 543.477 90.361 543.252 90.309C543.035 90.2483 542.723 90.1833 542.316 90.114C541.761 90.0273 541.306 89.9277 540.951 89.815C540.604 89.7023 540.305 89.5117 540.054 89.243C539.803 88.9743 539.677 88.5973 539.677 88.112C539.677 87.488 539.937 86.9897 540.457 86.617C540.977 86.2357 541.675 86.045 542.55 86.045C543.009 86.045 543.469 86.1013 543.928 86.214C544.387 86.3267 544.764 86.4783 545.059 86.669L544.526 87.657C543.963 87.293 543.3 87.111 542.537 87.111C542.008 87.111 541.605 87.1977 541.328 87.371C541.051 87.5443 540.912 87.774 540.912 88.06C540.912 88.2853 540.99 88.463 541.146 88.593C541.302 88.723 541.493 88.8183 541.718 88.879C541.952 88.9397 542.277 89.009 542.693 89.087C543.248 89.1823 543.694 89.2863 544.032 89.399C544.379 89.503 544.673 89.685 544.916 89.945C545.159 90.205 545.28 90.569 545.28 91.037C545.28 91.661 545.011 92.1593 544.474 92.532C543.945 92.896 543.222 93.078 542.303 93.078ZM550.519 86.045C551.394 86.045 552.087 86.3007 552.599 86.812C553.119 87.3147 553.379 88.0557 553.379 89.035V93H552.131V89.178C552.131 88.5107 551.97 88.008 551.65 87.67C551.329 87.332 550.87 87.163 550.272 87.163C549.596 87.163 549.063 87.3623 548.673 87.761C548.283 88.151 548.088 88.7143 548.088 89.451V93H546.84V83.354H548.088V87.085C548.348 86.7557 548.686 86.5 549.102 86.318C549.526 86.136 549.999 86.045 550.519 86.045ZM559.341 86.045C560.009 86.045 560.607 86.1923 561.135 86.487C561.664 86.7817 562.076 87.1933 562.37 87.722C562.674 88.2507 562.825 88.8617 562.825 89.555C562.825 90.2483 562.674 90.8637 562.37 91.401C562.076 91.9297 561.664 92.3413 561.135 92.636C560.607 92.9307 560.009 93.078 559.341 93.078C558.83 93.078 558.362 92.9783 557.937 92.779C557.513 92.5797 557.162 92.2893 556.884 91.908V93H555.688V83.354H556.936V87.15C557.214 86.786 557.56 86.513 557.976 86.331C558.392 86.1403 558.847 86.045 559.341 86.045ZM559.237 91.986C559.679 91.986 560.074 91.8863 560.42 91.687C560.776 91.479 561.053 91.193 561.252 90.829C561.46 90.4563 561.564 90.0317 561.564 89.555C561.564 89.0783 561.46 88.658 561.252 88.294C561.053 87.9213 560.776 87.6353 560.42 87.436C560.074 87.2367 559.679 87.137 559.237 87.137C558.804 87.137 558.41 87.2367 558.054 87.436C557.699 87.6353 557.422 87.9213 557.222 88.294C557.023 88.658 556.923 89.0783 556.923 89.555C556.923 90.0317 557.023 90.4563 557.222 90.829C557.422 91.193 557.699 91.479 558.054 91.687C558.41 91.8863 558.804 91.986 559.237 91.986ZM567.501 93.078C566.816 93.078 566.201 92.9263 565.655 92.623C565.109 92.3197 564.68 91.9037 564.368 91.375C564.064 90.8377 563.913 90.231 563.913 89.555C563.913 88.879 564.064 88.2767 564.368 87.748C564.68 87.2107 565.109 86.7947 565.655 86.5C566.201 86.1967 566.816 86.045 567.501 86.045C568.185 86.045 568.796 86.1967 569.334 86.5C569.88 86.7947 570.304 87.2107 570.608 87.748C570.92 88.2767 571.076 88.879 571.076 89.555C571.076 90.231 570.92 90.8377 570.608 91.375C570.304 91.9037 569.88 92.3197 569.334 92.623C568.796 92.9263 568.185 93.078 567.501 93.078ZM567.501 91.986C567.943 91.986 568.337 91.8863 568.684 91.687C569.039 91.479 569.316 91.193 569.516 90.829C569.715 90.4563 569.815 90.0317 569.815 89.555C569.815 89.0783 569.715 88.658 569.516 88.294C569.316 87.9213 569.039 87.6353 568.684 87.436C568.337 87.2367 567.943 87.137 567.501 87.137C567.059 87.137 566.66 87.2367 566.305 87.436C565.958 87.6353 565.681 87.9213 565.473 88.294C565.273 88.658 565.174 89.0783 565.174 89.555C565.174 90.0317 565.273 90.4563 565.473 90.829C565.681 91.193 565.958 91.479 566.305 91.687C566.66 91.8863 567.059 91.986 567.501 91.986ZM575.247 86.045C576.201 86.045 576.929 86.279 577.431 86.747C577.943 87.215 578.198 87.9127 578.198 88.84V93H577.015V92.09C576.807 92.4107 576.508 92.6577 576.118 92.831C575.737 92.9957 575.282 93.078 574.753 93.078C573.982 93.078 573.362 92.8917 572.894 92.519C572.435 92.1463 572.205 91.6567 572.205 91.05C572.205 90.4433 572.426 89.958 572.868 89.594C573.31 89.2213 574.012 89.035 574.974 89.035H576.95V88.788C576.95 88.2507 576.794 87.839 576.482 87.553C576.17 87.267 575.711 87.124 575.104 87.124C574.697 87.124 574.298 87.1933 573.908 87.332C573.518 87.462 573.189 87.6397 572.92 87.865L572.4 86.929C572.756 86.643 573.18 86.4263 573.674 86.279C574.168 86.123 574.693 86.045 575.247 86.045ZM574.961 92.116C575.438 92.116 575.85 92.012 576.196 91.804C576.543 91.5873 576.794 91.284 576.95 90.894V89.932H575.026C573.969 89.932 573.44 90.2873 573.44 90.998C573.44 91.3447 573.575 91.6177 573.843 91.817C574.112 92.0163 574.485 92.116 574.961 92.116ZM581.704 87.267C581.92 86.8683 582.241 86.565 582.666 86.357C583.09 86.149 583.606 86.045 584.213 86.045V87.254C584.143 87.2453 584.048 87.241 583.927 87.241C583.251 87.241 582.718 87.4447 582.328 87.852C581.946 88.2507 581.756 88.8227 581.756 89.568V93H580.508V86.11H581.704V87.267ZM592.187 83.354V93H590.991V91.908C590.714 92.2893 590.363 92.5797 589.938 92.779C589.514 92.9783 589.046 93.078 588.534 93.078C587.867 93.078 587.269 92.9307 586.74 92.636C586.212 92.3413 585.796 91.9297 585.492 91.401C585.198 90.8637 585.05 90.2483 585.05 89.555C585.05 88.8617 585.198 88.2507 585.492 87.722C585.796 87.1933 586.212 86.7817 586.74 86.487C587.269 86.1923 587.867 86.045 588.534 86.045C589.028 86.045 589.483 86.1403 589.899 86.331C590.315 86.513 590.662 86.786 590.939 87.15V83.354H592.187ZM588.638 91.986C589.072 91.986 589.466 91.8863 589.821 91.687C590.177 91.479 590.454 91.193 590.653 90.829C590.853 90.4563 590.952 90.0317 590.952 89.555C590.952 89.0783 590.853 88.658 590.653 88.294C590.454 87.9213 590.177 87.6353 589.821 87.436C589.466 87.2367 589.072 87.137 588.638 87.137C588.196 87.137 587.798 87.2367 587.442 87.436C587.096 87.6353 586.818 87.9213 586.61 88.294C586.411 88.658 586.311 89.0783 586.311 89.555C586.311 90.0317 586.411 90.4563 586.61 90.829C586.818 91.193 587.096 91.479 587.442 91.687C587.798 91.8863 588.196 91.986 588.638 91.986Z" fill="#F7F7F7"/>
<path d="M487.707 150.707C488.098 150.317 488.098 149.683 487.707 149.293L481.343 142.929C480.953 142.538 480.319 142.538 479.929 142.929C479.538 143.319 479.538 143.953 479.929 144.343L485.586 150L479.929 155.657C479.538 156.047 479.538 156.681 479.929 157.071C480.319 157.462 480.953 157.462 481.343 157.071L487.707 150.707ZM372 151L487 151V149L372 149V151Z" fill="#F7F7F7"/>
<path d="M54.3791 344.668C54.3791 340.192 58.0081 336.563 62.4848 336.563H64.6061C69.0828 336.563 72.7118 340.192 72.7118 344.668V352.305C72.7118 353.033 72.1218 353.623 71.3939 353.623H55.697C54.9691 353.623 54.3791 353.033 54.3791 352.305V344.668Z" stroke="#F7F7F7" stroke-width="0.758123"/>
<rect x="55.6953" y="326" width="15.697" height="15.697" rx="7.84848" fill="white"/>
<rect x="57.8164" y="327.273" width="11.4545" height="11.4545" rx="5.72727" fill="#F7F7F7"/>
<path d="M79.3791 344.668C79.3791 340.192 83.0081 336.563 87.4848 336.563H89.6061C94.0828 336.563 97.7118 340.192 97.7118 344.668V352.305C97.7118 353.033 97.1218 353.623 96.3939 353.623H80.697C79.9691 353.623 79.3791 353.033 79.3791 352.305V344.668Z" stroke="#F7F7F7" stroke-width="0.758123"/>
<rect x="80.6953" y="326" width="15.697" height="15.697" rx="7.84848" fill="white"/>
<rect x="82.8164" y="327.273" width="11.4545" height="11.4545" rx="5.72727" fill="#F7F7F7"/>
<path d="M105.379 344.668C105.379 340.192 109.008 336.563 113.485 336.563H115.606C120.083 336.563 123.712 340.192 123.712 344.668V352.305C123.712 353.033 123.122 353.623 122.394 353.623H106.697C105.969 353.623 105.379 353.033 105.379 352.305V344.668Z" stroke="#F7F7F7" stroke-width="0.758123"/>
<rect x="106.695" y="326" width="15.697" height="15.697" rx="7.84848" fill="white"/>
<rect x="108.816" y="327.273" width="11.4545" height="11.4545" rx="5.72727" fill="#F7F7F7"/>
<rect x="168" y="217" width="311" height="256" rx="36" stroke="#F7F7F7" stroke-width="2" stroke-dasharray="6 6"/>
<rect width="15.9355" height="16.7323" rx="5.1556" transform="matrix(-0.626127 -0.779721 -0.779721 0.626127 681.023 318.547)" fill="white"/>
<line x1="2.39032" y1="-2.39032" x2="23.1065" y2="-2.39032" transform="matrix(0.779721 -0.626127 -0.626127 -0.779721 667.375 316.453)" stroke="white" stroke-width="4.78065" stroke-linecap="round"/>
<line x1="1.59355" y1="-1.59355" x2="7.17097" y2="-1.59355" transform="matrix(0.626127 0.779721 0.779721 -0.626127 676.93 301.625)" stroke="#383838" stroke-width="3.1871" stroke-linecap="round"/>
<rect width="9.18172" height="9.18172" rx="4.59086" transform="matrix(-0.626127 -0.779721 -0.779721 0.626127 675.906 318.059)" fill="#2B2B2B"/>
<line x1="1.59355" y1="-1.59355" x2="7.17097" y2="-1.59355" transform="matrix(0.626127 0.779721 0.779721 -0.626127 681.281 298.133)" stroke="#383838" stroke-width="3.1871" stroke-linecap="round"/>
<rect width="15.9355" height="16.7323" rx="5.1556" transform="matrix(-0.626127 -0.779721 -0.779721 0.626127 681.023 348.547)" fill="white"/>
<line x1="2.39032" y1="-2.39032" x2="23.1065" y2="-2.39032" transform="matrix(0.779721 -0.626127 -0.626127 -0.779721 667.375 346.453)" stroke="white" stroke-width="4.78065" stroke-linecap="round"/>
<line x1="1.59355" y1="-1.59355" x2="7.17097" y2="-1.59355" transform="matrix(0.626127 0.779721 0.779721 -0.626127 676.93 331.625)" stroke="#383838" stroke-width="3.1871" stroke-linecap="round"/>
<rect width="9.18172" height="9.18172" rx="4.59086" transform="matrix(-0.626127 -0.779721 -0.779721 0.626127 675.906 348.059)" fill="#2B2B2B"/>
<line x1="1.59355" y1="-1.59355" x2="7.17097" y2="-1.59355" transform="matrix(0.626127 0.779721 0.779721 -0.626127 681.281 328.133)" stroke="#383838" stroke-width="3.1871" stroke-linecap="round"/>
<rect width="15.9355" height="16.7323" rx="5.1556" transform="matrix(-0.626127 -0.779721 -0.779721 0.626127 681.023 378.547)" fill="white"/>
<line x1="2.39032" y1="-2.39032" x2="23.1065" y2="-2.39032" transform="matrix(0.779721 -0.626127 -0.626127 -0.779721 667.375 376.453)" stroke="white" stroke-width="4.78065" stroke-linecap="round"/>
<line x1="1.59355" y1="-1.59355" x2="7.17097" y2="-1.59355" transform="matrix(0.626127 0.779721 0.779721 -0.626127 676.93 361.625)" stroke="#383838" stroke-width="3.1871" stroke-linecap="round"/>
<rect width="9.18172" height="9.18172" rx="4.59086" transform="matrix(-0.626127 -0.779721 -0.779721 0.626127 675.906 378.059)" fill="#2B2B2B"/>
<line x1="1.59355" y1="-1.59355" x2="7.17097" y2="-1.59355" transform="matrix(0.626127 0.779721 0.779721 -0.626127 681.281 358.133)" stroke="#383838" stroke-width="3.1871" stroke-linecap="round"/>
<path d="M633.707 343.707C634.098 343.317 634.098 342.683 633.707 342.293L627.343 335.929C626.953 335.538 626.319 335.538 625.929 335.929C625.538 336.319 625.538 336.953 625.929 337.343L631.586 343L625.929 348.657C625.538 349.047 625.538 349.681 625.929 350.071C626.319 350.462 626.953 350.462 627.343 350.071L633.707 343.707ZM480 344L633 344L633 342L480 342L480 344Z" fill="#F7F7F7"/>
<defs>
<filter id="filter0_d_4581_1620" x="191" y="290" width="104" height="105" filterUnits="userSpaceOnUse" color-interpolation-filters="sRGB">
<feFlood flood-opacity="0" result="BackgroundImageFix"/>
<feColorMatrix in="SourceAlpha" type="matrix" values="0 0 0 0 0 0 0 0 0 0 0 0 0 0 0 0 0 0 127 0" result="hardAlpha"/>
<feOffset dx="4" dy="5"/>
<feGaussianBlur stdDeviation="2"/>
<feColorMatrix type="matrix" values="0 0 0 0 0 0 0 0 0 0 0 0 0 0 0 0 0 0 0.25 0"/>
<feBlend mode="normal" in2="BackgroundImageFix" result="effect1_dropShadow_4581_1620"/>
<feBlend mode="normal" in="SourceGraphic" in2="effect1_dropShadow_4581_1620" result="shape"/>
</filter>
<filter id="filter1_d_4581_1620" x="191" y="290" width="104" height="105" filterUnits="userSpaceOnUse" color-interpolation-filters="sRGB">
<feFlood flood-opacity="0" result="BackgroundImageFix"/>
<feColorMatrix in="SourceAlpha" type="matrix" values="0 0 0 0 0 0 0 0 0 0 0 0 0 0 0 0 0 0 127 0" result="hardAlpha"/>
<feOffset dx="4" dy="5"/>
<feGaussianBlur stdDeviation="2"/>
<feColorMatrix type="matrix" values="0 0 0 0 0 0 0 0 0 0 0 0 0 0 0 0 0 0 0.25 0"/>
<feBlend mode="normal" in2="BackgroundImageFix" result="effect1_dropShadow_4581_1620"/>
<feBlend mode="normal" in="SourceGraphic" in2="effect1_dropShadow_4581_1620" result="shape"/>
</filter>
<filter id="filter2_d_4581_1620" x="318" y="119" width="53.0898" height="62" filterUnits="userSpaceOnUse" color-interpolation-filters="sRGB">
<feFlood flood-opacity="0" result="BackgroundImageFix"/>
<feColorMatrix in="SourceAlpha" type="matrix" values="0 0 0 0 0 0 0 0 0 0 0 0 0 0 0 0 0 0 127 0" result="hardAlpha"/>
<feOffset dx="13" dy="5"/>
<feGaussianBlur stdDeviation="8.5"/>
<feColorMatrix type="matrix" values="0 0 0 0 0 0 0 0 0 0 0 0 0 0 0 0 0 0 0.15 0"/>
<feBlend mode="normal" in2="BackgroundImageFix" result="effect1_dropShadow_4581_1620"/>
<feBlend mode="normal" in="SourceGraphic" in2="effect1_dropShadow_4581_1620" result="shape"/>
</filter>
<filter id="filter3_d_4581_1620" x="352" y="278" width="130" height="130" filterUnits="userSpaceOnUse" color-interpolation-filters="sRGB">
<feFlood flood-opacity="0" result="BackgroundImageFix"/>
<feColorMatrix in="SourceAlpha" type="matrix" values="0 0 0 0 0 0 0 0 0 0 0 0 0 0 0 0 0 0 127 0" result="hardAlpha"/>
<feOffset dx="13" dy="5"/>
<feGaussianBlur stdDeviation="8.5"/>
<feColorMatrix type="matrix" values="0 0 0 0 0 0 0 0 0 0 0 0 0 0 0 0 0 0 0.15 0"/>
<feBlend mode="normal" in2="BackgroundImageFix" result="effect1_dropShadow_4581_1620"/>
<feBlend mode="normal" in="SourceGraphic" in2="effect1_dropShadow_4581_1620" result="shape"/>
</filter>
<filter id="filter4_d_4581_1620" x="356" y="290" width="104" height="105" filterUnits="userSpaceOnUse" color-interpolation-filters="sRGB">
<feFlood flood-opacity="0" result="BackgroundImageFix"/>
<feColorMatrix in="SourceAlpha" type="matrix" values="0 0 0 0 0 0 0 0 0 0 0 0 0 0 0 0 0 0 127 0" result="hardAlpha"/>
<feOffset dx="4" dy="5"/>
<feGaussianBlur stdDeviation="2"/>
<feColorMatrix type="matrix" values="0 0 0 0 0 0 0 0 0 0 0 0 0 0 0 0 0 0 0.25 0"/>
<feBlend mode="normal" in2="BackgroundImageFix" result="effect1_dropShadow_4581_1620"/>
<feBlend mode="normal" in="SourceGraphic" in2="effect1_dropShadow_4581_1620" result="shape"/>
</filter>
<filter id="filter5_d_4581_1620" x="395.143" y="298.429" width="37.9224" height="44.2857" filterUnits="userSpaceOnUse" color-interpolation-filters="sRGB">
<feFlood flood-opacity="0" result="BackgroundImageFix"/>
<feColorMatrix in="SourceAlpha" type="matrix" values="0 0 0 0 0 0 0 0 0 0 0 0 0 0 0 0 0 0 127 0" result="hardAlpha"/>
<feOffset dx="9.28571" dy="3.57143"/>
<feGaussianBlur stdDeviation="6.07143"/>
<feColorMatrix type="matrix" values="0 0 0 0 0 0 0 0 0 0 0 0 0 0 0 0 0 0 0.15 0"/>
<feBlend mode="normal" in2="BackgroundImageFix" result="effect1_dropShadow_4581_1620"/>
<feBlend mode="normal" in="SourceGraphic" in2="effect1_dropShadow_4581_1620" result="shape"/>
</filter>
<filter id="filter6_d_4581_1620" x="506" y="105" width="104" height="105" filterUnits="userSpaceOnUse" color-interpolation-filters="sRGB">
<feFlood flood-opacity="0" result="BackgroundImageFix"/>
<feColorMatrix in="SourceAlpha" type="matrix" values="0 0 0 0 0 0 0 0 0 0 0 0 0 0 0 0 0 0 127 0" result="hardAlpha"/>
<feOffset dx="4" dy="5"/>
<feGaussianBlur stdDeviation="2"/>
<feColorMatrix type="matrix" values="0 0 0 0 0 0 0 0 0 0 0 0 0 0 0 0 0 0 0.25 0"/>
<feBlend mode="normal" in2="BackgroundImageFix" result="effect1_dropShadow_4581_1620"/>
<feBlend mode="normal" in="SourceGraphic" in2="effect1_dropShadow_4581_1620" result="shape"/>
</filter>
<filter id="filter7_d_4581_1620" x="641" y="268" width="78" height="158" filterUnits="userSpaceOnUse" color-interpolation-filters="sRGB">
<feFlood flood-opacity="0" result="BackgroundImageFix"/>
<feColorMatrix in="SourceAlpha" type="matrix" values="0 0 0 0 0 0 0 0 0 0 0 0 0 0 0 0 0 0 127 0" result="hardAlpha"/>
<feOffset dx="4" dy="5"/>
<feGaussianBlur stdDeviation="2"/>
<feColorMatrix type="matrix" values="0 0 0 0 0 0 0 0 0 0 0 0 0 0 0 0 0 0 0.25 0"/>
<feBlend mode="normal" in2="BackgroundImageFix" result="effect1_dropShadow_4581_1620"/>
<feBlend mode="normal" in="SourceGraphic" in2="effect1_dropShadow_4581_1620" result="shape"/>
</filter>
<radialGradient id="paint0_radial_4581_1620" cx="0" cy="0" r="1" gradientUnits="userSpaceOnUse" gradientTransform="translate(168.356 277.613) rotate(40.0117) scale(168.579 754.283)">
<stop stop-color="#3A3A3A"/>
<stop offset="1" stop-color="#202020"/>
</radialGradient>
<radialGradient id="paint1_radial_4581_1620" cx="0" cy="0" r="1" gradientUnits="userSpaceOnUse" gradientTransform="translate(168.356 277.613) rotate(40.0117) scale(168.579 754.283)">
<stop stop-color="#3A3A3A"/>
<stop offset="1" stop-color="#202020"/>
</radialGradient>
<radialGradient id="paint2_radial_4581_1620" cx="0" cy="0" r="1" gradientUnits="userSpaceOnUse" gradientTransform="translate(333.356 277.613) rotate(40.0117) scale(168.579 754.283)">
<stop stop-color="#3A3A3A"/>
<stop offset="1" stop-color="#202020"/>
</radialGradient>
<radialGradient id="paint3_radial_4581_1620" cx="0" cy="0" r="1" gradientUnits="userSpaceOnUse" gradientTransform="translate(483.356 92.6129) rotate(40.0117) scale(168.579 754.283)">
<stop stop-color="#3A3A3A"/>
<stop offset="1" stop-color="#202020"/>
</radialGradient>
<radialGradient id="paint4_radial_4581_1620" cx="0" cy="0" r="1" gradientUnits="userSpaceOnUse" gradientTransform="translate(624.489 248.774) rotate(60.7664) scale(192.779 746.485)">
<stop stop-color="#3A3A3A"/>
<stop offset="1" stop-color="#202020"/>
</radialGradient>
</defs>
</svg>
