<svg width="35" height="26" viewBox="0 0 35 26" fill="none" xmlns="http://www.w3.org/2000/svg">
<path fill-rule="evenodd" clip-rule="evenodd" d="M22.486 23.2465C23.0564 23.9739 23.7694 24.58 24.5825 25.0286C25.3956 25.4771 26.2919 25.7589 27.2178 25.8569C28.1437 25.955 29.0801 25.8673 29.9709 25.5991C30.8617 25.331 31.6885 24.8879 32.4019 24.2964C33.1152 23.7049 33.7004 22.9772 34.1223 22.1569C34.5442 21.3366 34.7942 20.4406 34.8573 19.5225C34.9204 18.6044 34.7952 17.6832 34.4894 16.8141C34.1836 15.945 33.7033 15.1458 33.0774 14.4644L22.9974 2.5934C21.8231 1.15534 20.1191 0.236845 18.2598 0.0397785C16.4004 -0.157288 14.538 0.383198 13.0818 1.54245C11.6733 2.75811 10.8109 4.47668 10.6842 6.32042C10.5575 8.16415 11.1768 9.98216 12.406 11.3748L22.486 23.2465ZM29.8818 21.3288C29.22 21.8558 28.3734 22.1015 27.5283 22.012C26.6832 21.9225 25.9086 21.505 25.3748 20.8513L15.2948 8.98278C14.7362 8.34975 14.4547 7.52346 14.5122 6.68545C14.5697 5.84744 14.9616 5.06629 15.6017 4.51362C16.2636 3.98658 17.1102 3.74082 17.9555 3.83034C18.8007 3.91987 19.5754 4.33735 20.1093 4.99104L30.1893 16.8571C30.4663 17.1706 30.6782 17.5349 30.8128 17.9294C30.9473 18.3238 31.0019 18.7405 30.9734 19.1558C30.9449 19.571 30.8339 19.9767 30.6467 20.3495C30.4595 20.7224 30.1998 21.0551 29.8824 21.3288H29.8818Z" fill="url(#paint0_linear)"/>
<path fill-rule="evenodd" clip-rule="evenodd" d="M12.33 23.2465C11.1557 24.6847 9.45154 25.6034 7.59207 25.8004C5.73261 25.9975 3.87005 25.4569 2.4138 24.2975C1.00519 23.0817 0.142796 21.3629 0.0161947 19.5191C-0.110407 17.6752 0.509148 15.8571 1.73866 14.4644L11.8187 2.5934C12.993 1.15534 14.697 0.236845 16.5563 0.0397785C18.4156 -0.157288 20.2781 0.383198 21.7343 1.54245C23.1428 2.75811 24.0052 4.47668 24.1319 6.32042C24.2586 8.16415 23.6393 9.98216 22.41 11.3748L12.33 23.2465ZM4.93427 21.3288C5.59611 21.8558 6.44264 22.1015 7.28777 22.012C8.13291 21.9225 8.90748 21.505 9.44125 20.8513L19.52 8.98278C20.0787 8.34975 20.3602 7.52346 20.3026 6.68545C20.2451 5.84744 19.8532 5.06629 19.2132 4.51362C18.5513 3.98678 17.7048 3.74113 16.8597 3.83065C16.0146 3.92017 15.2401 4.33753 14.7062 4.99104L4.62682 16.8571C4.34977 17.1706 4.13795 17.535 4.00345 17.9294C3.86896 18.3239 3.81443 18.7406 3.84298 19.1559C3.87153 19.5712 3.98261 19.9768 4.16985 20.3496C4.3571 20.7224 4.61685 21.0552 4.93427 21.3288Z" fill="url(#paint1_linear)"/>
<defs>
<linearGradient id="paint0_linear" x1="22.7706" y1="-1.16531" x2="22.7706" y2="25.9217" gradientUnits="userSpaceOnUse">
<stop stop-color="#0085FF"/>
<stop offset="1" stop-color="#29C8FA"/>
</linearGradient>
<linearGradient id="paint1_linear" x1="12.0741" y1="-1.16281" x2="12.0741" y2="25.866" gradientUnits="userSpaceOnUse">
<stop stop-color="#0085FF"/>
<stop offset="1" stop-color="#29C8FA"/>
</linearGradient>
</defs>
</svg>
