<svg width="872" height="718" viewBox="0 0 872 718" fill="none" xmlns="http://www.w3.org/2000/svg">
<rect width="872" height="718" fill="black"/>
<path d="M696.5 530L696.5 527.4L695.5 527.4L695.5 530L696.5 530ZM696.5 522.2L696.5 517L695.5 517L695.5 522.2L696.5 522.2ZM696.5 511.8L696.5 506.6L695.5 506.6L695.5 511.8L696.5 511.8ZM696.5 501.4L696.5 496.2L695.5 496.2L695.5 501.4L696.5 501.4ZM696.5 491L696.5 485.8L695.5 485.8L695.5 491L696.5 491ZM696.5 480.6L696.5 475.4L695.5 475.4L695.5 480.6L696.5 480.6ZM696.5 470.2L696.5 465L695.5 465L695.5 470.2L696.5 470.2ZM696.5 459.8L696.5 454.6L695.5 454.6L695.5 459.8L696.5 459.8ZM696.5 449.4L696.5 444.2L695.5 444.2L695.5 449.4L696.5 449.4ZM696.5 439L696.5 433.8L695.5 433.8L695.5 439L696.5 439ZM696.5 428.6L696.5 426L695.5 426L695.5 428.6L696.5 428.6ZM697 530L697 527.4L695 527.4L695 530L697 530ZM697 522.2L697 517L695 517L695 522.2L697 522.2ZM697 511.8L697 506.6L695 506.6L695 511.8L697 511.8ZM697 501.4L697 496.2L695 496.2L695 501.4L697 501.4ZM697 491L697 485.8L695 485.8L695 491L697 491ZM697 480.6L697 475.4L695 475.4L695 480.6L697 480.6ZM697 470.2L697 465L695 465L695 470.2L697 470.2ZM697 459.8L697 454.6L695 454.6L695 459.8L697 459.8ZM697 449.4L697 444.2L695 444.2L695 449.4L697 449.4ZM697 439L697 433.8L695 433.8L695 439L697 439ZM697 428.6L697 426L695 426L695 428.6L697 428.6Z" fill="white"/>
<path d="M530.646 564.646C530.451 564.842 530.451 565.158 530.646 565.354L533.828 568.536C534.024 568.731 534.34 568.731 534.536 568.536C534.731 568.34 534.731 568.024 534.536 567.828L531.707 565L534.536 562.172C534.731 561.976 534.731 561.66 534.536 561.464C534.34 561.269 534.024 561.269 533.828 561.464L530.646 564.646ZM696 564.5L693.574 564.5L693.574 565.5L696 565.5L696 564.5ZM688.721 564.5L683.868 564.5L683.868 565.5L688.721 565.5L688.721 564.5ZM679.015 564.5L674.162 564.5L674.162 565.5L679.015 565.5L679.015 564.5ZM669.309 564.5L664.456 564.5L664.456 565.5L669.309 565.5L669.309 564.5ZM659.603 564.5L654.75 564.5L654.75 565.5L659.603 565.5L659.603 564.5ZM649.897 564.5L645.044 564.5L645.044 565.5L649.897 565.5L649.897 564.5ZM640.191 564.5L635.338 564.5L635.338 565.5L640.191 565.5L640.191 564.5ZM630.485 564.5L625.632 564.5L625.632 565.5L630.485 565.5L630.485 564.5ZM620.779 564.5L615.926 564.5L615.926 565.5L620.779 565.5L620.779 564.5ZM611.074 564.5L606.221 564.5L606.221 565.5L611.074 565.5L611.074 564.5ZM601.368 564.5L596.515 564.5L596.515 565.5L601.368 565.5L601.368 564.5ZM591.662 564.5L586.809 564.5L586.809 565.5L591.662 565.5L591.662 564.5ZM581.956 564.5L577.103 564.5L577.103 565.5L581.956 565.5L581.956 564.5ZM572.25 564.5L567.397 564.5L567.397 565.5L572.25 565.5L572.25 564.5ZM562.544 564.5L557.691 564.5L557.691 565.5L562.544 565.5L562.544 564.5ZM552.838 564.5L547.985 564.5L547.985 565.5L552.838 565.5L552.838 564.5ZM543.132 564.5L538.279 564.5L538.279 565.5L543.132 565.5L543.132 564.5ZM533.426 564.5L531 564.5L531 565.5L533.426 565.5L533.426 564.5ZM530.293 564.293C529.902 564.683 529.902 565.317 530.293 565.707L536.657 572.071C537.047 572.462 537.681 572.462 538.071 572.071C538.462 571.681 538.462 571.047 538.071 570.657L532.414 565L538.071 559.343C538.462 558.953 538.462 558.319 538.071 557.929C537.681 557.538 537.047 557.538 536.657 557.929L530.293 564.293ZM696 564L693.574 564L693.574 566L696 566L696 564ZM688.721 564L683.868 564L683.868 566L688.721 566L688.721 564ZM679.015 564L674.162 564L674.162 566L679.015 566L679.015 564ZM669.309 564L664.456 564L664.456 566L669.309 566L669.309 564ZM659.603 564L654.75 564L654.75 566L659.603 566L659.603 564ZM649.897 564L645.044 564L645.044 566L649.897 566L649.897 564ZM640.191 564L635.338 564L635.338 566L640.191 566L640.191 564ZM630.485 564L625.632 564L625.632 566L630.485 566L630.485 564ZM620.779 564L615.926 564L615.926 566L620.779 566L620.779 564ZM611.074 564L606.221 564L606.221 566L611.074 566L611.074 564ZM601.368 564L596.515 564L596.515 566L601.368 566L601.368 564ZM591.662 564L586.809 564L586.809 566L591.662 566L591.662 564ZM581.956 564L577.103 564L577.103 566L581.956 566L581.956 564ZM572.25 564L567.397 564L567.397 566L572.25 566L572.25 564ZM562.544 564L557.691 564L557.691 566L562.544 566L562.544 564ZM552.838 564L547.985 564L547.985 566L552.838 566L552.838 564ZM543.132 564L538.279 564L538.279 566L543.132 566L543.132 564ZM533.426 564L531 564L531 566L533.426 566L533.426 564Z" fill="white"/>
<path d="M139.68 250.128V254.512C139.008 253.728 138.032 253.36 136.928 253.36C134.448 253.36 132.608 255.072 132.608 257.728C132.608 260.384 134.448 262.112 136.928 262.112C138.096 262.112 139.088 261.712 139.76 260.896V262H141.68V250.128H139.68ZM137.168 260.4C135.728 260.4 134.624 259.36 134.624 257.728C134.624 256.096 135.728 255.056 137.168 255.056C138.608 255.056 139.712 256.096 139.712 257.728C139.712 259.36 138.608 260.4 137.168 260.4ZM152.872 262H155.048L149.992 250.8H147.944L142.904 262H145.048L146.152 259.408H151.752L152.872 262ZM146.856 257.776L148.952 252.88L151.064 257.776H146.856ZM161.017 253.36C159.849 253.36 158.857 253.76 158.185 254.576V253.456H156.281V265.104H158.281V260.96C158.969 261.744 159.929 262.112 161.017 262.112C163.513 262.112 165.353 260.384 165.353 257.728C165.353 255.088 163.513 253.36 161.017 253.36ZM160.793 260.4C159.353 260.4 158.249 259.36 158.249 257.728C158.249 256.096 159.353 255.056 160.793 255.056C162.233 255.056 163.321 256.096 163.321 257.728C163.321 259.36 162.233 260.4 160.793 260.4ZM171.986 253.36C170.818 253.36 169.826 253.76 169.154 254.576V253.456H167.25V265.104H169.25V260.96C169.938 261.744 170.898 262.112 171.986 262.112C174.482 262.112 176.322 260.384 176.322 257.728C176.322 255.088 174.482 253.36 171.986 253.36ZM171.762 260.4C170.322 260.4 169.218 259.36 169.218 257.728C169.218 256.096 170.322 255.056 171.762 255.056C173.202 255.056 174.29 256.096 174.29 257.728C174.29 259.36 173.202 260.4 171.762 260.4Z" fill="white"/>
<path d="M370.888 262H373.064L368.008 250.8H365.96L360.92 262H363.064L364.168 259.408H369.768L370.888 262ZM364.872 257.776L366.968 252.88L369.08 257.776H364.872ZM376.2 254.704V253.456H374.296V262H376.296V257.856C376.296 256.112 377.256 255.216 378.776 255.216C378.92 255.216 379.064 255.232 379.24 255.264V253.36C377.816 253.36 376.776 253.808 376.2 254.704ZM384.779 262.112C386.443 262.112 387.771 261.392 388.427 260.112L386.891 259.216C386.379 260.032 385.611 260.4 384.763 260.4C383.291 260.4 382.171 259.392 382.171 257.728C382.171 256.08 383.291 255.056 384.763 255.056C385.611 255.056 386.379 255.424 386.891 256.24L388.427 255.344C387.771 254.048 386.443 253.36 384.779 253.36C382.075 253.36 380.155 255.168 380.155 257.728C380.155 260.288 382.075 262.112 384.779 262.112ZM393.42 253.36C392.044 253.36 390.716 253.712 389.804 254.416L390.588 255.872C391.228 255.344 392.22 255.024 393.18 255.024C394.604 255.024 395.308 255.712 395.308 256.88V257.008H393.1C390.508 257.008 389.548 258.128 389.548 259.552C389.548 261.04 390.78 262.112 392.732 262.112C394.012 262.112 394.94 261.696 395.42 260.96V262H397.308V256.992C397.308 254.528 395.884 253.36 393.42 253.36ZM393.148 260.656C392.124 260.656 391.516 260.192 391.516 259.472C391.516 258.848 391.884 258.336 393.244 258.336H395.308V259.328C394.972 260.208 394.124 260.656 393.148 260.656ZM404.723 253.36C403.475 253.36 402.435 253.776 401.779 254.56V253.456H399.875V262H401.875V257.68C401.875 255.968 402.835 255.104 404.259 255.104C405.539 255.104 406.291 255.84 406.291 257.36V262H408.291V257.104C408.291 254.528 406.771 253.36 404.723 253.36ZM414.092 253.36C412.716 253.36 411.388 253.712 410.476 254.416L411.26 255.872C411.9 255.344 412.892 255.024 413.852 255.024C415.276 255.024 415.98 255.712 415.98 256.88V257.008H413.772C411.18 257.008 410.22 258.128 410.22 259.552C410.22 261.04 411.452 262.112 413.404 262.112C414.684 262.112 415.612 261.696 416.092 260.96V262H417.98V256.992C417.98 254.528 416.556 253.36 414.092 253.36ZM413.82 260.656C412.796 260.656 412.188 260.192 412.188 259.472C412.188 258.848 412.556 258.336 413.916 258.336H415.98V259.328C415.644 260.208 414.796 260.656 413.82 260.656ZM432.808 259.76C432.088 260.176 431.304 260.336 430.504 260.336C428.136 260.336 426.456 258.672 426.456 256.4C426.456 254.08 428.136 252.464 430.52 252.464C431.72 252.464 432.728 252.864 433.608 253.744L434.92 252.464C433.864 251.264 432.296 250.64 430.424 250.64C426.92 250.64 424.36 253.056 424.36 256.4C424.36 259.744 426.92 262.16 430.392 262.16C431.976 262.16 433.608 261.68 434.776 260.736V256.272H432.808V259.76ZM440.592 253.36C439.216 253.36 437.888 253.712 436.976 254.416L437.76 255.872C438.4 255.344 439.392 255.024 440.352 255.024C441.776 255.024 442.48 255.712 442.48 256.88V257.008H440.272C437.68 257.008 436.72 258.128 436.72 259.552C436.72 261.04 437.952 262.112 439.904 262.112C441.184 262.112 442.112 261.696 442.592 260.96V262H444.48V256.992C444.48 254.528 443.056 253.36 440.592 253.36ZM440.32 260.656C439.296 260.656 438.688 260.192 438.688 259.472C438.688 258.848 439.056 258.336 440.416 258.336H442.48V259.328C442.144 260.208 441.296 260.656 440.32 260.656ZM451.622 260.112C451.318 260.352 450.918 260.464 450.502 260.464C449.734 260.464 449.318 260.016 449.318 259.184V255.12H451.606V253.52H449.318V251.568H447.318V253.52H445.91V255.12H447.318V259.232C447.318 261.12 448.39 262.112 450.262 262.112C450.982 262.112 451.702 261.92 452.182 261.536L451.622 260.112ZM461.578 257.776C461.578 255.104 459.754 253.36 457.258 253.36C454.714 253.36 452.842 255.184 452.842 257.728C452.842 260.272 454.698 262.112 457.562 262.112C459.034 262.112 460.234 261.632 461.002 260.72L459.93 259.488C459.322 260.112 458.57 260.416 457.61 260.416C456.122 260.416 455.082 259.616 454.842 258.368H461.546C461.562 258.176 461.578 257.936 461.578 257.776ZM457.258 254.96C458.57 254.96 459.514 255.808 459.674 257.04H454.826C455.018 255.792 455.962 254.96 457.258 254.96ZM474.895 253.456L472.575 259.792L470.271 253.456H468.591L466.239 259.76L463.983 253.456H462.095L465.231 262H467.151L469.391 256.112L471.599 262H473.519L476.671 253.456H474.895ZM481.045 253.36C479.669 253.36 478.341 253.712 477.429 254.416L478.213 255.872C478.853 255.344 479.845 255.024 480.805 255.024C482.229 255.024 482.933 255.712 482.933 256.88V257.008H480.725C478.133 257.008 477.173 258.128 477.173 259.552C477.173 261.04 478.405 262.112 480.357 262.112C481.637 262.112 482.565 261.696 483.045 260.96V262H484.933V256.992C484.933 254.528 483.509 253.36 481.045 253.36ZM480.773 260.656C479.749 260.656 479.141 260.192 479.141 259.472C479.141 258.848 479.509 258.336 480.869 258.336H482.933V259.328C482.597 260.208 481.749 260.656 480.773 260.656ZM493.423 253.456L490.719 259.776L488.031 253.456H485.951L489.679 262.032L489.535 262.368C489.151 263.216 488.735 263.552 488.031 263.552C487.487 263.552 486.943 263.328 486.559 262.96L485.759 264.432C486.303 264.928 487.199 265.216 488.047 265.216C489.471 265.216 490.559 264.624 491.343 262.688L495.343 253.456H493.423Z" fill="white"/>
<path d="M628.888 262H631.064L626.008 250.8H623.96L618.92 262H621.064L622.168 259.408H627.768L628.888 262ZM622.872 257.776L624.968 252.88L627.08 257.776H622.872ZM634.2 254.704V253.456H632.296V262H634.296V257.856C634.296 256.112 635.256 255.216 636.776 255.216C636.92 255.216 637.064 255.232 637.24 255.264V253.36C635.816 253.36 634.776 253.808 634.2 254.704ZM642.779 262.112C644.443 262.112 645.771 261.392 646.427 260.112L644.891 259.216C644.379 260.032 643.611 260.4 642.763 260.4C641.291 260.4 640.171 259.392 640.171 257.728C640.171 256.08 641.291 255.056 642.763 255.056C643.611 255.056 644.379 255.424 644.891 256.24L646.427 255.344C645.771 254.048 644.443 253.36 642.779 253.36C640.075 253.36 638.155 255.168 638.155 257.728C638.155 260.288 640.075 262.112 642.779 262.112ZM651.42 253.36C650.044 253.36 648.716 253.712 647.804 254.416L648.588 255.872C649.228 255.344 650.22 255.024 651.18 255.024C652.604 255.024 653.308 255.712 653.308 256.88V257.008H651.1C648.508 257.008 647.548 258.128 647.548 259.552C647.548 261.04 648.78 262.112 650.732 262.112C652.012 262.112 652.94 261.696 653.42 260.96V262H655.308V256.992C655.308 254.528 653.884 253.36 651.42 253.36ZM651.148 260.656C650.124 260.656 649.516 260.192 649.516 259.472C649.516 258.848 649.884 258.336 651.244 258.336H653.308V259.328C652.972 260.208 652.124 260.656 651.148 260.656ZM662.723 253.36C661.475 253.36 660.435 253.776 659.779 254.56V253.456H657.875V262H659.875V257.68C659.875 255.968 660.835 255.104 662.259 255.104C663.539 255.104 664.291 255.84 664.291 257.36V262H666.291V257.104C666.291 254.528 664.771 253.36 662.723 253.36ZM672.092 253.36C670.716 253.36 669.388 253.712 668.476 254.416L669.26 255.872C669.9 255.344 670.892 255.024 671.852 255.024C673.276 255.024 673.98 255.712 673.98 256.88V257.008H671.772C669.18 257.008 668.22 258.128 668.22 259.552C668.22 261.04 669.452 262.112 671.404 262.112C672.684 262.112 673.612 261.696 674.092 260.96V262H675.98V256.992C675.98 254.528 674.556 253.36 672.092 253.36ZM671.82 260.656C670.796 260.656 670.188 260.192 670.188 259.472C670.188 258.848 670.556 258.336 671.916 258.336H673.98V259.328C673.644 260.208 672.796 260.656 671.82 260.656ZM691.096 256.176C691.96 255.712 692.536 254.864 692.536 253.712C692.536 251.936 691.096 250.8 688.408 250.8H683.16V262H688.728C691.608 262 693.112 260.88 693.112 258.96C693.112 257.504 692.296 256.56 691.096 256.176ZM688.184 252.432C689.624 252.432 690.44 252.944 690.44 253.984C690.44 255.008 689.624 255.52 688.184 255.52H685.24V252.432H688.184ZM688.6 260.368H685.24V257.136H688.6C690.168 257.136 691.016 257.632 691.016 258.752C691.016 259.872 690.168 260.368 688.6 260.368ZM695.14 262H697.14V250.128H695.14V262ZM703.605 262.112C706.261 262.112 708.165 260.288 708.165 257.728C708.165 255.168 706.261 253.36 703.605 253.36C700.981 253.36 699.061 255.168 699.061 257.728C699.061 260.288 700.981 262.112 703.605 262.112ZM703.605 260.4C702.165 260.4 701.077 259.36 701.077 257.728C701.077 256.096 702.165 255.056 703.605 255.056C705.061 255.056 706.149 256.096 706.149 257.728C706.149 259.36 705.061 260.4 703.605 260.4ZM713.998 262.112C715.662 262.112 716.99 261.392 717.646 260.112L716.11 259.216C715.598 260.032 714.83 260.4 713.982 260.4C712.51 260.4 711.39 259.392 711.39 257.728C711.39 256.08 712.51 255.056 713.982 255.056C714.83 255.056 715.598 255.424 716.11 256.24L717.646 255.344C716.99 254.048 715.662 253.36 713.998 253.36C711.294 253.36 709.374 255.168 709.374 257.728C709.374 260.288 711.294 262.112 713.998 262.112ZM725.744 262H728.176L724.272 257.04L727.84 253.456H725.44L721.296 257.296V250.128H719.296V262H721.296V259.744L722.784 258.336L725.744 262ZM733.029 262.112C734.693 262.112 736.021 261.392 736.677 260.112L735.141 259.216C734.629 260.032 733.861 260.4 733.013 260.4C731.541 260.4 730.421 259.392 730.421 257.728C730.421 256.08 731.541 255.056 733.013 255.056C733.861 255.056 734.629 255.424 735.141 256.24L736.677 255.344C736.021 254.048 734.693 253.36 733.029 253.36C730.325 253.36 728.405 255.168 728.405 257.728C728.405 260.288 730.325 262.112 733.029 262.112ZM741.67 253.36C740.294 253.36 738.966 253.712 738.054 254.416L738.838 255.872C739.478 255.344 740.47 255.024 741.43 255.024C742.854 255.024 743.558 255.712 743.558 256.88V257.008H741.35C738.758 257.008 737.798 258.128 737.798 259.552C737.798 261.04 739.03 262.112 740.982 262.112C742.262 262.112 743.19 261.696 743.67 260.96V262H745.558V256.992C745.558 254.528 744.134 253.36 741.67 253.36ZM741.398 260.656C740.374 260.656 739.766 260.192 739.766 259.472C739.766 258.848 740.134 258.336 741.494 258.336H743.558V259.328C743.222 260.208 742.374 260.656 741.398 260.656ZM752.973 253.36C751.789 253.36 750.781 253.744 750.125 254.448V250.128H748.125V262H750.125V257.68C750.125 255.968 751.085 255.104 752.509 255.104C753.789 255.104 754.541 255.84 754.541 257.36V262H756.541V257.104C756.541 254.528 755.021 253.36 752.973 253.36ZM760.086 252.048C760.838 252.048 761.366 251.504 761.366 250.8C761.366 250.144 760.822 249.648 760.086 249.648C759.35 249.648 758.806 250.176 758.806 250.848C758.806 251.52 759.35 252.048 760.086 252.048ZM759.078 262H761.078V253.456H759.078V262ZM768.551 253.36C767.303 253.36 766.263 253.776 765.607 254.56V253.456H763.703V262H765.703V257.68C765.703 255.968 766.663 255.104 768.087 255.104C769.367 255.104 770.119 255.84 770.119 257.36V262H772.119V257.104C772.119 254.528 770.599 253.36 768.551 253.36Z" fill="white"/>
<g filter="url(#filter0_d_567_426)">
<g filter="url(#filter1_d_567_426)">
<path d="M99 338C99 307.624 123.624 283 154 283C184.376 283 209 307.624 209 338C209 368.376 184.376 393 154 393C123.624 393 99 368.376 99 338Z" fill="url(#paint0_radial_567_426)"/>
</g>
</g>
<circle cx="198.584" cy="339.5" r="2.41558" fill="white"/>
<circle cx="110.416" cy="339.5" r="2.41558" fill="white"/>
<circle cx="192.678" cy="317.458" r="2.41558" transform="rotate(-30 192.678 317.458)" fill="white"/>
<circle cx="116.322" cy="361.542" r="2.41558" transform="rotate(-30 116.322 361.542)" fill="white"/>
<circle cx="176.542" cy="301.322" r="2.41558" transform="rotate(-60 176.542 301.322)" fill="white"/>
<circle cx="132.458" cy="377.678" r="2.41558" transform="rotate(-60 132.458 377.678)" fill="white"/>
<circle cx="154.5" cy="295.415" r="2.41558" transform="rotate(-90 154.5 295.415)" fill="white"/>
<circle cx="154.5" cy="338.641" r="2.41558" transform="rotate(-90 154.5 338.641)" fill="white"/>
<circle cx="154.5" cy="338.845" r="5.89437" transform="rotate(-90 154.5 338.845)" fill="white"/>
<circle cx="154.5" cy="383.584" r="2.41558" transform="rotate(-90 154.5 383.584)" fill="white"/>
<circle cx="132.458" cy="301.322" r="2.41558" transform="rotate(-120 132.458 301.322)" fill="white"/>
<circle cx="176.542" cy="377.678" r="2.41558" transform="rotate(-120 176.542 377.678)" fill="white"/>
<circle cx="116.322" cy="317.458" r="2.41558" transform="rotate(-150 116.322 317.458)" fill="white"/>
<circle cx="192.678" cy="361.542" r="2.41558" transform="rotate(-150 192.678 361.542)" fill="white"/>
<line x1="117.25" y1="318.5" x2="117.25" y2="359.5" stroke="white" stroke-width="0.5"/>
<line x1="192.25" y1="318.5" x2="192.25" y2="359.5" stroke="white" stroke-width="0.5"/>
<line x1="154.022" y1="295.803" x2="191.463" y2="317.544" stroke="white" stroke-width="0.5"/>
<line y1="-0.25" x2="43.2956" y2="-0.25" transform="matrix(-0.864789 0.502136 0.502136 0.864789 155.104 296.02)" stroke="white" stroke-width="0.5"/>
<line x1="154.978" y1="383.197" x2="117.537" y2="361.456" stroke="white" stroke-width="0.5"/>
<line y1="-0.25" x2="43.2956" y2="-0.25" transform="matrix(0.864789 -0.502135 -0.502135 -0.864789 153.896 382.98)" stroke="white" stroke-width="0.5"/>
<line x1="134" y1="302.25" x2="173" y2="302.25" stroke="white" stroke-width="0.5"/>
<line x1="110.803" y1="339.978" x2="132.543" y2="302.537" stroke="white" stroke-width="0.5"/>
<line y1="-0.25" x2="43.2956" y2="-0.25" transform="matrix(0.502136 0.864789 0.864789 -0.502136 111.019 338.896)" stroke="white" stroke-width="0.5"/>
<line x1="198.197" y1="339.022" x2="176.457" y2="376.463" stroke="white" stroke-width="0.5"/>
<line y1="-0.25" x2="43.2956" y2="-0.25" transform="matrix(-0.502136 -0.864789 -0.864789 0.502136 197.981 340.104)" stroke="white" stroke-width="0.5"/>
<path d="M387.504 477H392.4C396.032 477 398.512 474.76 398.512 471.4C398.512 468.04 396.032 465.8 392.4 465.8H387.504V477ZM389.584 475.24V467.56H392.304C394.8 467.56 396.416 469.08 396.416 471.4C396.416 473.72 394.8 475.24 392.304 475.24H389.584ZM408.531 477H410.963L405.971 470.808L410.675 465.8H408.339L402.803 471.544V465.8H400.723V477H402.803V474.136L404.579 472.312L408.531 477ZM419.621 474.76C418.901 475.176 418.117 475.336 417.317 475.336C414.949 475.336 413.269 473.672 413.269 471.4C413.269 469.08 414.949 467.464 417.333 467.464C418.533 467.464 419.541 467.864 420.421 468.744L421.733 467.464C420.677 466.264 419.109 465.64 417.237 465.64C413.733 465.64 411.173 468.056 411.173 471.4C411.173 474.744 413.733 477.16 417.205 477.16C418.789 477.16 420.421 476.68 421.589 475.736V471.272H419.621V474.76ZM436.642 465.8V473.384L430.466 465.8H428.754V477H430.818V469.416L436.994 477H438.706V465.8H436.642ZM445.355 477.112C448.011 477.112 449.915 475.288 449.915 472.728C449.915 470.168 448.011 468.36 445.355 468.36C442.731 468.36 440.811 470.168 440.811 472.728C440.811 475.288 442.731 477.112 445.355 477.112ZM445.355 475.4C443.915 475.4 442.827 474.36 442.827 472.728C442.827 471.096 443.915 470.056 445.355 470.056C446.811 470.056 447.899 471.096 447.899 472.728C447.899 474.36 446.811 475.4 445.355 475.4ZM458.196 465.128V469.512C457.524 468.728 456.548 468.36 455.444 468.36C452.964 468.36 451.124 470.072 451.124 472.728C451.124 475.384 452.964 477.112 455.444 477.112C456.612 477.112 457.604 476.712 458.276 475.896V477H460.196V465.128H458.196ZM455.684 475.4C454.244 475.4 453.14 474.36 453.14 472.728C453.14 471.096 454.244 470.056 455.684 470.056C457.124 470.056 458.228 471.096 458.228 472.728C458.228 474.36 457.124 475.4 455.684 475.4ZM470.844 472.776C470.844 470.104 469.02 468.36 466.524 468.36C463.98 468.36 462.108 470.184 462.108 472.728C462.108 475.272 463.964 477.112 466.828 477.112C468.3 477.112 469.5 476.632 470.268 475.72L469.196 474.488C468.588 475.112 467.836 475.416 466.876 475.416C465.388 475.416 464.348 474.616 464.108 473.368H470.812C470.828 473.176 470.844 472.936 470.844 472.776ZM466.524 469.96C467.836 469.96 468.78 470.808 468.94 472.04H464.092C464.284 470.792 465.228 469.96 466.524 469.96Z" fill="white"/>
<path d="M230.646 347.646C230.451 347.842 230.451 348.158 230.646 348.354L233.828 351.536C234.024 351.731 234.34 351.731 234.536 351.536C234.731 351.34 234.731 351.024 234.536 350.828L231.707 348L234.536 345.172C234.731 344.976 234.731 344.66 234.536 344.464C234.34 344.269 234.024 344.269 233.828 344.464L230.646 347.646ZM346 347.5L231 347.5L231 348.5L346 348.5L346 347.5Z" fill="white"/>
<path d="M156 428L156 568" stroke="white"/>
<path d="M216.354 377.646C216.158 377.451 215.842 377.451 215.646 377.646L212.464 380.828C212.269 381.024 212.269 381.34 212.464 381.536C212.66 381.731 212.976 381.731 213.172 381.536L216 378.707L218.828 381.536C219.024 381.731 219.34 381.731 219.536 381.536C219.731 381.34 219.731 381.024 219.536 380.828L216.354 377.646ZM215.5 378L215.5 471L216.5 471L216.5 378L215.5 378Z" fill="white"/>
<path d="M242 471H216" stroke="white"/>
<path d="M289 471H263" stroke="white"/>
<path d="M289 471L289 524" stroke="white"/>
<path d="M289 524L352 524" stroke="white"/>
<path d="M329.354 568.354C329.549 568.158 329.549 567.842 329.354 567.646L326.172 564.464C325.976 564.269 325.66 564.269 325.464 564.464C325.269 564.66 325.269 564.976 325.464 565.172L328.293 568L325.464 570.828C325.269 571.024 325.269 571.34 325.464 571.536C325.66 571.731 325.976 571.731 326.172 571.536L329.354 568.354ZM329 567.5H187V568.5H329V567.5Z" fill="white"/>
<path d="M346.354 320.354C346.549 320.158 346.549 319.842 346.354 319.646L343.172 316.464C342.976 316.269 342.66 316.269 342.464 316.464C342.269 316.66 342.269 316.976 342.464 317.172L345.293 320L342.464 322.828C342.269 323.024 342.269 323.34 342.464 323.536C342.66 323.731 342.976 323.731 343.172 323.536L346.354 320.354ZM231 320.5H346V319.5H231V320.5Z" fill="white"/>
<path d="M177.688 567.696H175.704V565.44H173.752V567.696H170.088L175.288 560.8H173.064L167.544 568.016V569.456H173.688V572H175.704V569.456H177.688V567.696Z" fill="white"/>
<path d="M141.128 410.8V412.544H143.496V422H145.576V410.8H141.128ZM149.062 419.456C148.326 419.456 147.766 419.984 147.766 420.784C147.766 421.36 148.07 421.776 148.518 421.968L147.878 424.416H149.174L149.99 422.16C150.278 421.424 150.358 421.136 150.358 420.784C150.358 420 149.814 419.456 149.062 419.456ZM159.124 416.112C160.036 415.616 160.548 414.816 160.548 413.76C160.548 411.84 158.852 410.64 156.356 410.64C153.876 410.64 152.196 411.84 152.196 413.76C152.196 414.816 152.692 415.616 153.588 416.112C152.436 416.64 151.796 417.552 151.796 418.784C151.796 420.864 153.572 422.16 156.356 422.16C159.14 422.16 160.948 420.864 160.948 418.784C160.948 417.552 160.292 416.64 159.124 416.112ZM156.356 412.272C157.636 412.272 158.5 412.848 158.5 413.856C158.5 414.816 157.684 415.424 156.356 415.424C155.044 415.424 154.244 414.816 154.244 413.856C154.244 412.848 155.076 412.272 156.356 412.272ZM156.356 420.528C154.82 420.528 153.892 419.856 153.892 418.72C153.892 417.616 154.82 416.928 156.356 416.928C157.892 416.928 158.852 417.616 158.852 418.72C158.852 419.856 157.892 420.528 156.356 420.528ZM163.718 419.456C162.982 419.456 162.422 419.984 162.422 420.784C162.422 421.36 162.726 421.776 163.174 421.968L162.534 424.416H163.83L164.646 422.16C164.934 421.424 165.014 421.136 165.014 420.784C165.014 420 164.47 419.456 163.718 419.456ZM170.136 410.64C167.848 410.64 166.04 412.048 166.04 414.272C166.04 416.368 167.688 417.712 169.896 417.712C171.144 417.712 172.216 417.328 172.888 416.544V416.56C172.888 419.104 171.56 420.416 169.448 420.416C168.664 420.416 167.928 420.272 167.32 419.872L166.552 421.44C167.304 421.92 168.376 422.16 169.496 422.16C172.744 422.16 174.984 420.048 174.984 416.208C174.984 412.608 173.192 410.64 170.136 410.64ZM170.296 416.08C168.936 416.08 168.056 415.344 168.056 414.176C168.056 413.008 168.952 412.272 170.248 412.272C171.736 412.272 172.568 413.104 172.568 414.16C172.568 415.264 171.64 416.08 170.296 416.08Z" fill="white"/>
<path d="M247.448 464.8V468.464H249.384V466.56H253.784L249.576 476H251.8L256.152 466.192V464.8H247.448Z" fill="white"/>
<path d="M429.208 675.136H428.136L428.376 672.544H433.192V670.8H426.616L426.04 676.896H428.744C431.064 676.896 431.752 677.568 431.752 678.64C431.752 679.696 430.872 680.352 429.384 680.352C428.12 680.352 426.904 679.92 426.088 679.248L425.208 680.864C426.232 681.68 427.832 682.16 429.416 682.16C432.424 682.16 433.848 680.528 433.848 678.56C433.848 676.576 432.52 675.136 429.208 675.136Z" fill="white"/>
<path d="M696.792 548.088C695.544 548.088 694.472 548.472 693.8 549.256V549.24C693.8 546.696 695.128 545.384 697.24 545.384C698.024 545.384 698.76 545.528 699.368 545.928L700.136 544.36C699.384 543.88 698.312 543.64 697.192 543.64C693.944 543.64 691.704 545.752 691.704 549.592C691.704 553.192 693.496 555.16 696.552 555.16C698.84 555.16 700.648 553.752 700.648 551.528C700.648 549.432 699 548.088 696.792 548.088ZM696.44 553.528C694.952 553.528 694.12 552.696 694.12 551.64C694.12 550.536 695.048 549.72 696.392 549.72C697.752 549.72 698.632 550.456 698.632 551.624C698.632 552.792 697.736 553.528 696.44 553.528Z" fill="white"/>
<path d="M503.646 347.646C503.451 347.842 503.451 348.158 503.646 348.354L506.828 351.536C507.024 351.731 507.34 351.731 507.536 351.536C507.731 351.34 507.731 351.024 507.536 350.828L504.707 348L507.536 345.172C507.731 344.976 507.731 344.66 507.536 344.464C507.34 344.269 507.024 344.269 506.828 344.464L503.646 347.646ZM619 347.5L504 347.5L504 348.5L619 348.5L619 347.5Z" fill="white"/>
<path d="M619.354 320.354C619.549 320.158 619.549 319.842 619.354 319.646L616.172 316.464C615.976 316.269 615.66 316.269 615.464 316.464C615.269 316.66 615.269 316.976 615.464 317.172L618.293 320L615.464 322.828C615.269 323.024 615.269 323.34 615.464 323.536C615.66 323.731 615.976 323.731 616.172 323.536L619.354 320.354ZM504 320.5H619V319.5H504V320.5Z" fill="white"/>
<path d="M400.976 167.16C404.048 167.16 405.504 165.624 405.504 163.832C405.504 159.72 398.864 161.272 398.864 158.888C398.864 158.04 399.568 157.368 401.296 157.368C402.272 157.368 403.376 157.656 404.384 158.248L405.04 156.632C404.064 155.992 402.656 155.64 401.312 155.64C398.24 155.64 396.8 157.176 396.8 158.984C396.8 163.144 403.456 161.56 403.456 163.976C403.456 164.808 402.72 165.432 400.976 165.432C399.6 165.432 398.176 164.92 397.28 164.2L396.56 165.816C397.488 166.616 399.232 167.16 400.976 167.16ZM411.951 165.112C411.647 165.352 411.247 165.464 410.831 165.464C410.062 165.464 409.647 165.016 409.647 164.184V160.12H411.935V158.52H409.647V156.568H407.647V158.52H406.239V160.12H407.647V164.232C407.647 166.12 408.719 167.112 410.591 167.112C411.311 167.112 412.031 166.92 412.511 166.536L411.951 165.112ZM417.715 167.112C420.371 167.112 422.275 165.288 422.275 162.728C422.275 160.168 420.371 158.36 417.715 158.36C415.091 158.36 413.171 160.168 413.171 162.728C413.171 165.288 415.091 167.112 417.715 167.112ZM417.715 165.4C416.275 165.4 415.187 164.36 415.187 162.728C415.187 161.096 416.275 160.056 417.715 160.056C419.171 160.056 420.259 161.096 420.259 162.728C420.259 164.36 419.171 165.4 417.715 165.4ZM426.091 159.704V158.456H424.187V167H426.187V162.856C426.187 161.112 427.147 160.216 428.667 160.216C428.811 160.216 428.955 160.232 429.131 160.264V158.36C427.707 158.36 426.667 158.808 426.091 159.704ZM434.045 158.36C432.669 158.36 431.341 158.712 430.429 159.416L431.213 160.872C431.853 160.344 432.845 160.024 433.805 160.024C435.229 160.024 435.933 160.712 435.933 161.88V162.008H433.725C431.133 162.008 430.173 163.128 430.173 164.552C430.173 166.04 431.405 167.112 433.357 167.112C434.637 167.112 435.565 166.696 436.045 165.96V167H437.933V161.992C437.933 159.528 436.509 158.36 434.045 158.36ZM433.773 165.656C432.749 165.656 432.141 165.192 432.141 164.472C432.141 163.848 432.509 163.336 433.869 163.336H435.933V164.328C435.597 165.208 434.749 165.656 433.773 165.656ZM447.154 158.456V159.592C446.45 158.744 445.394 158.36 444.194 158.36C441.746 158.36 439.874 159.992 439.874 162.472C439.874 164.952 441.746 166.616 444.194 166.616C445.346 166.616 446.354 166.248 447.058 165.48V165.928C447.058 167.656 446.226 168.52 444.338 168.52C443.154 168.52 441.938 168.12 441.186 167.496L440.29 169C441.266 169.8 442.85 170.216 444.45 170.216C447.442 170.216 449.058 168.808 449.058 165.704V158.456H447.154ZM444.498 164.92C442.978 164.92 441.89 163.928 441.89 162.472C441.89 161.032 442.978 160.056 444.498 160.056C446.002 160.056 447.09 161.032 447.09 162.472C447.09 163.928 446.002 164.92 444.498 164.92ZM459.719 162.776C459.719 160.104 457.895 158.36 455.399 158.36C452.855 158.36 450.983 160.184 450.983 162.728C450.983 165.272 452.839 167.112 455.703 167.112C457.175 167.112 458.375 166.632 459.143 165.72L458.071 164.488C457.463 165.112 456.711 165.416 455.751 165.416C454.263 165.416 453.223 164.616 452.983 163.368H459.687C459.703 163.176 459.719 162.936 459.719 162.776ZM455.399 159.96C456.711 159.96 457.655 160.808 457.815 162.04H452.967C453.159 160.792 454.103 159.96 455.399 159.96Z" fill="white"/>
<rect x="277" y="313" width="24" height="15" fill="black"/>
<rect x="277" y="343" width="24" height="15" fill="black"/>
<rect x="552" y="313" width="24" height="15" fill="black"/>
<rect x="552" y="343" width="24" height="15" fill="black"/>
<path d="M288.536 324.24L291.528 321.392C293.08 319.936 293.384 318.944 293.384 317.856C293.384 315.872 291.816 314.64 289.384 314.64C287.544 314.64 285.992 315.328 285.128 316.496L286.584 317.616C287.208 316.816 288.12 316.448 289.208 316.448C290.584 316.448 291.288 317.04 291.288 318.064C291.288 318.688 291.096 319.344 290.008 320.384L285.56 324.608V326H293.816V324.24H288.536Z" fill="white"/>
<path d="M290.472 348.424L293.192 345.192V343.8H285.56V345.544H290.648L288.104 348.568V349.992H289.128C290.824 349.992 291.56 350.648 291.56 351.656C291.56 352.696 290.68 353.352 289.192 353.352C287.928 353.352 286.712 352.92 285.912 352.248L285.016 353.864C286.056 354.68 287.64 355.16 289.224 355.16C292.232 355.16 293.656 353.528 293.656 351.64C293.656 349.96 292.584 348.696 290.472 348.424Z" fill="white"/>
<path d="M561.536 323.24L564.528 320.392C566.08 318.936 566.384 317.944 566.384 316.856C566.384 314.872 564.816 313.64 562.384 313.64C560.544 313.64 558.992 314.328 558.128 315.496L559.584 316.616C560.208 315.816 561.12 315.448 562.208 315.448C563.584 315.448 564.288 316.04 564.288 317.064C564.288 317.688 564.096 318.344 563.008 319.384L558.56 323.608V325H566.816V323.24H561.536Z" fill="white"/>
<path d="M563.472 347.424L566.192 344.192V342.8H558.56V344.544H563.648L561.104 347.568V348.992H562.128C563.824 348.992 564.56 349.648 564.56 350.656C564.56 351.696 563.68 352.352 562.192 352.352C560.928 352.352 559.712 351.92 558.912 351.248L558.016 352.864C559.056 353.68 560.64 354.16 562.224 354.16C565.232 354.16 566.656 352.528 566.656 350.64C566.656 348.96 565.584 347.696 563.472 347.424Z" fill="white"/>
<g filter="url(#filter2_d_567_426)">
<g filter="url(#filter3_d_567_426)">
<path d="M642 303C642 291.954 650.954 283 662 283H732C743.046 283 752 291.954 752 303V373C752 384.046 743.046 393 732 393H662C650.954 393 642 384.046 642 373V303Z" fill="url(#paint1_radial_567_426)"/>
</g>
</g>
<path d="M696.949 339.139L670.357 348.07C668.57 348.671 668.529 351.183 670.296 351.841L696.887 361.738C697.341 361.907 697.841 361.905 698.293 361.734L724.423 351.836C726.175 351.173 726.134 348.68 724.361 348.074L698.232 339.142C697.816 339 697.365 338.999 696.949 339.139Z" stroke="white" stroke-width="1.5"/>
<path d="M696.949 331.754L670.357 340.686C668.57 341.286 668.529 343.799 670.296 344.456L696.887 354.354C697.341 354.522 697.841 354.521 698.293 354.349L724.423 344.452C726.175 343.788 726.134 341.295 724.361 340.689L698.232 331.758C697.816 331.616 697.365 331.614 696.949 331.754Z" fill="#313131" stroke="white" stroke-width="1.5"/>
<path d="M696.949 322.523L670.357 331.455C668.57 332.055 668.529 334.568 670.296 335.225L696.887 345.123C697.341 345.291 697.841 345.29 698.293 345.119L724.423 335.221C726.175 334.557 726.134 332.064 724.361 331.458L698.232 322.527C697.816 322.385 697.365 322.383 696.949 322.523Z" fill="#313131" stroke="white" stroke-width="1.5"/>
<path d="M696.949 314.216L670.357 323.148C668.57 323.748 668.529 326.26 670.296 326.918L696.887 336.815C697.341 336.984 697.841 336.982 698.293 336.811L724.423 326.914C726.175 326.25 726.134 323.757 724.361 323.151L698.232 314.219C697.816 314.077 697.365 314.076 696.949 314.216Z" fill="white" stroke="white" stroke-width="1.5"/>
<g filter="url(#filter4_d_567_426)">
<g filter="url(#filter5_d_567_426)">
<path d="M366.142 582.924C358.332 575.113 358.332 562.45 366.142 554.64L415.64 505.142C423.45 497.332 436.113 497.332 443.924 505.142L493.421 554.64C501.232 562.45 501.232 575.113 493.421 582.924L443.924 632.421C436.113 640.232 423.45 640.232 415.64 632.421L366.142 582.924Z" fill="url(#paint2_radial_567_426)"/>
</g>
</g>
<circle cx="429.485" cy="607.897" r="5.60769" fill="white"/>
<circle cx="429.485" cy="569.267" r="9.34615" fill="white"/>
<circle cx="429.485" cy="529.389" r="5.60769" fill="white"/>
<circle cx="389.608" cy="545.59" r="5.60769" fill="white"/>
<circle cx="395.838" cy="590.451" r="5.60769" fill="white"/>
<circle cx="449.423" cy="580.482" r="5.60769" fill="white"/>
<circle cx="459.392" cy="553.066" r="5.60769" fill="white"/>
<line x1="430.615" y1="569.028" x2="451.799" y2="581.489" stroke="white" stroke-width="2"/>
<line x1="429.381" y1="570.744" x2="394.488" y2="591.929" stroke="white" stroke-width="2"/>
<line x1="428.332" y1="569.491" x2="388.455" y2="544.568" stroke="white" stroke-width="2"/>
<line x1="429.616" y1="569.019" x2="458.277" y2="552.819" stroke="white" stroke-width="2"/>
<line x1="429.862" y1="528.766" x2="429.862" y2="606.028" stroke="white" stroke-width="2"/>
<g filter="url(#filter6_d_567_426)">
<g filter="url(#filter7_d_567_426)">
<path d="M374 303C374 291.954 382.954 283 394 283H464C475.046 283 484 291.954 484 303V373C484 384.046 475.046 393 464 393H394C382.954 393 374 384.046 374 373V303Z" fill="url(#paint3_radial_567_426)"/>
</g>
</g>
<rect x="-0.846072" y="0.846072" width="32.4267" height="26.7402" rx="0.846072" transform="matrix(-1 0 0 1 444.376 322.829)" stroke="white" stroke-width="1.69214"/>
<path d="M414 315.921C414 315.604 413.823 315.314 413.541 315.169L401.073 308.744C400.51 308.454 399.839 308.862 399.839 309.496V365.708C399.839 366.397 400.617 366.797 401.177 366.396L413.646 357.474C413.868 357.315 414 357.059 414 356.786V315.921Z" fill="white" stroke="white" stroke-width="1.69214"/>
<path d="M444.33 315.918C444.33 315.601 444.507 315.311 444.788 315.165L457.257 308.74C457.82 308.45 458.49 308.859 458.49 309.492V365.705C458.49 366.394 457.712 366.794 457.152 366.393L444.683 357.471C444.461 357.312 444.33 357.056 444.33 356.783V315.918Z" fill="white" stroke="white" stroke-width="1.69214"/>
<g filter="url(#filter8_d_567_426)">
<path d="M374 53C374 41.9543 382.954 33 394 33H464C475.046 33 484 41.9543 484 53V123C484 134.046 475.046 143 464 143H394C382.954 143 374 134.046 374 123V53Z" fill="url(#paint4_radial_567_426)"/>
</g>
<mask id="mask0_567_426" style="mask-type:alpha" maskUnits="userSpaceOnUse" x="406" y="95" width="45" height="12">
<rect x="406" y="95" width="45" height="12" fill="#C4C4C4"/>
</mask>
<g mask="url(#mask0_567_426)">
<path d="M450.25 95C450.25 97.5916 448.079 100.15 444.08 102.104C440.132 104.035 434.624 105.25 428.5 105.25C422.376 105.25 416.868 104.035 412.92 102.104C408.921 100.15 406.75 97.5916 406.75 95C406.75 92.4084 408.921 89.8504 412.92 87.8956C416.868 85.9652 422.376 84.75 428.5 84.75C434.624 84.75 440.132 85.9652 444.08 87.8956C448.079 89.8504 450.25 92.4084 450.25 95Z" stroke="#F8F8F8" stroke-width="1.5"/>
</g>
<mask id="mask1_567_426" style="mask-type:alpha" maskUnits="userSpaceOnUse" x="406" y="110" width="45" height="12">
<rect x="406" y="110" width="45" height="12" fill="#C4C4C4"/>
</mask>
<g mask="url(#mask1_567_426)">
<path d="M450.25 110C450.25 112.592 448.079 115.15 444.08 117.104C440.132 119.035 434.624 120.25 428.5 120.25C422.376 120.25 416.868 119.035 412.92 117.104C408.921 115.15 406.75 112.592 406.75 110C406.75 107.408 408.921 104.85 412.92 102.896C416.868 100.965 422.376 99.75 428.5 99.75C434.624 99.75 440.132 100.965 444.08 102.896C448.079 104.85 450.25 107.408 450.25 110Z" stroke="#F8F8F8" stroke-width="1.5"/>
</g>
<mask id="mask2_567_426" style="mask-type:alpha" maskUnits="userSpaceOnUse" x="406" y="80" width="45" height="12">
<rect x="406" y="80" width="45" height="12" fill="#C4C4C4"/>
</mask>
<g mask="url(#mask2_567_426)">
<path d="M450.25 80C450.25 82.5916 448.079 85.1496 444.08 87.1044C440.132 89.0348 434.624 90.25 428.5 90.25C422.376 90.25 416.868 89.0348 412.92 87.1044C408.921 85.1496 406.75 82.5916 406.75 80C406.75 77.4084 408.921 74.8504 412.92 72.8956C416.868 70.9652 422.376 69.75 428.5 69.75C434.624 69.75 440.132 70.9652 444.08 72.8956C448.079 74.8504 450.25 77.4084 450.25 80Z" stroke="#F8F8F8" stroke-width="1.5"/>
</g>
<mask id="mask3_567_426" style="mask-type:alpha" maskUnits="userSpaceOnUse" x="402" y="63" width="54" height="53">
<path d="M407.5 87.6111V115H403V64H455.5V114.056H449.5V67.3056H407.5V87.6111Z" fill="#C4C4C4" stroke="black"/>
</mask>
<g mask="url(#mask3_567_426)">
<rect x="406.75" y="66.6387" width="43.5" height="43.8333" stroke="white" stroke-width="1.5"/>
</g>
<path d="M450.607 66C450.607 68.8039 448.271 71.4533 444.237 73.4251C440.23 75.3842 434.667 76.607 428.5 76.607C422.333 76.607 416.77 75.3842 412.763 73.4251C408.729 71.4533 406.393 68.8039 406.393 66C406.393 63.1961 408.729 60.5467 412.763 58.5749C416.77 56.6158 422.333 55.393 428.5 55.393C434.667 55.393 440.23 56.6158 444.237 58.5749C448.271 60.5467 450.607 63.1961 450.607 66Z" fill="white" stroke="#F8F8F8" stroke-width="0.785949"/>
<ellipse cx="442.5" cy="81.5" rx="2.5" ry="3.5" fill="white"/>
<ellipse cx="442.5" cy="95.5" rx="2.5" ry="3.5" fill="white"/>
<ellipse cx="442.5" cy="110.5" rx="2.5" ry="3.5" fill="white"/>
<defs>
<filter id="filter0_d_567_426" x="95" y="271" width="144" height="144" filterUnits="userSpaceOnUse" color-interpolation-filters="sRGB">
<feFlood flood-opacity="0" result="BackgroundImageFix"/>
<feColorMatrix in="SourceAlpha" type="matrix" values="0 0 0 0 0 0 0 0 0 0 0 0 0 0 0 0 0 0 127 0" result="hardAlpha"/>
<feOffset dx="13" dy="5"/>
<feGaussianBlur stdDeviation="8.5"/>
<feColorMatrix type="matrix" values="0 0 0 0 0 0 0 0 0 0 0 0 0 0 0 0 0 0 0.15 0"/>
<feBlend mode="normal" in2="BackgroundImageFix" result="effect1_dropShadow_567_426"/>
<feBlend mode="normal" in="SourceGraphic" in2="effect1_dropShadow_567_426" result="shape"/>
</filter>
<filter id="filter1_d_567_426" x="99" y="283" width="118" height="119" filterUnits="userSpaceOnUse" color-interpolation-filters="sRGB">
<feFlood flood-opacity="0" result="BackgroundImageFix"/>
<feColorMatrix in="SourceAlpha" type="matrix" values="0 0 0 0 0 0 0 0 0 0 0 0 0 0 0 0 0 0 127 0" result="hardAlpha"/>
<feOffset dx="4" dy="5"/>
<feGaussianBlur stdDeviation="2"/>
<feColorMatrix type="matrix" values="0 0 0 0 0 0 0 0 0 0 0 0 0 0 0 0 0 0 0.25 0"/>
<feBlend mode="normal" in2="BackgroundImageFix" result="effect1_dropShadow_567_426"/>
<feBlend mode="normal" in="SourceGraphic" in2="effect1_dropShadow_567_426" result="shape"/>
</filter>
<filter id="filter2_d_567_426" x="638" y="271" width="144" height="144" filterUnits="userSpaceOnUse" color-interpolation-filters="sRGB">
<feFlood flood-opacity="0" result="BackgroundImageFix"/>
<feColorMatrix in="SourceAlpha" type="matrix" values="0 0 0 0 0 0 0 0 0 0 0 0 0 0 0 0 0 0 127 0" result="hardAlpha"/>
<feOffset dx="13" dy="5"/>
<feGaussianBlur stdDeviation="8.5"/>
<feColorMatrix type="matrix" values="0 0 0 0 0 0 0 0 0 0 0 0 0 0 0 0 0 0 0.15 0"/>
<feBlend mode="normal" in2="BackgroundImageFix" result="effect1_dropShadow_567_426"/>
<feBlend mode="normal" in="SourceGraphic" in2="effect1_dropShadow_567_426" result="shape"/>
</filter>
<filter id="filter3_d_567_426" x="642" y="283" width="118" height="119" filterUnits="userSpaceOnUse" color-interpolation-filters="sRGB">
<feFlood flood-opacity="0" result="BackgroundImageFix"/>
<feColorMatrix in="SourceAlpha" type="matrix" values="0 0 0 0 0 0 0 0 0 0 0 0 0 0 0 0 0 0 127 0" result="hardAlpha"/>
<feOffset dx="4" dy="5"/>
<feGaussianBlur stdDeviation="2"/>
<feColorMatrix type="matrix" values="0 0 0 0 0 0 0 0 0 0 0 0 0 0 0 0 0 0 0.25 0"/>
<feBlend mode="normal" in2="BackgroundImageFix" result="effect1_dropShadow_567_426"/>
<feBlend mode="normal" in="SourceGraphic" in2="effect1_dropShadow_567_426" result="shape"/>
</filter>
<filter id="filter4_d_567_426" x="356.284" y="487.284" width="172.995" height="172.995" filterUnits="userSpaceOnUse" color-interpolation-filters="sRGB">
<feFlood flood-opacity="0" result="BackgroundImageFix"/>
<feColorMatrix in="SourceAlpha" type="matrix" values="0 0 0 0 0 0 0 0 0 0 0 0 0 0 0 0 0 0 127 0" result="hardAlpha"/>
<feOffset dx="13" dy="5"/>
<feGaussianBlur stdDeviation="8.5"/>
<feColorMatrix type="matrix" values="0 0 0 0 0 0 0 0 0 0 0 0 0 0 0 0 0 0 0.15 0"/>
<feBlend mode="normal" in2="BackgroundImageFix" result="effect1_dropShadow_567_426"/>
<feBlend mode="normal" in="SourceGraphic" in2="effect1_dropShadow_567_426" result="shape"/>
</filter>
<filter id="filter5_d_567_426" x="360.284" y="499.284" width="146.995" height="147.995" filterUnits="userSpaceOnUse" color-interpolation-filters="sRGB">
<feFlood flood-opacity="0" result="BackgroundImageFix"/>
<feColorMatrix in="SourceAlpha" type="matrix" values="0 0 0 0 0 0 0 0 0 0 0 0 0 0 0 0 0 0 127 0" result="hardAlpha"/>
<feOffset dx="4" dy="5"/>
<feGaussianBlur stdDeviation="2"/>
<feColorMatrix type="matrix" values="0 0 0 0 0 0 0 0 0 0 0 0 0 0 0 0 0 0 0.25 0"/>
<feBlend mode="normal" in2="BackgroundImageFix" result="effect1_dropShadow_567_426"/>
<feBlend mode="normal" in="SourceGraphic" in2="effect1_dropShadow_567_426" result="shape"/>
</filter>
<filter id="filter6_d_567_426" x="370" y="271" width="144" height="144" filterUnits="userSpaceOnUse" color-interpolation-filters="sRGB">
<feFlood flood-opacity="0" result="BackgroundImageFix"/>
<feColorMatrix in="SourceAlpha" type="matrix" values="0 0 0 0 0 0 0 0 0 0 0 0 0 0 0 0 0 0 127 0" result="hardAlpha"/>
<feOffset dx="13" dy="5"/>
<feGaussianBlur stdDeviation="8.5"/>
<feColorMatrix type="matrix" values="0 0 0 0 0 0 0 0 0 0 0 0 0 0 0 0 0 0 0.15 0"/>
<feBlend mode="normal" in2="BackgroundImageFix" result="effect1_dropShadow_567_426"/>
<feBlend mode="normal" in="SourceGraphic" in2="effect1_dropShadow_567_426" result="shape"/>
</filter>
<filter id="filter7_d_567_426" x="374" y="283" width="118" height="119" filterUnits="userSpaceOnUse" color-interpolation-filters="sRGB">
<feFlood flood-opacity="0" result="BackgroundImageFix"/>
<feColorMatrix in="SourceAlpha" type="matrix" values="0 0 0 0 0 0 0 0 0 0 0 0 0 0 0 0 0 0 127 0" result="hardAlpha"/>
<feOffset dx="4" dy="5"/>
<feGaussianBlur stdDeviation="2"/>
<feColorMatrix type="matrix" values="0 0 0 0 0 0 0 0 0 0 0 0 0 0 0 0 0 0 0.25 0"/>
<feBlend mode="normal" in2="BackgroundImageFix" result="effect1_dropShadow_567_426"/>
<feBlend mode="normal" in="SourceGraphic" in2="effect1_dropShadow_567_426" result="shape"/>
</filter>
<filter id="filter8_d_567_426" x="374" y="33" width="118" height="119" filterUnits="userSpaceOnUse" color-interpolation-filters="sRGB">
<feFlood flood-opacity="0" result="BackgroundImageFix"/>
<feColorMatrix in="SourceAlpha" type="matrix" values="0 0 0 0 0 0 0 0 0 0 0 0 0 0 0 0 0 0 127 0" result="hardAlpha"/>
<feOffset dx="4" dy="5"/>
<feGaussianBlur stdDeviation="2"/>
<feColorMatrix type="matrix" values="0 0 0 0 0 0 0 0 0 0 0 0 0 0 0 0 0 0 0.25 0"/>
<feBlend mode="normal" in2="BackgroundImageFix" result="effect1_dropShadow_567_426"/>
<feBlend mode="normal" in="SourceGraphic" in2="effect1_dropShadow_567_426" result="shape"/>
</filter>
<radialGradient id="paint0_radial_567_426" cx="0" cy="0" r="1" gradientUnits="userSpaceOnUse" gradientTransform="translate(73.0534 268.806) rotate(40.0117) scale(193.164 864.283)">
<stop stop-color="#3A3A3A"/>
<stop offset="1" stop-color="#202020"/>
</radialGradient>
<radialGradient id="paint1_radial_567_426" cx="0" cy="0" r="1" gradientUnits="userSpaceOnUse" gradientTransform="translate(616.053 268.806) rotate(40.0117) scale(193.164 864.283)">
<stop stop-color="#3A3A3A"/>
<stop offset="1" stop-color="#202020"/>
</radialGradient>
<radialGradient id="paint2_radial_567_426" cx="0" cy="0" r="1" gradientUnits="userSpaceOnUse" gradientTransform="translate(323.617 577.092) rotate(-4.98826) scale(193.164 864.283)">
<stop stop-color="#3A3A3A"/>
<stop offset="1" stop-color="#202020"/>
</radialGradient>
<radialGradient id="paint3_radial_567_426" cx="0" cy="0" r="1" gradientUnits="userSpaceOnUse" gradientTransform="translate(348.053 268.806) rotate(40.0117) scale(193.164 864.283)">
<stop stop-color="#3A3A3A"/>
<stop offset="1" stop-color="#202020"/>
</radialGradient>
<radialGradient id="paint4_radial_567_426" cx="0" cy="0" r="1" gradientUnits="userSpaceOnUse" gradientTransform="translate(348.053 18.8064) rotate(40.0117) scale(193.164 864.283)">
<stop stop-color="#3A3A3A"/>
<stop offset="1" stop-color="#202020"/>
</radialGradient>
</defs>
</svg>
