<svg width="250" height="250" viewBox="0 0 250 250" fill="none" xmlns="http://www.w3.org/2000/svg">
<rect width="250" height="250" fill="white"/>
<path d="M153.779 170.98C151.748 182.796 143.659 196.252 131.671 196.499C118.719 196.765 110.556 182.65 117.247 171.556L166.148 90.4775C178.34 70.2636 171.775 44.0961 151.486 32.0307C131.196 19.9653 104.865 26.5709 92.6734 46.7849L26.1286 157.117C13.9369 177.331 20.5015 203.498 40.7911 215.564C46.6521 219.049 53.0172 220.976 59.4 221.468C61.6445 221.64 63.8937 222.043 66.1444 221.996L190.213 219.446C192.037 219.409 193.858 219.143 195.681 219.084C209.625 218.636 223.069 211.208 230.564 198.322C242.047 178.577 235.367 153.233 215.55 141.876C195.733 130.518 170.283 137.449 158.8 157.193C156.247 161.583 154.591 166.251 153.779 170.98Z" fill="#0FB600"/>
</svg>
