<svg width="872" height="770" viewBox="0 0 872 770" fill="none" xmlns="http://www.w3.org/2000/svg">
<rect width="872" height="764" fill="black"/>
<g filter="url(#filter0_d_567_426)">
<g filter="url(#filter1_d_567_426)">
<g filter="url(#filter2_d_567_426)">
<path d="M76 386C76 355.624 100.624 331 131 331C161.376 331 186 355.624 186 386C186 416.376 161.376 441 131 441C100.624 441 76 416.376 76 386Z" fill="url(#paint0_radial_567_426)"/>
</g>
</g>
</g>
<path d="M113.928 316.112C113.107 316.112 112.365 315.931 111.704 315.568C111.053 315.195 110.541 314.683 110.168 314.032C109.795 313.381 109.608 312.613 109.608 311.728C109.608 310.843 109.795 310.075 110.168 309.424C110.541 308.773 111.053 308.267 111.704 307.904C112.365 307.541 113.107 307.36 113.928 307.36C114.643 307.36 115.283 307.52 115.848 307.84C116.413 308.149 116.861 308.624 117.192 309.264C117.523 309.904 117.688 310.725 117.688 311.728C117.688 312.72 117.528 313.541 117.208 314.192C116.888 314.832 116.445 315.312 115.88 315.632C115.315 315.952 114.664 316.112 113.928 316.112ZM114.168 314.4C114.648 314.4 115.075 314.293 115.448 314.08C115.832 313.867 116.136 313.557 116.36 313.152C116.595 312.747 116.712 312.272 116.712 311.728C116.712 311.173 116.595 310.699 116.36 310.304C116.136 309.899 115.832 309.589 115.448 309.376C115.075 309.163 114.648 309.056 114.168 309.056C113.688 309.056 113.256 309.163 112.872 309.376C112.499 309.589 112.195 309.899 111.96 310.304C111.736 310.699 111.624 311.173 111.624 311.728C111.624 312.272 111.736 312.747 111.96 313.152C112.195 313.557 112.499 313.867 112.872 314.08C113.256 314.293 113.688 314.4 114.168 314.4ZM116.76 316V313.984L116.84 311.712L116.68 309.44V304.128H118.664V316H116.76ZM119.904 316L124.944 304.8H126.992L132.048 316H129.872L125.536 305.904H126.368L122.048 316H119.904ZM122.224 313.408L122.784 311.776H128.832L129.392 313.408H122.224ZM138.017 316.112C137.323 316.112 136.689 315.952 136.113 315.632C135.547 315.312 135.094 314.832 134.753 314.192C134.422 313.541 134.257 312.72 134.257 311.728C134.257 310.725 134.417 309.904 134.737 309.264C135.067 308.624 135.515 308.149 136.081 307.84C136.646 307.52 137.291 307.36 138.017 307.36C138.859 307.36 139.601 307.541 140.241 307.904C140.891 308.267 141.403 308.773 141.777 309.424C142.161 310.075 142.353 310.843 142.353 311.728C142.353 312.613 142.161 313.387 141.777 314.048C141.403 314.699 140.891 315.205 140.241 315.568C139.601 315.931 138.859 316.112 138.017 316.112ZM133.281 319.104V307.456H135.185V309.472L135.121 311.744L135.281 314.016V319.104H133.281ZM137.793 314.4C138.273 314.4 138.699 314.293 139.073 314.08C139.457 313.867 139.761 313.557 139.985 313.152C140.209 312.747 140.321 312.272 140.321 311.728C140.321 311.173 140.209 310.699 139.985 310.304C139.761 309.899 139.457 309.589 139.073 309.376C138.699 309.163 138.273 309.056 137.793 309.056C137.313 309.056 136.881 309.163 136.497 309.376C136.113 309.589 135.809 309.899 135.585 310.304C135.361 310.699 135.249 311.173 135.249 311.728C135.249 312.272 135.361 312.747 135.585 313.152C135.809 313.557 136.113 313.867 136.497 314.08C136.881 314.293 137.313 314.4 137.793 314.4ZM148.986 316.112C148.292 316.112 147.658 315.952 147.082 315.632C146.516 315.312 146.063 314.832 145.722 314.192C145.391 313.541 145.226 312.72 145.226 311.728C145.226 310.725 145.386 309.904 145.706 309.264C146.036 308.624 146.484 308.149 147.049 307.84C147.615 307.52 148.26 307.36 148.986 307.36C149.828 307.36 150.57 307.541 151.21 307.904C151.86 308.267 152.372 308.773 152.746 309.424C153.13 310.075 153.322 310.843 153.322 311.728C153.322 312.613 153.13 313.387 152.746 314.048C152.372 314.699 151.86 315.205 151.21 315.568C150.57 315.931 149.828 316.112 148.986 316.112ZM144.25 319.104V307.456H146.154V309.472L146.09 311.744L146.25 314.016V319.104H144.25ZM148.762 314.4C149.242 314.4 149.668 314.293 150.042 314.08C150.426 313.867 150.73 313.557 150.954 313.152C151.178 312.747 151.29 312.272 151.29 311.728C151.29 311.173 151.178 310.699 150.954 310.304C150.73 309.899 150.426 309.589 150.042 309.376C149.668 309.163 149.242 309.056 148.762 309.056C148.282 309.056 147.85 309.163 147.466 309.376C147.082 309.589 146.778 309.899 146.554 310.304C146.33 310.699 146.218 311.173 146.218 311.728C146.218 312.272 146.33 312.747 146.554 313.152C146.778 313.557 147.082 313.867 147.466 314.08C147.85 314.293 148.282 314.4 148.762 314.4Z" fill="white"/>
<path d="M364.736 316.16C363.861 316.16 363.056 316.021 362.32 315.744C361.595 315.456 360.96 315.056 360.416 314.544C359.872 314.021 359.451 313.408 359.152 312.704C358.853 312 358.704 311.232 358.704 310.4C358.704 309.568 358.853 308.8 359.152 308.096C359.451 307.392 359.872 306.784 360.416 306.272C360.971 305.749 361.616 305.349 362.352 305.072C363.088 304.784 363.893 304.64 364.768 304.64C365.717 304.64 366.571 304.795 367.328 305.104C368.096 305.413 368.741 305.867 369.264 306.464L367.952 307.744C367.515 307.307 367.04 306.987 366.528 306.784C366.027 306.571 365.472 306.464 364.864 306.464C364.277 306.464 363.733 306.56 363.232 306.752C362.731 306.944 362.299 307.216 361.936 307.568C361.573 307.92 361.291 308.336 361.088 308.816C360.896 309.296 360.8 309.824 360.8 310.4C360.8 310.965 360.896 311.488 361.088 311.968C361.291 312.448 361.573 312.869 361.936 313.232C362.299 313.584 362.725 313.856 363.216 314.048C363.707 314.24 364.251 314.336 364.848 314.336C365.403 314.336 365.936 314.251 366.448 314.08C366.971 313.899 367.467 313.6 367.936 313.184L369.12 314.736C368.533 315.205 367.851 315.563 367.072 315.808C366.304 316.043 365.525 316.16 364.736 316.16ZM367.152 314.464V310.272H369.12V314.736L367.152 314.464ZM376.935 316V314.272L376.823 313.904V310.88C376.823 310.293 376.647 309.84 376.295 309.52C375.943 309.189 375.41 309.024 374.695 309.024C374.215 309.024 373.741 309.099 373.271 309.248C372.813 309.397 372.423 309.605 372.103 309.872L371.319 308.416C371.778 308.064 372.322 307.803 372.951 307.632C373.591 307.451 374.253 307.36 374.935 307.36C376.173 307.36 377.127 307.659 377.799 308.256C378.482 308.843 378.823 309.755 378.823 310.992V316H376.935ZM374.247 316.112C373.607 316.112 373.047 316.005 372.567 315.792C372.087 315.568 371.714 315.264 371.447 314.88C371.191 314.485 371.063 314.043 371.063 313.552C371.063 313.072 371.175 312.64 371.399 312.256C371.634 311.872 372.013 311.568 372.535 311.344C373.058 311.12 373.751 311.008 374.615 311.008H377.095V312.336H374.759C374.077 312.336 373.618 312.448 373.383 312.672C373.149 312.885 373.031 313.152 373.031 313.472C373.031 313.835 373.175 314.123 373.463 314.336C373.751 314.549 374.151 314.656 374.663 314.656C375.154 314.656 375.591 314.544 375.975 314.32C376.37 314.096 376.653 313.765 376.823 313.328L377.159 314.528C376.967 315.029 376.621 315.419 376.119 315.696C375.629 315.973 375.005 316.112 374.247 316.112ZM384.606 316.112C383.667 316.112 382.942 315.872 382.43 315.392C381.918 314.901 381.662 314.181 381.662 313.232V305.568H383.662V313.184C383.662 313.589 383.763 313.904 383.966 314.128C384.179 314.352 384.473 314.464 384.846 314.464C385.294 314.464 385.667 314.347 385.966 314.112L386.526 315.536C386.291 315.728 386.003 315.872 385.662 315.968C385.321 316.064 384.969 316.112 384.606 316.112ZM380.254 309.12V307.52H385.95V309.12H380.254ZM391.906 316.112C390.957 316.112 390.125 315.925 389.41 315.552C388.706 315.168 388.157 314.645 387.762 313.984C387.378 313.323 387.186 312.571 387.186 311.728C387.186 310.875 387.373 310.123 387.746 309.472C388.13 308.811 388.653 308.293 389.314 307.92C389.986 307.547 390.749 307.36 391.602 307.36C392.434 307.36 393.175 307.541 393.826 307.904C394.477 308.267 394.989 308.779 395.362 309.44C395.735 310.101 395.922 310.88 395.922 311.776C395.922 311.861 395.917 311.957 395.906 312.064C395.906 312.171 395.901 312.272 395.89 312.368H388.77V311.04H394.834L394.05 311.456C394.061 310.965 393.959 310.533 393.746 310.16C393.533 309.787 393.239 309.493 392.866 309.28C392.503 309.067 392.082 308.96 391.602 308.96C391.111 308.96 390.679 309.067 390.306 309.28C389.943 309.493 389.655 309.792 389.442 310.176C389.239 310.549 389.138 310.992 389.138 311.504V311.824C389.138 312.336 389.255 312.789 389.49 313.184C389.725 313.579 390.055 313.883 390.482 314.096C390.909 314.309 391.399 314.416 391.954 314.416C392.434 314.416 392.866 314.341 393.25 314.192C393.634 314.043 393.975 313.808 394.274 313.488L395.346 314.72C394.962 315.168 394.477 315.515 393.89 315.76C393.314 315.995 392.653 316.112 391.906 316.112ZM399.575 316L396.439 307.456H398.327L401.015 314.992H400.119L402.935 307.456H404.615L407.351 314.992H406.471L409.239 307.456H411.015L407.863 316H405.943L403.447 309.328H404.039L401.495 316H399.575ZM417.389 316V314.272L417.277 313.904V310.88C417.277 310.293 417.101 309.84 416.749 309.52C416.397 309.189 415.863 309.024 415.149 309.024C414.669 309.024 414.194 309.099 413.725 309.248C413.266 309.397 412.877 309.605 412.557 309.872L411.773 308.416C412.231 308.064 412.775 307.803 413.405 307.632C414.045 307.451 414.706 307.36 415.389 307.36C416.626 307.36 417.581 307.659 418.253 308.256C418.935 308.843 419.277 309.755 419.277 310.992V316H417.389ZM414.701 316.112C414.061 316.112 413.501 316.005 413.021 315.792C412.541 315.568 412.167 315.264 411.901 314.88C411.645 314.485 411.517 314.043 411.517 313.552C411.517 313.072 411.629 312.64 411.853 312.256C412.087 311.872 412.466 311.568 412.989 311.344C413.511 311.12 414.205 311.008 415.069 311.008H417.549V312.336H415.213C414.53 312.336 414.071 312.448 413.837 312.672C413.602 312.885 413.485 313.152 413.485 313.472C413.485 313.835 413.629 314.123 413.917 314.336C414.205 314.549 414.605 314.656 415.117 314.656C415.607 314.656 416.045 314.544 416.429 314.32C416.823 314.096 417.106 313.765 417.277 313.328L417.613 314.528C417.421 315.029 417.074 315.419 416.573 315.696C416.082 315.973 415.458 316.112 414.701 316.112ZM422.391 319.216C421.975 319.216 421.559 319.147 421.143 319.008C420.727 318.869 420.38 318.677 420.103 318.432L420.903 316.96C421.106 317.141 421.335 317.285 421.591 317.392C421.847 317.499 422.108 317.552 422.375 317.552C422.738 317.552 423.031 317.461 423.255 317.28C423.479 317.099 423.687 316.795 423.879 316.368L424.375 315.248L424.535 315.008L427.767 307.456H429.687L425.687 316.688C425.42 317.328 425.122 317.835 424.791 318.208C424.471 318.581 424.108 318.843 423.703 318.992C423.308 319.141 422.871 319.216 422.391 319.216ZM424.151 316.304L420.295 307.456H422.375L425.511 314.832L424.151 316.304ZM435.551 316V304.8H437.263L444.287 313.424H443.439V304.8H445.503V316H443.791L436.767 307.376H437.615V316H435.551ZM452.152 316.112C451.277 316.112 450.499 315.925 449.816 315.552C449.133 315.168 448.595 314.645 448.2 313.984C447.805 313.323 447.608 312.571 447.608 311.728C447.608 310.875 447.805 310.123 448.2 309.472C448.595 308.811 449.133 308.293 449.816 307.92C450.499 307.547 451.277 307.36 452.152 307.36C453.037 307.36 453.821 307.547 454.504 307.92C455.197 308.293 455.736 308.805 456.12 309.456C456.515 310.107 456.712 310.864 456.712 311.728C456.712 312.571 456.515 313.323 456.12 313.984C455.736 314.645 455.197 315.168 454.504 315.552C453.821 315.925 453.037 316.112 452.152 316.112ZM452.152 314.4C452.643 314.4 453.08 314.293 453.464 314.08C453.848 313.867 454.147 313.557 454.36 313.152C454.584 312.747 454.696 312.272 454.696 311.728C454.696 311.173 454.584 310.699 454.36 310.304C454.147 309.899 453.848 309.589 453.464 309.376C453.08 309.163 452.648 309.056 452.168 309.056C451.677 309.056 451.24 309.163 450.856 309.376C450.483 309.589 450.184 309.899 449.96 310.304C449.736 310.699 449.624 311.173 449.624 311.728C449.624 312.272 449.736 312.747 449.96 313.152C450.184 313.557 450.483 313.867 450.856 314.08C451.24 314.293 451.672 314.4 452.152 314.4ZM462.241 316.112C461.419 316.112 460.678 315.931 460.017 315.568C459.366 315.195 458.854 314.683 458.481 314.032C458.107 313.381 457.921 312.613 457.921 311.728C457.921 310.843 458.107 310.075 458.481 309.424C458.854 308.773 459.366 308.267 460.017 307.904C460.678 307.541 461.419 307.36 462.241 307.36C462.955 307.36 463.595 307.52 464.161 307.84C464.726 308.149 465.174 308.624 465.505 309.264C465.835 309.904 466.001 310.725 466.001 311.728C466.001 312.72 465.841 313.541 465.521 314.192C465.201 314.832 464.758 315.312 464.193 315.632C463.627 315.952 462.977 316.112 462.241 316.112ZM462.481 314.4C462.961 314.4 463.387 314.293 463.761 314.08C464.145 313.867 464.449 313.557 464.673 313.152C464.907 312.747 465.025 312.272 465.025 311.728C465.025 311.173 464.907 310.699 464.673 310.304C464.449 309.899 464.145 309.589 463.761 309.376C463.387 309.163 462.961 309.056 462.481 309.056C462.001 309.056 461.569 309.163 461.185 309.376C460.811 309.589 460.507 309.899 460.273 310.304C460.049 310.699 459.937 311.173 459.937 311.728C459.937 312.272 460.049 312.747 460.273 313.152C460.507 313.557 460.811 313.867 461.185 314.08C461.569 314.293 462.001 314.4 462.481 314.4ZM465.073 316V313.984L465.153 311.712L464.993 309.44V304.128H466.977V316H465.073ZM473.625 316.112C472.676 316.112 471.844 315.925 471.129 315.552C470.425 315.168 469.876 314.645 469.481 313.984C469.097 313.323 468.905 312.571 468.905 311.728C468.905 310.875 469.092 310.123 469.465 309.472C469.849 308.811 470.372 308.293 471.033 307.92C471.705 307.547 472.468 307.36 473.321 307.36C474.153 307.36 474.894 307.541 475.545 307.904C476.196 308.267 476.708 308.779 477.081 309.44C477.454 310.101 477.641 310.88 477.641 311.776C477.641 311.861 477.636 311.957 477.625 312.064C477.625 312.171 477.62 312.272 477.609 312.368H470.489V311.04H476.553L475.769 311.456C475.78 310.965 475.678 310.533 475.465 310.16C475.252 309.787 474.958 309.493 474.585 309.28C474.222 309.067 473.801 308.96 473.321 308.96C472.83 308.96 472.398 309.067 472.025 309.28C471.662 309.493 471.374 309.792 471.161 310.176C470.958 310.549 470.857 310.992 470.857 311.504V311.824C470.857 312.336 470.974 312.789 471.209 313.184C471.444 313.579 471.774 313.883 472.201 314.096C472.628 314.309 473.118 314.416 473.673 314.416C474.153 314.416 474.585 314.341 474.969 314.192C475.353 314.043 475.694 313.808 475.993 313.488L477.065 314.72C476.681 315.168 476.196 315.515 475.609 315.76C475.033 315.995 474.372 316.112 473.625 316.112Z" fill="white"/>
<path d="M377.504 600V588.8H382.4C383.616 588.8 384.683 589.035 385.6 589.504C386.517 589.973 387.232 590.624 387.744 591.456C388.256 592.288 388.512 593.269 388.512 594.4C388.512 595.52 388.256 596.501 387.744 597.344C387.232 598.176 386.517 598.827 385.6 599.296C384.683 599.765 383.616 600 382.4 600H377.504ZM379.584 598.24H382.304C383.147 598.24 383.872 598.08 384.48 597.76C385.099 597.44 385.573 596.992 385.904 596.416C386.245 595.84 386.416 595.168 386.416 594.4C386.416 593.621 386.245 592.949 385.904 592.384C385.573 591.808 385.099 591.36 384.48 591.04C383.872 590.72 383.147 590.56 382.304 590.56H379.584V598.24ZM392.579 597.36L392.467 594.896L398.339 588.8H400.675L395.795 593.984L394.643 595.248L392.579 597.36ZM390.723 600V588.8H392.803V600H390.723ZM398.531 600L394.243 594.896L395.619 593.376L400.963 600H398.531ZM407.205 600.16C406.33 600.16 405.525 600.021 404.789 599.744C404.063 599.456 403.429 599.056 402.885 598.544C402.341 598.021 401.919 597.408 401.621 596.704C401.322 596 401.173 595.232 401.173 594.4C401.173 593.568 401.322 592.8 401.621 592.096C401.919 591.392 402.341 590.784 402.885 590.272C403.439 589.749 404.085 589.349 404.821 589.072C405.557 588.784 406.362 588.64 407.237 588.64C408.186 588.64 409.039 588.795 409.797 589.104C410.565 589.413 411.21 589.867 411.733 590.464L410.421 591.744C409.983 591.307 409.509 590.987 408.997 590.784C408.495 590.571 407.941 590.464 407.333 590.464C406.746 590.464 406.202 590.56 405.701 590.752C405.199 590.944 404.767 591.216 404.405 591.568C404.042 591.92 403.759 592.336 403.557 592.816C403.365 593.296 403.269 593.824 403.269 594.4C403.269 594.965 403.365 595.488 403.557 595.968C403.759 596.448 404.042 596.869 404.405 597.232C404.767 597.584 405.194 597.856 405.685 598.048C406.175 598.24 406.719 598.336 407.317 598.336C407.871 598.336 408.405 598.251 408.917 598.08C409.439 597.899 409.935 597.6 410.405 597.184L411.589 598.736C411.002 599.205 410.319 599.563 409.541 599.808C408.773 600.043 407.994 600.16 407.205 600.16ZM409.621 598.464V594.272H411.589V598.736L409.621 598.464ZM418.754 600V588.8H420.466L427.49 597.424H426.642V588.8H428.706V600H426.994L419.97 591.376H420.818V600H418.754ZM435.355 600.112C434.48 600.112 433.702 599.925 433.019 599.552C432.336 599.168 431.798 598.645 431.403 597.984C431.008 597.323 430.811 596.571 430.811 595.728C430.811 594.875 431.008 594.123 431.403 593.472C431.798 592.811 432.336 592.293 433.019 591.92C433.702 591.547 434.48 591.36 435.355 591.36C436.24 591.36 437.024 591.547 437.707 591.92C438.4 592.293 438.939 592.805 439.323 593.456C439.718 594.107 439.915 594.864 439.915 595.728C439.915 596.571 439.718 597.323 439.323 597.984C438.939 598.645 438.4 599.168 437.707 599.552C437.024 599.925 436.24 600.112 435.355 600.112ZM435.355 598.4C435.846 598.4 436.283 598.293 436.667 598.08C437.051 597.867 437.35 597.557 437.563 597.152C437.787 596.747 437.899 596.272 437.899 595.728C437.899 595.173 437.787 594.699 437.563 594.304C437.35 593.899 437.051 593.589 436.667 593.376C436.283 593.163 435.851 593.056 435.371 593.056C434.88 593.056 434.443 593.163 434.059 593.376C433.686 593.589 433.387 593.899 433.163 594.304C432.939 594.699 432.827 595.173 432.827 595.728C432.827 596.272 432.939 596.747 433.163 597.152C433.387 597.557 433.686 597.867 434.059 598.08C434.443 598.293 434.875 598.4 435.355 598.4ZM445.444 600.112C444.622 600.112 443.881 599.931 443.22 599.568C442.569 599.195 442.057 598.683 441.684 598.032C441.31 597.381 441.124 596.613 441.124 595.728C441.124 594.843 441.31 594.075 441.684 593.424C442.057 592.773 442.569 592.267 443.22 591.904C443.881 591.541 444.622 591.36 445.444 591.36C446.158 591.36 446.798 591.52 447.364 591.84C447.929 592.149 448.377 592.624 448.708 593.264C449.038 593.904 449.204 594.725 449.204 595.728C449.204 596.72 449.044 597.541 448.724 598.192C448.404 598.832 447.961 599.312 447.396 599.632C446.83 599.952 446.18 600.112 445.444 600.112ZM445.684 598.4C446.164 598.4 446.59 598.293 446.964 598.08C447.348 597.867 447.652 597.557 447.876 597.152C448.11 596.747 448.228 596.272 448.228 595.728C448.228 595.173 448.11 594.699 447.876 594.304C447.652 593.899 447.348 593.589 446.964 593.376C446.59 593.163 446.164 593.056 445.684 593.056C445.204 593.056 444.772 593.163 444.388 593.376C444.014 593.589 443.71 593.899 443.476 594.304C443.252 594.699 443.14 595.173 443.14 595.728C443.14 596.272 443.252 596.747 443.476 597.152C443.71 597.557 444.014 597.867 444.388 598.08C444.772 598.293 445.204 598.4 445.684 598.4ZM448.276 600V597.984L448.356 595.712L448.196 593.44V588.128H450.18V600H448.276ZM456.828 600.112C455.879 600.112 455.047 599.925 454.332 599.552C453.628 599.168 453.079 598.645 452.684 597.984C452.3 597.323 452.108 596.571 452.108 595.728C452.108 594.875 452.295 594.123 452.668 593.472C453.052 592.811 453.575 592.293 454.236 591.92C454.908 591.547 455.671 591.36 456.524 591.36C457.356 591.36 458.097 591.541 458.748 591.904C459.399 592.267 459.911 592.779 460.284 593.44C460.657 594.101 460.844 594.88 460.844 595.776C460.844 595.861 460.839 595.957 460.828 596.064C460.828 596.171 460.823 596.272 460.812 596.368H453.692V595.04H459.756L458.972 595.456C458.983 594.965 458.881 594.533 458.668 594.16C458.455 593.787 458.161 593.493 457.788 593.28C457.425 593.067 457.004 592.96 456.524 592.96C456.033 592.96 455.601 593.067 455.228 593.28C454.865 593.493 454.577 593.792 454.364 594.176C454.161 594.549 454.06 594.992 454.06 595.504V595.824C454.06 596.336 454.177 596.789 454.412 597.184C454.647 597.579 454.977 597.883 455.404 598.096C455.831 598.309 456.321 598.416 456.876 598.416C457.356 598.416 457.788 598.341 458.172 598.192C458.556 598.043 458.897 597.808 459.196 597.488L460.268 598.72C459.884 599.168 459.399 599.515 458.812 599.76C458.236 599.995 457.575 600.112 456.828 600.112Z" fill="white"/>
<g filter="url(#filter3_d_567_426)">
<g filter="url(#filter4_d_567_426)">
<path d="M642 351C642 339.954 650.954 331 662 331H732C743.046 331 752 339.954 752 351V421C752 432.046 743.046 441 732 441H662C650.954 441 642 432.046 642 421V351Z" fill="url(#paint1_radial_567_426)"/>
</g>
</g>
<path d="M362.976 42.16C362.101 42.16 361.264 42.0373 360.464 41.792C359.664 41.536 359.029 41.2107 358.56 40.816L359.28 39.2C359.728 39.552 360.283 39.8453 360.944 40.08C361.605 40.3147 362.283 40.432 362.976 40.432C363.563 40.432 364.037 40.368 364.4 40.24C364.763 40.112 365.029 39.9413 365.2 39.728C365.371 39.504 365.456 39.2533 365.456 38.976C365.456 38.6347 365.333 38.3627 365.088 38.16C364.843 37.9467 364.523 37.7813 364.128 37.664C363.744 37.536 363.312 37.4187 362.832 37.312C362.363 37.2053 361.888 37.0827 361.408 36.944C360.939 36.7947 360.507 36.608 360.112 36.384C359.728 36.1493 359.413 35.84 359.168 35.456C358.923 35.072 358.8 34.5813 358.8 33.984C358.8 33.376 358.96 32.8213 359.28 32.32C359.611 31.808 360.107 31.4027 360.768 31.104C361.44 30.7947 362.288 30.64 363.312 30.64C363.984 30.64 364.651 30.7253 365.312 30.896C365.973 31.0667 366.549 31.312 367.04 31.632L366.384 33.248C365.883 32.9493 365.365 32.7307 364.832 32.592C364.299 32.4427 363.787 32.368 363.296 32.368C362.72 32.368 362.251 32.4373 361.888 32.576C361.536 32.7147 361.275 32.896 361.104 33.12C360.944 33.344 360.864 33.6 360.864 33.888C360.864 34.2293 360.981 34.5067 361.216 34.72C361.461 34.9227 361.776 35.0827 362.16 35.2C362.555 35.3173 362.992 35.4347 363.472 35.552C363.952 35.6587 364.427 35.7813 364.896 35.92C365.376 36.0587 365.808 36.24 366.192 36.464C366.587 36.688 366.901 36.992 367.136 37.376C367.381 37.76 367.504 38.2453 367.504 38.832C367.504 39.4293 367.339 39.984 367.008 40.496C366.688 40.9973 366.192 41.4027 365.52 41.712C364.848 42.0107 364 42.16 362.976 42.16ZM372.591 42.112C371.652 42.112 370.927 41.872 370.414 41.392C369.903 40.9013 369.647 40.1813 369.647 39.232V31.568H371.647V39.184C371.647 39.5893 371.748 39.904 371.951 40.128C372.164 40.352 372.457 40.464 372.831 40.464C373.279 40.464 373.652 40.3467 373.951 40.112L374.511 41.536C374.276 41.728 373.988 41.872 373.647 41.968C373.305 42.064 372.953 42.112 372.591 42.112ZM368.239 35.12V33.52H373.935V35.12H368.239ZM379.715 42.112C378.84 42.112 378.061 41.9253 377.379 41.552C376.696 41.168 376.157 40.6453 375.763 39.984C375.368 39.3227 375.171 38.5707 375.171 37.728C375.171 36.8747 375.368 36.1227 375.763 35.472C376.157 34.8107 376.696 34.2933 377.379 33.92C378.061 33.5467 378.84 33.36 379.715 33.36C380.6 33.36 381.384 33.5467 382.067 33.92C382.76 34.2933 383.299 34.8053 383.683 35.456C384.077 36.1067 384.275 36.864 384.275 37.728C384.275 38.5707 384.077 39.3227 383.683 39.984C383.299 40.6453 382.76 41.168 382.067 41.552C381.384 41.9253 380.6 42.112 379.715 42.112ZM379.715 40.4C380.205 40.4 380.643 40.2933 381.027 40.08C381.411 39.8667 381.709 39.5573 381.923 39.152C382.147 38.7467 382.259 38.272 382.259 37.728C382.259 37.1733 382.147 36.6987 381.923 36.304C381.709 35.8987 381.411 35.5893 381.027 35.376C380.643 35.1627 380.211 35.056 379.731 35.056C379.24 35.056 378.803 35.1627 378.419 35.376C378.045 35.5893 377.747 35.8987 377.523 36.304C377.299 36.6987 377.187 37.1733 377.187 37.728C377.187 38.272 377.299 38.7467 377.523 39.152C377.747 39.5573 378.045 39.8667 378.419 40.08C378.803 40.2933 379.235 40.4 379.715 40.4ZM386.187 42V33.456H388.091V35.808L387.867 35.12C388.123 34.544 388.523 34.1067 389.067 33.808C389.622 33.5093 390.31 33.36 391.131 33.36V35.264C391.046 35.2427 390.966 35.232 390.891 35.232C390.816 35.2213 390.742 35.216 390.667 35.216C389.91 35.216 389.307 35.44 388.859 35.888C388.411 36.3253 388.187 36.9813 388.187 37.856V42H386.187ZM397.482 42V40.272L397.37 39.904V36.88C397.37 36.2933 397.194 35.84 396.842 35.52C396.49 35.1893 395.957 35.024 395.242 35.024C394.762 35.024 394.288 35.0987 393.818 35.248C393.36 35.3973 392.97 35.6053 392.65 35.872L391.866 34.416C392.325 34.064 392.869 33.8027 393.498 33.632C394.138 33.4507 394.8 33.36 395.482 33.36C396.72 33.36 397.674 33.6587 398.346 34.256C399.029 34.8427 399.37 35.7547 399.37 36.992V42H397.482ZM394.794 42.112C394.154 42.112 393.594 42.0053 393.114 41.792C392.634 41.568 392.261 41.264 391.994 40.88C391.738 40.4853 391.61 40.0427 391.61 39.552C391.61 39.072 391.722 38.64 391.946 38.256C392.181 37.872 392.56 37.568 393.082 37.344C393.605 37.12 394.298 37.008 395.162 37.008H397.642V38.336H395.306C394.624 38.336 394.165 38.448 393.93 38.672C393.696 38.8853 393.578 39.152 393.578 39.472C393.578 39.8347 393.722 40.1227 394.01 40.336C394.298 40.5493 394.698 40.656 395.21 40.656C395.701 40.656 396.138 40.544 396.522 40.32C396.917 40.096 397.2 39.7653 397.37 39.328L397.706 40.528C397.514 41.0293 397.168 41.4187 396.666 41.696C396.176 41.9733 395.552 42.112 394.794 42.112ZM405.825 45.216C405.035 45.216 404.262 45.1093 403.505 44.896C402.758 44.6933 402.145 44.3947 401.665 44L402.561 42.496C402.934 42.8053 403.403 43.0507 403.969 43.232C404.545 43.424 405.126 43.52 405.713 43.52C406.651 43.52 407.339 43.3013 407.777 42.864C408.214 42.4373 408.433 41.792 408.433 40.928V39.408L408.593 37.472L408.529 35.536V33.456H410.433V40.704C410.433 42.2507 410.038 43.3867 409.249 44.112C408.459 44.848 407.318 45.216 405.825 45.216ZM405.569 41.616C404.758 41.616 404.022 41.4453 403.361 41.104C402.71 40.752 402.193 40.2667 401.809 39.648C401.435 39.0293 401.249 38.304 401.249 37.472C401.249 36.6507 401.435 35.9307 401.809 35.312C402.193 34.6933 402.71 34.2133 403.361 33.872C404.022 33.5307 404.758 33.36 405.569 33.36C406.294 33.36 406.945 33.504 407.521 33.792C408.097 34.08 408.555 34.528 408.897 35.136C409.249 35.744 409.425 36.5227 409.425 37.472C409.425 38.4213 409.249 39.2053 408.897 39.824C408.555 40.432 408.097 40.8853 407.521 41.184C406.945 41.472 406.294 41.616 405.569 41.616ZM405.873 39.92C406.374 39.92 406.822 39.8187 407.217 39.616C407.611 39.4027 407.915 39.1147 408.129 38.752C408.353 38.3787 408.465 37.952 408.465 37.472C408.465 36.992 408.353 36.5707 408.129 36.208C407.915 35.8347 407.611 35.552 407.217 35.36C406.822 35.1573 406.374 35.056 405.873 35.056C405.371 35.056 404.918 35.1573 404.513 35.36C404.118 35.552 403.809 35.8347 403.585 36.208C403.371 36.5707 403.265 36.992 403.265 37.472C403.265 37.952 403.371 38.3787 403.585 38.752C403.809 39.1147 404.118 39.4027 404.513 39.616C404.918 39.8187 405.371 39.92 405.873 39.92ZM417.078 42.112C416.129 42.112 415.297 41.9253 414.582 41.552C413.878 41.168 413.329 40.6453 412.934 39.984C412.55 39.3227 412.358 38.5707 412.358 37.728C412.358 36.8747 412.545 36.1227 412.918 35.472C413.302 34.8107 413.825 34.2933 414.486 33.92C415.158 33.5467 415.921 33.36 416.774 33.36C417.606 33.36 418.347 33.5413 418.998 33.904C419.649 34.2667 420.161 34.7787 420.534 35.44C420.907 36.1013 421.094 36.88 421.094 37.776C421.094 37.8613 421.089 37.9573 421.078 38.064C421.078 38.1707 421.073 38.272 421.062 38.368H413.942V37.04H420.006L419.222 37.456C419.233 36.9653 419.131 36.5333 418.918 36.16C418.705 35.7867 418.411 35.4933 418.038 35.28C417.675 35.0667 417.254 34.96 416.774 34.96C416.283 34.96 415.851 35.0667 415.478 35.28C415.115 35.4933 414.827 35.792 414.614 36.176C414.411 36.5493 414.31 36.992 414.31 37.504V37.824C414.31 38.336 414.427 38.7893 414.662 39.184C414.897 39.5787 415.227 39.8827 415.654 40.096C416.081 40.3093 416.571 40.416 417.126 40.416C417.606 40.416 418.038 40.3413 418.422 40.192C418.806 40.0427 419.147 39.808 419.446 39.488L420.518 40.72C420.134 41.168 419.649 41.5147 419.062 41.76C418.486 41.9947 417.825 42.112 417.078 42.112ZM427.629 42V30.8H429.341L436.365 39.424H435.517V30.8H437.581V42H435.869L428.845 33.376H429.693V42H427.629ZM444.23 42.112C443.355 42.112 442.577 41.9253 441.894 41.552C441.211 41.168 440.673 40.6453 440.278 39.984C439.883 39.3227 439.686 38.5707 439.686 37.728C439.686 36.8747 439.883 36.1227 440.278 35.472C440.673 34.8107 441.211 34.2933 441.894 33.92C442.577 33.5467 443.355 33.36 444.23 33.36C445.115 33.36 445.899 33.5467 446.582 33.92C447.275 34.2933 447.814 34.8053 448.198 35.456C448.593 36.1067 448.79 36.864 448.79 37.728C448.79 38.5707 448.593 39.3227 448.198 39.984C447.814 40.6453 447.275 41.168 446.582 41.552C445.899 41.9253 445.115 42.112 444.23 42.112ZM444.23 40.4C444.721 40.4 445.158 40.2933 445.542 40.08C445.926 39.8667 446.225 39.5573 446.438 39.152C446.662 38.7467 446.774 38.272 446.774 37.728C446.774 37.1733 446.662 36.6987 446.438 36.304C446.225 35.8987 445.926 35.5893 445.542 35.376C445.158 35.1627 444.726 35.056 444.246 35.056C443.755 35.056 443.318 35.1627 442.934 35.376C442.561 35.5893 442.262 35.8987 442.038 36.304C441.814 36.6987 441.702 37.1733 441.702 37.728C441.702 38.272 441.814 38.7467 442.038 39.152C442.262 39.5573 442.561 39.8667 442.934 40.08C443.318 40.2933 443.75 40.4 444.23 40.4ZM454.319 42.112C453.497 42.112 452.756 41.9307 452.095 41.568C451.444 41.1947 450.932 40.6827 450.559 40.032C450.185 39.3813 449.999 38.6133 449.999 37.728C449.999 36.8427 450.185 36.0747 450.559 35.424C450.932 34.7733 451.444 34.2667 452.095 33.904C452.756 33.5413 453.497 33.36 454.319 33.36C455.033 33.36 455.673 33.52 456.239 33.84C456.804 34.1493 457.252 34.624 457.583 35.264C457.913 35.904 458.079 36.7253 458.079 37.728C458.079 38.72 457.919 39.5413 457.599 40.192C457.279 40.832 456.836 41.312 456.271 41.632C455.705 41.952 455.055 42.112 454.319 42.112ZM454.559 40.4C455.039 40.4 455.465 40.2933 455.839 40.08C456.223 39.8667 456.527 39.5573 456.751 39.152C456.985 38.7467 457.103 38.272 457.103 37.728C457.103 37.1733 456.985 36.6987 456.751 36.304C456.527 35.8987 456.223 35.5893 455.839 35.376C455.465 35.1627 455.039 35.056 454.559 35.056C454.079 35.056 453.647 35.1627 453.263 35.376C452.889 35.5893 452.585 35.8987 452.351 36.304C452.127 36.6987 452.015 37.1733 452.015 37.728C452.015 38.272 452.127 38.7467 452.351 39.152C452.585 39.5573 452.889 39.8667 453.263 40.08C453.647 40.2933 454.079 40.4 454.559 40.4ZM457.151 42V39.984L457.231 37.712L457.071 35.44V30.128H459.055V42H457.151ZM465.703 42.112C464.754 42.112 463.922 41.9253 463.207 41.552C462.503 41.168 461.954 40.6453 461.559 39.984C461.175 39.3227 460.983 38.5707 460.983 37.728C460.983 36.8747 461.17 36.1227 461.543 35.472C461.927 34.8107 462.45 34.2933 463.111 33.92C463.783 33.5467 464.546 33.36 465.399 33.36C466.231 33.36 466.972 33.5413 467.623 33.904C468.274 34.2667 468.786 34.7787 469.159 35.44C469.532 36.1013 469.719 36.88 469.719 37.776C469.719 37.8613 469.714 37.9573 469.703 38.064C469.703 38.1707 469.698 38.272 469.687 38.368H462.567V37.04H468.631L467.847 37.456C467.858 36.9653 467.756 36.5333 467.543 36.16C467.33 35.7867 467.036 35.4933 466.663 35.28C466.3 35.0667 465.879 34.96 465.399 34.96C464.908 34.96 464.476 35.0667 464.103 35.28C463.74 35.4933 463.452 35.792 463.239 36.176C463.036 36.5493 462.935 36.992 462.935 37.504V37.824C462.935 38.336 463.052 38.7893 463.287 39.184C463.522 39.5787 463.852 39.8827 464.279 40.096C464.706 40.3093 465.196 40.416 465.751 40.416C466.231 40.416 466.663 40.3413 467.047 40.192C467.431 40.0427 467.772 39.808 468.071 39.488L469.143 40.72C468.759 41.168 468.274 41.5147 467.687 41.76C467.111 41.9947 466.45 42.112 465.703 42.112ZM474.28 42.112C473.565 42.112 472.877 42.0213 472.216 41.84C471.565 41.648 471.048 41.4187 470.664 41.152L471.432 39.632C471.816 39.8773 472.275 40.08 472.808 40.24C473.341 40.4 473.875 40.48 474.408 40.48C475.037 40.48 475.491 40.3947 475.768 40.224C476.056 40.0533 476.2 39.824 476.2 39.536C476.2 39.3013 476.104 39.1253 475.912 39.008C475.72 38.88 475.469 38.784 475.16 38.72C474.851 38.656 474.504 38.5973 474.12 38.544C473.747 38.4907 473.368 38.4213 472.984 38.336C472.611 38.24 472.269 38.1067 471.96 37.936C471.651 37.7547 471.4 37.5147 471.208 37.216C471.016 36.9173 470.92 36.5227 470.92 36.032C470.92 35.488 471.075 35.0187 471.384 34.624C471.693 34.2187 472.125 33.9093 472.68 33.696C473.245 33.472 473.912 33.36 474.68 33.36C475.256 33.36 475.837 33.424 476.424 33.552C477.011 33.68 477.496 33.8613 477.88 34.096L477.112 35.616C476.707 35.3707 476.296 35.2053 475.88 35.12C475.475 35.024 475.069 34.976 474.664 34.976C474.056 34.976 473.603 35.0667 473.304 35.248C473.016 35.4293 472.872 35.6587 472.872 35.936C472.872 36.192 472.968 36.384 473.16 36.512C473.352 36.64 473.603 36.7413 473.912 36.816C474.221 36.8907 474.563 36.9547 474.936 37.008C475.32 37.0507 475.699 37.12 476.072 37.216C476.445 37.312 476.787 37.4453 477.096 37.616C477.416 37.776 477.672 38.0053 477.864 38.304C478.056 38.6027 478.152 38.992 478.152 39.472C478.152 40.0053 477.992 40.4693 477.672 40.864C477.363 41.2587 476.92 41.568 476.344 41.792C475.768 42.0053 475.08 42.112 474.28 42.112Z" fill="white"/>
<path d="M652.504 316V304.8H657.752C659.096 304.8 660.12 305.067 660.824 305.6C661.528 306.123 661.88 306.827 661.88 307.712C661.88 308.309 661.741 308.821 661.464 309.248C661.187 309.664 660.813 309.989 660.344 310.224C659.885 310.448 659.384 310.56 658.84 310.56L659.128 309.984C659.757 309.984 660.323 310.101 660.824 310.336C661.325 310.56 661.72 310.891 662.008 311.328C662.307 311.765 662.456 312.309 662.456 312.96C662.456 313.92 662.088 314.667 661.352 315.2C660.616 315.733 659.523 316 658.072 316H652.504ZM654.584 314.368H657.944C658.723 314.368 659.32 314.24 659.736 313.984C660.152 313.728 660.36 313.317 660.36 312.752C660.36 312.197 660.152 311.792 659.736 311.536C659.32 311.269 658.723 311.136 657.944 311.136H654.424V309.52H657.528C658.253 309.52 658.808 309.392 659.192 309.136C659.587 308.88 659.784 308.496 659.784 307.984C659.784 307.461 659.587 307.072 659.192 306.816C658.808 306.56 658.253 306.432 657.528 306.432H654.584V314.368ZM664.484 316V304.128H666.484V316H664.484ZM672.949 316.112C672.074 316.112 671.296 315.925 670.613 315.552C669.93 315.168 669.392 314.645 668.997 313.984C668.602 313.323 668.405 312.571 668.405 311.728C668.405 310.875 668.602 310.123 668.997 309.472C669.392 308.811 669.93 308.293 670.613 307.92C671.296 307.547 672.074 307.36 672.949 307.36C673.834 307.36 674.618 307.547 675.301 307.92C675.994 308.293 676.533 308.805 676.917 309.456C677.312 310.107 677.509 310.864 677.509 311.728C677.509 312.571 677.312 313.323 676.917 313.984C676.533 314.645 675.994 315.168 675.301 315.552C674.618 315.925 673.834 316.112 672.949 316.112ZM672.949 314.4C673.44 314.4 673.877 314.293 674.261 314.08C674.645 313.867 674.944 313.557 675.157 313.152C675.381 312.747 675.493 312.272 675.493 311.728C675.493 311.173 675.381 310.699 675.157 310.304C674.944 309.899 674.645 309.589 674.261 309.376C673.877 309.163 673.445 309.056 672.965 309.056C672.474 309.056 672.037 309.163 671.653 309.376C671.28 309.589 670.981 309.899 670.757 310.304C670.533 310.699 670.421 311.173 670.421 311.728C670.421 312.272 670.533 312.747 670.757 313.152C670.981 313.557 671.28 313.867 671.653 314.08C672.037 314.293 672.469 314.4 672.949 314.4ZM683.341 316.112C682.445 316.112 681.645 315.925 680.941 315.552C680.248 315.168 679.704 314.645 679.309 313.984C678.915 313.323 678.717 312.571 678.717 311.728C678.717 310.875 678.915 310.123 679.309 309.472C679.704 308.811 680.248 308.293 680.941 307.92C681.645 307.547 682.445 307.36 683.341 307.36C684.173 307.36 684.904 307.531 685.533 307.872C686.173 308.203 686.659 308.693 686.989 309.344L685.453 310.24C685.197 309.835 684.883 309.536 684.509 309.344C684.147 309.152 683.752 309.056 683.325 309.056C682.835 309.056 682.392 309.163 681.997 309.376C681.603 309.589 681.293 309.899 681.069 310.304C680.845 310.699 680.733 311.173 680.733 311.728C680.733 312.283 680.845 312.763 681.069 313.168C681.293 313.563 681.603 313.867 681.997 314.08C682.392 314.293 682.835 314.4 683.325 314.4C683.752 314.4 684.147 314.304 684.509 314.112C684.883 313.92 685.197 313.621 685.453 313.216L686.989 314.112C686.659 314.752 686.173 315.248 685.533 315.6C684.904 315.941 684.173 316.112 683.341 316.112ZM690.272 314.096L690.32 311.584L694.784 307.456H697.184L693.392 311.264L692.336 312.144L690.272 314.096ZM688.64 316V304.128H690.64V316H688.64ZM695.088 316L691.968 312.144L693.232 310.544L697.52 316H695.088ZM702.388 316.112C701.492 316.112 700.692 315.925 699.988 315.552C699.295 315.168 698.751 314.645 698.356 313.984C697.962 313.323 697.764 312.571 697.764 311.728C697.764 310.875 697.962 310.123 698.356 309.472C698.751 308.811 699.295 308.293 699.988 307.92C700.692 307.547 701.492 307.36 702.388 307.36C703.22 307.36 703.951 307.531 704.58 307.872C705.22 308.203 705.706 308.693 706.036 309.344L704.5 310.24C704.244 309.835 703.93 309.536 703.556 309.344C703.194 309.152 702.799 309.056 702.372 309.056C701.882 309.056 701.439 309.163 701.044 309.376C700.65 309.589 700.34 309.899 700.116 310.304C699.892 310.699 699.78 311.173 699.78 311.728C699.78 312.283 699.892 312.763 700.116 313.168C700.34 313.563 700.65 313.867 701.044 314.08C701.439 314.293 701.882 314.4 702.372 314.4C702.799 314.4 703.194 314.304 703.556 314.112C703.93 313.92 704.244 313.621 704.5 313.216L706.036 314.112C705.706 314.752 705.22 315.248 704.58 315.6C703.951 315.941 703.22 316.112 702.388 316.112ZM712.535 307.36C713.218 307.36 713.826 307.493 714.359 307.76C714.903 308.027 715.33 308.437 715.639 308.992C715.948 309.536 716.103 310.24 716.103 311.104V316H714.103V311.36C714.103 310.603 713.922 310.037 713.559 309.664C713.207 309.291 712.711 309.104 712.071 309.104C711.602 309.104 711.186 309.2 710.823 309.392C710.46 309.584 710.178 309.872 709.975 310.256C709.783 310.629 709.687 311.104 709.687 311.68V316H707.687V304.128H709.687V309.76L709.255 309.056C709.554 308.512 709.986 308.096 710.551 307.808C711.127 307.509 711.788 307.36 712.535 307.36ZM723.904 316V314.272L723.792 313.904V310.88C723.792 310.293 723.616 309.84 723.264 309.52C722.912 309.189 722.379 309.024 721.664 309.024C721.184 309.024 720.709 309.099 720.24 309.248C719.781 309.397 719.392 309.605 719.072 309.872L718.288 308.416C718.747 308.064 719.291 307.803 719.92 307.632C720.56 307.451 721.221 307.36 721.904 307.36C723.141 307.36 724.096 307.659 724.768 308.256C725.451 308.843 725.792 309.755 725.792 310.992V316H723.904ZM721.216 316.112C720.576 316.112 720.016 316.005 719.536 315.792C719.056 315.568 718.683 315.264 718.416 314.88C718.16 314.485 718.032 314.043 718.032 313.552C718.032 313.072 718.144 312.64 718.368 312.256C718.603 311.872 718.981 311.568 719.504 311.344C720.027 311.12 720.72 311.008 721.584 311.008H724.064V312.336H721.728C721.045 312.336 720.587 312.448 720.352 312.672C720.117 312.885 720 313.152 720 313.472C720 313.835 720.144 314.123 720.432 314.336C720.72 314.549 721.12 314.656 721.632 314.656C722.123 314.656 722.56 314.544 722.944 314.32C723.339 314.096 723.621 313.765 723.792 313.328L724.128 314.528C723.936 315.029 723.589 315.419 723.088 315.696C722.597 315.973 721.973 316.112 721.216 316.112ZM728.359 316V307.456H730.359V316H728.359ZM729.367 306.048C728.994 306.048 728.684 305.931 728.439 305.696C728.204 305.461 728.087 305.179 728.087 304.848C728.087 304.507 728.204 304.224 728.439 304C728.684 303.765 728.994 303.648 729.367 303.648C729.74 303.648 730.044 303.76 730.279 303.984C730.524 304.197 730.647 304.469 730.647 304.8C730.647 305.152 730.53 305.451 730.295 305.696C730.06 305.931 729.751 306.048 729.367 306.048ZM737.832 307.36C738.515 307.36 739.123 307.493 739.656 307.76C740.2 308.027 740.627 308.437 740.936 308.992C741.245 309.536 741.4 310.24 741.4 311.104V316H739.4V311.36C739.4 310.603 739.219 310.037 738.856 309.664C738.504 309.291 738.008 309.104 737.368 309.104C736.899 309.104 736.483 309.2 736.12 309.392C735.757 309.584 735.475 309.872 735.272 310.256C735.08 310.629 734.984 311.104 734.984 311.68V316H732.984V307.456H734.888V309.76L734.552 309.056C734.851 308.512 735.283 308.096 735.848 307.808C736.424 307.509 737.085 307.36 737.832 307.36Z" fill="white"/>
<g filter="url(#filter5_d_567_426)">
<g filter="url(#filter6_d_567_426)">
<path d="M272 76C272 64.9543 280.954 56 292 56H541C552.046 56 561 64.9543 561 76V146C561 157.046 552.046 166 541 166H292C280.954 166 272 157.046 272 146V76Z" fill="url(#paint2_radial_567_426)"/>
</g>
</g>
<g filter="url(#filter7_d_567_426)">
<g filter="url(#filter8_d_567_426)">
<path d="M362 351C362 339.954 370.954 331 382 331H452C463.046 331 472 339.954 472 351V421C472 432.046 463.046 441 452 441H382C370.954 441 362 432.046 362 421V351Z" fill="url(#paint3_radial_567_426)"/>
</g>
</g>
<g filter="url(#filter9_d_567_426)">
<g filter="url(#filter10_d_567_426)">
<path d="M353.142 692.142C345.332 684.332 345.332 671.668 353.142 663.858L402.64 614.36C410.45 606.55 423.113 606.55 430.924 614.36L480.421 663.858C488.232 671.668 488.232 684.332 480.421 692.142L430.924 741.64C423.113 749.45 410.45 749.45 402.64 741.64L353.142 692.142Z" fill="url(#paint4_radial_567_426)"/>
</g>
</g>
<path d="M696.949 387.139L670.357 396.071C668.57 396.671 668.529 399.183 670.296 399.841L696.887 409.738C697.341 409.907 697.841 409.905 698.293 409.734L724.423 399.837C726.175 399.173 726.134 396.68 724.361 396.074L698.232 387.142C697.816 387 697.365 386.999 696.949 387.139Z" stroke="white" stroke-width="1.5"/>
<path d="M696.949 379.754L670.357 388.686C668.57 389.286 668.529 391.799 670.296 392.456L696.887 402.353C697.341 402.522 697.841 402.521 698.293 402.349L724.423 392.452C726.175 391.788 726.134 389.295 724.361 388.689L698.232 379.758C697.816 379.615 697.365 379.614 696.949 379.754Z" fill="#313131" stroke="white" stroke-width="1.5"/>
<path d="M696.949 370.523L670.357 379.455C668.57 380.055 668.529 382.568 670.296 383.226L696.887 393.123C697.341 393.292 697.841 393.29 698.293 393.119L724.423 383.221C726.175 382.557 726.134 380.065 724.361 379.458L698.232 370.527C697.816 370.385 697.365 370.384 696.949 370.523Z" fill="#313131" stroke="white" stroke-width="1.5"/>
<path d="M696.949 362.216L670.357 371.148C668.57 371.748 668.529 374.26 670.296 374.918L696.887 384.815C697.341 384.984 697.841 384.982 698.293 384.811L724.423 374.914C726.175 374.25 726.134 371.757 724.361 371.151L698.232 362.219C697.816 362.077 697.365 362.076 696.949 362.216Z" fill="white" stroke="white" stroke-width="1.5"/>
<rect x="-0.846072" y="0.846072" width="32.4267" height="26.7402" rx="0.846072" transform="matrix(-1 0 0 1 432.376 370.829)" stroke="white" stroke-width="1.69214"/>
<path d="M402 363.921C402 363.604 401.823 363.314 401.541 363.169L389.073 356.744C388.51 356.454 387.839 356.862 387.839 357.496V413.708C387.839 414.397 388.617 414.797 389.177 414.397L401.646 405.474C401.868 405.316 402 405.059 402 404.786V363.921Z" fill="white" stroke="white" stroke-width="1.69214"/>
<path d="M432.33 363.918C432.33 363.601 432.507 363.311 432.788 363.166L445.257 356.74C445.82 356.45 446.49 356.859 446.49 357.493V413.705C446.49 414.394 445.712 414.794 445.152 414.393L432.683 405.471C432.461 405.312 432.33 405.056 432.33 404.783V363.918Z" fill="white" stroke="white" stroke-width="1.69214"/>
<circle cx="416.485" cy="717.115" r="5.60769" fill="white"/>
<circle cx="416.485" cy="678.485" r="9.34615" fill="white"/>
<circle cx="416.485" cy="638.608" r="5.60769" fill="white"/>
<circle cx="376.608" cy="654.808" r="5.60769" fill="white"/>
<circle cx="382.838" cy="699.669" r="5.60769" fill="white"/>
<circle cx="436.423" cy="689.7" r="5.60769" fill="white"/>
<circle cx="446.392" cy="662.285" r="5.60769" fill="white"/>
<line x1="417.615" y1="678.246" x2="438.799" y2="690.707" stroke="white" stroke-width="2"/>
<line x1="416.381" y1="679.962" x2="381.488" y2="701.147" stroke="white" stroke-width="2"/>
<line x1="415.332" y1="678.71" x2="375.455" y2="653.786" stroke="white" stroke-width="2"/>
<line x1="416.616" y1="678.237" x2="445.277" y2="662.037" stroke="white" stroke-width="2"/>
<line x1="416.862" y1="637.985" x2="416.862" y2="715.246" stroke="white" stroke-width="2"/>
<mask id="mask0_567_426" style="mask-type:alpha" maskUnits="userSpaceOnUse" x="307" y="118" width="45" height="12">
<rect x="307" y="118" width="45" height="12" fill="#C4C4C4"/>
</mask>
<g mask="url(#mask0_567_426)">
<path d="M351.25 118C351.25 120.592 349.079 123.15 345.08 125.104C341.132 127.035 335.624 128.25 329.5 128.25C323.376 128.25 317.868 127.035 313.92 125.104C309.921 123.15 307.75 120.592 307.75 118C307.75 115.408 309.921 112.85 313.92 110.896C317.868 108.965 323.376 107.75 329.5 107.75C335.624 107.75 341.132 108.965 345.08 110.896C349.079 112.85 351.25 115.408 351.25 118Z" stroke="#F8F8F8" stroke-width="1.5"/>
</g>
<mask id="mask1_567_426" style="mask-type:alpha" maskUnits="userSpaceOnUse" x="307" y="133" width="45" height="12">
<rect x="307" y="133" width="45" height="12" fill="#C4C4C4"/>
</mask>
<g mask="url(#mask1_567_426)">
<path d="M351.25 133C351.25 135.592 349.079 138.15 345.08 140.104C341.132 142.035 335.624 143.25 329.5 143.25C323.376 143.25 317.868 142.035 313.92 140.104C309.921 138.15 307.75 135.592 307.75 133C307.75 130.408 309.921 127.85 313.92 125.896C317.868 123.965 323.376 122.75 329.5 122.75C335.624 122.75 341.132 123.965 345.08 125.896C349.079 127.85 351.25 130.408 351.25 133Z" stroke="#F8F8F8" stroke-width="1.5"/>
</g>
<mask id="mask2_567_426" style="mask-type:alpha" maskUnits="userSpaceOnUse" x="307" y="103" width="45" height="12">
<rect x="307" y="103" width="45" height="12" fill="#C4C4C4"/>
</mask>
<g mask="url(#mask2_567_426)">
<path d="M351.25 103C351.25 105.592 349.079 108.15 345.08 110.104C341.132 112.035 335.624 113.25 329.5 113.25C323.376 113.25 317.868 112.035 313.92 110.104C309.921 108.15 307.75 105.592 307.75 103C307.75 100.408 309.921 97.8504 313.92 95.8956C317.868 93.9652 323.376 92.75 329.5 92.75C335.624 92.75 341.132 93.9652 345.08 95.8956C349.079 97.8504 351.25 100.408 351.25 103Z" stroke="#F8F8F8" stroke-width="1.5"/>
</g>
<mask id="mask3_567_426" style="mask-type:alpha" maskUnits="userSpaceOnUse" x="303" y="86" width="54" height="53">
<path d="M308.5 110.611V138H304V87H356.5V137.056H350.5V90.3056H308.5V110.611Z" fill="#C4C4C4" stroke="black"/>
</mask>
<g mask="url(#mask3_567_426)">
<rect x="307.75" y="89.6389" width="43.5" height="43.8333" stroke="white" stroke-width="1.5"/>
</g>
<path d="M351.607 89C351.607 91.8039 349.271 94.4533 345.237 96.4251C341.23 98.3842 335.667 99.607 329.5 99.607C323.333 99.607 317.77 98.3842 313.763 96.4251C309.729 94.4533 307.393 91.8039 307.393 89C307.393 86.1961 309.729 83.5467 313.763 81.5749C317.77 79.6158 323.333 78.393 329.5 78.393C335.667 78.393 341.23 79.6158 345.237 81.5749C349.271 83.5467 351.607 86.1961 351.607 89Z" fill="white" stroke="#F8F8F8" stroke-width="0.785949"/>
<ellipse cx="343.5" cy="104.5" rx="2.5" ry="3.5" fill="white"/>
<ellipse cx="343.5" cy="118.5" rx="2.5" ry="3.5" fill="white"/>
<ellipse cx="343.5" cy="133.5" rx="2.5" ry="3.5" fill="white"/>
<mask id="mask4_567_426" style="mask-type:alpha" maskUnits="userSpaceOnUse" x="397" y="118" width="45" height="12">
<rect x="397" y="118" width="45" height="12" fill="#C4C4C4"/>
</mask>
<g mask="url(#mask4_567_426)">
<path d="M441.25 118C441.25 120.592 439.079 123.15 435.08 125.104C431.132 127.035 425.624 128.25 419.5 128.25C413.376 128.25 407.868 127.035 403.92 125.104C399.921 123.15 397.75 120.592 397.75 118C397.75 115.408 399.921 112.85 403.92 110.896C407.868 108.965 413.376 107.75 419.5 107.75C425.624 107.75 431.132 108.965 435.08 110.896C439.079 112.85 441.25 115.408 441.25 118Z" stroke="#F8F8F8" stroke-width="1.5"/>
</g>
<mask id="mask5_567_426" style="mask-type:alpha" maskUnits="userSpaceOnUse" x="397" y="133" width="45" height="12">
<rect x="397" y="133" width="45" height="12" fill="#C4C4C4"/>
</mask>
<g mask="url(#mask5_567_426)">
<path d="M441.25 133C441.25 135.592 439.079 138.15 435.08 140.104C431.132 142.035 425.624 143.25 419.5 143.25C413.376 143.25 407.868 142.035 403.92 140.104C399.921 138.15 397.75 135.592 397.75 133C397.75 130.408 399.921 127.85 403.92 125.896C407.868 123.965 413.376 122.75 419.5 122.75C425.624 122.75 431.132 123.965 435.08 125.896C439.079 127.85 441.25 130.408 441.25 133Z" stroke="#F8F8F8" stroke-width="1.5"/>
</g>
<mask id="mask6_567_426" style="mask-type:alpha" maskUnits="userSpaceOnUse" x="397" y="103" width="45" height="12">
<rect x="397" y="103" width="45" height="12" fill="#C4C4C4"/>
</mask>
<g mask="url(#mask6_567_426)">
<path d="M441.25 103C441.25 105.592 439.079 108.15 435.08 110.104C431.132 112.035 425.624 113.25 419.5 113.25C413.376 113.25 407.868 112.035 403.92 110.104C399.921 108.15 397.75 105.592 397.75 103C397.75 100.408 399.921 97.8504 403.92 95.8956C407.868 93.9652 413.376 92.75 419.5 92.75C425.624 92.75 431.132 93.9652 435.08 95.8956C439.079 97.8504 441.25 100.408 441.25 103Z" stroke="#F8F8F8" stroke-width="1.5"/>
</g>
<mask id="mask7_567_426" style="mask-type:alpha" maskUnits="userSpaceOnUse" x="393" y="86" width="54" height="53">
<path d="M398.5 110.611V138H394V87H446.5V137.056H440.5V90.3056H398.5V110.611Z" fill="#C4C4C4" stroke="black"/>
</mask>
<g mask="url(#mask7_567_426)">
<rect x="397.75" y="89.6389" width="43.5" height="43.8333" stroke="white" stroke-width="1.5"/>
</g>
<path d="M441.607 89C441.607 91.8039 439.271 94.4533 435.237 96.4251C431.23 98.3842 425.667 99.607 419.5 99.607C413.333 99.607 407.77 98.3842 403.763 96.4251C399.729 94.4533 397.393 91.8039 397.393 89C397.393 86.1961 399.729 83.5467 403.763 81.5749C407.77 79.6158 413.333 78.393 419.5 78.393C425.667 78.393 431.23 79.6158 435.237 81.5749C439.271 83.5467 441.607 86.1961 441.607 89Z" fill="white" stroke="#F8F8F8" stroke-width="0.785949"/>
<ellipse cx="433.5" cy="104.5" rx="2.5" ry="3.5" fill="white"/>
<ellipse cx="433.5" cy="118.5" rx="2.5" ry="3.5" fill="white"/>
<ellipse cx="433.5" cy="133.5" rx="2.5" ry="3.5" fill="white"/>
<mask id="mask8_567_426" style="mask-type:alpha" maskUnits="userSpaceOnUse" x="487" y="118" width="45" height="12">
<rect x="487" y="118" width="45" height="12" fill="#C4C4C4"/>
</mask>
<g mask="url(#mask8_567_426)">
<path d="M531.25 118C531.25 120.592 529.079 123.15 525.08 125.104C521.132 127.035 515.624 128.25 509.5 128.25C503.376 128.25 497.868 127.035 493.92 125.104C489.921 123.15 487.75 120.592 487.75 118C487.75 115.408 489.921 112.85 493.92 110.896C497.868 108.965 503.376 107.75 509.5 107.75C515.624 107.75 521.132 108.965 525.08 110.896C529.079 112.85 531.25 115.408 531.25 118Z" stroke="#F8F8F8" stroke-width="1.5"/>
</g>
<mask id="mask9_567_426" style="mask-type:alpha" maskUnits="userSpaceOnUse" x="487" y="133" width="45" height="12">
<rect x="487" y="133" width="45" height="12" fill="#C4C4C4"/>
</mask>
<g mask="url(#mask9_567_426)">
<path d="M531.25 133C531.25 135.592 529.079 138.15 525.08 140.104C521.132 142.035 515.624 143.25 509.5 143.25C503.376 143.25 497.868 142.035 493.92 140.104C489.921 138.15 487.75 135.592 487.75 133C487.75 130.408 489.921 127.85 493.92 125.896C497.868 123.965 503.376 122.75 509.5 122.75C515.624 122.75 521.132 123.965 525.08 125.896C529.079 127.85 531.25 130.408 531.25 133Z" stroke="#F8F8F8" stroke-width="1.5"/>
</g>
<mask id="mask10_567_426" style="mask-type:alpha" maskUnits="userSpaceOnUse" x="487" y="103" width="45" height="12">
<rect x="487" y="103" width="45" height="12" fill="#C4C4C4"/>
</mask>
<g mask="url(#mask10_567_426)">
<path d="M531.25 103C531.25 105.592 529.079 108.15 525.08 110.104C521.132 112.035 515.624 113.25 509.5 113.25C503.376 113.25 497.868 112.035 493.92 110.104C489.921 108.15 487.75 105.592 487.75 103C487.75 100.408 489.921 97.8504 493.92 95.8956C497.868 93.9652 503.376 92.75 509.5 92.75C515.624 92.75 521.132 93.9652 525.08 95.8956C529.079 97.8504 531.25 100.408 531.25 103Z" stroke="#F8F8F8" stroke-width="1.5"/>
</g>
<mask id="mask11_567_426" style="mask-type:alpha" maskUnits="userSpaceOnUse" x="483" y="86" width="54" height="53">
<path d="M488.5 110.611V138H484V87H536.5V137.056H530.5V90.3056H488.5V110.611Z" fill="#C4C4C4" stroke="black"/>
</mask>
<g mask="url(#mask11_567_426)">
<rect x="487.75" y="89.6389" width="43.5" height="43.8333" stroke="white" stroke-width="1.5"/>
</g>
<path d="M531.607 89C531.607 91.8039 529.271 94.4533 525.237 96.4251C521.23 98.3842 515.667 99.607 509.5 99.607C503.333 99.607 497.77 98.3842 493.763 96.4251C489.729 94.4533 487.393 91.8039 487.393 89C487.393 86.1961 489.729 83.5467 493.763 81.5749C497.77 79.6158 503.333 78.393 509.5 78.393C515.667 78.393 521.23 79.6158 525.237 81.5749C529.271 83.5467 531.607 86.1961 531.607 89Z" fill="white" stroke="#F8F8F8" stroke-width="0.785949"/>
<ellipse cx="523.5" cy="104.5" rx="2.5" ry="3.5" fill="white"/>
<ellipse cx="523.5" cy="118.5" rx="2.5" ry="3.5" fill="white"/>
<ellipse cx="523.5" cy="133.5" rx="2.5" ry="3.5" fill="white"/>
<circle cx="175.584" cy="386.5" r="2.41558" fill="white"/>
<circle cx="87.4156" cy="386.5" r="2.41558" fill="white"/>
<circle cx="169.678" cy="364.458" r="2.41558" transform="rotate(-30 169.678 364.458)" fill="white"/>
<circle cx="93.322" cy="408.542" r="2.41558" transform="rotate(-30 93.322 408.542)" fill="white"/>
<circle cx="153.542" cy="348.322" r="2.41558" transform="rotate(-60 153.542 348.322)" fill="white"/>
<circle cx="109.458" cy="424.678" r="2.41558" transform="rotate(-60 109.458 424.678)" fill="white"/>
<circle cx="131.5" cy="342.416" r="2.41558" transform="rotate(-90 131.5 342.416)" fill="white"/>
<circle cx="131.5" cy="385.641" r="2.41558" transform="rotate(-90 131.5 385.641)" fill="white"/>
<circle cx="131.5" cy="385.845" r="5.89437" transform="rotate(-90 131.5 385.845)" fill="white"/>
<circle cx="131.5" cy="430.584" r="2.41558" transform="rotate(-90 131.5 430.584)" fill="white"/>
<circle cx="109.458" cy="348.322" r="2.41558" transform="rotate(-120 109.458 348.322)" fill="white"/>
<circle cx="153.542" cy="424.678" r="2.41558" transform="rotate(-120 153.542 424.678)" fill="white"/>
<circle cx="93.3219" cy="364.458" r="2.41558" transform="rotate(-150 93.3219 364.458)" fill="white"/>
<circle cx="169.678" cy="408.542" r="2.41558" transform="rotate(-150 169.678 408.542)" fill="white"/>
<line x1="94.25" y1="365.5" x2="94.25" y2="406.5" stroke="white" stroke-width="0.5"/>
<line x1="169.25" y1="365.5" x2="169.25" y2="406.5" stroke="white" stroke-width="0.5"/>
<line x1="131.022" y1="342.803" x2="168.463" y2="364.543" stroke="white" stroke-width="0.5"/>
<line y1="-0.25" x2="43.2956" y2="-0.25" transform="matrix(-0.864789 0.502136 0.502136 0.864789 132.104 343.019)" stroke="white" stroke-width="0.5"/>
<line x1="131.978" y1="430.197" x2="94.5368" y2="408.456" stroke="white" stroke-width="0.5"/>
<line y1="-0.25" x2="43.2956" y2="-0.25" transform="matrix(0.864789 -0.502135 -0.502135 -0.864789 130.896 429.981)" stroke="white" stroke-width="0.5"/>
<line x1="111" y1="349.25" x2="150" y2="349.25" stroke="white" stroke-width="0.5"/>
<line x1="87.8032" y1="386.978" x2="109.543" y2="349.537" stroke="white" stroke-width="0.5"/>
<line y1="-0.25" x2="43.2956" y2="-0.25" transform="matrix(0.502136 0.864789 0.864789 -0.502136 88.0194 385.896)" stroke="white" stroke-width="0.5"/>
<line x1="175.197" y1="386.022" x2="153.457" y2="423.463" stroke="white" stroke-width="0.5"/>
<line y1="-0.25" x2="43.2956" y2="-0.25" transform="matrix(-0.502136 -0.864789 -0.864789 0.502136 174.981 387.104)" stroke="white" stroke-width="0.5"/>
<path d="M333.354 389.354C333.549 389.158 333.549 388.842 333.354 388.646L330.172 385.464C329.976 385.269 329.66 385.269 329.464 385.464C329.269 385.66 329.269 385.976 329.464 386.172L332.293 389L329.464 391.828C329.269 392.024 329.269 392.34 329.464 392.536C329.66 392.731 329.976 392.731 330.172 392.536L333.354 389.354ZM218 389.5H333V388.5H218V389.5Z" fill="white"/>
<rect x="264" y="381" width="24" height="15" fill="black"/>
<path d="M613.354 389.354C613.549 389.158 613.549 388.842 613.354 388.646L610.172 385.464C609.976 385.269 609.66 385.269 609.464 385.464C609.269 385.66 609.269 385.976 609.464 386.172L612.293 389L609.464 391.828C609.269 392.024 609.269 392.34 609.464 392.536C609.66 392.731 609.976 392.731 610.172 392.536L613.354 389.354ZM498 389.5H613V388.5H498V389.5Z" fill="white"/>
<path d="M274.496 394V383.6L275.408 384.544H272.128V382.8H276.576V394H274.496Z" fill="white"/>
<rect x="544" y="381" width="24" height="15" fill="black"/>
<path d="M554.496 395V384.6L555.408 385.544H552.128V383.8H556.576V395H554.496Z" fill="white"/>
<defs>
<filter id="filter0_d_567_426" x="72" y="319" width="144" height="144" filterUnits="userSpaceOnUse" color-interpolation-filters="sRGB">
<feFlood flood-opacity="0" result="BackgroundImageFix"/>
<feColorMatrix in="SourceAlpha" type="matrix" values="0 0 0 0 0 0 0 0 0 0 0 0 0 0 0 0 0 0 127 0" result="hardAlpha"/>
<feOffset dx="13" dy="5"/>
<feGaussianBlur stdDeviation="8.5"/>
<feColorMatrix type="matrix" values="0 0 0 0 0 0 0 0 0 0 0 0 0 0 0 0 0 0 0.15 0"/>
<feBlend mode="normal" in2="BackgroundImageFix" result="effect1_dropShadow_567_426"/>
<feBlend mode="normal" in="SourceGraphic" in2="effect1_dropShadow_567_426" result="shape"/>
</filter>
<filter id="filter1_d_567_426" x="72" y="319" width="144" height="144" filterUnits="userSpaceOnUse" color-interpolation-filters="sRGB">
<feFlood flood-opacity="0" result="BackgroundImageFix"/>
<feColorMatrix in="SourceAlpha" type="matrix" values="0 0 0 0 0 0 0 0 0 0 0 0 0 0 0 0 0 0 127 0" result="hardAlpha"/>
<feOffset dx="13" dy="5"/>
<feGaussianBlur stdDeviation="8.5"/>
<feColorMatrix type="matrix" values="0 0 0 0 0 0 0 0 0 0 0 0 0 0 0 0 0 0 0.15 0"/>
<feBlend mode="normal" in2="BackgroundImageFix" result="effect1_dropShadow_567_426"/>
<feBlend mode="normal" in="SourceGraphic" in2="effect1_dropShadow_567_426" result="shape"/>
</filter>
<filter id="filter2_d_567_426" x="76" y="331" width="118" height="119" filterUnits="userSpaceOnUse" color-interpolation-filters="sRGB">
<feFlood flood-opacity="0" result="BackgroundImageFix"/>
<feColorMatrix in="SourceAlpha" type="matrix" values="0 0 0 0 0 0 0 0 0 0 0 0 0 0 0 0 0 0 127 0" result="hardAlpha"/>
<feOffset dx="4" dy="5"/>
<feGaussianBlur stdDeviation="2"/>
<feColorMatrix type="matrix" values="0 0 0 0 0 0 0 0 0 0 0 0 0 0 0 0 0 0 0.25 0"/>
<feBlend mode="normal" in2="BackgroundImageFix" result="effect1_dropShadow_567_426"/>
<feBlend mode="normal" in="SourceGraphic" in2="effect1_dropShadow_567_426" result="shape"/>
</filter>
<filter id="filter3_d_567_426" x="638" y="319" width="144" height="144" filterUnits="userSpaceOnUse" color-interpolation-filters="sRGB">
<feFlood flood-opacity="0" result="BackgroundImageFix"/>
<feColorMatrix in="SourceAlpha" type="matrix" values="0 0 0 0 0 0 0 0 0 0 0 0 0 0 0 0 0 0 127 0" result="hardAlpha"/>
<feOffset dx="13" dy="5"/>
<feGaussianBlur stdDeviation="8.5"/>
<feColorMatrix type="matrix" values="0 0 0 0 0 0 0 0 0 0 0 0 0 0 0 0 0 0 0.15 0"/>
<feBlend mode="normal" in2="BackgroundImageFix" result="effect1_dropShadow_567_426"/>
<feBlend mode="normal" in="SourceGraphic" in2="effect1_dropShadow_567_426" result="shape"/>
</filter>
<filter id="filter4_d_567_426" x="642" y="331" width="118" height="119" filterUnits="userSpaceOnUse" color-interpolation-filters="sRGB">
<feFlood flood-opacity="0" result="BackgroundImageFix"/>
<feColorMatrix in="SourceAlpha" type="matrix" values="0 0 0 0 0 0 0 0 0 0 0 0 0 0 0 0 0 0 127 0" result="hardAlpha"/>
<feOffset dx="4" dy="5"/>
<feGaussianBlur stdDeviation="2"/>
<feColorMatrix type="matrix" values="0 0 0 0 0 0 0 0 0 0 0 0 0 0 0 0 0 0 0.25 0"/>
<feBlend mode="normal" in2="BackgroundImageFix" result="effect1_dropShadow_567_426"/>
<feBlend mode="normal" in="SourceGraphic" in2="effect1_dropShadow_567_426" result="shape"/>
</filter>
<filter id="filter5_d_567_426" x="268" y="44" width="323" height="144" filterUnits="userSpaceOnUse" color-interpolation-filters="sRGB">
<feFlood flood-opacity="0" result="BackgroundImageFix"/>
<feColorMatrix in="SourceAlpha" type="matrix" values="0 0 0 0 0 0 0 0 0 0 0 0 0 0 0 0 0 0 127 0" result="hardAlpha"/>
<feOffset dx="13" dy="5"/>
<feGaussianBlur stdDeviation="8.5"/>
<feColorMatrix type="matrix" values="0 0 0 0 0 0 0 0 0 0 0 0 0 0 0 0 0 0 0.15 0"/>
<feBlend mode="normal" in2="BackgroundImageFix" result="effect1_dropShadow_567_426"/>
<feBlend mode="normal" in="SourceGraphic" in2="effect1_dropShadow_567_426" result="shape"/>
</filter>
<filter id="filter6_d_567_426" x="272" y="56" width="297" height="119" filterUnits="userSpaceOnUse" color-interpolation-filters="sRGB">
<feFlood flood-opacity="0" result="BackgroundImageFix"/>
<feColorMatrix in="SourceAlpha" type="matrix" values="0 0 0 0 0 0 0 0 0 0 0 0 0 0 0 0 0 0 127 0" result="hardAlpha"/>
<feOffset dx="4" dy="5"/>
<feGaussianBlur stdDeviation="2"/>
<feColorMatrix type="matrix" values="0 0 0 0 0 0 0 0 0 0 0 0 0 0 0 0 0 0 0.25 0"/>
<feBlend mode="normal" in2="BackgroundImageFix" result="effect1_dropShadow_567_426"/>
<feBlend mode="normal" in="SourceGraphic" in2="effect1_dropShadow_567_426" result="shape"/>
</filter>
<filter id="filter7_d_567_426" x="358" y="319" width="144" height="144" filterUnits="userSpaceOnUse" color-interpolation-filters="sRGB">
<feFlood flood-opacity="0" result="BackgroundImageFix"/>
<feColorMatrix in="SourceAlpha" type="matrix" values="0 0 0 0 0 0 0 0 0 0 0 0 0 0 0 0 0 0 127 0" result="hardAlpha"/>
<feOffset dx="13" dy="5"/>
<feGaussianBlur stdDeviation="8.5"/>
<feColorMatrix type="matrix" values="0 0 0 0 0 0 0 0 0 0 0 0 0 0 0 0 0 0 0.15 0"/>
<feBlend mode="normal" in2="BackgroundImageFix" result="effect1_dropShadow_567_426"/>
<feBlend mode="normal" in="SourceGraphic" in2="effect1_dropShadow_567_426" result="shape"/>
</filter>
<filter id="filter8_d_567_426" x="362" y="331" width="118" height="119" filterUnits="userSpaceOnUse" color-interpolation-filters="sRGB">
<feFlood flood-opacity="0" result="BackgroundImageFix"/>
<feColorMatrix in="SourceAlpha" type="matrix" values="0 0 0 0 0 0 0 0 0 0 0 0 0 0 0 0 0 0 127 0" result="hardAlpha"/>
<feOffset dx="4" dy="5"/>
<feGaussianBlur stdDeviation="2"/>
<feColorMatrix type="matrix" values="0 0 0 0 0 0 0 0 0 0 0 0 0 0 0 0 0 0 0.25 0"/>
<feBlend mode="normal" in2="BackgroundImageFix" result="effect1_dropShadow_567_426"/>
<feBlend mode="normal" in="SourceGraphic" in2="effect1_dropShadow_567_426" result="shape"/>
</filter>
<filter id="filter9_d_567_426" x="343.284" y="596.503" width="172.995" height="172.995" filterUnits="userSpaceOnUse" color-interpolation-filters="sRGB">
<feFlood flood-opacity="0" result="BackgroundImageFix"/>
<feColorMatrix in="SourceAlpha" type="matrix" values="0 0 0 0 0 0 0 0 0 0 0 0 0 0 0 0 0 0 127 0" result="hardAlpha"/>
<feOffset dx="13" dy="5"/>
<feGaussianBlur stdDeviation="8.5"/>
<feColorMatrix type="matrix" values="0 0 0 0 0 0 0 0 0 0 0 0 0 0 0 0 0 0 0.15 0"/>
<feBlend mode="normal" in2="BackgroundImageFix" result="effect1_dropShadow_567_426"/>
<feBlend mode="normal" in="SourceGraphic" in2="effect1_dropShadow_567_426" result="shape"/>
</filter>
<filter id="filter10_d_567_426" x="347.284" y="608.503" width="146.995" height="147.995" filterUnits="userSpaceOnUse" color-interpolation-filters="sRGB">
<feFlood flood-opacity="0" result="BackgroundImageFix"/>
<feColorMatrix in="SourceAlpha" type="matrix" values="0 0 0 0 0 0 0 0 0 0 0 0 0 0 0 0 0 0 127 0" result="hardAlpha"/>
<feOffset dx="4" dy="5"/>
<feGaussianBlur stdDeviation="2"/>
<feColorMatrix type="matrix" values="0 0 0 0 0 0 0 0 0 0 0 0 0 0 0 0 0 0 0.25 0"/>
<feBlend mode="normal" in2="BackgroundImageFix" result="effect1_dropShadow_567_426"/>
<feBlend mode="normal" in="SourceGraphic" in2="effect1_dropShadow_567_426" result="shape"/>
</filter>
<radialGradient id="paint0_radial_567_426" cx="0" cy="0" r="1" gradientUnits="userSpaceOnUse" gradientTransform="translate(50.0534 316.806) rotate(40.0117) scale(193.164 864.283)">
<stop stop-color="#343434"/>
<stop offset="1" stop-color="#242424"/>
</radialGradient>
<radialGradient id="paint1_radial_567_426" cx="0" cy="0" r="1" gradientUnits="userSpaceOnUse" gradientTransform="translate(616.053 316.806) rotate(40.0117) scale(193.164 864.283)">
<stop stop-color="#3A3A3A"/>
<stop offset="1" stop-color="#202020"/>
</radialGradient>
<radialGradient id="paint2_radial_567_426" cx="0" cy="0" r="1" gradientUnits="userSpaceOnUse" gradientTransform="translate(203.831 41.8064) rotate(17.7194) scale(408.055 1074.9)">
<stop stop-color="#3A3A3A"/>
<stop offset="1" stop-color="#202020"/>
</radialGradient>
<radialGradient id="paint3_radial_567_426" cx="0" cy="0" r="1" gradientUnits="userSpaceOnUse" gradientTransform="translate(336.053 316.806) rotate(40.0117) scale(193.164 864.283)">
<stop stop-color="#3A3A3A"/>
<stop offset="1" stop-color="#202020"/>
</radialGradient>
<radialGradient id="paint4_radial_567_426" cx="0" cy="0" r="1" gradientUnits="userSpaceOnUse" gradientTransform="translate(310.617 686.311) rotate(-4.98826) scale(193.164 864.283)">
<stop stop-color="#3A3A3A"/>
<stop offset="1" stop-color="#202020"/>
</radialGradient>
</defs>
</svg>
