<svg width="872" height="770" viewBox="0 0 872 770" fill="none" xmlns="http://www.w3.org/2000/svg">
<rect width="872" height="764" fill="white"/>
<g filter="url(#filter0_d_567_426)">
<g filter="url(#filter1_d_567_426)">
<g filter="url(#filter2_d_567_426)">
<path d="M76 386C76 355.624 100.624 331 131 331C161.376 331 186 355.624 186 386C186 416.376 161.376 441 131 441C100.624 441 76 416.376 76 386Z" fill="url(#paint0_radial_567_426)"/>
</g>
</g>
</g>
<path d="M116.68 304.128V308.512C116.008 307.728 115.032 307.36 113.928 307.36C111.448 307.36 109.608 309.072 109.608 311.728C109.608 314.384 111.448 316.112 113.928 316.112C115.096 316.112 116.088 315.712 116.76 314.896V316H118.68V304.128H116.68ZM114.168 314.4C112.728 314.4 111.624 313.36 111.624 311.728C111.624 310.096 112.728 309.056 114.168 309.056C115.608 309.056 116.712 310.096 116.712 311.728C116.712 313.36 115.608 314.4 114.168 314.4ZM129.872 316H132.048L126.992 304.8H124.944L119.904 316H122.048L123.152 313.408H128.752L129.872 316ZM123.856 311.776L125.952 306.88L128.064 311.776H123.856ZM138.017 307.36C136.849 307.36 135.857 307.76 135.185 308.576V307.456H133.281V319.104H135.281V314.96C135.969 315.744 136.929 316.112 138.017 316.112C140.513 316.112 142.353 314.384 142.353 311.728C142.353 309.088 140.513 307.36 138.017 307.36ZM137.793 314.4C136.353 314.4 135.249 313.36 135.249 311.728C135.249 310.096 136.353 309.056 137.793 309.056C139.233 309.056 140.321 310.096 140.321 311.728C140.321 313.36 139.233 314.4 137.793 314.4ZM148.986 307.36C147.818 307.36 146.826 307.76 146.154 308.576V307.456H144.25V319.104H146.25V314.96C146.938 315.744 147.898 316.112 148.986 316.112C151.482 316.112 153.322 314.384 153.322 311.728C153.322 309.088 151.482 307.36 148.986 307.36ZM148.762 314.4C147.322 314.4 146.218 313.36 146.218 311.728C146.218 310.096 147.322 309.056 148.762 309.056C150.202 309.056 151.29 310.096 151.29 311.728C151.29 313.36 150.202 314.4 148.762 314.4Z" fill="black"/>
<path d="M367.152 313.76C366.432 314.176 365.648 314.336 364.848 314.336C362.48 314.336 360.8 312.672 360.8 310.4C360.8 308.08 362.48 306.464 364.864 306.464C366.064 306.464 367.072 306.864 367.952 307.744L369.264 306.464C368.208 305.264 366.64 304.64 364.768 304.64C361.264 304.64 358.704 307.056 358.704 310.4C358.704 313.744 361.264 316.16 364.736 316.16C366.32 316.16 367.952 315.68 369.12 314.736V310.272H367.152V313.76ZM374.935 307.36C373.559 307.36 372.231 307.712 371.319 308.416L372.103 309.872C372.743 309.344 373.735 309.024 374.695 309.024C376.119 309.024 376.823 309.712 376.823 310.88V311.008H374.615C372.023 311.008 371.063 312.128 371.063 313.552C371.063 315.04 372.295 316.112 374.247 316.112C375.527 316.112 376.455 315.696 376.935 314.96V316H378.823V310.992C378.823 308.528 377.399 307.36 374.935 307.36ZM374.663 314.656C373.639 314.656 373.031 314.192 373.031 313.472C373.031 312.848 373.399 312.336 374.759 312.336H376.823V313.328C376.487 314.208 375.639 314.656 374.663 314.656ZM385.966 314.112C385.662 314.352 385.262 314.464 384.846 314.464C384.078 314.464 383.662 314.016 383.662 313.184V309.12H385.95V307.52H383.662V305.568H381.662V307.52H380.254V309.12H381.662V313.232C381.662 315.12 382.734 316.112 384.606 316.112C385.326 316.112 386.046 315.92 386.526 315.536L385.966 314.112ZM395.922 311.776C395.922 309.104 394.098 307.36 391.602 307.36C389.058 307.36 387.186 309.184 387.186 311.728C387.186 314.272 389.042 316.112 391.906 316.112C393.378 316.112 394.578 315.632 395.346 314.72L394.274 313.488C393.666 314.112 392.914 314.416 391.954 314.416C390.466 314.416 389.426 313.616 389.186 312.368H395.89C395.906 312.176 395.922 311.936 395.922 311.776ZM391.602 308.96C392.914 308.96 393.858 309.808 394.018 311.04H389.17C389.362 309.792 390.306 308.96 391.602 308.96ZM409.239 307.456L406.919 313.792L404.615 307.456H402.935L400.583 313.76L398.327 307.456H396.439L399.575 316H401.495L403.735 310.112L405.943 316H407.863L411.015 307.456H409.239ZM415.389 307.36C414.013 307.36 412.685 307.712 411.773 308.416L412.557 309.872C413.197 309.344 414.189 309.024 415.149 309.024C416.573 309.024 417.277 309.712 417.277 310.88V311.008H415.069C412.477 311.008 411.517 312.128 411.517 313.552C411.517 315.04 412.749 316.112 414.701 316.112C415.981 316.112 416.909 315.696 417.389 314.96V316H419.277V310.992C419.277 308.528 417.853 307.36 415.389 307.36ZM415.117 314.656C414.093 314.656 413.485 314.192 413.485 313.472C413.485 312.848 413.853 312.336 415.213 312.336H417.277V313.328C416.941 314.208 416.093 314.656 415.117 314.656ZM427.767 307.456L425.063 313.776L422.375 307.456H420.295L424.023 316.032L423.879 316.368C423.495 317.216 423.079 317.552 422.375 317.552C421.831 317.552 421.287 317.328 420.903 316.96L420.103 318.432C420.647 318.928 421.543 319.216 422.391 319.216C423.815 319.216 424.903 318.624 425.687 316.688L429.687 307.456H427.767ZM443.439 304.8V312.384L437.263 304.8H435.551V316H437.615V308.416L443.791 316H445.503V304.8H443.439ZM452.152 316.112C454.808 316.112 456.712 314.288 456.712 311.728C456.712 309.168 454.808 307.36 452.152 307.36C449.528 307.36 447.608 309.168 447.608 311.728C447.608 314.288 449.528 316.112 452.152 316.112ZM452.152 314.4C450.712 314.4 449.624 313.36 449.624 311.728C449.624 310.096 450.712 309.056 452.152 309.056C453.608 309.056 454.696 310.096 454.696 311.728C454.696 313.36 453.608 314.4 452.152 314.4ZM464.993 304.128V308.512C464.321 307.728 463.345 307.36 462.241 307.36C459.761 307.36 457.921 309.072 457.921 311.728C457.921 314.384 459.761 316.112 462.241 316.112C463.409 316.112 464.401 315.712 465.073 314.896V316H466.993V304.128H464.993ZM462.481 314.4C461.041 314.4 459.937 313.36 459.937 311.728C459.937 310.096 461.041 309.056 462.481 309.056C463.921 309.056 465.025 310.096 465.025 311.728C465.025 313.36 463.921 314.4 462.481 314.4ZM477.641 311.776C477.641 309.104 475.817 307.36 473.321 307.36C470.777 307.36 468.905 309.184 468.905 311.728C468.905 314.272 470.761 316.112 473.625 316.112C475.097 316.112 476.297 315.632 477.065 314.72L475.993 313.488C475.385 314.112 474.633 314.416 473.673 314.416C472.185 314.416 471.145 313.616 470.905 312.368H477.609C477.625 312.176 477.641 311.936 477.641 311.776ZM473.321 308.96C474.633 308.96 475.577 309.808 475.737 311.04H470.889C471.081 309.792 472.025 308.96 473.321 308.96Z" fill="black"/>
<path d="M377.504 600H382.4C386.032 600 388.512 597.76 388.512 594.4C388.512 591.04 386.032 588.8 382.4 588.8H377.504V600ZM379.584 598.24V590.56H382.304C384.8 590.56 386.416 592.08 386.416 594.4C386.416 596.72 384.8 598.24 382.304 598.24H379.584ZM398.531 600H400.963L395.971 593.808L400.675 588.8H398.339L392.803 594.544V588.8H390.723V600H392.803V597.136L394.579 595.312L398.531 600ZM409.621 597.76C408.901 598.176 408.117 598.336 407.317 598.336C404.949 598.336 403.269 596.672 403.269 594.4C403.269 592.08 404.949 590.464 407.333 590.464C408.533 590.464 409.541 590.864 410.421 591.744L411.733 590.464C410.677 589.264 409.109 588.64 407.237 588.64C403.733 588.64 401.173 591.056 401.173 594.4C401.173 597.744 403.733 600.16 407.205 600.16C408.789 600.16 410.421 599.68 411.589 598.736V594.272H409.621V597.76ZM426.642 588.8V596.384L420.466 588.8H418.754V600H420.818V592.416L426.994 600H428.706V588.8H426.642ZM435.355 600.112C438.011 600.112 439.915 598.288 439.915 595.728C439.915 593.168 438.011 591.36 435.355 591.36C432.731 591.36 430.811 593.168 430.811 595.728C430.811 598.288 432.731 600.112 435.355 600.112ZM435.355 598.4C433.915 598.4 432.827 597.36 432.827 595.728C432.827 594.096 433.915 593.056 435.355 593.056C436.811 593.056 437.899 594.096 437.899 595.728C437.899 597.36 436.811 598.4 435.355 598.4ZM448.196 588.128V592.512C447.524 591.728 446.548 591.36 445.444 591.36C442.964 591.36 441.124 593.072 441.124 595.728C441.124 598.384 442.964 600.112 445.444 600.112C446.612 600.112 447.604 599.712 448.276 598.896V600H450.196V588.128H448.196ZM445.684 598.4C444.244 598.4 443.14 597.36 443.14 595.728C443.14 594.096 444.244 593.056 445.684 593.056C447.124 593.056 448.228 594.096 448.228 595.728C448.228 597.36 447.124 598.4 445.684 598.4ZM460.844 595.776C460.844 593.104 459.02 591.36 456.524 591.36C453.98 591.36 452.108 593.184 452.108 595.728C452.108 598.272 453.964 600.112 456.828 600.112C458.3 600.112 459.5 599.632 460.268 598.72L459.196 597.488C458.588 598.112 457.836 598.416 456.876 598.416C455.388 598.416 454.348 597.616 454.108 596.368H460.812C460.828 596.176 460.844 595.936 460.844 595.776ZM456.524 592.96C457.836 592.96 458.78 593.808 458.94 595.04H454.092C454.284 593.792 455.228 592.96 456.524 592.96Z" fill="black"/>
<g filter="url(#filter3_d_567_426)">
<g filter="url(#filter4_d_567_426)">
<path d="M642 351C642 339.954 650.954 331 662 331H732C743.046 331 752 339.954 752 351V421C752 432.046 743.046 441 732 441H662C650.954 441 642 432.046 642 421V351Z" fill="url(#paint1_radial_567_426)"/>
</g>
</g>
<path d="M362.976 42.16C366.048 42.16 367.504 40.624 367.504 38.832C367.504 34.72 360.864 36.272 360.864 33.888C360.864 33.04 361.568 32.368 363.296 32.368C364.272 32.368 365.376 32.656 366.384 33.248L367.04 31.632C366.064 30.992 364.656 30.64 363.312 30.64C360.24 30.64 358.8 32.176 358.8 33.984C358.8 38.144 365.456 36.56 365.456 38.976C365.456 39.808 364.72 40.432 362.976 40.432C361.6 40.432 360.176 39.92 359.28 39.2L358.56 40.816C359.488 41.616 361.232 42.16 362.976 42.16ZM373.951 40.112C373.647 40.352 373.247 40.464 372.831 40.464C372.062 40.464 371.647 40.016 371.647 39.184V35.12H373.935V33.52H371.647V31.568H369.647V33.52H368.239V35.12H369.647V39.232C369.647 41.12 370.719 42.112 372.591 42.112C373.311 42.112 374.031 41.92 374.511 41.536L373.951 40.112ZM379.715 42.112C382.371 42.112 384.275 40.288 384.275 37.728C384.275 35.168 382.371 33.36 379.715 33.36C377.091 33.36 375.171 35.168 375.171 37.728C375.171 40.288 377.091 42.112 379.715 42.112ZM379.715 40.4C378.275 40.4 377.187 39.36 377.187 37.728C377.187 36.096 378.275 35.056 379.715 35.056C381.171 35.056 382.259 36.096 382.259 37.728C382.259 39.36 381.171 40.4 379.715 40.4ZM388.091 34.704V33.456H386.187V42H388.187V37.856C388.187 36.112 389.147 35.216 390.667 35.216C390.811 35.216 390.955 35.232 391.131 35.264V33.36C389.707 33.36 388.667 33.808 388.091 34.704ZM396.045 33.36C394.669 33.36 393.341 33.712 392.429 34.416L393.213 35.872C393.853 35.344 394.845 35.024 395.805 35.024C397.229 35.024 397.933 35.712 397.933 36.88V37.008H395.725C393.133 37.008 392.173 38.128 392.173 39.552C392.173 41.04 393.405 42.112 395.357 42.112C396.637 42.112 397.565 41.696 398.045 40.96V42H399.933V36.992C399.933 34.528 398.509 33.36 396.045 33.36ZM395.773 40.656C394.749 40.656 394.141 40.192 394.141 39.472C394.141 38.848 394.509 38.336 395.869 38.336H397.933V39.328C397.597 40.208 396.749 40.656 395.773 40.656ZM409.154 33.456V34.592C408.45 33.744 407.394 33.36 406.194 33.36C403.746 33.36 401.874 34.992 401.874 37.472C401.874 39.952 403.746 41.616 406.194 41.616C407.346 41.616 408.354 41.248 409.058 40.48V40.928C409.058 42.656 408.226 43.52 406.338 43.52C405.154 43.52 403.938 43.12 403.186 42.496L402.29 44C403.266 44.8 404.85 45.216 406.45 45.216C409.442 45.216 411.058 43.808 411.058 40.704V33.456H409.154ZM406.498 39.92C404.978 39.92 403.89 38.928 403.89 37.472C403.89 36.032 404.978 35.056 406.498 35.056C408.002 35.056 409.09 36.032 409.09 37.472C409.09 38.928 408.002 39.92 406.498 39.92ZM421.719 37.776C421.719 35.104 419.895 33.36 417.399 33.36C414.855 33.36 412.983 35.184 412.983 37.728C412.983 40.272 414.839 42.112 417.703 42.112C419.175 42.112 420.375 41.632 421.143 40.72L420.071 39.488C419.463 40.112 418.711 40.416 417.751 40.416C416.263 40.416 415.223 39.616 414.983 38.368H421.687C421.703 38.176 421.719 37.936 421.719 37.776ZM417.399 34.96C418.711 34.96 419.655 35.808 419.815 37.04H414.967C415.159 35.792 416.103 34.96 417.399 34.96ZM436.142 30.8V38.384L429.966 30.8H428.254V42H430.318V34.416L436.494 42H438.206V30.8H436.142ZM444.855 42.112C447.511 42.112 449.415 40.288 449.415 37.728C449.415 35.168 447.511 33.36 444.855 33.36C442.231 33.36 440.311 35.168 440.311 37.728C440.311 40.288 442.231 42.112 444.855 42.112ZM444.855 40.4C443.415 40.4 442.327 39.36 442.327 37.728C442.327 36.096 443.415 35.056 444.855 35.056C446.311 35.056 447.399 36.096 447.399 37.728C447.399 39.36 446.311 40.4 444.855 40.4ZM457.696 30.128V34.512C457.024 33.728 456.048 33.36 454.944 33.36C452.464 33.36 450.624 35.072 450.624 37.728C450.624 40.384 452.464 42.112 454.944 42.112C456.112 42.112 457.104 41.712 457.776 40.896V42H459.696V30.128H457.696ZM455.184 40.4C453.744 40.4 452.64 39.36 452.64 37.728C452.64 36.096 453.744 35.056 455.184 35.056C456.624 35.056 457.728 36.096 457.728 37.728C457.728 39.36 456.624 40.4 455.184 40.4ZM470.344 37.776C470.344 35.104 468.52 33.36 466.024 33.36C463.48 33.36 461.608 35.184 461.608 37.728C461.608 40.272 463.464 42.112 466.328 42.112C467.8 42.112 469 41.632 469.768 40.72L468.696 39.488C468.088 40.112 467.336 40.416 466.376 40.416C464.888 40.416 463.848 39.616 463.608 38.368H470.312C470.328 38.176 470.344 37.936 470.344 37.776ZM466.024 34.96C467.336 34.96 468.28 35.808 468.44 37.04H463.592C463.784 35.792 464.728 34.96 466.024 34.96ZM474.905 42.112C477.305 42.112 478.777 41.072 478.777 39.472C478.777 36.128 473.497 37.664 473.497 35.936C473.497 35.376 474.073 34.976 475.289 34.976C476.105 34.976 476.921 35.136 477.737 35.616L478.505 34.096C477.737 33.632 476.441 33.36 475.305 33.36C473.001 33.36 471.545 34.416 471.545 36.032C471.545 39.44 476.825 37.904 476.825 39.536C476.825 40.128 476.297 40.48 475.033 40.48C473.961 40.48 472.809 40.128 472.057 39.632L471.289 41.152C472.057 41.696 473.481 42.112 474.905 42.112Z" fill="black"/>
<path d="M660.44 310.176C661.304 309.712 661.88 308.864 661.88 307.712C661.88 305.936 660.44 304.8 657.752 304.8H652.504V316H658.072C660.952 316 662.456 314.88 662.456 312.96C662.456 311.504 661.64 310.56 660.44 310.176ZM657.528 306.432C658.968 306.432 659.784 306.944 659.784 307.984C659.784 309.008 658.968 309.52 657.528 309.52H654.584V306.432H657.528ZM657.944 314.368H654.584V311.136H657.944C659.512 311.136 660.36 311.632 660.36 312.752C660.36 313.872 659.512 314.368 657.944 314.368ZM664.484 316H666.484V304.128H664.484V316ZM672.949 316.112C675.605 316.112 677.509 314.288 677.509 311.728C677.509 309.168 675.605 307.36 672.949 307.36C670.325 307.36 668.405 309.168 668.405 311.728C668.405 314.288 670.325 316.112 672.949 316.112ZM672.949 314.4C671.509 314.4 670.421 313.36 670.421 311.728C670.421 310.096 671.509 309.056 672.949 309.056C674.405 309.056 675.493 310.096 675.493 311.728C675.493 313.36 674.405 314.4 672.949 314.4ZM683.341 316.112C685.005 316.112 686.333 315.392 686.989 314.112L685.453 313.216C684.941 314.032 684.173 314.4 683.325 314.4C681.853 314.4 680.733 313.392 680.733 311.728C680.733 310.08 681.853 309.056 683.325 309.056C684.173 309.056 684.941 309.424 685.453 310.24L686.989 309.344C686.333 308.048 685.005 307.36 683.341 307.36C680.637 307.36 678.717 309.168 678.717 311.728C678.717 314.288 680.637 316.112 683.341 316.112ZM695.088 316H697.52L693.616 311.04L697.184 307.456H694.784L690.64 311.296V304.128H688.64V316H690.64V313.744L692.128 312.336L695.088 316ZM702.373 316.112C704.037 316.112 705.365 315.392 706.021 314.112L704.485 313.216C703.973 314.032 703.205 314.4 702.357 314.4C700.885 314.4 699.765 313.392 699.765 311.728C699.765 310.08 700.885 309.056 702.357 309.056C703.205 309.056 703.973 309.424 704.485 310.24L706.021 309.344C705.365 308.048 704.037 307.36 702.373 307.36C699.669 307.36 697.749 309.168 697.749 311.728C697.749 314.288 699.669 316.112 702.373 316.112ZM712.519 307.36C711.335 307.36 710.327 307.744 709.671 308.448V304.128H707.671V316H709.671V311.68C709.671 309.968 710.631 309.104 712.055 309.104C713.335 309.104 714.087 309.84 714.087 311.36V316H716.087V311.104C716.087 308.528 714.567 307.36 712.519 307.36ZM721.889 307.36C720.513 307.36 719.185 307.712 718.273 308.416L719.057 309.872C719.697 309.344 720.689 309.024 721.649 309.024C723.073 309.024 723.777 309.712 723.777 310.88V311.008H721.569C718.977 311.008 718.017 312.128 718.017 313.552C718.017 315.04 719.249 316.112 721.201 316.112C722.481 316.112 723.409 315.696 723.889 314.96V316H725.777V310.992C725.777 308.528 724.353 307.36 721.889 307.36ZM721.617 314.656C720.593 314.656 719.985 314.192 719.985 313.472C719.985 312.848 720.353 312.336 721.713 312.336H723.777V313.328C723.441 314.208 722.593 314.656 721.617 314.656ZM729.351 306.048C730.103 306.048 730.631 305.504 730.631 304.8C730.631 304.144 730.087 303.648 729.351 303.648C728.615 303.648 728.071 304.176 728.071 304.848C728.071 305.52 728.615 306.048 729.351 306.048ZM728.343 316H730.343V307.456H728.343V316ZM737.816 307.36C736.568 307.36 735.528 307.776 734.872 308.56V307.456H732.968V316H734.968V311.68C734.968 309.968 735.928 309.104 737.352 309.104C738.632 309.104 739.384 309.84 739.384 311.36V316H741.384V311.104C741.384 308.528 739.864 307.36 737.816 307.36Z" fill="black"/>
<g filter="url(#filter5_d_567_426)">
<g filter="url(#filter6_d_567_426)">
<path d="M272 76C272 64.9543 280.954 56 292 56H541C552.046 56 561 64.9543 561 76V146C561 157.046 552.046 166 541 166H292C280.954 166 272 157.046 272 146V76Z" fill="url(#paint2_radial_567_426)"/>
</g>
</g>
<g filter="url(#filter7_d_567_426)">
<g filter="url(#filter8_d_567_426)">
<path d="M362 351C362 339.954 370.954 331 382 331H452C463.046 331 472 339.954 472 351V421C472 432.046 463.046 441 452 441H382C370.954 441 362 432.046 362 421V351Z" fill="url(#paint3_radial_567_426)"/>
</g>
</g>
<g filter="url(#filter9_d_567_426)">
<g filter="url(#filter10_d_567_426)">
<path d="M353.142 692.142C345.332 684.332 345.332 671.668 353.142 663.858L402.64 614.36C410.45 606.55 423.113 606.55 430.924 614.36L480.421 663.858C488.232 671.668 488.232 684.332 480.421 692.142L430.924 741.64C423.113 749.45 410.45 749.45 402.64 741.64L353.142 692.142Z" fill="url(#paint4_radial_567_426)"/>
</g>
</g>
<path d="M696.949 387.139L670.357 396.071C668.57 396.671 668.529 399.183 670.296 399.841L696.887 409.738C697.341 409.907 697.841 409.905 698.293 409.734L724.423 399.837C726.175 399.173 726.134 396.68 724.361 396.074L698.232 387.142C697.816 387 697.365 386.999 696.949 387.139Z" stroke="white" stroke-width="1.5"/>
<path d="M696.949 379.754L670.357 388.686C668.57 389.286 668.529 391.799 670.296 392.456L696.887 402.353C697.341 402.522 697.841 402.521 698.293 402.349L724.423 392.452C726.175 391.788 726.134 389.295 724.361 388.689L698.232 379.758C697.816 379.615 697.365 379.614 696.949 379.754Z" fill="#313131" stroke="white" stroke-width="1.5"/>
<path d="M696.949 370.523L670.357 379.455C668.57 380.055 668.529 382.568 670.296 383.226L696.887 393.123C697.341 393.292 697.841 393.29 698.293 393.119L724.423 383.221C726.175 382.557 726.134 380.065 724.361 379.458L698.232 370.527C697.816 370.385 697.365 370.384 696.949 370.523Z" fill="#313131" stroke="white" stroke-width="1.5"/>
<path d="M696.949 362.216L670.357 371.148C668.57 371.748 668.529 374.26 670.296 374.918L696.887 384.815C697.341 384.984 697.841 384.982 698.293 384.811L724.423 374.914C726.175 374.25 726.134 371.757 724.361 371.151L698.232 362.219C697.816 362.077 697.365 362.076 696.949 362.216Z" fill="white" stroke="white" stroke-width="1.5"/>
<rect x="-0.846072" y="0.846072" width="32.4267" height="26.7402" rx="0.846072" transform="matrix(-1 0 0 1 432.376 370.829)" stroke="white" stroke-width="1.69214"/>
<path d="M402 363.921C402 363.604 401.823 363.314 401.541 363.169L389.073 356.744C388.509 356.454 387.839 356.862 387.839 357.496V413.708C387.839 414.397 388.617 414.797 389.177 414.397L401.646 405.474C401.868 405.316 402 405.059 402 404.786V363.921Z" fill="white" stroke="white" stroke-width="1.69214"/>
<path d="M432.33 363.918C432.33 363.601 432.506 363.311 432.788 363.166L445.257 356.74C445.82 356.45 446.49 356.859 446.49 357.493V413.705C446.49 414.394 445.712 414.794 445.152 414.393L432.683 405.471C432.461 405.312 432.33 405.056 432.33 404.783V363.918Z" fill="white" stroke="white" stroke-width="1.69214"/>
<circle cx="416.485" cy="717.115" r="5.60769" fill="white"/>
<circle cx="416.485" cy="678.485" r="9.34615" fill="white"/>
<circle cx="416.485" cy="638.608" r="5.60769" fill="white"/>
<circle cx="376.608" cy="654.808" r="5.60769" fill="white"/>
<circle cx="382.838" cy="699.669" r="5.60769" fill="white"/>
<circle cx="436.423" cy="689.7" r="5.60769" fill="white"/>
<circle cx="446.392" cy="662.285" r="5.60769" fill="white"/>
<line x1="417.615" y1="678.246" x2="438.799" y2="690.707" stroke="white" stroke-width="2"/>
<line x1="416.38" y1="679.962" x2="381.488" y2="701.147" stroke="white" stroke-width="2"/>
<line x1="415.332" y1="678.71" x2="375.455" y2="653.786" stroke="white" stroke-width="2"/>
<line x1="416.616" y1="678.237" x2="445.277" y2="662.037" stroke="white" stroke-width="2"/>
<line x1="416.862" y1="637.985" x2="416.862" y2="715.246" stroke="white" stroke-width="2"/>
<mask id="mask0_567_426" style="mask-type:alpha" maskUnits="userSpaceOnUse" x="307" y="118" width="45" height="12">
<rect x="307" y="118" width="45" height="12" fill="#C4C4C4"/>
</mask>
<g mask="url(#mask0_567_426)">
<path d="M351.25 118C351.25 120.592 349.079 123.15 345.08 125.104C341.132 127.035 335.624 128.25 329.5 128.25C323.376 128.25 317.868 127.035 313.92 125.104C309.921 123.15 307.75 120.592 307.75 118C307.75 115.408 309.921 112.85 313.92 110.896C317.868 108.965 323.376 107.75 329.5 107.75C335.624 107.75 341.132 108.965 345.08 110.896C349.079 112.85 351.25 115.408 351.25 118Z" stroke="#F8F8F8" stroke-width="1.5"/>
</g>
<mask id="mask1_567_426" style="mask-type:alpha" maskUnits="userSpaceOnUse" x="307" y="133" width="45" height="12">
<rect x="307" y="133" width="45" height="12" fill="#C4C4C4"/>
</mask>
<g mask="url(#mask1_567_426)">
<path d="M351.25 133C351.25 135.592 349.079 138.15 345.08 140.104C341.132 142.035 335.624 143.25 329.5 143.25C323.376 143.25 317.868 142.035 313.92 140.104C309.921 138.15 307.75 135.592 307.75 133C307.75 130.408 309.921 127.85 313.92 125.896C317.868 123.965 323.376 122.75 329.5 122.75C335.624 122.75 341.132 123.965 345.08 125.896C349.079 127.85 351.25 130.408 351.25 133Z" stroke="#F8F8F8" stroke-width="1.5"/>
</g>
<mask id="mask2_567_426" style="mask-type:alpha" maskUnits="userSpaceOnUse" x="307" y="103" width="45" height="12">
<rect x="307" y="103" width="45" height="12" fill="#C4C4C4"/>
</mask>
<g mask="url(#mask2_567_426)">
<path d="M351.25 103C351.25 105.592 349.079 108.15 345.08 110.104C341.132 112.035 335.624 113.25 329.5 113.25C323.376 113.25 317.868 112.035 313.92 110.104C309.921 108.15 307.75 105.592 307.75 103C307.75 100.408 309.921 97.8504 313.92 95.8956C317.868 93.9652 323.376 92.75 329.5 92.75C335.624 92.75 341.132 93.9652 345.08 95.8956C349.079 97.8504 351.25 100.408 351.25 103Z" stroke="#F8F8F8" stroke-width="1.5"/>
</g>
<mask id="mask3_567_426" style="mask-type:alpha" maskUnits="userSpaceOnUse" x="303" y="86" width="54" height="53">
<path d="M308.5 110.611V138H304V87H356.5V137.056H350.5V90.3056H308.5V110.611Z" fill="#C4C4C4" stroke="black"/>
</mask>
<g mask="url(#mask3_567_426)">
<rect x="307.75" y="89.6389" width="43.5" height="43.8333" stroke="white" stroke-width="1.5"/>
</g>
<path d="M351.607 89C351.607 91.8039 349.271 94.4533 345.237 96.4251C341.23 98.3842 335.667 99.607 329.5 99.607C323.333 99.607 317.77 98.3842 313.763 96.4251C309.729 94.4533 307.393 91.8039 307.393 89C307.393 86.1961 309.729 83.5467 313.763 81.5749C317.77 79.6158 323.333 78.393 329.5 78.393C335.667 78.393 341.23 79.6158 345.237 81.5749C349.271 83.5467 351.607 86.1961 351.607 89Z" fill="white" stroke="#F8F8F8" stroke-width="0.785949"/>
<ellipse cx="343.5" cy="104.5" rx="2.5" ry="3.5" fill="white"/>
<ellipse cx="343.5" cy="118.5" rx="2.5" ry="3.5" fill="white"/>
<ellipse cx="343.5" cy="133.5" rx="2.5" ry="3.5" fill="white"/>
<mask id="mask4_567_426" style="mask-type:alpha" maskUnits="userSpaceOnUse" x="397" y="118" width="45" height="12">
<rect x="397" y="118" width="45" height="12" fill="#C4C4C4"/>
</mask>
<g mask="url(#mask4_567_426)">
<path d="M441.25 118C441.25 120.592 439.079 123.15 435.08 125.104C431.132 127.035 425.624 128.25 419.5 128.25C413.376 128.25 407.868 127.035 403.92 125.104C399.921 123.15 397.75 120.592 397.75 118C397.75 115.408 399.921 112.85 403.92 110.896C407.868 108.965 413.376 107.75 419.5 107.75C425.624 107.75 431.132 108.965 435.08 110.896C439.079 112.85 441.25 115.408 441.25 118Z" stroke="#F8F8F8" stroke-width="1.5"/>
</g>
<mask id="mask5_567_426" style="mask-type:alpha" maskUnits="userSpaceOnUse" x="397" y="133" width="45" height="12">
<rect x="397" y="133" width="45" height="12" fill="#C4C4C4"/>
</mask>
<g mask="url(#mask5_567_426)">
<path d="M441.25 133C441.25 135.592 439.079 138.15 435.08 140.104C431.132 142.035 425.624 143.25 419.5 143.25C413.376 143.25 407.868 142.035 403.92 140.104C399.921 138.15 397.75 135.592 397.75 133C397.75 130.408 399.921 127.85 403.92 125.896C407.868 123.965 413.376 122.75 419.5 122.75C425.624 122.75 431.132 123.965 435.08 125.896C439.079 127.85 441.25 130.408 441.25 133Z" stroke="#F8F8F8" stroke-width="1.5"/>
</g>
<mask id="mask6_567_426" style="mask-type:alpha" maskUnits="userSpaceOnUse" x="397" y="103" width="45" height="12">
<rect x="397" y="103" width="45" height="12" fill="#C4C4C4"/>
</mask>
<g mask="url(#mask6_567_426)">
<path d="M441.25 103C441.25 105.592 439.079 108.15 435.08 110.104C431.132 112.035 425.624 113.25 419.5 113.25C413.376 113.25 407.868 112.035 403.92 110.104C399.921 108.15 397.75 105.592 397.75 103C397.75 100.408 399.921 97.8504 403.92 95.8956C407.868 93.9652 413.376 92.75 419.5 92.75C425.624 92.75 431.132 93.9652 435.08 95.8956C439.079 97.8504 441.25 100.408 441.25 103Z" stroke="#F8F8F8" stroke-width="1.5"/>
</g>
<mask id="mask7_567_426" style="mask-type:alpha" maskUnits="userSpaceOnUse" x="393" y="86" width="54" height="53">
<path d="M398.5 110.611V138H394V87H446.5V137.056H440.5V90.3056H398.5V110.611Z" fill="#C4C4C4" stroke="black"/>
</mask>
<g mask="url(#mask7_567_426)">
<rect x="397.75" y="89.6389" width="43.5" height="43.8333" stroke="white" stroke-width="1.5"/>
</g>
<path d="M441.607 89C441.607 91.8039 439.271 94.4533 435.237 96.4251C431.23 98.3842 425.667 99.607 419.5 99.607C413.333 99.607 407.77 98.3842 403.763 96.4251C399.729 94.4533 397.393 91.8039 397.393 89C397.393 86.1961 399.729 83.5467 403.763 81.5749C407.77 79.6158 413.333 78.393 419.5 78.393C425.667 78.393 431.23 79.6158 435.237 81.5749C439.271 83.5467 441.607 86.1961 441.607 89Z" fill="white" stroke="#F8F8F8" stroke-width="0.785949"/>
<ellipse cx="433.5" cy="104.5" rx="2.5" ry="3.5" fill="white"/>
<ellipse cx="433.5" cy="118.5" rx="2.5" ry="3.5" fill="white"/>
<ellipse cx="433.5" cy="133.5" rx="2.5" ry="3.5" fill="white"/>
<mask id="mask8_567_426" style="mask-type:alpha" maskUnits="userSpaceOnUse" x="487" y="118" width="45" height="12">
<rect x="487" y="118" width="45" height="12" fill="#C4C4C4"/>
</mask>
<g mask="url(#mask8_567_426)">
<path d="M531.25 118C531.25 120.592 529.079 123.15 525.08 125.104C521.132 127.035 515.624 128.25 509.5 128.25C503.376 128.25 497.868 127.035 493.92 125.104C489.921 123.15 487.75 120.592 487.75 118C487.75 115.408 489.921 112.85 493.92 110.896C497.868 108.965 503.376 107.75 509.5 107.75C515.624 107.75 521.132 108.965 525.08 110.896C529.079 112.85 531.25 115.408 531.25 118Z" stroke="#F8F8F8" stroke-width="1.5"/>
</g>
<mask id="mask9_567_426" style="mask-type:alpha" maskUnits="userSpaceOnUse" x="487" y="133" width="45" height="12">
<rect x="487" y="133" width="45" height="12" fill="#C4C4C4"/>
</mask>
<g mask="url(#mask9_567_426)">
<path d="M531.25 133C531.25 135.592 529.079 138.15 525.08 140.104C521.132 142.035 515.624 143.25 509.5 143.25C503.376 143.25 497.868 142.035 493.92 140.104C489.921 138.15 487.75 135.592 487.75 133C487.75 130.408 489.921 127.85 493.92 125.896C497.868 123.965 503.376 122.75 509.5 122.75C515.624 122.75 521.132 123.965 525.08 125.896C529.079 127.85 531.25 130.408 531.25 133Z" stroke="#F8F8F8" stroke-width="1.5"/>
</g>
<mask id="mask10_567_426" style="mask-type:alpha" maskUnits="userSpaceOnUse" x="487" y="103" width="45" height="12">
<rect x="487" y="103" width="45" height="12" fill="#C4C4C4"/>
</mask>
<g mask="url(#mask10_567_426)">
<path d="M531.25 103C531.25 105.592 529.079 108.15 525.08 110.104C521.132 112.035 515.624 113.25 509.5 113.25C503.376 113.25 497.868 112.035 493.92 110.104C489.921 108.15 487.75 105.592 487.75 103C487.75 100.408 489.921 97.8504 493.92 95.8956C497.868 93.9652 503.376 92.75 509.5 92.75C515.624 92.75 521.132 93.9652 525.08 95.8956C529.079 97.8504 531.25 100.408 531.25 103Z" stroke="#F8F8F8" stroke-width="1.5"/>
</g>
<mask id="mask11_567_426" style="mask-type:alpha" maskUnits="userSpaceOnUse" x="483" y="86" width="54" height="53">
<path d="M488.5 110.611V138H484V87H536.5V137.056H530.5V90.3056H488.5V110.611Z" fill="#C4C4C4" stroke="black"/>
</mask>
<g mask="url(#mask11_567_426)">
<rect x="487.75" y="89.6389" width="43.5" height="43.8333" stroke="white" stroke-width="1.5"/>
</g>
<path d="M531.607 89C531.607 91.8039 529.271 94.4533 525.237 96.4251C521.23 98.3842 515.667 99.607 509.5 99.607C503.333 99.607 497.77 98.3842 493.763 96.4251C489.729 94.4533 487.393 91.8039 487.393 89C487.393 86.1961 489.729 83.5467 493.763 81.5749C497.77 79.6158 503.333 78.393 509.5 78.393C515.667 78.393 521.23 79.6158 525.237 81.5749C529.271 83.5467 531.607 86.1961 531.607 89Z" fill="white" stroke="#F8F8F8" stroke-width="0.785949"/>
<ellipse cx="523.5" cy="104.5" rx="2.5" ry="3.5" fill="white"/>
<ellipse cx="523.5" cy="118.5" rx="2.5" ry="3.5" fill="white"/>
<ellipse cx="523.5" cy="133.5" rx="2.5" ry="3.5" fill="white"/>
<circle cx="175.584" cy="386.5" r="2.41558" fill="white"/>
<circle cx="87.4156" cy="386.5" r="2.41558" fill="white"/>
<circle cx="169.678" cy="364.458" r="2.41558" transform="rotate(-30 169.678 364.458)" fill="white"/>
<circle cx="93.3219" cy="408.542" r="2.41558" transform="rotate(-30 93.3219 408.542)" fill="white"/>
<circle cx="153.542" cy="348.322" r="2.41558" transform="rotate(-60 153.542 348.322)" fill="white"/>
<circle cx="109.458" cy="424.678" r="2.41558" transform="rotate(-60 109.458 424.678)" fill="white"/>
<circle cx="131.5" cy="342.416" r="2.41558" transform="rotate(-90 131.5 342.416)" fill="white"/>
<circle cx="131.5" cy="385.641" r="2.41558" transform="rotate(-90 131.5 385.641)" fill="white"/>
<circle cx="131.5" cy="385.845" r="5.89437" transform="rotate(-90 131.5 385.845)" fill="white"/>
<circle cx="131.5" cy="430.584" r="2.41558" transform="rotate(-90 131.5 430.584)" fill="white"/>
<circle cx="109.458" cy="348.322" r="2.41558" transform="rotate(-120 109.458 348.322)" fill="white"/>
<circle cx="153.542" cy="424.678" r="2.41558" transform="rotate(-120 153.542 424.678)" fill="white"/>
<circle cx="93.322" cy="364.458" r="2.41558" transform="rotate(-150 93.322 364.458)" fill="white"/>
<circle cx="169.678" cy="408.542" r="2.41558" transform="rotate(-150 169.678 408.542)" fill="white"/>
<line x1="94.25" y1="365.5" x2="94.25" y2="406.5" stroke="white" stroke-width="0.5"/>
<line x1="169.25" y1="365.5" x2="169.25" y2="406.5" stroke="white" stroke-width="0.5"/>
<line x1="131.022" y1="342.803" x2="168.463" y2="364.543" stroke="white" stroke-width="0.5"/>
<line y1="-0.25" x2="43.2956" y2="-0.25" transform="matrix(-0.864789 0.502136 0.502136 0.864789 132.104 343.019)" stroke="white" stroke-width="0.5"/>
<line x1="131.978" y1="430.197" x2="94.5368" y2="408.456" stroke="white" stroke-width="0.5"/>
<line y1="-0.25" x2="43.2956" y2="-0.25" transform="matrix(0.864789 -0.502135 -0.502135 -0.864789 130.896 429.981)" stroke="white" stroke-width="0.5"/>
<line x1="111" y1="349.25" x2="150" y2="349.25" stroke="white" stroke-width="0.5"/>
<line x1="87.8032" y1="386.978" x2="109.543" y2="349.537" stroke="white" stroke-width="0.5"/>
<line y1="-0.25" x2="43.2956" y2="-0.25" transform="matrix(0.502136 0.864789 0.864789 -0.502136 88.0194 385.896)" stroke="white" stroke-width="0.5"/>
<line x1="175.197" y1="386.022" x2="153.457" y2="423.463" stroke="white" stroke-width="0.5"/>
<line y1="-0.25" x2="43.2956" y2="-0.25" transform="matrix(-0.502136 -0.864789 -0.864789 0.502136 174.981 387.104)" stroke="white" stroke-width="0.5"/>
<path d="M333.354 389.354C333.549 389.158 333.549 388.842 333.354 388.646L330.172 385.464C329.976 385.269 329.66 385.269 329.464 385.464C329.269 385.66 329.269 385.976 329.464 386.172L332.293 389L329.464 391.828C329.269 392.024 329.269 392.34 329.464 392.536C329.66 392.731 329.976 392.731 330.172 392.536L333.354 389.354ZM218 389.5H333V388.5H218V389.5Z" fill="black"/>
<rect x="264" y="381" width="24" height="15" fill="white"/>
<path d="M613.354 389.354C613.549 389.158 613.549 388.842 613.354 388.646L610.172 385.464C609.976 385.269 609.66 385.269 609.464 385.464C609.269 385.66 609.269 385.976 609.464 386.172L612.293 389L609.464 391.828C609.269 392.024 609.269 392.34 609.464 392.536C609.66 392.731 609.976 392.731 610.172 392.536L613.354 389.354ZM498 389.5H613V388.5H498V389.5Z" fill="black"/>
<path d="M274.496 394V383.6L275.408 384.544H272.128V382.8H276.576V394H274.496Z" fill="black"/>
<rect x="544" y="381" width="24" height="15" fill="white"/>
<path d="M554.496 395V384.6L555.408 385.544H552.128V383.8H556.576V395H554.496Z" fill="black"/>
<defs>
<filter id="filter0_d_567_426" x="72" y="319" width="144" height="144" filterUnits="userSpaceOnUse" color-interpolation-filters="sRGB">
<feFlood flood-opacity="0" result="BackgroundImageFix"/>
<feColorMatrix in="SourceAlpha" type="matrix" values="0 0 0 0 0 0 0 0 0 0 0 0 0 0 0 0 0 0 127 0" result="hardAlpha"/>
<feOffset dx="13" dy="5"/>
<feGaussianBlur stdDeviation="8.5"/>
<feColorMatrix type="matrix" values="0 0 0 0 0 0 0 0 0 0 0 0 0 0 0 0 0 0 0.15 0"/>
<feBlend mode="normal" in2="BackgroundImageFix" result="effect1_dropShadow_567_426"/>
<feBlend mode="normal" in="SourceGraphic" in2="effect1_dropShadow_567_426" result="shape"/>
</filter>
<filter id="filter1_d_567_426" x="72" y="319" width="144" height="144" filterUnits="userSpaceOnUse" color-interpolation-filters="sRGB">
<feFlood flood-opacity="0" result="BackgroundImageFix"/>
<feColorMatrix in="SourceAlpha" type="matrix" values="0 0 0 0 0 0 0 0 0 0 0 0 0 0 0 0 0 0 127 0" result="hardAlpha"/>
<feOffset dx="13" dy="5"/>
<feGaussianBlur stdDeviation="8.5"/>
<feColorMatrix type="matrix" values="0 0 0 0 0 0 0 0 0 0 0 0 0 0 0 0 0 0 0.15 0"/>
<feBlend mode="normal" in2="BackgroundImageFix" result="effect1_dropShadow_567_426"/>
<feBlend mode="normal" in="SourceGraphic" in2="effect1_dropShadow_567_426" result="shape"/>
</filter>
<filter id="filter2_d_567_426" x="76" y="331" width="118" height="119" filterUnits="userSpaceOnUse" color-interpolation-filters="sRGB">
<feFlood flood-opacity="0" result="BackgroundImageFix"/>
<feColorMatrix in="SourceAlpha" type="matrix" values="0 0 0 0 0 0 0 0 0 0 0 0 0 0 0 0 0 0 127 0" result="hardAlpha"/>
<feOffset dx="4" dy="5"/>
<feGaussianBlur stdDeviation="2"/>
<feColorMatrix type="matrix" values="0 0 0 0 0 0 0 0 0 0 0 0 0 0 0 0 0 0 0.25 0"/>
<feBlend mode="normal" in2="BackgroundImageFix" result="effect1_dropShadow_567_426"/>
<feBlend mode="normal" in="SourceGraphic" in2="effect1_dropShadow_567_426" result="shape"/>
</filter>
<filter id="filter3_d_567_426" x="638" y="319" width="144" height="144" filterUnits="userSpaceOnUse" color-interpolation-filters="sRGB">
<feFlood flood-opacity="0" result="BackgroundImageFix"/>
<feColorMatrix in="SourceAlpha" type="matrix" values="0 0 0 0 0 0 0 0 0 0 0 0 0 0 0 0 0 0 127 0" result="hardAlpha"/>
<feOffset dx="13" dy="5"/>
<feGaussianBlur stdDeviation="8.5"/>
<feColorMatrix type="matrix" values="0 0 0 0 0 0 0 0 0 0 0 0 0 0 0 0 0 0 0.15 0"/>
<feBlend mode="normal" in2="BackgroundImageFix" result="effect1_dropShadow_567_426"/>
<feBlend mode="normal" in="SourceGraphic" in2="effect1_dropShadow_567_426" result="shape"/>
</filter>
<filter id="filter4_d_567_426" x="642" y="331" width="118" height="119" filterUnits="userSpaceOnUse" color-interpolation-filters="sRGB">
<feFlood flood-opacity="0" result="BackgroundImageFix"/>
<feColorMatrix in="SourceAlpha" type="matrix" values="0 0 0 0 0 0 0 0 0 0 0 0 0 0 0 0 0 0 127 0" result="hardAlpha"/>
<feOffset dx="4" dy="5"/>
<feGaussianBlur stdDeviation="2"/>
<feColorMatrix type="matrix" values="0 0 0 0 0 0 0 0 0 0 0 0 0 0 0 0 0 0 0.25 0"/>
<feBlend mode="normal" in2="BackgroundImageFix" result="effect1_dropShadow_567_426"/>
<feBlend mode="normal" in="SourceGraphic" in2="effect1_dropShadow_567_426" result="shape"/>
</filter>
<filter id="filter5_d_567_426" x="268" y="44" width="323" height="144" filterUnits="userSpaceOnUse" color-interpolation-filters="sRGB">
<feFlood flood-opacity="0" result="BackgroundImageFix"/>
<feColorMatrix in="SourceAlpha" type="matrix" values="0 0 0 0 0 0 0 0 0 0 0 0 0 0 0 0 0 0 127 0" result="hardAlpha"/>
<feOffset dx="13" dy="5"/>
<feGaussianBlur stdDeviation="8.5"/>
<feColorMatrix type="matrix" values="0 0 0 0 0 0 0 0 0 0 0 0 0 0 0 0 0 0 0.15 0"/>
<feBlend mode="normal" in2="BackgroundImageFix" result="effect1_dropShadow_567_426"/>
<feBlend mode="normal" in="SourceGraphic" in2="effect1_dropShadow_567_426" result="shape"/>
</filter>
<filter id="filter6_d_567_426" x="272" y="56" width="297" height="119" filterUnits="userSpaceOnUse" color-interpolation-filters="sRGB">
<feFlood flood-opacity="0" result="BackgroundImageFix"/>
<feColorMatrix in="SourceAlpha" type="matrix" values="0 0 0 0 0 0 0 0 0 0 0 0 0 0 0 0 0 0 127 0" result="hardAlpha"/>
<feOffset dx="4" dy="5"/>
<feGaussianBlur stdDeviation="2"/>
<feColorMatrix type="matrix" values="0 0 0 0 0 0 0 0 0 0 0 0 0 0 0 0 0 0 0.25 0"/>
<feBlend mode="normal" in2="BackgroundImageFix" result="effect1_dropShadow_567_426"/>
<feBlend mode="normal" in="SourceGraphic" in2="effect1_dropShadow_567_426" result="shape"/>
</filter>
<filter id="filter7_d_567_426" x="358" y="319" width="144" height="144" filterUnits="userSpaceOnUse" color-interpolation-filters="sRGB">
<feFlood flood-opacity="0" result="BackgroundImageFix"/>
<feColorMatrix in="SourceAlpha" type="matrix" values="0 0 0 0 0 0 0 0 0 0 0 0 0 0 0 0 0 0 127 0" result="hardAlpha"/>
<feOffset dx="13" dy="5"/>
<feGaussianBlur stdDeviation="8.5"/>
<feColorMatrix type="matrix" values="0 0 0 0 0 0 0 0 0 0 0 0 0 0 0 0 0 0 0.15 0"/>
<feBlend mode="normal" in2="BackgroundImageFix" result="effect1_dropShadow_567_426"/>
<feBlend mode="normal" in="SourceGraphic" in2="effect1_dropShadow_567_426" result="shape"/>
</filter>
<filter id="filter8_d_567_426" x="362" y="331" width="118" height="119" filterUnits="userSpaceOnUse" color-interpolation-filters="sRGB">
<feFlood flood-opacity="0" result="BackgroundImageFix"/>
<feColorMatrix in="SourceAlpha" type="matrix" values="0 0 0 0 0 0 0 0 0 0 0 0 0 0 0 0 0 0 127 0" result="hardAlpha"/>
<feOffset dx="4" dy="5"/>
<feGaussianBlur stdDeviation="2"/>
<feColorMatrix type="matrix" values="0 0 0 0 0 0 0 0 0 0 0 0 0 0 0 0 0 0 0.25 0"/>
<feBlend mode="normal" in2="BackgroundImageFix" result="effect1_dropShadow_567_426"/>
<feBlend mode="normal" in="SourceGraphic" in2="effect1_dropShadow_567_426" result="shape"/>
</filter>
<filter id="filter9_d_567_426" x="343.284" y="596.503" width="172.995" height="172.995" filterUnits="userSpaceOnUse" color-interpolation-filters="sRGB">
<feFlood flood-opacity="0" result="BackgroundImageFix"/>
<feColorMatrix in="SourceAlpha" type="matrix" values="0 0 0 0 0 0 0 0 0 0 0 0 0 0 0 0 0 0 127 0" result="hardAlpha"/>
<feOffset dx="13" dy="5"/>
<feGaussianBlur stdDeviation="8.5"/>
<feColorMatrix type="matrix" values="0 0 0 0 0 0 0 0 0 0 0 0 0 0 0 0 0 0 0.15 0"/>
<feBlend mode="normal" in2="BackgroundImageFix" result="effect1_dropShadow_567_426"/>
<feBlend mode="normal" in="SourceGraphic" in2="effect1_dropShadow_567_426" result="shape"/>
</filter>
<filter id="filter10_d_567_426" x="347.284" y="608.503" width="146.995" height="147.995" filterUnits="userSpaceOnUse" color-interpolation-filters="sRGB">
<feFlood flood-opacity="0" result="BackgroundImageFix"/>
<feColorMatrix in="SourceAlpha" type="matrix" values="0 0 0 0 0 0 0 0 0 0 0 0 0 0 0 0 0 0 127 0" result="hardAlpha"/>
<feOffset dx="4" dy="5"/>
<feGaussianBlur stdDeviation="2"/>
<feColorMatrix type="matrix" values="0 0 0 0 0 0 0 0 0 0 0 0 0 0 0 0 0 0 0.25 0"/>
<feBlend mode="normal" in2="BackgroundImageFix" result="effect1_dropShadow_567_426"/>
<feBlend mode="normal" in="SourceGraphic" in2="effect1_dropShadow_567_426" result="shape"/>
</filter>
<radialGradient id="paint0_radial_567_426" cx="0" cy="0" r="1" gradientUnits="userSpaceOnUse" gradientTransform="translate(50.0534 316.806) rotate(40.0117) scale(193.164 864.283)">
<stop stop-color="#343434"/>
<stop offset="1" stop-color="#242424"/>
</radialGradient>
<radialGradient id="paint1_radial_567_426" cx="0" cy="0" r="1" gradientUnits="userSpaceOnUse" gradientTransform="translate(616.053 316.806) rotate(40.0117) scale(193.164 864.283)">
<stop stop-color="#3A3A3A"/>
<stop offset="1" stop-color="#202020"/>
</radialGradient>
<radialGradient id="paint2_radial_567_426" cx="0" cy="0" r="1" gradientUnits="userSpaceOnUse" gradientTransform="translate(203.831 41.8064) rotate(17.7194) scale(408.055 1074.9)">
<stop stop-color="#3A3A3A"/>
<stop offset="1" stop-color="#202020"/>
</radialGradient>
<radialGradient id="paint3_radial_567_426" cx="0" cy="0" r="1" gradientUnits="userSpaceOnUse" gradientTransform="translate(336.053 316.806) rotate(40.0117) scale(193.164 864.283)">
<stop stop-color="#3A3A3A"/>
<stop offset="1" stop-color="#202020"/>
</radialGradient>
<radialGradient id="paint4_radial_567_426" cx="0" cy="0" r="1" gradientUnits="userSpaceOnUse" gradientTransform="translate(310.617 686.311) rotate(-4.98826) scale(193.164 864.283)">
<stop stop-color="#3A3A3A"/>
<stop offset="1" stop-color="#202020"/>
</radialGradient>
</defs>
</svg>
