<svg width="872" height="718" viewBox="0 0 872 718" fill="none" xmlns="http://www.w3.org/2000/svg">
<rect width="872" height="718" fill="white"/>
<path d="M622.321 498.383L624.171 496.833L623.529 496.067L621.679 497.617L622.321 498.383ZM627.871 493.733L631.571 490.633L630.929 489.867L627.229 492.967L627.871 493.733ZM635.271 487.533L638.971 484.433L638.329 483.667L634.629 486.767L635.271 487.533ZM642.671 481.333L646.371 478.233L645.729 477.467L642.029 480.567L642.671 481.333ZM650.071 475.133L653.771 472.033L653.129 471.267L649.429 474.367L650.071 475.133ZM657.471 468.933L661.171 465.833L660.529 465.067L656.829 468.167L657.471 468.933ZM664.871 462.733L668.571 459.633L667.929 458.867L664.229 461.967L664.871 462.733ZM672.271 456.533L675.971 453.433L675.329 452.667L671.629 455.767L672.271 456.533ZM679.671 450.333L683.371 447.233L682.729 446.467L679.029 449.567L679.671 450.333ZM687.071 444.133L690.771 441.033L690.129 440.267L686.429 443.367L687.071 444.133ZM694.471 437.933L696.321 436.383L695.679 435.617L693.829 437.167L694.471 437.933ZM622.642 498.767L624.492 497.217L623.208 495.683L621.358 497.233L622.642 498.767ZM628.192 494.117L631.892 491.017L630.608 489.483L626.908 492.583L628.192 494.117ZM635.592 487.917L639.292 484.817L638.008 483.283L634.308 486.383L635.592 487.917ZM642.992 481.717L646.692 478.617L645.408 477.083L641.708 480.183L642.992 481.717ZM650.392 475.517L654.092 472.417L652.808 470.883L649.108 473.983L650.392 475.517ZM657.792 469.317L661.492 466.217L660.208 464.683L656.508 467.783L657.792 469.317ZM665.192 463.117L668.892 460.017L667.608 458.483L663.908 461.583L665.192 463.117ZM672.592 456.917L676.292 453.817L675.008 452.283L671.308 455.383L672.592 456.917ZM679.992 450.717L683.692 447.617L682.408 446.083L678.708 449.183L679.992 450.717ZM687.392 444.517L691.092 441.417L689.808 439.883L686.108 442.983L687.392 444.517ZM694.792 438.317L696.642 436.767L695.358 435.233L693.508 436.783L694.792 438.317Z" fill="black"/>
<path d="M594.685 522.612L592.685 524.237L593.315 525.013L595.315 523.388L594.685 522.612ZM588.685 527.487L584.685 530.737L585.315 531.513L589.315 528.263L588.685 527.487ZM580.685 533.987L576.685 537.237L577.315 538.013L581.315 534.763L580.685 533.987ZM572.685 540.487L568.685 543.737L569.315 544.513L573.315 541.263L572.685 540.487ZM564.685 546.987L560.685 550.237L561.315 551.013L565.315 547.763L564.685 546.987ZM556.685 553.487L552.685 556.737L553.315 557.513L557.315 554.263L556.685 553.487ZM548.685 559.987L544.685 563.237L545.315 564.013L549.315 560.763L548.685 559.987ZM540.685 566.487L536.685 569.737L537.315 570.513L541.315 567.263L540.685 566.487ZM532.685 572.987L530.685 574.612L531.315 575.388L533.315 573.763L532.685 572.987ZM594.369 522.224L592.369 523.849L593.631 525.401L595.631 523.776L594.369 522.224ZM588.369 527.099L584.369 530.349L585.631 531.901L589.631 528.651L588.369 527.099ZM580.369 533.599L576.369 536.849L577.631 538.401L581.631 535.151L580.369 533.599ZM572.369 540.099L568.369 543.349L569.631 544.901L573.631 541.651L572.369 540.099ZM564.369 546.599L560.369 549.849L561.631 551.401L565.631 548.151L564.369 546.599ZM556.369 553.099L552.369 556.349L553.631 557.901L557.631 554.651L556.369 553.099ZM548.369 559.599L544.369 562.849L545.631 564.401L549.631 561.151L548.369 559.599ZM540.369 566.099L536.369 569.349L537.631 570.901L541.631 567.651L540.369 566.099ZM532.369 572.599L530.369 574.224L531.631 575.776L533.631 574.151L532.369 572.599Z" fill="black"/>
<path d="M139.68 260.128V264.512C139.008 263.728 138.032 263.36 136.928 263.36C134.448 263.36 132.608 265.072 132.608 267.728C132.608 270.384 134.448 272.112 136.928 272.112C138.096 272.112 139.088 271.712 139.76 270.896V272H141.68V260.128H139.68ZM137.168 270.4C135.728 270.4 134.624 269.36 134.624 267.728C134.624 266.096 135.728 265.056 137.168 265.056C138.608 265.056 139.712 266.096 139.712 267.728C139.712 269.36 138.608 270.4 137.168 270.4ZM152.872 272H155.048L149.992 260.8H147.944L142.904 272H145.048L146.152 269.408H151.752L152.872 272ZM146.856 267.776L148.952 262.88L151.064 267.776H146.856ZM161.017 263.36C159.849 263.36 158.857 263.76 158.185 264.576V263.456H156.281V275.104H158.281V270.96C158.969 271.744 159.929 272.112 161.017 272.112C163.513 272.112 165.353 270.384 165.353 267.728C165.353 265.088 163.513 263.36 161.017 263.36ZM160.793 270.4C159.353 270.4 158.249 269.36 158.249 267.728C158.249 266.096 159.353 265.056 160.793 265.056C162.233 265.056 163.321 266.096 163.321 267.728C163.321 269.36 162.233 270.4 160.793 270.4ZM171.986 263.36C170.818 263.36 169.826 263.76 169.154 264.576V263.456H167.25V275.104H169.25V270.96C169.938 271.744 170.898 272.112 171.986 272.112C174.482 272.112 176.322 270.384 176.322 267.728C176.322 265.088 174.482 263.36 171.986 263.36ZM171.762 270.4C170.322 270.4 169.218 269.36 169.218 267.728C169.218 266.096 170.322 265.056 171.762 265.056C173.202 265.056 174.29 266.096 174.29 267.728C174.29 269.36 173.202 270.4 171.762 270.4Z" fill="black"/>
<path d="M370.888 272H373.064L368.008 260.8H365.96L360.92 272H363.064L364.168 269.408H369.768L370.888 272ZM364.872 267.776L366.968 262.88L369.08 267.776H364.872ZM376.2 264.704V263.456H374.296V272H376.296V267.856C376.296 266.112 377.256 265.216 378.776 265.216C378.92 265.216 379.064 265.232 379.24 265.264V263.36C377.816 263.36 376.776 263.808 376.2 264.704ZM384.779 272.112C386.443 272.112 387.771 271.392 388.427 270.112L386.891 269.216C386.379 270.032 385.611 270.4 384.763 270.4C383.291 270.4 382.171 269.392 382.171 267.728C382.171 266.08 383.291 265.056 384.763 265.056C385.611 265.056 386.379 265.424 386.891 266.24L388.427 265.344C387.771 264.048 386.443 263.36 384.779 263.36C382.075 263.36 380.155 265.168 380.155 267.728C380.155 270.288 382.075 272.112 384.779 272.112ZM393.42 263.36C392.044 263.36 390.716 263.712 389.804 264.416L390.588 265.872C391.228 265.344 392.22 265.024 393.18 265.024C394.604 265.024 395.308 265.712 395.308 266.88V267.008H393.1C390.508 267.008 389.548 268.128 389.548 269.552C389.548 271.04 390.78 272.112 392.732 272.112C394.012 272.112 394.94 271.696 395.42 270.96V272H397.308V266.992C397.308 264.528 395.884 263.36 393.42 263.36ZM393.148 270.656C392.124 270.656 391.516 270.192 391.516 269.472C391.516 268.848 391.884 268.336 393.244 268.336H395.308V269.328C394.972 270.208 394.124 270.656 393.148 270.656ZM404.723 263.36C403.475 263.36 402.435 263.776 401.779 264.56V263.456H399.875V272H401.875V267.68C401.875 265.968 402.835 265.104 404.259 265.104C405.539 265.104 406.291 265.84 406.291 267.36V272H408.291V267.104C408.291 264.528 406.771 263.36 404.723 263.36ZM414.092 263.36C412.716 263.36 411.388 263.712 410.476 264.416L411.26 265.872C411.9 265.344 412.892 265.024 413.852 265.024C415.276 265.024 415.98 265.712 415.98 266.88V267.008H413.772C411.18 267.008 410.22 268.128 410.22 269.552C410.22 271.04 411.452 272.112 413.404 272.112C414.684 272.112 415.612 271.696 416.092 270.96V272H417.98V266.992C417.98 264.528 416.556 263.36 414.092 263.36ZM413.82 270.656C412.796 270.656 412.188 270.192 412.188 269.472C412.188 268.848 412.556 268.336 413.916 268.336H415.98V269.328C415.644 270.208 414.796 270.656 413.82 270.656ZM432.808 269.76C432.088 270.176 431.304 270.336 430.504 270.336C428.136 270.336 426.456 268.672 426.456 266.4C426.456 264.08 428.136 262.464 430.52 262.464C431.72 262.464 432.728 262.864 433.608 263.744L434.92 262.464C433.864 261.264 432.296 260.64 430.424 260.64C426.92 260.64 424.36 263.056 424.36 266.4C424.36 269.744 426.92 272.16 430.392 272.16C431.976 272.16 433.608 271.68 434.776 270.736V266.272H432.808V269.76ZM440.592 263.36C439.216 263.36 437.888 263.712 436.976 264.416L437.76 265.872C438.4 265.344 439.392 265.024 440.352 265.024C441.776 265.024 442.48 265.712 442.48 266.88V267.008H440.272C437.68 267.008 436.72 268.128 436.72 269.552C436.72 271.04 437.952 272.112 439.904 272.112C441.184 272.112 442.112 271.696 442.592 270.96V272H444.48V266.992C444.48 264.528 443.056 263.36 440.592 263.36ZM440.32 270.656C439.296 270.656 438.688 270.192 438.688 269.472C438.688 268.848 439.056 268.336 440.416 268.336H442.48V269.328C442.144 270.208 441.296 270.656 440.32 270.656ZM451.622 270.112C451.318 270.352 450.918 270.464 450.502 270.464C449.734 270.464 449.318 270.016 449.318 269.184V265.12H451.606V263.52H449.318V261.568H447.318V263.52H445.91V265.12H447.318V269.232C447.318 271.12 448.39 272.112 450.262 272.112C450.982 272.112 451.702 271.92 452.182 271.536L451.622 270.112ZM461.578 267.776C461.578 265.104 459.754 263.36 457.258 263.36C454.714 263.36 452.842 265.184 452.842 267.728C452.842 270.272 454.698 272.112 457.562 272.112C459.034 272.112 460.234 271.632 461.002 270.72L459.93 269.488C459.322 270.112 458.57 270.416 457.61 270.416C456.122 270.416 455.082 269.616 454.842 268.368H461.546C461.562 268.176 461.578 267.936 461.578 267.776ZM457.258 264.96C458.57 264.96 459.514 265.808 459.674 267.04H454.826C455.018 265.792 455.962 264.96 457.258 264.96ZM474.895 263.456L472.575 269.792L470.271 263.456H468.591L466.239 269.76L463.983 263.456H462.095L465.231 272H467.151L469.391 266.112L471.599 272H473.519L476.671 263.456H474.895ZM481.045 263.36C479.669 263.36 478.341 263.712 477.429 264.416L478.213 265.872C478.853 265.344 479.845 265.024 480.805 265.024C482.229 265.024 482.933 265.712 482.933 266.88V267.008H480.725C478.133 267.008 477.173 268.128 477.173 269.552C477.173 271.04 478.405 272.112 480.357 272.112C481.637 272.112 482.565 271.696 483.045 270.96V272H484.933V266.992C484.933 264.528 483.509 263.36 481.045 263.36ZM480.773 270.656C479.749 270.656 479.141 270.192 479.141 269.472C479.141 268.848 479.509 268.336 480.869 268.336H482.933V269.328C482.597 270.208 481.749 270.656 480.773 270.656ZM493.423 263.456L490.719 269.776L488.031 263.456H485.951L489.679 272.032L489.535 272.368C489.151 273.216 488.735 273.552 488.031 273.552C487.487 273.552 486.943 273.328 486.559 272.96L485.759 274.432C486.303 274.928 487.199 275.216 488.047 275.216C489.471 275.216 490.559 274.624 491.343 272.688L495.343 263.456H493.423Z" fill="black"/>
<path d="M400.976 162.16C404.048 162.16 405.504 160.624 405.504 158.832C405.504 154.72 398.864 156.272 398.864 153.888C398.864 153.04 399.568 152.368 401.296 152.368C402.272 152.368 403.376 152.656 404.384 153.248L405.04 151.632C404.064 150.992 402.656 150.64 401.312 150.64C398.24 150.64 396.8 152.176 396.8 153.984C396.8 158.144 403.456 156.56 403.456 158.976C403.456 159.808 402.72 160.432 400.976 160.432C399.6 160.432 398.176 159.92 397.28 159.2L396.56 160.816C397.488 161.616 399.232 162.16 400.976 162.16ZM411.951 160.112C411.647 160.352 411.247 160.464 410.831 160.464C410.062 160.464 409.647 160.016 409.647 159.184V155.12H411.935V153.52H409.647V151.568H407.647V153.52H406.239V155.12H407.647V159.232C407.647 161.12 408.719 162.112 410.591 162.112C411.311 162.112 412.031 161.92 412.511 161.536L411.951 160.112ZM417.715 162.112C420.371 162.112 422.275 160.288 422.275 157.728C422.275 155.168 420.371 153.36 417.715 153.36C415.091 153.36 413.171 155.168 413.171 157.728C413.171 160.288 415.091 162.112 417.715 162.112ZM417.715 160.4C416.275 160.4 415.187 159.36 415.187 157.728C415.187 156.096 416.275 155.056 417.715 155.056C419.171 155.056 420.259 156.096 420.259 157.728C420.259 159.36 419.171 160.4 417.715 160.4ZM426.091 154.704V153.456H424.187V162H426.187V157.856C426.187 156.112 427.147 155.216 428.667 155.216C428.811 155.216 428.955 155.232 429.131 155.264V153.36C427.707 153.36 426.667 153.808 426.091 154.704ZM434.045 153.36C432.669 153.36 431.341 153.712 430.429 154.416L431.213 155.872C431.853 155.344 432.845 155.024 433.805 155.024C435.229 155.024 435.933 155.712 435.933 156.88V157.008H433.725C431.133 157.008 430.173 158.128 430.173 159.552C430.173 161.04 431.405 162.112 433.357 162.112C434.637 162.112 435.565 161.696 436.045 160.96V162H437.933V156.992C437.933 154.528 436.509 153.36 434.045 153.36ZM433.773 160.656C432.749 160.656 432.141 160.192 432.141 159.472C432.141 158.848 432.509 158.336 433.869 158.336H435.933V159.328C435.597 160.208 434.749 160.656 433.773 160.656ZM447.154 153.456V154.592C446.45 153.744 445.394 153.36 444.194 153.36C441.746 153.36 439.874 154.992 439.874 157.472C439.874 159.952 441.746 161.616 444.194 161.616C445.346 161.616 446.354 161.248 447.058 160.48V160.928C447.058 162.656 446.226 163.52 444.338 163.52C443.154 163.52 441.938 163.12 441.186 162.496L440.29 164C441.266 164.8 442.85 165.216 444.45 165.216C447.442 165.216 449.058 163.808 449.058 160.704V153.456H447.154ZM444.498 159.92C442.978 159.92 441.89 158.928 441.89 157.472C441.89 156.032 442.978 155.056 444.498 155.056C446.002 155.056 447.09 156.032 447.09 157.472C447.09 158.928 446.002 159.92 444.498 159.92ZM459.719 157.776C459.719 155.104 457.895 153.36 455.399 153.36C452.855 153.36 450.983 155.184 450.983 157.728C450.983 160.272 452.839 162.112 455.703 162.112C457.175 162.112 458.375 161.632 459.143 160.72L458.071 159.488C457.463 160.112 456.711 160.416 455.751 160.416C454.263 160.416 453.223 159.616 452.983 158.368H459.687C459.703 158.176 459.719 157.936 459.719 157.776ZM455.399 154.96C456.711 154.96 457.655 155.808 457.815 157.04H452.967C453.159 155.792 454.103 154.96 455.399 154.96Z" fill="black"/>
<path d="M618.92 272L623.96 260.8H626.008L631.064 272H628.888L624.552 261.904H625.384L621.064 272H618.92ZM621.24 269.408L621.8 267.776H627.848L628.408 269.408H621.24ZM632.296 272V263.456H634.2V265.808L633.976 265.12C634.232 264.544 634.632 264.107 635.176 263.808C635.731 263.509 636.419 263.36 637.24 263.36V265.264C637.155 265.243 637.075 265.232 637 265.232C636.926 265.221 636.851 265.216 636.776 265.216C636.019 265.216 635.416 265.44 634.968 265.888C634.52 266.325 634.296 266.981 634.296 267.856V272H632.296ZM642.779 272.112C641.883 272.112 641.083 271.925 640.379 271.552C639.686 271.168 639.142 270.645 638.747 269.984C638.352 269.323 638.155 268.571 638.155 267.728C638.155 266.875 638.352 266.123 638.747 265.472C639.142 264.811 639.686 264.293 640.379 263.92C641.083 263.547 641.883 263.36 642.779 263.36C643.611 263.36 644.342 263.531 644.971 263.872C645.611 264.203 646.096 264.693 646.427 265.344L644.891 266.24C644.635 265.835 644.32 265.536 643.947 265.344C643.584 265.152 643.19 265.056 642.763 265.056C642.272 265.056 641.83 265.163 641.435 265.376C641.04 265.589 640.731 265.899 640.507 266.304C640.283 266.699 640.171 267.173 640.171 267.728C640.171 268.283 640.283 268.763 640.507 269.168C640.731 269.563 641.04 269.867 641.435 270.08C641.83 270.293 642.272 270.4 642.763 270.4C643.19 270.4 643.584 270.304 643.947 270.112C644.32 269.92 644.635 269.621 644.891 269.216L646.427 270.112C646.096 270.752 645.611 271.248 644.971 271.6C644.342 271.941 643.611 272.112 642.779 272.112ZM653.42 272V270.272L653.308 269.904V266.88C653.308 266.293 653.132 265.84 652.78 265.52C652.428 265.189 651.894 265.024 651.18 265.024C650.7 265.024 650.225 265.099 649.756 265.248C649.297 265.397 648.908 265.605 648.588 265.872L647.804 264.416C648.262 264.064 648.806 263.803 649.436 263.632C650.076 263.451 650.737 263.36 651.42 263.36C652.657 263.36 653.612 263.659 654.284 264.256C654.966 264.843 655.308 265.755 655.308 266.992V272H653.42ZM650.732 272.112C650.092 272.112 649.532 272.005 649.052 271.792C648.572 271.568 648.198 271.264 647.932 270.88C647.676 270.485 647.548 270.043 647.548 269.552C647.548 269.072 647.66 268.64 647.884 268.256C648.118 267.872 648.497 267.568 649.02 267.344C649.542 267.12 650.236 267.008 651.1 267.008H653.58V268.336H651.244C650.561 268.336 650.102 268.448 649.868 268.672C649.633 268.885 649.516 269.152 649.516 269.472C649.516 269.835 649.66 270.123 649.948 270.336C650.236 270.549 650.636 270.656 651.148 270.656C651.638 270.656 652.076 270.544 652.46 270.32C652.854 270.096 653.137 269.765 653.308 269.328L653.644 270.528C653.452 271.029 653.105 271.419 652.604 271.696C652.113 271.973 651.489 272.112 650.732 272.112ZM662.723 263.36C663.405 263.36 664.013 263.493 664.547 263.76C665.091 264.027 665.517 264.437 665.827 264.992C666.136 265.536 666.291 266.24 666.291 267.104V272H664.291V267.36C664.291 266.603 664.109 266.037 663.747 265.664C663.395 265.291 662.899 265.104 662.259 265.104C661.789 265.104 661.373 265.2 661.011 265.392C660.648 265.584 660.365 265.872 660.163 266.256C659.971 266.629 659.875 267.104 659.875 267.68V272H657.875V263.456H659.779V265.76L659.443 265.056C659.741 264.512 660.173 264.096 660.739 263.808C661.315 263.509 661.976 263.36 662.723 263.36ZM674.092 272V270.272L673.98 269.904V266.88C673.98 266.293 673.804 265.84 673.452 265.52C673.1 265.189 672.566 265.024 671.852 265.024C671.372 265.024 670.897 265.099 670.428 265.248C669.969 265.397 669.58 265.605 669.26 265.872L668.476 264.416C668.934 264.064 669.478 263.803 670.108 263.632C670.748 263.451 671.409 263.36 672.092 263.36C673.329 263.36 674.284 263.659 674.956 264.256C675.638 264.843 675.98 265.755 675.98 266.992V272H674.092ZM671.404 272.112C670.764 272.112 670.204 272.005 669.724 271.792C669.244 271.568 668.87 271.264 668.604 270.88C668.348 270.485 668.22 270.043 668.22 269.552C668.22 269.072 668.332 268.64 668.556 268.256C668.79 267.872 669.169 267.568 669.692 267.344C670.214 267.12 670.908 267.008 671.772 267.008H674.252V268.336H671.916C671.233 268.336 670.774 268.448 670.54 268.672C670.305 268.885 670.188 269.152 670.188 269.472C670.188 269.835 670.332 270.123 670.62 270.336C670.908 270.549 671.308 270.656 671.82 270.656C672.31 270.656 672.748 270.544 673.132 270.32C673.526 270.096 673.809 269.765 673.98 269.328L674.316 270.528C674.124 271.029 673.777 271.419 673.276 271.696C672.785 271.973 672.161 272.112 671.404 272.112ZM683.16 272V260.8H688.408C689.752 260.8 690.776 261.067 691.48 261.6C692.184 262.123 692.536 262.827 692.536 263.712C692.536 264.309 692.398 264.821 692.12 265.248C691.843 265.664 691.47 265.989 691 266.224C690.542 266.448 690.04 266.56 689.496 266.56L689.784 265.984C690.414 265.984 690.979 266.101 691.48 266.336C691.982 266.56 692.376 266.891 692.664 267.328C692.963 267.765 693.112 268.309 693.112 268.96C693.112 269.92 692.744 270.667 692.008 271.2C691.272 271.733 690.179 272 688.728 272H683.16ZM685.24 270.368H688.6C689.379 270.368 689.976 270.24 690.392 269.984C690.808 269.728 691.016 269.317 691.016 268.752C691.016 268.197 690.808 267.792 690.392 267.536C689.976 267.269 689.379 267.136 688.6 267.136H685.08V265.52H688.184C688.91 265.52 689.464 265.392 689.848 265.136C690.243 264.88 690.44 264.496 690.44 263.984C690.44 263.461 690.243 263.072 689.848 262.816C689.464 262.56 688.91 262.432 688.184 262.432H685.24V270.368ZM695.14 272V260.128H697.14V272H695.14ZM703.605 272.112C702.73 272.112 701.952 271.925 701.269 271.552C700.586 271.168 700.048 270.645 699.653 269.984C699.258 269.323 699.061 268.571 699.061 267.728C699.061 266.875 699.258 266.123 699.653 265.472C700.048 264.811 700.586 264.293 701.269 263.92C701.952 263.547 702.73 263.36 703.605 263.36C704.49 263.36 705.274 263.547 705.957 263.92C706.65 264.293 707.189 264.805 707.573 265.456C707.968 266.107 708.165 266.864 708.165 267.728C708.165 268.571 707.968 269.323 707.573 269.984C707.189 270.645 706.65 271.168 705.957 271.552C705.274 271.925 704.49 272.112 703.605 272.112ZM703.605 270.4C704.096 270.4 704.533 270.293 704.917 270.08C705.301 269.867 705.6 269.557 705.813 269.152C706.037 268.747 706.149 268.272 706.149 267.728C706.149 267.173 706.037 266.699 705.813 266.304C705.6 265.899 705.301 265.589 704.917 265.376C704.533 265.163 704.101 265.056 703.621 265.056C703.13 265.056 702.693 265.163 702.309 265.376C701.936 265.589 701.637 265.899 701.413 266.304C701.189 266.699 701.077 267.173 701.077 267.728C701.077 268.272 701.189 268.747 701.413 269.152C701.637 269.557 701.936 269.867 702.309 270.08C702.693 270.293 703.125 270.4 703.605 270.4ZM713.998 272.112C713.102 272.112 712.302 271.925 711.598 271.552C710.904 271.168 710.36 270.645 709.966 269.984C709.571 269.323 709.374 268.571 709.374 267.728C709.374 266.875 709.571 266.123 709.966 265.472C710.36 264.811 710.904 264.293 711.598 263.92C712.302 263.547 713.102 263.36 713.998 263.36C714.83 263.36 715.56 263.531 716.19 263.872C716.83 264.203 717.315 264.693 717.646 265.344L716.11 266.24C715.854 265.835 715.539 265.536 715.166 265.344C714.803 265.152 714.408 265.056 713.982 265.056C713.491 265.056 713.048 265.163 712.654 265.376C712.259 265.589 711.95 265.899 711.726 266.304C711.502 266.699 711.39 267.173 711.39 267.728C711.39 268.283 711.502 268.763 711.726 269.168C711.95 269.563 712.259 269.867 712.654 270.08C713.048 270.293 713.491 270.4 713.982 270.4C714.408 270.4 714.803 270.304 715.166 270.112C715.539 269.92 715.854 269.621 716.11 269.216L717.646 270.112C717.315 270.752 716.83 271.248 716.19 271.6C715.56 271.941 714.83 272.112 713.998 272.112ZM720.928 270.096L720.976 267.584L725.44 263.456H727.84L724.048 267.264L722.992 268.144L720.928 270.096ZM719.296 272V260.128H721.296V272H719.296ZM725.744 272L722.624 268.144L723.888 266.544L728.176 272H725.744ZM733.045 272.112C732.149 272.112 731.349 271.925 730.645 271.552C729.951 271.168 729.407 270.645 729.013 269.984C728.618 269.323 728.421 268.571 728.421 267.728C728.421 266.875 728.618 266.123 729.013 265.472C729.407 264.811 729.951 264.293 730.645 263.92C731.349 263.547 732.149 263.36 733.045 263.36C733.877 263.36 734.607 263.531 735.237 263.872C735.877 264.203 736.362 264.693 736.693 265.344L735.157 266.24C734.901 265.835 734.586 265.536 734.213 265.344C733.85 265.152 733.455 265.056 733.029 265.056C732.538 265.056 732.095 265.163 731.701 265.376C731.306 265.589 730.997 265.899 730.773 266.304C730.549 266.699 730.437 267.173 730.437 267.728C730.437 268.283 730.549 268.763 730.773 269.168C730.997 269.563 731.306 269.867 731.701 270.08C732.095 270.293 732.538 270.4 733.029 270.4C733.455 270.4 733.85 270.304 734.213 270.112C734.586 269.92 734.901 269.621 735.157 269.216L736.693 270.112C736.362 270.752 735.877 271.248 735.237 271.6C734.607 271.941 733.877 272.112 733.045 272.112ZM743.191 263.36C743.874 263.36 744.482 263.493 745.015 263.76C745.559 264.027 745.986 264.437 746.295 264.992C746.605 265.536 746.759 266.24 746.759 267.104V272H744.759V267.36C744.759 266.603 744.578 266.037 744.215 265.664C743.863 265.291 743.367 265.104 742.727 265.104C742.258 265.104 741.842 265.2 741.479 265.392C741.117 265.584 740.834 265.872 740.631 266.256C740.439 266.629 740.343 267.104 740.343 267.68V272H738.343V260.128H740.343V265.76L739.911 265.056C740.21 264.512 740.642 264.096 741.207 263.808C741.783 263.509 742.445 263.36 743.191 263.36ZM754.56 272V270.272L754.448 269.904V266.88C754.448 266.293 754.272 265.84 753.92 265.52C753.568 265.189 753.035 265.024 752.32 265.024C751.84 265.024 751.366 265.099 750.896 265.248C750.438 265.397 750.048 265.605 749.728 265.872L748.944 264.416C749.403 264.064 749.947 263.803 750.576 263.632C751.216 263.451 751.878 263.36 752.56 263.36C753.798 263.36 754.752 263.659 755.424 264.256C756.107 264.843 756.448 265.755 756.448 266.992V272H754.56ZM751.872 272.112C751.232 272.112 750.672 272.005 750.192 271.792C749.712 271.568 749.339 271.264 749.072 270.88C748.816 270.485 748.688 270.043 748.688 269.552C748.688 269.072 748.8 268.64 749.024 268.256C749.259 267.872 749.638 267.568 750.16 267.344C750.683 267.12 751.376 267.008 752.24 267.008H754.72V268.336H752.384C751.702 268.336 751.243 268.448 751.008 268.672C750.774 268.885 750.656 269.152 750.656 269.472C750.656 269.835 750.8 270.123 751.088 270.336C751.376 270.549 751.776 270.656 752.288 270.656C752.779 270.656 753.216 270.544 753.6 270.32C753.995 270.096 754.278 269.765 754.448 269.328L754.784 270.528C754.592 271.029 754.246 271.419 753.744 271.696C753.254 271.973 752.63 272.112 751.872 272.112ZM759.015 272V263.456H761.015V272H759.015ZM760.023 262.048C759.65 262.048 759.34 261.931 759.095 261.696C758.86 261.461 758.743 261.179 758.743 260.848C758.743 260.507 758.86 260.224 759.095 260C759.34 259.765 759.65 259.648 760.023 259.648C760.396 259.648 760.7 259.76 760.935 259.984C761.18 260.197 761.303 260.469 761.303 260.8C761.303 261.152 761.186 261.451 760.951 261.696C760.716 261.931 760.407 262.048 760.023 262.048ZM768.488 263.36C769.171 263.36 769.779 263.493 770.312 263.76C770.856 264.027 771.283 264.437 771.592 264.992C771.901 265.536 772.056 266.24 772.056 267.104V272H770.056V267.36C770.056 266.603 769.875 266.037 769.512 265.664C769.16 265.291 768.664 265.104 768.024 265.104C767.555 265.104 767.139 265.2 766.776 265.392C766.413 265.584 766.131 265.872 765.928 266.256C765.736 266.629 765.64 267.104 765.64 267.68V272H763.64V263.456H765.544V265.76L765.208 265.056C765.507 264.512 765.939 264.096 766.504 263.808C767.08 263.509 767.741 263.36 768.488 263.36Z" fill="black"/>
<g filter="url(#filter0_d_567_426)">
<g filter="url(#filter1_d_567_426)">
<path d="M99 348C99 317.624 123.624 293 154 293C184.376 293 209 317.624 209 348C209 378.376 184.376 403 154 403C123.624 403 99 378.376 99 348Z" fill="url(#paint0_radial_567_426)"/>
</g>
</g>
<circle cx="198.584" cy="349.5" r="2.41558" fill="white"/>
<circle cx="110.416" cy="349.5" r="2.41558" fill="white"/>
<circle cx="192.678" cy="327.458" r="2.41558" transform="rotate(-30 192.678 327.458)" fill="white"/>
<circle cx="116.322" cy="371.542" r="2.41558" transform="rotate(-30 116.322 371.542)" fill="white"/>
<circle cx="176.542" cy="311.322" r="2.41558" transform="rotate(-60 176.542 311.322)" fill="white"/>
<circle cx="132.458" cy="387.678" r="2.41558" transform="rotate(-60 132.458 387.678)" fill="white"/>
<circle cx="154.5" cy="305.415" r="2.41558" transform="rotate(-90 154.5 305.415)" fill="white"/>
<circle cx="154.5" cy="348.641" r="2.41558" transform="rotate(-90 154.5 348.641)" fill="white"/>
<circle cx="154.5" cy="348.845" r="5.89437" transform="rotate(-90 154.5 348.845)" fill="white"/>
<circle cx="154.5" cy="393.584" r="2.41558" transform="rotate(-90 154.5 393.584)" fill="white"/>
<circle cx="132.458" cy="311.322" r="2.41558" transform="rotate(-120 132.458 311.322)" fill="white"/>
<circle cx="176.542" cy="387.678" r="2.41558" transform="rotate(-120 176.542 387.678)" fill="white"/>
<circle cx="116.322" cy="327.458" r="2.41558" transform="rotate(-150 116.322 327.458)" fill="white"/>
<circle cx="192.678" cy="371.542" r="2.41558" transform="rotate(-150 192.678 371.542)" fill="white"/>
<line x1="117.25" y1="328.5" x2="117.25" y2="369.5" stroke="white" stroke-width="0.5"/>
<line x1="192.25" y1="328.5" x2="192.25" y2="369.5" stroke="white" stroke-width="0.5"/>
<line x1="154.022" y1="305.803" x2="191.463" y2="327.544" stroke="white" stroke-width="0.5"/>
<line y1="-0.25" x2="43.2956" y2="-0.25" transform="matrix(-0.864789 0.502136 0.502136 0.864789 155.104 306.02)" stroke="white" stroke-width="0.5"/>
<line x1="154.978" y1="393.197" x2="117.537" y2="371.456" stroke="white" stroke-width="0.5"/>
<line y1="-0.25" x2="43.2956" y2="-0.25" transform="matrix(0.864789 -0.502135 -0.502135 -0.864789 153.896 392.98)" stroke="white" stroke-width="0.5"/>
<line x1="134" y1="312.25" x2="173" y2="312.25" stroke="white" stroke-width="0.5"/>
<line x1="110.803" y1="349.978" x2="132.543" y2="312.537" stroke="white" stroke-width="0.5"/>
<line y1="-0.25" x2="43.2956" y2="-0.25" transform="matrix(0.502136 0.864789 0.864789 -0.502136 111.019 348.896)" stroke="white" stroke-width="0.5"/>
<line x1="198.197" y1="349.022" x2="176.457" y2="386.463" stroke="white" stroke-width="0.5"/>
<line y1="-0.25" x2="43.2956" y2="-0.25" transform="matrix(-0.502136 -0.864789 -0.864789 0.502136 197.981 350.104)" stroke="white" stroke-width="0.5"/>
<path d="M387.504 487H392.4C396.032 487 398.512 484.76 398.512 481.4C398.512 478.04 396.032 475.8 392.4 475.8H387.504V487ZM389.584 485.24V477.56H392.304C394.8 477.56 396.416 479.08 396.416 481.4C396.416 483.72 394.8 485.24 392.304 485.24H389.584ZM408.531 487H410.963L405.971 480.808L410.675 475.8H408.339L402.803 481.544V475.8H400.723V487H402.803V484.136L404.579 482.312L408.531 487ZM419.621 484.76C418.901 485.176 418.117 485.336 417.317 485.336C414.949 485.336 413.269 483.672 413.269 481.4C413.269 479.08 414.949 477.464 417.333 477.464C418.533 477.464 419.541 477.864 420.421 478.744L421.733 477.464C420.677 476.264 419.109 475.64 417.237 475.64C413.733 475.64 411.173 478.056 411.173 481.4C411.173 484.744 413.733 487.16 417.205 487.16C418.789 487.16 420.421 486.68 421.589 485.736V481.272H419.621V484.76ZM436.642 475.8V483.384L430.466 475.8H428.754V487H430.818V479.416L436.994 487H438.706V475.8H436.642ZM445.355 487.112C448.011 487.112 449.915 485.288 449.915 482.728C449.915 480.168 448.011 478.36 445.355 478.36C442.731 478.36 440.811 480.168 440.811 482.728C440.811 485.288 442.731 487.112 445.355 487.112ZM445.355 485.4C443.915 485.4 442.827 484.36 442.827 482.728C442.827 481.096 443.915 480.056 445.355 480.056C446.811 480.056 447.899 481.096 447.899 482.728C447.899 484.36 446.811 485.4 445.355 485.4ZM458.196 475.128V479.512C457.524 478.728 456.548 478.36 455.444 478.36C452.964 478.36 451.124 480.072 451.124 482.728C451.124 485.384 452.964 487.112 455.444 487.112C456.612 487.112 457.604 486.712 458.276 485.896V487H460.196V475.128H458.196ZM455.684 485.4C454.244 485.4 453.14 484.36 453.14 482.728C453.14 481.096 454.244 480.056 455.684 480.056C457.124 480.056 458.228 481.096 458.228 482.728C458.228 484.36 457.124 485.4 455.684 485.4ZM470.844 482.776C470.844 480.104 469.02 478.36 466.524 478.36C463.98 478.36 462.108 480.184 462.108 482.728C462.108 485.272 463.964 487.112 466.828 487.112C468.3 487.112 469.5 486.632 470.268 485.72L469.196 484.488C468.588 485.112 467.836 485.416 466.876 485.416C465.388 485.416 464.348 484.616 464.108 483.368H470.812C470.828 483.176 470.844 482.936 470.844 482.776ZM466.524 479.96C467.836 479.96 468.78 480.808 468.94 482.04H464.092C464.284 480.792 465.228 479.96 466.524 479.96Z" fill="black"/>
<path d="M156 439L156 578" stroke="black"/>
<path d="M171 578H156" stroke="black"/>
<path d="M204 616L204 578" stroke="black"/>
<path d="M204 616H267" stroke="black"/>
<path d="M267 578L267 616" stroke="black"/>
<path d="M328.354 578.354C328.549 578.158 328.549 577.842 328.354 577.646L325.172 574.464C324.976 574.269 324.66 574.269 324.464 574.464C324.269 574.66 324.269 574.976 324.464 575.172L327.293 578L324.464 580.828C324.269 581.024 324.269 581.34 324.464 581.536C324.66 581.731 324.976 581.731 325.172 581.536L328.354 578.354ZM267 578.5H328V577.5H267V578.5Z" fill="black"/>
<path d="M346.354 350.354C346.549 350.158 346.549 349.842 346.354 349.646L343.172 346.464C342.976 346.269 342.66 346.269 342.464 346.464C342.269 346.66 342.269 346.976 342.464 347.172L345.293 350L342.464 352.828C342.269 353.024 342.269 353.34 342.464 353.536C342.66 353.731 342.976 353.731 343.172 353.536L346.354 350.354ZM231 350.5H346V349.5H231V350.5Z" fill="black"/>
<path d="M138.128 419.8V421.544H140.496V431H142.576V419.8H138.128ZM146.062 428.456C145.326 428.456 144.766 428.984 144.766 429.784C144.766 430.36 145.07 430.776 145.518 430.968L144.878 433.416H146.174L146.99 431.16C147.278 430.424 147.358 430.136 147.358 429.784C147.358 429 146.814 428.456 146.062 428.456ZM153.628 424.424L156.348 421.192V419.8H148.716V421.544H153.804L151.26 424.568V425.992H152.284C153.98 425.992 154.716 426.648 154.716 427.656C154.716 428.696 153.836 429.352 152.348 429.352C151.084 429.352 149.868 428.92 149.068 428.248L148.172 429.864C149.212 430.68 150.796 431.16 152.38 431.16C155.388 431.16 156.812 429.528 156.812 427.64C156.812 425.96 155.74 424.696 153.628 424.424ZM159.437 428.456C158.701 428.456 158.141 428.984 158.141 429.784C158.141 430.36 158.445 430.776 158.893 430.968L158.253 433.416H159.549L160.365 431.16C160.653 430.424 160.733 430.136 160.733 429.784C160.733 429 160.189 428.456 159.437 428.456ZM171.985 426.696H170.001V424.44H168.049V426.696H164.385L169.585 419.8H167.361L161.841 427.016V428.456H167.985V431H170.001V428.456H171.985V426.696Z" fill="black"/>
<rect x="277" y="342" width="24" height="15" fill="white"/>
<path d="M187.208 571.136H186.136L186.376 568.544H191.192V566.8H184.616L184.04 572.896H186.744C189.064 572.896 189.752 573.568 189.752 574.64C189.752 575.696 188.872 576.352 187.384 576.352C186.12 576.352 184.904 575.92 184.088 575.248L183.208 576.864C184.232 577.68 185.832 578.16 187.416 578.16C190.424 578.16 191.848 576.528 191.848 574.56C191.848 572.576 190.52 571.136 187.208 571.136Z" fill="black"/>
<path d="M604.448 502.8V506.464H606.384V504.56H610.784L606.576 514H608.8L613.152 504.192V502.8H604.448Z" fill="black"/>
<path d="M619.354 350.354C619.549 350.158 619.549 349.842 619.354 349.646L616.172 346.464C615.976 346.269 615.66 346.269 615.464 346.464C615.269 346.66 615.269 346.976 615.464 347.172L618.293 350L615.464 352.828C615.269 353.024 615.269 353.34 615.464 353.536C615.66 353.731 615.976 353.731 616.172 353.536L619.354 350.354ZM504 350.5H619V349.5H504V350.5Z" fill="black"/>
<path d="M288.536 353.24L291.528 350.392C293.08 348.936 293.384 347.944 293.384 346.856C293.384 344.872 291.816 343.64 289.384 343.64C287.544 343.64 285.992 344.328 285.128 345.496L286.584 346.616C287.208 345.816 288.12 345.448 289.208 345.448C290.584 345.448 291.288 346.04 291.288 347.064C291.288 347.688 291.096 348.344 290.008 349.384L285.56 353.608V355H293.816V353.24H288.536Z" fill="black"/>
<rect x="550" y="342" width="24" height="15" fill="white"/>
<path d="M561.536 354.24L564.528 351.392C566.08 349.936 566.384 348.944 566.384 347.856C566.384 345.872 564.816 344.64 562.384 344.64C560.544 344.64 558.992 345.328 558.128 346.496L559.584 347.616C560.208 346.816 561.12 346.448 562.208 346.448C563.584 346.448 564.288 347.04 564.288 348.064C564.288 348.688 564.096 349.344 563.008 350.384L558.56 354.608V356H566.816V354.24H561.536Z" fill="black"/>
<g filter="url(#filter2_d_567_426)">
<g filter="url(#filter3_d_567_426)">
<path d="M642 313C642 301.954 650.954 293 662 293H732C743.046 293 752 301.954 752 313V383C752 394.046 743.046 403 732 403H662C650.954 403 642 394.046 642 383V313Z" fill="url(#paint1_radial_567_426)"/>
</g>
</g>
<path d="M696.949 349.139L670.357 358.07C668.57 358.671 668.529 361.183 670.296 361.841L696.887 371.738C697.341 371.907 697.841 371.905 698.293 371.734L724.423 361.836C726.175 361.173 726.134 358.68 724.361 358.074L698.232 349.142C697.816 349 697.365 348.999 696.949 349.139Z" stroke="white" stroke-width="1.5"/>
<path d="M696.949 341.754L670.357 350.686C668.57 351.286 668.529 353.799 670.296 354.456L696.887 364.354C697.341 364.522 697.841 364.521 698.293 364.349L724.423 354.452C726.175 353.788 726.134 351.295 724.361 350.689L698.232 341.758C697.816 341.616 697.365 341.614 696.949 341.754Z" fill="#313131" stroke="white" stroke-width="1.5"/>
<path d="M696.949 332.523L670.357 341.455C668.57 342.055 668.529 344.568 670.296 345.225L696.887 355.123C697.341 355.291 697.841 355.29 698.293 355.119L724.423 345.221C726.175 344.557 726.134 342.064 724.361 341.458L698.232 332.527C697.816 332.385 697.365 332.383 696.949 332.523Z" fill="#313131" stroke="white" stroke-width="1.5"/>
<path d="M696.949 324.216L670.357 333.148C668.57 333.748 668.529 336.26 670.296 336.918L696.887 346.815C697.341 346.984 697.841 346.982 698.293 346.811L724.423 336.914C726.175 336.25 726.134 333.757 724.361 333.151L698.232 324.219C697.816 324.077 697.365 324.076 696.949 324.216Z" fill="white" stroke="white" stroke-width="1.5"/>
<g filter="url(#filter4_d_567_426)">
<g filter="url(#filter5_d_567_426)">
<path d="M365.142 593.924C357.332 586.113 357.332 573.45 365.142 565.64L414.64 516.142C422.45 508.332 435.113 508.332 442.924 516.142L492.421 565.64C500.232 573.45 500.232 586.113 492.421 593.924L442.924 643.421C435.113 651.232 422.45 651.232 414.64 643.421L365.142 593.924Z" fill="url(#paint2_radial_567_426)"/>
</g>
</g>
<circle cx="428.485" cy="618.897" r="5.60769" fill="white"/>
<circle cx="428.485" cy="580.267" r="9.34615" fill="white"/>
<circle cx="428.485" cy="540.389" r="5.60769" fill="white"/>
<circle cx="388.608" cy="556.59" r="5.60769" fill="white"/>
<circle cx="394.838" cy="601.451" r="5.60769" fill="white"/>
<circle cx="448.423" cy="591.482" r="5.60769" fill="white"/>
<circle cx="458.392" cy="564.066" r="5.60769" fill="white"/>
<line x1="429.615" y1="580.028" x2="450.799" y2="592.489" stroke="white" stroke-width="2"/>
<line x1="428.38" y1="581.744" x2="393.488" y2="602.929" stroke="white" stroke-width="2"/>
<line x1="427.332" y1="580.491" x2="387.455" y2="555.568" stroke="white" stroke-width="2"/>
<line x1="428.616" y1="580.019" x2="457.277" y2="563.819" stroke="white" stroke-width="2"/>
<line x1="428.862" y1="539.766" x2="428.862" y2="617.028" stroke="white" stroke-width="2"/>
<g filter="url(#filter6_d_567_426)">
<g filter="url(#filter7_d_567_426)">
<path d="M374 313C374 301.954 382.954 293 394 293H464C475.046 293 484 301.954 484 313V383C484 394.046 475.046 403 464 403H394C382.954 403 374 394.046 374 383V313Z" fill="url(#paint3_radial_567_426)"/>
</g>
</g>
<rect x="-0.846072" y="0.846072" width="32.4267" height="26.7402" rx="0.846072" transform="matrix(-1 0 0 1 444.376 332.829)" stroke="white" stroke-width="1.69214"/>
<path d="M414 325.921C414 325.604 413.823 325.314 413.541 325.169L401.073 318.744C400.509 318.454 399.839 318.862 399.839 319.496V375.708C399.839 376.397 400.617 376.797 401.177 376.396L413.646 367.474C413.868 367.315 414 367.059 414 366.786V325.921Z" fill="white" stroke="white" stroke-width="1.69214"/>
<path d="M444.33 325.918C444.33 325.601 444.506 325.311 444.788 325.165L457.257 318.74C457.82 318.45 458.49 318.859 458.49 319.492V375.705C458.49 376.394 457.712 376.794 457.152 376.393L444.683 367.471C444.461 367.312 444.33 367.056 444.33 366.783V325.918Z" fill="white" stroke="white" stroke-width="1.69214"/>
<g filter="url(#filter8_d_567_426)">
<path d="M374 43C374 31.9543 382.954 23 394 23H464C475.046 23 484 31.9543 484 43V113C484 124.046 475.046 133 464 133H394C382.954 133 374 124.046 374 113V43Z" fill="url(#paint4_radial_567_426)"/>
</g>
<mask id="mask0_567_426" style="mask-type:alpha" maskUnits="userSpaceOnUse" x="406" y="85" width="45" height="12">
<rect x="406" y="85" width="45" height="12" fill="#C4C4C4"/>
</mask>
<g mask="url(#mask0_567_426)">
<path d="M450.25 85C450.25 87.5916 448.079 90.1496 444.08 92.1044C440.132 94.0348 434.624 95.25 428.5 95.25C422.376 95.25 416.868 94.0348 412.92 92.1044C408.921 90.1496 406.75 87.5916 406.75 85C406.75 82.4084 408.921 79.8504 412.92 77.8956C416.868 75.9652 422.376 74.75 428.5 74.75C434.624 74.75 440.132 75.9652 444.08 77.8956C448.079 79.8504 450.25 82.4084 450.25 85Z" stroke="#F8F8F8" stroke-width="1.5"/>
</g>
<mask id="mask1_567_426" style="mask-type:alpha" maskUnits="userSpaceOnUse" x="406" y="100" width="45" height="12">
<rect x="406" y="100" width="45" height="12" fill="#C4C4C4"/>
</mask>
<g mask="url(#mask1_567_426)">
<path d="M450.25 100C450.25 102.592 448.079 105.15 444.08 107.104C440.132 109.035 434.624 110.25 428.5 110.25C422.376 110.25 416.868 109.035 412.92 107.104C408.921 105.15 406.75 102.592 406.75 100C406.75 97.4084 408.921 94.8504 412.92 92.8956C416.868 90.9652 422.376 89.75 428.5 89.75C434.624 89.75 440.132 90.9652 444.08 92.8956C448.079 94.8504 450.25 97.4084 450.25 100Z" stroke="#F8F8F8" stroke-width="1.5"/>
</g>
<mask id="mask2_567_426" style="mask-type:alpha" maskUnits="userSpaceOnUse" x="406" y="70" width="45" height="12">
<rect x="406" y="70" width="45" height="12" fill="#C4C4C4"/>
</mask>
<g mask="url(#mask2_567_426)">
<path d="M450.25 70C450.25 72.5916 448.079 75.1496 444.08 77.1044C440.132 79.0348 434.624 80.25 428.5 80.25C422.376 80.25 416.868 79.0348 412.92 77.1044C408.921 75.1496 406.75 72.5916 406.75 70C406.75 67.4084 408.921 64.8504 412.92 62.8956C416.868 60.9652 422.376 59.75 428.5 59.75C434.624 59.75 440.132 60.9652 444.08 62.8956C448.079 64.8504 450.25 67.4084 450.25 70Z" stroke="#F8F8F8" stroke-width="1.5"/>
</g>
<mask id="mask3_567_426" style="mask-type:alpha" maskUnits="userSpaceOnUse" x="402" y="53" width="54" height="53">
<path d="M407.5 77.6111V105H403V54H455.5V104.056H449.5V57.3056H407.5V77.6111Z" fill="#C4C4C4" stroke="black"/>
</mask>
<g mask="url(#mask3_567_426)">
<rect x="406.75" y="56.6387" width="43.5" height="43.8333" stroke="white" stroke-width="1.5"/>
</g>
<path d="M450.607 56C450.607 58.8039 448.271 61.4533 444.237 63.4251C440.23 65.3842 434.667 66.607 428.5 66.607C422.333 66.607 416.77 65.3842 412.763 63.4251C408.729 61.4533 406.393 58.8039 406.393 56C406.393 53.1961 408.729 50.5467 412.763 48.5749C416.77 46.6158 422.333 45.393 428.5 45.393C434.667 45.393 440.23 46.6158 444.237 48.5749C448.271 50.5467 450.607 53.1961 450.607 56Z" fill="white" stroke="#F8F8F8" stroke-width="0.785949"/>
<ellipse cx="442.5" cy="71.5" rx="2.5" ry="3.5" fill="white"/>
<ellipse cx="442.5" cy="85.5" rx="2.5" ry="3.5" fill="white"/>
<ellipse cx="442.5" cy="100.5" rx="2.5" ry="3.5" fill="white"/>
<path d="M428.792 684.088C427.544 684.088 426.472 684.472 425.8 685.256V685.24C425.8 682.696 427.128 681.384 429.24 681.384C430.024 681.384 430.76 681.528 431.368 681.928L432.136 680.36C431.384 679.88 430.312 679.64 429.192 679.64C425.944 679.64 423.704 681.752 423.704 685.592C423.704 689.192 425.496 691.16 428.552 691.16C430.84 691.16 432.648 689.752 432.648 687.528C432.648 685.432 431 684.088 428.792 684.088ZM428.44 689.528C426.952 689.528 426.12 688.696 426.12 687.64C426.12 686.536 427.048 685.72 428.392 685.72C429.752 685.72 430.632 686.456 430.632 687.624C430.632 688.792 429.736 689.528 428.44 689.528Z" fill="black"/>
<defs>
<filter id="filter0_d_567_426" x="95" y="281" width="144" height="144" filterUnits="userSpaceOnUse" color-interpolation-filters="sRGB">
<feFlood flood-opacity="0" result="BackgroundImageFix"/>
<feColorMatrix in="SourceAlpha" type="matrix" values="0 0 0 0 0 0 0 0 0 0 0 0 0 0 0 0 0 0 127 0" result="hardAlpha"/>
<feOffset dx="13" dy="5"/>
<feGaussianBlur stdDeviation="8.5"/>
<feColorMatrix type="matrix" values="0 0 0 0 0 0 0 0 0 0 0 0 0 0 0 0 0 0 0.15 0"/>
<feBlend mode="normal" in2="BackgroundImageFix" result="effect1_dropShadow_567_426"/>
<feBlend mode="normal" in="SourceGraphic" in2="effect1_dropShadow_567_426" result="shape"/>
</filter>
<filter id="filter1_d_567_426" x="99" y="293" width="118" height="119" filterUnits="userSpaceOnUse" color-interpolation-filters="sRGB">
<feFlood flood-opacity="0" result="BackgroundImageFix"/>
<feColorMatrix in="SourceAlpha" type="matrix" values="0 0 0 0 0 0 0 0 0 0 0 0 0 0 0 0 0 0 127 0" result="hardAlpha"/>
<feOffset dx="4" dy="5"/>
<feGaussianBlur stdDeviation="2"/>
<feColorMatrix type="matrix" values="0 0 0 0 0 0 0 0 0 0 0 0 0 0 0 0 0 0 0.25 0"/>
<feBlend mode="normal" in2="BackgroundImageFix" result="effect1_dropShadow_567_426"/>
<feBlend mode="normal" in="SourceGraphic" in2="effect1_dropShadow_567_426" result="shape"/>
</filter>
<filter id="filter2_d_567_426" x="638" y="281" width="144" height="144" filterUnits="userSpaceOnUse" color-interpolation-filters="sRGB">
<feFlood flood-opacity="0" result="BackgroundImageFix"/>
<feColorMatrix in="SourceAlpha" type="matrix" values="0 0 0 0 0 0 0 0 0 0 0 0 0 0 0 0 0 0 127 0" result="hardAlpha"/>
<feOffset dx="13" dy="5"/>
<feGaussianBlur stdDeviation="8.5"/>
<feColorMatrix type="matrix" values="0 0 0 0 0 0 0 0 0 0 0 0 0 0 0 0 0 0 0.15 0"/>
<feBlend mode="normal" in2="BackgroundImageFix" result="effect1_dropShadow_567_426"/>
<feBlend mode="normal" in="SourceGraphic" in2="effect1_dropShadow_567_426" result="shape"/>
</filter>
<filter id="filter3_d_567_426" x="642" y="293" width="118" height="119" filterUnits="userSpaceOnUse" color-interpolation-filters="sRGB">
<feFlood flood-opacity="0" result="BackgroundImageFix"/>
<feColorMatrix in="SourceAlpha" type="matrix" values="0 0 0 0 0 0 0 0 0 0 0 0 0 0 0 0 0 0 127 0" result="hardAlpha"/>
<feOffset dx="4" dy="5"/>
<feGaussianBlur stdDeviation="2"/>
<feColorMatrix type="matrix" values="0 0 0 0 0 0 0 0 0 0 0 0 0 0 0 0 0 0 0.25 0"/>
<feBlend mode="normal" in2="BackgroundImageFix" result="effect1_dropShadow_567_426"/>
<feBlend mode="normal" in="SourceGraphic" in2="effect1_dropShadow_567_426" result="shape"/>
</filter>
<filter id="filter4_d_567_426" x="355.284" y="498.284" width="172.995" height="172.995" filterUnits="userSpaceOnUse" color-interpolation-filters="sRGB">
<feFlood flood-opacity="0" result="BackgroundImageFix"/>
<feColorMatrix in="SourceAlpha" type="matrix" values="0 0 0 0 0 0 0 0 0 0 0 0 0 0 0 0 0 0 127 0" result="hardAlpha"/>
<feOffset dx="13" dy="5"/>
<feGaussianBlur stdDeviation="8.5"/>
<feColorMatrix type="matrix" values="0 0 0 0 0 0 0 0 0 0 0 0 0 0 0 0 0 0 0.15 0"/>
<feBlend mode="normal" in2="BackgroundImageFix" result="effect1_dropShadow_567_426"/>
<feBlend mode="normal" in="SourceGraphic" in2="effect1_dropShadow_567_426" result="shape"/>
</filter>
<filter id="filter5_d_567_426" x="359.284" y="510.284" width="146.995" height="147.995" filterUnits="userSpaceOnUse" color-interpolation-filters="sRGB">
<feFlood flood-opacity="0" result="BackgroundImageFix"/>
<feColorMatrix in="SourceAlpha" type="matrix" values="0 0 0 0 0 0 0 0 0 0 0 0 0 0 0 0 0 0 127 0" result="hardAlpha"/>
<feOffset dx="4" dy="5"/>
<feGaussianBlur stdDeviation="2"/>
<feColorMatrix type="matrix" values="0 0 0 0 0 0 0 0 0 0 0 0 0 0 0 0 0 0 0.25 0"/>
<feBlend mode="normal" in2="BackgroundImageFix" result="effect1_dropShadow_567_426"/>
<feBlend mode="normal" in="SourceGraphic" in2="effect1_dropShadow_567_426" result="shape"/>
</filter>
<filter id="filter6_d_567_426" x="370" y="281" width="144" height="144" filterUnits="userSpaceOnUse" color-interpolation-filters="sRGB">
<feFlood flood-opacity="0" result="BackgroundImageFix"/>
<feColorMatrix in="SourceAlpha" type="matrix" values="0 0 0 0 0 0 0 0 0 0 0 0 0 0 0 0 0 0 127 0" result="hardAlpha"/>
<feOffset dx="13" dy="5"/>
<feGaussianBlur stdDeviation="8.5"/>
<feColorMatrix type="matrix" values="0 0 0 0 0 0 0 0 0 0 0 0 0 0 0 0 0 0 0.15 0"/>
<feBlend mode="normal" in2="BackgroundImageFix" result="effect1_dropShadow_567_426"/>
<feBlend mode="normal" in="SourceGraphic" in2="effect1_dropShadow_567_426" result="shape"/>
</filter>
<filter id="filter7_d_567_426" x="374" y="293" width="118" height="119" filterUnits="userSpaceOnUse" color-interpolation-filters="sRGB">
<feFlood flood-opacity="0" result="BackgroundImageFix"/>
<feColorMatrix in="SourceAlpha" type="matrix" values="0 0 0 0 0 0 0 0 0 0 0 0 0 0 0 0 0 0 127 0" result="hardAlpha"/>
<feOffset dx="4" dy="5"/>
<feGaussianBlur stdDeviation="2"/>
<feColorMatrix type="matrix" values="0 0 0 0 0 0 0 0 0 0 0 0 0 0 0 0 0 0 0.25 0"/>
<feBlend mode="normal" in2="BackgroundImageFix" result="effect1_dropShadow_567_426"/>
<feBlend mode="normal" in="SourceGraphic" in2="effect1_dropShadow_567_426" result="shape"/>
</filter>
<filter id="filter8_d_567_426" x="374" y="23" width="118" height="119" filterUnits="userSpaceOnUse" color-interpolation-filters="sRGB">
<feFlood flood-opacity="0" result="BackgroundImageFix"/>
<feColorMatrix in="SourceAlpha" type="matrix" values="0 0 0 0 0 0 0 0 0 0 0 0 0 0 0 0 0 0 127 0" result="hardAlpha"/>
<feOffset dx="4" dy="5"/>
<feGaussianBlur stdDeviation="2"/>
<feColorMatrix type="matrix" values="0 0 0 0 0 0 0 0 0 0 0 0 0 0 0 0 0 0 0.25 0"/>
<feBlend mode="normal" in2="BackgroundImageFix" result="effect1_dropShadow_567_426"/>
<feBlend mode="normal" in="SourceGraphic" in2="effect1_dropShadow_567_426" result="shape"/>
</filter>
<radialGradient id="paint0_radial_567_426" cx="0" cy="0" r="1" gradientUnits="userSpaceOnUse" gradientTransform="translate(73.0534 278.806) rotate(40.0117) scale(193.164 864.283)">
<stop stop-color="#3A3A3A"/>
<stop offset="1" stop-color="#202020"/>
</radialGradient>
<radialGradient id="paint1_radial_567_426" cx="0" cy="0" r="1" gradientUnits="userSpaceOnUse" gradientTransform="translate(616.053 278.806) rotate(40.0117) scale(193.164 864.283)">
<stop stop-color="#3A3A3A"/>
<stop offset="1" stop-color="#202020"/>
</radialGradient>
<radialGradient id="paint2_radial_567_426" cx="0" cy="0" r="1" gradientUnits="userSpaceOnUse" gradientTransform="translate(322.617 588.092) rotate(-4.98826) scale(193.164 864.283)">
<stop stop-color="#3A3A3A"/>
<stop offset="1" stop-color="#202020"/>
</radialGradient>
<radialGradient id="paint3_radial_567_426" cx="0" cy="0" r="1" gradientUnits="userSpaceOnUse" gradientTransform="translate(348.053 278.806) rotate(40.0117) scale(193.164 864.283)">
<stop stop-color="#3A3A3A"/>
<stop offset="1" stop-color="#202020"/>
</radialGradient>
<radialGradient id="paint4_radial_567_426" cx="0" cy="0" r="1" gradientUnits="userSpaceOnUse" gradientTransform="translate(348.053 8.80645) rotate(40.0117) scale(193.164 864.283)">
<stop stop-color="#3A3A3A"/>
<stop offset="1" stop-color="#202020"/>
</radialGradient>
</defs>
</svg>
