<svg width="872" height="718" viewBox="0 0 872 718" fill="none" xmlns="http://www.w3.org/2000/svg">
<rect width="872" height="718" fill="black"/>
<path d="M632.321 498.383L634.171 496.833L633.529 496.067L631.679 497.617L632.321 498.383ZM637.871 493.733L641.571 490.633L640.929 489.867L637.229 492.967L637.871 493.733ZM645.271 487.533L648.971 484.433L648.329 483.667L644.629 486.767L645.271 487.533ZM652.671 481.333L656.371 478.233L655.729 477.467L652.029 480.567L652.671 481.333ZM660.071 475.133L663.771 472.033L663.129 471.267L659.429 474.367L660.071 475.133ZM667.471 468.933L671.171 465.833L670.529 465.067L666.829 468.167L667.471 468.933ZM674.871 462.733L678.571 459.633L677.929 458.867L674.229 461.967L674.871 462.733ZM682.271 456.533L685.971 453.433L685.329 452.667L681.629 455.767L682.271 456.533ZM689.671 450.333L693.371 447.233L692.729 446.467L689.029 449.567L689.671 450.333ZM697.071 444.133L700.771 441.033L700.129 440.267L696.429 443.367L697.071 444.133ZM704.471 437.933L706.321 436.383L705.679 435.617L703.829 437.167L704.471 437.933ZM632.642 498.767L634.492 497.217L633.208 495.683L631.358 497.233L632.642 498.767ZM638.192 494.117L641.892 491.017L640.608 489.483L636.908 492.583L638.192 494.117ZM645.592 487.917L649.292 484.817L648.008 483.283L644.308 486.383L645.592 487.917ZM652.992 481.717L656.692 478.617L655.408 477.083L651.708 480.183L652.992 481.717ZM660.392 475.517L664.092 472.417L662.808 470.883L659.108 473.983L660.392 475.517ZM667.792 469.317L671.492 466.217L670.208 464.683L666.508 467.783L667.792 469.317ZM675.192 463.117L678.892 460.017L677.608 458.483L673.908 461.583L675.192 463.117ZM682.592 456.917L686.292 453.817L685.008 452.283L681.308 455.383L682.592 456.917ZM689.992 450.717L693.692 447.617L692.408 446.083L688.708 449.183L689.992 450.717ZM697.392 444.517L701.092 441.417L699.808 439.883L696.108 442.983L697.392 444.517ZM704.792 438.317L706.642 436.767L705.358 435.233L703.508 436.783L704.792 438.317Z" fill="white"/>
<path d="M604.685 522.612L602.685 524.237L603.315 525.013L605.315 523.388L604.685 522.612ZM598.685 527.487L594.685 530.737L595.315 531.513L599.315 528.263L598.685 527.487ZM590.685 533.987L586.685 537.237L587.315 538.013L591.315 534.763L590.685 533.987ZM582.685 540.487L578.685 543.737L579.315 544.513L583.315 541.263L582.685 540.487ZM574.685 546.987L570.685 550.237L571.315 551.013L575.315 547.763L574.685 546.987ZM566.685 553.487L562.685 556.737L563.315 557.513L567.315 554.263L566.685 553.487ZM558.685 559.987L554.685 563.237L555.315 564.013L559.315 560.763L558.685 559.987ZM550.685 566.487L546.685 569.737L547.315 570.513L551.315 567.263L550.685 566.487ZM542.685 572.987L540.685 574.612L541.315 575.388L543.315 573.763L542.685 572.987ZM604.369 522.224L602.369 523.849L603.631 525.401L605.631 523.776L604.369 522.224ZM598.369 527.099L594.369 530.349L595.631 531.901L599.631 528.651L598.369 527.099ZM590.369 533.599L586.369 536.849L587.631 538.401L591.631 535.151L590.369 533.599ZM582.369 540.099L578.369 543.349L579.631 544.901L583.631 541.651L582.369 540.099ZM574.369 546.599L570.369 549.849L571.631 551.401L575.631 548.151L574.369 546.599ZM566.369 553.099L562.369 556.349L563.631 557.901L567.631 554.651L566.369 553.099ZM558.369 559.599L554.369 562.849L555.631 564.401L559.631 561.151L558.369 559.599ZM550.369 566.099L546.369 569.349L547.631 570.901L551.631 567.651L550.369 566.099ZM542.369 572.599L540.369 574.224L541.631 575.776L543.631 574.151L542.369 572.599Z" fill="white"/>
<path d="M149.68 260.128V264.512C149.008 263.728 148.032 263.36 146.928 263.36C144.448 263.36 142.608 265.072 142.608 267.728C142.608 270.384 144.448 272.112 146.928 272.112C148.096 272.112 149.088 271.712 149.76 270.896V272H151.68V260.128H149.68ZM147.168 270.4C145.728 270.4 144.624 269.36 144.624 267.728C144.624 266.096 145.728 265.056 147.168 265.056C148.608 265.056 149.712 266.096 149.712 267.728C149.712 269.36 148.608 270.4 147.168 270.4ZM162.872 272H165.048L159.992 260.8H157.944L152.904 272H155.048L156.152 269.408H161.752L162.872 272ZM156.856 267.776L158.952 262.88L161.064 267.776H156.856ZM171.017 263.36C169.849 263.36 168.857 263.76 168.185 264.576V263.456H166.281V275.104H168.281V270.96C168.969 271.744 169.929 272.112 171.017 272.112C173.513 272.112 175.353 270.384 175.353 267.728C175.353 265.088 173.513 263.36 171.017 263.36ZM170.793 270.4C169.353 270.4 168.249 269.36 168.249 267.728C168.249 266.096 169.353 265.056 170.793 265.056C172.233 265.056 173.321 266.096 173.321 267.728C173.321 269.36 172.233 270.4 170.793 270.4ZM181.986 263.36C180.818 263.36 179.826 263.76 179.154 264.576V263.456H177.25V275.104H179.25V270.96C179.938 271.744 180.898 272.112 181.986 272.112C184.482 272.112 186.322 270.384 186.322 267.728C186.322 265.088 184.482 263.36 181.986 263.36ZM181.762 270.4C180.322 270.4 179.218 269.36 179.218 267.728C179.218 266.096 180.322 265.056 181.762 265.056C183.202 265.056 184.29 266.096 184.29 267.728C184.29 269.36 183.202 270.4 181.762 270.4Z" fill="white"/>
<path d="M380.888 272H383.064L378.008 260.8H375.96L370.92 272H373.064L374.168 269.408H379.768L380.888 272ZM374.872 267.776L376.968 262.88L379.08 267.776H374.872ZM386.2 264.704V263.456H384.296V272H386.296V267.856C386.296 266.112 387.256 265.216 388.776 265.216C388.92 265.216 389.064 265.232 389.24 265.264V263.36C387.816 263.36 386.776 263.808 386.2 264.704ZM394.779 272.112C396.443 272.112 397.771 271.392 398.427 270.112L396.891 269.216C396.379 270.032 395.611 270.4 394.763 270.4C393.291 270.4 392.171 269.392 392.171 267.728C392.171 266.08 393.291 265.056 394.763 265.056C395.611 265.056 396.379 265.424 396.891 266.24L398.427 265.344C397.771 264.048 396.443 263.36 394.779 263.36C392.075 263.36 390.155 265.168 390.155 267.728C390.155 270.288 392.075 272.112 394.779 272.112ZM403.42 263.36C402.044 263.36 400.716 263.712 399.804 264.416L400.588 265.872C401.228 265.344 402.22 265.024 403.18 265.024C404.604 265.024 405.308 265.712 405.308 266.88V267.008H403.1C400.508 267.008 399.548 268.128 399.548 269.552C399.548 271.04 400.78 272.112 402.732 272.112C404.012 272.112 404.94 271.696 405.42 270.96V272H407.308V266.992C407.308 264.528 405.884 263.36 403.42 263.36ZM403.148 270.656C402.124 270.656 401.516 270.192 401.516 269.472C401.516 268.848 401.884 268.336 403.244 268.336H405.308V269.328C404.972 270.208 404.124 270.656 403.148 270.656ZM414.723 263.36C413.475 263.36 412.435 263.776 411.779 264.56V263.456H409.875V272H411.875V267.68C411.875 265.968 412.835 265.104 414.259 265.104C415.539 265.104 416.291 265.84 416.291 267.36V272H418.291V267.104C418.291 264.528 416.771 263.36 414.723 263.36ZM424.092 263.36C422.716 263.36 421.388 263.712 420.476 264.416L421.26 265.872C421.9 265.344 422.892 265.024 423.852 265.024C425.276 265.024 425.98 265.712 425.98 266.88V267.008H423.772C421.18 267.008 420.22 268.128 420.22 269.552C420.22 271.04 421.452 272.112 423.404 272.112C424.684 272.112 425.612 271.696 426.092 270.96V272H427.98V266.992C427.98 264.528 426.556 263.36 424.092 263.36ZM423.82 270.656C422.796 270.656 422.188 270.192 422.188 269.472C422.188 268.848 422.556 268.336 423.916 268.336H425.98V269.328C425.644 270.208 424.796 270.656 423.82 270.656ZM442.808 269.76C442.088 270.176 441.304 270.336 440.504 270.336C438.136 270.336 436.456 268.672 436.456 266.4C436.456 264.08 438.136 262.464 440.52 262.464C441.72 262.464 442.728 262.864 443.608 263.744L444.92 262.464C443.864 261.264 442.296 260.64 440.424 260.64C436.92 260.64 434.36 263.056 434.36 266.4C434.36 269.744 436.92 272.16 440.392 272.16C441.976 272.16 443.608 271.68 444.776 270.736V266.272H442.808V269.76ZM450.592 263.36C449.216 263.36 447.888 263.712 446.976 264.416L447.76 265.872C448.4 265.344 449.392 265.024 450.352 265.024C451.776 265.024 452.48 265.712 452.48 266.88V267.008H450.272C447.68 267.008 446.72 268.128 446.72 269.552C446.72 271.04 447.952 272.112 449.904 272.112C451.184 272.112 452.112 271.696 452.592 270.96V272H454.48V266.992C454.48 264.528 453.056 263.36 450.592 263.36ZM450.32 270.656C449.296 270.656 448.688 270.192 448.688 269.472C448.688 268.848 449.056 268.336 450.416 268.336H452.48V269.328C452.144 270.208 451.296 270.656 450.32 270.656ZM461.622 270.112C461.318 270.352 460.918 270.464 460.502 270.464C459.734 270.464 459.318 270.016 459.318 269.184V265.12H461.606V263.52H459.318V261.568H457.318V263.52H455.91V265.12H457.318V269.232C457.318 271.12 458.39 272.112 460.262 272.112C460.982 272.112 461.702 271.92 462.182 271.536L461.622 270.112ZM471.578 267.776C471.578 265.104 469.754 263.36 467.258 263.36C464.714 263.36 462.842 265.184 462.842 267.728C462.842 270.272 464.698 272.112 467.562 272.112C469.034 272.112 470.234 271.632 471.002 270.72L469.93 269.488C469.322 270.112 468.57 270.416 467.61 270.416C466.122 270.416 465.082 269.616 464.842 268.368H471.546C471.562 268.176 471.578 267.936 471.578 267.776ZM467.258 264.96C468.57 264.96 469.514 265.808 469.674 267.04H464.826C465.018 265.792 465.962 264.96 467.258 264.96ZM484.895 263.456L482.575 269.792L480.271 263.456H478.591L476.239 269.76L473.983 263.456H472.095L475.231 272H477.151L479.391 266.112L481.599 272H483.519L486.671 263.456H484.895ZM491.045 263.36C489.669 263.36 488.341 263.712 487.429 264.416L488.213 265.872C488.853 265.344 489.845 265.024 490.805 265.024C492.229 265.024 492.933 265.712 492.933 266.88V267.008H490.725C488.133 267.008 487.173 268.128 487.173 269.552C487.173 271.04 488.405 272.112 490.357 272.112C491.637 272.112 492.565 271.696 493.045 270.96V272H494.933V266.992C494.933 264.528 493.509 263.36 491.045 263.36ZM490.773 270.656C489.749 270.656 489.141 270.192 489.141 269.472C489.141 268.848 489.509 268.336 490.869 268.336H492.933V269.328C492.597 270.208 491.749 270.656 490.773 270.656ZM503.423 263.456L500.719 269.776L498.031 263.456H495.951L499.679 272.032L499.535 272.368C499.151 273.216 498.735 273.552 498.031 273.552C497.487 273.552 496.943 273.328 496.559 272.96L495.759 274.432C496.303 274.928 497.199 275.216 498.047 275.216C499.471 275.216 500.559 274.624 501.343 272.688L505.343 263.456H503.423Z" fill="white"/>
<path d="M410.976 162.16C414.048 162.16 415.504 160.624 415.504 158.832C415.504 154.72 408.864 156.272 408.864 153.888C408.864 153.04 409.568 152.368 411.296 152.368C412.272 152.368 413.376 152.656 414.384 153.248L415.04 151.632C414.064 150.992 412.656 150.64 411.312 150.64C408.24 150.64 406.8 152.176 406.8 153.984C406.8 158.144 413.456 156.56 413.456 158.976C413.456 159.808 412.72 160.432 410.976 160.432C409.6 160.432 408.176 159.92 407.28 159.2L406.56 160.816C407.488 161.616 409.232 162.16 410.976 162.16ZM421.951 160.112C421.647 160.352 421.247 160.464 420.831 160.464C420.062 160.464 419.647 160.016 419.647 159.184V155.12H421.935V153.52H419.647V151.568H417.647V153.52H416.239V155.12H417.647V159.232C417.647 161.12 418.719 162.112 420.591 162.112C421.311 162.112 422.031 161.92 422.511 161.536L421.951 160.112ZM427.715 162.112C430.371 162.112 432.275 160.288 432.275 157.728C432.275 155.168 430.371 153.36 427.715 153.36C425.091 153.36 423.171 155.168 423.171 157.728C423.171 160.288 425.091 162.112 427.715 162.112ZM427.715 160.4C426.275 160.4 425.187 159.36 425.187 157.728C425.187 156.096 426.275 155.056 427.715 155.056C429.171 155.056 430.259 156.096 430.259 157.728C430.259 159.36 429.171 160.4 427.715 160.4ZM436.091 154.704V153.456H434.187V162H436.187V157.856C436.187 156.112 437.147 155.216 438.667 155.216C438.811 155.216 438.955 155.232 439.131 155.264V153.36C437.707 153.36 436.667 153.808 436.091 154.704ZM444.045 153.36C442.669 153.36 441.341 153.712 440.429 154.416L441.213 155.872C441.853 155.344 442.845 155.024 443.805 155.024C445.229 155.024 445.933 155.712 445.933 156.88V157.008H443.725C441.133 157.008 440.173 158.128 440.173 159.552C440.173 161.04 441.405 162.112 443.357 162.112C444.637 162.112 445.565 161.696 446.045 160.96V162H447.933V156.992C447.933 154.528 446.509 153.36 444.045 153.36ZM443.773 160.656C442.749 160.656 442.141 160.192 442.141 159.472C442.141 158.848 442.509 158.336 443.869 158.336H445.933V159.328C445.597 160.208 444.749 160.656 443.773 160.656ZM457.154 153.456V154.592C456.45 153.744 455.394 153.36 454.194 153.36C451.746 153.36 449.874 154.992 449.874 157.472C449.874 159.952 451.746 161.616 454.194 161.616C455.346 161.616 456.354 161.248 457.058 160.48V160.928C457.058 162.656 456.226 163.52 454.338 163.52C453.154 163.52 451.938 163.12 451.186 162.496L450.29 164C451.266 164.8 452.85 165.216 454.45 165.216C457.442 165.216 459.058 163.808 459.058 160.704V153.456H457.154ZM454.498 159.92C452.978 159.92 451.89 158.928 451.89 157.472C451.89 156.032 452.978 155.056 454.498 155.056C456.002 155.056 457.09 156.032 457.09 157.472C457.09 158.928 456.002 159.92 454.498 159.92ZM469.719 157.776C469.719 155.104 467.895 153.36 465.399 153.36C462.855 153.36 460.983 155.184 460.983 157.728C460.983 160.272 462.839 162.112 465.703 162.112C467.175 162.112 468.375 161.632 469.143 160.72L468.071 159.488C467.463 160.112 466.711 160.416 465.751 160.416C464.263 160.416 463.223 159.616 462.983 158.368H469.687C469.703 158.176 469.719 157.936 469.719 157.776ZM465.399 154.96C466.711 154.96 467.655 155.808 467.815 157.04H462.967C463.159 155.792 464.103 154.96 465.399 154.96Z" fill="white"/>
<path d="M638.888 272H641.064L636.008 260.8H633.96L628.92 272H631.064L632.168 269.408H637.768L638.888 272ZM632.872 267.776L634.968 262.88L637.08 267.776H632.872ZM644.2 264.704V263.456H642.296V272H644.296V267.856C644.296 266.112 645.256 265.216 646.776 265.216C646.92 265.216 647.064 265.232 647.24 265.264V263.36C645.816 263.36 644.776 263.808 644.2 264.704ZM652.779 272.112C654.443 272.112 655.771 271.392 656.427 270.112L654.891 269.216C654.379 270.032 653.611 270.4 652.763 270.4C651.291 270.4 650.171 269.392 650.171 267.728C650.171 266.08 651.291 265.056 652.763 265.056C653.611 265.056 654.379 265.424 654.891 266.24L656.427 265.344C655.771 264.048 654.443 263.36 652.779 263.36C650.075 263.36 648.155 265.168 648.155 267.728C648.155 270.288 650.075 272.112 652.779 272.112ZM661.42 263.36C660.044 263.36 658.716 263.712 657.804 264.416L658.588 265.872C659.228 265.344 660.22 265.024 661.18 265.024C662.604 265.024 663.308 265.712 663.308 266.88V267.008H661.1C658.508 267.008 657.548 268.128 657.548 269.552C657.548 271.04 658.78 272.112 660.732 272.112C662.012 272.112 662.94 271.696 663.42 270.96V272H665.308V266.992C665.308 264.528 663.884 263.36 661.42 263.36ZM661.148 270.656C660.124 270.656 659.516 270.192 659.516 269.472C659.516 268.848 659.884 268.336 661.244 268.336H663.308V269.328C662.972 270.208 662.124 270.656 661.148 270.656ZM672.723 263.36C671.475 263.36 670.435 263.776 669.779 264.56V263.456H667.875V272H669.875V267.68C669.875 265.968 670.835 265.104 672.259 265.104C673.539 265.104 674.291 265.84 674.291 267.36V272H676.291V267.104C676.291 264.528 674.771 263.36 672.723 263.36ZM682.092 263.36C680.716 263.36 679.388 263.712 678.476 264.416L679.26 265.872C679.9 265.344 680.892 265.024 681.852 265.024C683.276 265.024 683.98 265.712 683.98 266.88V267.008H681.772C679.18 267.008 678.22 268.128 678.22 269.552C678.22 271.04 679.452 272.112 681.404 272.112C682.684 272.112 683.612 271.696 684.092 270.96V272H685.98V266.992C685.98 264.528 684.556 263.36 682.092 263.36ZM681.82 270.656C680.796 270.656 680.188 270.192 680.188 269.472C680.188 268.848 680.556 268.336 681.916 268.336H683.98V269.328C683.644 270.208 682.796 270.656 681.82 270.656ZM701.096 266.176C701.96 265.712 702.536 264.864 702.536 263.712C702.536 261.936 701.096 260.8 698.408 260.8H693.16V272H698.728C701.608 272 703.112 270.88 703.112 268.96C703.112 267.504 702.296 266.56 701.096 266.176ZM698.184 262.432C699.624 262.432 700.44 262.944 700.44 263.984C700.44 265.008 699.624 265.52 698.184 265.52H695.24V262.432H698.184ZM698.6 270.368H695.24V267.136H698.6C700.168 267.136 701.016 267.632 701.016 268.752C701.016 269.872 700.168 270.368 698.6 270.368ZM705.14 272H707.14V260.128H705.14V272ZM713.605 272.112C716.261 272.112 718.165 270.288 718.165 267.728C718.165 265.168 716.261 263.36 713.605 263.36C710.981 263.36 709.061 265.168 709.061 267.728C709.061 270.288 710.981 272.112 713.605 272.112ZM713.605 270.4C712.165 270.4 711.077 269.36 711.077 267.728C711.077 266.096 712.165 265.056 713.605 265.056C715.061 265.056 716.149 266.096 716.149 267.728C716.149 269.36 715.061 270.4 713.605 270.4ZM723.998 272.112C725.662 272.112 726.99 271.392 727.646 270.112L726.11 269.216C725.598 270.032 724.83 270.4 723.982 270.4C722.51 270.4 721.39 269.392 721.39 267.728C721.39 266.08 722.51 265.056 723.982 265.056C724.83 265.056 725.598 265.424 726.11 266.24L727.646 265.344C726.99 264.048 725.662 263.36 723.998 263.36C721.294 263.36 719.374 265.168 719.374 267.728C719.374 270.288 721.294 272.112 723.998 272.112ZM735.744 272H738.176L734.272 267.04L737.84 263.456H735.44L731.296 267.296V260.128H729.296V272H731.296V269.744L732.784 268.336L735.744 272ZM743.029 272.112C744.693 272.112 746.021 271.392 746.677 270.112L745.141 269.216C744.629 270.032 743.861 270.4 743.013 270.4C741.541 270.4 740.421 269.392 740.421 267.728C740.421 266.08 741.541 265.056 743.013 265.056C743.861 265.056 744.629 265.424 745.141 266.24L746.677 265.344C746.021 264.048 744.693 263.36 743.029 263.36C740.325 263.36 738.405 265.168 738.405 267.728C738.405 270.288 740.325 272.112 743.029 272.112ZM751.67 263.36C750.294 263.36 748.966 263.712 748.054 264.416L748.838 265.872C749.478 265.344 750.47 265.024 751.43 265.024C752.854 265.024 753.558 265.712 753.558 266.88V267.008H751.35C748.758 267.008 747.798 268.128 747.798 269.552C747.798 271.04 749.03 272.112 750.982 272.112C752.262 272.112 753.19 271.696 753.67 270.96V272H755.558V266.992C755.558 264.528 754.134 263.36 751.67 263.36ZM751.398 270.656C750.374 270.656 749.766 270.192 749.766 269.472C749.766 268.848 750.134 268.336 751.494 268.336H753.558V269.328C753.222 270.208 752.374 270.656 751.398 270.656ZM762.973 263.36C761.789 263.36 760.781 263.744 760.125 264.448V260.128H758.125V272H760.125V267.68C760.125 265.968 761.085 265.104 762.509 265.104C763.789 265.104 764.541 265.84 764.541 267.36V272H766.541V267.104C766.541 264.528 765.021 263.36 762.973 263.36ZM770.086 262.048C770.838 262.048 771.366 261.504 771.366 260.8C771.366 260.144 770.822 259.648 770.086 259.648C769.35 259.648 768.806 260.176 768.806 260.848C768.806 261.52 769.35 262.048 770.086 262.048ZM769.078 272H771.078V263.456H769.078V272ZM778.551 263.36C777.303 263.36 776.263 263.776 775.607 264.56V263.456H773.703V272H775.703V267.68C775.703 265.968 776.663 265.104 778.087 265.104C779.367 265.104 780.119 265.84 780.119 267.36V272H782.119V267.104C782.119 264.528 780.599 263.36 778.551 263.36Z" fill="white"/>
<g filter="url(#filter0_d_567_426)">
<g filter="url(#filter1_d_567_426)">
<path d="M109 348C109 317.624 133.624 293 164 293V293C194.376 293 219 317.624 219 348V348C219 378.376 194.376 403 164 403V403C133.624 403 109 378.376 109 348V348Z" fill="url(#paint0_radial_567_426)"/>
</g>
</g>
<circle cx="208.584" cy="349.5" r="2.41558" fill="white"/>
<circle cx="120.416" cy="349.5" r="2.41558" fill="white"/>
<circle cx="202.678" cy="327.458" r="2.41558" transform="rotate(-30 202.678 327.458)" fill="white"/>
<circle cx="126.322" cy="371.542" r="2.41558" transform="rotate(-30 126.322 371.542)" fill="white"/>
<circle cx="186.542" cy="311.322" r="2.41558" transform="rotate(-60 186.542 311.322)" fill="white"/>
<circle cx="142.458" cy="387.678" r="2.41558" transform="rotate(-60 142.458 387.678)" fill="white"/>
<circle cx="164.5" cy="305.415" r="2.41558" transform="rotate(-90 164.5 305.415)" fill="white"/>
<circle cx="164.5" cy="348.641" r="2.41558" transform="rotate(-90 164.5 348.641)" fill="white"/>
<circle cx="164.5" cy="348.845" r="5.89437" transform="rotate(-90 164.5 348.845)" fill="white"/>
<circle cx="164.5" cy="393.584" r="2.41558" transform="rotate(-90 164.5 393.584)" fill="white"/>
<circle cx="142.458" cy="311.322" r="2.41558" transform="rotate(-120 142.458 311.322)" fill="white"/>
<circle cx="186.542" cy="387.678" r="2.41558" transform="rotate(-120 186.542 387.678)" fill="white"/>
<circle cx="126.322" cy="327.458" r="2.41558" transform="rotate(-150 126.322 327.458)" fill="white"/>
<circle cx="202.678" cy="371.542" r="2.41558" transform="rotate(-150 202.678 371.542)" fill="white"/>
<line x1="127.25" y1="328.5" x2="127.25" y2="369.5" stroke="white" stroke-width="0.5"/>
<line x1="202.25" y1="328.5" x2="202.25" y2="369.5" stroke="white" stroke-width="0.5"/>
<line x1="164.022" y1="305.803" x2="201.463" y2="327.544" stroke="white" stroke-width="0.5"/>
<line y1="-0.25" x2="43.2956" y2="-0.25" transform="matrix(-0.864789 0.502136 0.502136 0.864789 165.104 306.02)" stroke="white" stroke-width="0.5"/>
<line x1="164.978" y1="393.197" x2="127.537" y2="371.456" stroke="white" stroke-width="0.5"/>
<line y1="-0.25" x2="43.2956" y2="-0.25" transform="matrix(0.864789 -0.502135 -0.502135 -0.864789 163.896 392.98)" stroke="white" stroke-width="0.5"/>
<line x1="144" y1="312.25" x2="183" y2="312.25" stroke="white" stroke-width="0.5"/>
<line x1="120.803" y1="349.978" x2="142.543" y2="312.537" stroke="white" stroke-width="0.5"/>
<line y1="-0.25" x2="43.2956" y2="-0.25" transform="matrix(0.502136 0.864789 0.864789 -0.502136 121.019 348.896)" stroke="white" stroke-width="0.5"/>
<line x1="208.197" y1="349.022" x2="186.457" y2="386.463" stroke="white" stroke-width="0.5"/>
<line y1="-0.25" x2="43.2956" y2="-0.25" transform="matrix(-0.502136 -0.864789 -0.864789 0.502136 207.981 350.104)" stroke="white" stroke-width="0.5"/>
<path d="M397.504 487H402.4C406.032 487 408.512 484.76 408.512 481.4C408.512 478.04 406.032 475.8 402.4 475.8H397.504V487ZM399.584 485.24V477.56H402.304C404.8 477.56 406.416 479.08 406.416 481.4C406.416 483.72 404.8 485.24 402.304 485.24H399.584ZM418.531 487H420.963L415.971 480.808L420.675 475.8H418.339L412.803 481.544V475.8H410.723V487H412.803V484.136L414.579 482.312L418.531 487ZM429.621 484.76C428.901 485.176 428.117 485.336 427.317 485.336C424.949 485.336 423.269 483.672 423.269 481.4C423.269 479.08 424.949 477.464 427.333 477.464C428.533 477.464 429.541 477.864 430.421 478.744L431.733 477.464C430.677 476.264 429.109 475.64 427.237 475.64C423.733 475.64 421.173 478.056 421.173 481.4C421.173 484.744 423.733 487.16 427.205 487.16C428.789 487.16 430.421 486.68 431.589 485.736V481.272H429.621V484.76ZM446.642 475.8V483.384L440.466 475.8H438.754V487H440.818V479.416L446.994 487H448.706V475.8H446.642ZM455.355 487.112C458.011 487.112 459.915 485.288 459.915 482.728C459.915 480.168 458.011 478.36 455.355 478.36C452.731 478.36 450.811 480.168 450.811 482.728C450.811 485.288 452.731 487.112 455.355 487.112ZM455.355 485.4C453.915 485.4 452.827 484.36 452.827 482.728C452.827 481.096 453.915 480.056 455.355 480.056C456.811 480.056 457.899 481.096 457.899 482.728C457.899 484.36 456.811 485.4 455.355 485.4ZM468.196 475.128V479.512C467.524 478.728 466.548 478.36 465.444 478.36C462.964 478.36 461.124 480.072 461.124 482.728C461.124 485.384 462.964 487.112 465.444 487.112C466.612 487.112 467.604 486.712 468.276 485.896V487H470.196V475.128H468.196ZM465.684 485.4C464.244 485.4 463.14 484.36 463.14 482.728C463.14 481.096 464.244 480.056 465.684 480.056C467.124 480.056 468.228 481.096 468.228 482.728C468.228 484.36 467.124 485.4 465.684 485.4ZM480.844 482.776C480.844 480.104 479.02 478.36 476.524 478.36C473.98 478.36 472.108 480.184 472.108 482.728C472.108 485.272 473.964 487.112 476.828 487.112C478.3 487.112 479.5 486.632 480.268 485.72L479.196 484.488C478.588 485.112 477.836 485.416 476.876 485.416C475.388 485.416 474.348 484.616 474.108 483.368H480.812C480.828 483.176 480.844 482.936 480.844 482.776ZM476.524 479.96C477.836 479.96 478.78 480.808 478.94 482.04H474.092C474.284 480.792 475.228 479.96 476.524 479.96Z" fill="white"/>
<path d="M166 439L166 578" stroke="white"/>
<path d="M181 578H166" stroke="white"/>
<path d="M214 616L214 578" stroke="white"/>
<path d="M214 616H277" stroke="white"/>
<path d="M277 578L277 616" stroke="white"/>
<path d="M338.354 578.354C338.549 578.158 338.549 577.842 338.354 577.646L335.172 574.464C334.976 574.269 334.66 574.269 334.464 574.464C334.269 574.66 334.269 574.976 334.464 575.172L337.293 578L334.464 580.828C334.269 581.024 334.269 581.34 334.464 581.536C334.66 581.731 334.976 581.731 335.172 581.536L338.354 578.354ZM277 578.5H338V577.5H277V578.5Z" fill="white"/>
<path d="M356.354 350.354C356.549 350.158 356.549 349.842 356.354 349.646L353.172 346.464C352.976 346.269 352.66 346.269 352.464 346.464C352.269 346.66 352.269 346.976 352.464 347.172L355.293 350L352.464 352.828C352.269 353.024 352.269 353.34 352.464 353.536C352.66 353.731 352.976 353.731 353.172 353.536L356.354 350.354ZM241 350.5H356V349.5H241V350.5Z" fill="white"/>
<path d="M148.128 419.8V421.544H150.496V431H152.576V419.8H148.128ZM156.062 428.456C155.326 428.456 154.766 428.984 154.766 429.784C154.766 430.36 155.07 430.776 155.518 430.968L154.878 433.416H156.174L156.99 431.16C157.278 430.424 157.358 430.136 157.358 429.784C157.358 429 156.814 428.456 156.062 428.456ZM163.628 424.424L166.348 421.192V419.8H158.716V421.544H163.804L161.26 424.568V425.992H162.284C163.98 425.992 164.716 426.648 164.716 427.656C164.716 428.696 163.836 429.352 162.348 429.352C161.084 429.352 159.868 428.92 159.068 428.248L158.172 429.864C159.212 430.68 160.796 431.16 162.38 431.16C165.388 431.16 166.812 429.528 166.812 427.64C166.812 425.96 165.74 424.696 163.628 424.424ZM169.437 428.456C168.701 428.456 168.141 428.984 168.141 429.784C168.141 430.36 168.445 430.776 168.893 430.968L168.253 433.416H169.549L170.365 431.16C170.653 430.424 170.733 430.136 170.733 429.784C170.733 429 170.189 428.456 169.437 428.456ZM181.985 426.696H180.001V424.44H178.049V426.696H174.385L179.585 419.8H177.361L171.841 427.016V428.456H177.985V431H180.001V428.456H181.985V426.696Z" fill="white"/>
<rect x="287" y="342" width="24" height="15" fill="black"/>
<path d="M197.208 571.136H196.136L196.376 568.544H201.192V566.8H194.616L194.04 572.896H196.744C199.064 572.896 199.752 573.568 199.752 574.64C199.752 575.696 198.872 576.352 197.384 576.352C196.12 576.352 194.904 575.92 194.088 575.248L193.208 576.864C194.232 577.68 195.832 578.16 197.416 578.16C200.424 578.16 201.848 576.528 201.848 574.56C201.848 572.576 200.52 571.136 197.208 571.136Z" fill="white"/>
<path d="M614.448 502.8V506.464H616.384V504.56H620.784L616.576 514H618.8L623.152 504.192V502.8H614.448Z" fill="white"/>
<path d="M438.792 684.088C437.544 684.088 436.472 684.472 435.8 685.256V685.24C435.8 682.696 437.128 681.384 439.24 681.384C440.024 681.384 440.76 681.528 441.368 681.928L442.136 680.36C441.384 679.88 440.312 679.64 439.192 679.64C435.944 679.64 433.704 681.752 433.704 685.592C433.704 689.192 435.496 691.16 438.552 691.16C440.84 691.16 442.648 689.752 442.648 687.528C442.648 685.432 441 684.088 438.792 684.088ZM438.44 689.528C436.952 689.528 436.12 688.696 436.12 687.64C436.12 686.536 437.048 685.72 438.392 685.72C439.752 685.72 440.632 686.456 440.632 687.624C440.632 688.792 439.736 689.528 438.44 689.528Z" fill="white"/>
<path d="M629.354 350.354C629.549 350.158 629.549 349.842 629.354 349.646L626.172 346.464C625.976 346.269 625.66 346.269 625.464 346.464C625.269 346.66 625.269 346.976 625.464 347.172L628.293 350L625.464 352.828C625.269 353.024 625.269 353.34 625.464 353.536C625.66 353.731 625.976 353.731 626.172 353.536L629.354 350.354ZM514 350.5H629V349.5H514V350.5Z" fill="white"/>
<path d="M298.536 353.24L301.528 350.392C303.08 348.936 303.384 347.944 303.384 346.856C303.384 344.872 301.816 343.64 299.384 343.64C297.544 343.64 295.992 344.328 295.128 345.496L296.584 346.616C297.208 345.816 298.12 345.448 299.208 345.448C300.584 345.448 301.288 346.04 301.288 347.064C301.288 347.688 301.096 348.344 300.008 349.384L295.56 353.608V355H303.816V353.24H298.536Z" fill="white"/>
<rect x="560" y="342" width="24" height="15" fill="black"/>
<path d="M571.536 354.24L574.528 351.392C576.08 349.936 576.384 348.944 576.384 347.856C576.384 345.872 574.816 344.64 572.384 344.64C570.544 344.64 568.992 345.328 568.128 346.496L569.584 347.616C570.208 346.816 571.12 346.448 572.208 346.448C573.584 346.448 574.288 347.04 574.288 348.064C574.288 348.688 574.096 349.344 573.008 350.384L568.56 354.608V356H576.816V354.24H571.536Z" fill="white"/>
<g filter="url(#filter2_d_567_426)">
<g filter="url(#filter3_d_567_426)">
<path d="M652 313C652 301.954 660.954 293 672 293H742C753.046 293 762 301.954 762 313V383C762 394.046 753.046 403 742 403H672C660.954 403 652 394.046 652 383V313Z" fill="url(#paint1_radial_567_426)"/>
</g>
</g>
<path d="M706.949 349.139L680.357 358.07C678.57 358.671 678.529 361.183 680.296 361.841L706.887 371.738C707.341 371.907 707.841 371.905 708.293 371.734L734.423 361.836C736.175 361.173 736.134 358.68 734.361 358.074L708.232 349.142C707.816 349 707.365 348.999 706.949 349.139Z" stroke="white" stroke-width="1.5"/>
<path d="M706.949 341.754L680.357 350.686C678.57 351.286 678.529 353.799 680.296 354.456L706.887 364.354C707.341 364.522 707.841 364.521 708.293 364.349L734.423 354.452C736.175 353.788 736.134 351.295 734.361 350.689L708.232 341.758C707.816 341.616 707.365 341.614 706.949 341.754Z" fill="#313131" stroke="white" stroke-width="1.5"/>
<path d="M706.949 332.523L680.357 341.455C678.57 342.055 678.529 344.568 680.296 345.225L706.887 355.123C707.341 355.291 707.841 355.29 708.293 355.119L734.423 345.221C736.175 344.557 736.134 342.064 734.361 341.458L708.232 332.527C707.816 332.385 707.365 332.383 706.949 332.523Z" fill="#313131" stroke="white" stroke-width="1.5"/>
<path d="M706.949 324.216L680.357 333.148C678.57 333.748 678.529 336.26 680.296 336.918L706.887 346.815C707.341 346.984 707.841 346.982 708.293 346.811L734.423 336.914C736.175 336.25 736.134 333.757 734.361 333.151L708.232 324.219C707.816 324.077 707.365 324.076 706.949 324.216Z" fill="white" stroke="white" stroke-width="1.5"/>
<g filter="url(#filter4_d_567_426)">
<g filter="url(#filter5_d_567_426)">
<path d="M375.142 593.924C367.332 586.113 367.332 573.45 375.142 565.64L424.64 516.142C432.45 508.332 445.113 508.332 452.924 516.142L502.421 565.64C510.232 573.45 510.232 586.113 502.421 593.924L452.924 643.421C445.113 651.232 432.45 651.232 424.64 643.421L375.142 593.924Z" fill="url(#paint2_radial_567_426)"/>
</g>
</g>
<circle cx="438.485" cy="618.897" r="5.60769" fill="white"/>
<circle cx="438.485" cy="580.267" r="9.34615" fill="white"/>
<circle cx="438.485" cy="540.389" r="5.60769" fill="white"/>
<circle cx="398.608" cy="556.59" r="5.60769" fill="white"/>
<circle cx="404.838" cy="601.451" r="5.60769" fill="white"/>
<circle cx="458.423" cy="591.482" r="5.60769" fill="white"/>
<circle cx="468.392" cy="564.066" r="5.60769" fill="white"/>
<line x1="439.615" y1="580.028" x2="460.799" y2="592.489" stroke="white" stroke-width="2"/>
<line x1="438.381" y1="581.744" x2="403.488" y2="602.929" stroke="white" stroke-width="2"/>
<line x1="437.332" y1="580.491" x2="397.455" y2="555.568" stroke="white" stroke-width="2"/>
<line x1="438.616" y1="580.019" x2="467.277" y2="563.819" stroke="white" stroke-width="2"/>
<line x1="438.862" y1="539.766" x2="438.862" y2="617.028" stroke="white" stroke-width="2"/>
<g filter="url(#filter6_d_567_426)">
<g filter="url(#filter7_d_567_426)">
<path d="M384 313C384 301.954 392.954 293 404 293H474C485.046 293 494 301.954 494 313V383C494 394.046 485.046 403 474 403H404C392.954 403 384 394.046 384 383V313Z" fill="url(#paint3_radial_567_426)"/>
</g>
</g>
<rect x="-0.846072" y="0.846072" width="32.4267" height="26.7402" rx="0.846072" transform="matrix(-1 0 0 1 454.376 332.829)" stroke="white" stroke-width="1.69214"/>
<path d="M423.541 325.169L411.073 318.744C410.51 318.454 409.839 318.862 409.839 319.496V375.708C409.839 376.397 410.617 376.797 411.177 376.396L423.646 367.474C423.868 367.315 424 367.059 424 366.786V325.921C424 325.604 423.823 325.314 423.541 325.169Z" fill="white" stroke="white" stroke-width="1.69214"/>
<path d="M454.788 325.165L467.257 318.74C467.82 318.45 468.49 318.859 468.49 319.492V375.705C468.49 376.394 467.712 376.794 467.152 376.393L454.683 367.471C454.461 367.312 454.33 367.056 454.33 366.783V325.918C454.33 325.601 454.507 325.311 454.788 325.165Z" fill="white" stroke="white" stroke-width="1.69214"/>
<g filter="url(#filter8_d_567_426)">
<path d="M384 43C384 31.9543 392.954 23 404 23H474C485.046 23 494 31.9543 494 43V113C494 124.046 485.046 133 474 133H404C392.954 133 384 124.046 384 113V43Z" fill="url(#paint4_radial_567_426)"/>
</g>
<mask id="mask0_567_426" style="mask-type:alpha" maskUnits="userSpaceOnUse" x="416" y="85" width="45" height="12">
<rect x="416" y="85" width="45" height="12" fill="#C4C4C4"/>
</mask>
<g mask="url(#mask0_567_426)">
<path d="M460.25 85C460.25 87.5916 458.079 90.1496 454.08 92.1044C450.132 94.0348 444.624 95.25 438.5 95.25C432.376 95.25 426.868 94.0348 422.92 92.1044C418.921 90.1496 416.75 87.5916 416.75 85C416.75 82.4084 418.921 79.8504 422.92 77.8956C426.868 75.9652 432.376 74.75 438.5 74.75C444.624 74.75 450.132 75.9652 454.08 77.8956C458.079 79.8504 460.25 82.4084 460.25 85Z" stroke="#F8F8F8" stroke-width="1.5"/>
</g>
<mask id="mask1_567_426" style="mask-type:alpha" maskUnits="userSpaceOnUse" x="416" y="100" width="45" height="12">
<rect x="416" y="100" width="45" height="12" fill="#C4C4C4"/>
</mask>
<g mask="url(#mask1_567_426)">
<path d="M460.25 100C460.25 102.592 458.079 105.15 454.08 107.104C450.132 109.035 444.624 110.25 438.5 110.25C432.376 110.25 426.868 109.035 422.92 107.104C418.921 105.15 416.75 102.592 416.75 100C416.75 97.4084 418.921 94.8504 422.92 92.8956C426.868 90.9652 432.376 89.75 438.5 89.75C444.624 89.75 450.132 90.9652 454.08 92.8956C458.079 94.8504 460.25 97.4084 460.25 100Z" stroke="#F8F8F8" stroke-width="1.5"/>
</g>
<mask id="mask2_567_426" style="mask-type:alpha" maskUnits="userSpaceOnUse" x="416" y="70" width="45" height="12">
<rect x="416" y="70" width="45" height="12" fill="#C4C4C4"/>
</mask>
<g mask="url(#mask2_567_426)">
<path d="M460.25 70C460.25 72.5916 458.079 75.1496 454.08 77.1044C450.132 79.0348 444.624 80.25 438.5 80.25C432.376 80.25 426.868 79.0348 422.92 77.1044C418.921 75.1496 416.75 72.5916 416.75 70C416.75 67.4084 418.921 64.8504 422.92 62.8956C426.868 60.9652 432.376 59.75 438.5 59.75C444.624 59.75 450.132 60.9652 454.08 62.8956C458.079 64.8504 460.25 67.4084 460.25 70Z" stroke="#F8F8F8" stroke-width="1.5"/>
</g>
<mask id="mask3_567_426" style="mask-type:alpha" maskUnits="userSpaceOnUse" x="412" y="53" width="54" height="53">
<path d="M417.5 77.6111V105H413V54H465.5V104.056H459.5V57.3056H417.5V77.6111Z" fill="#C4C4C4" stroke="black"/>
</mask>
<g mask="url(#mask3_567_426)">
<rect x="416.75" y="56.6387" width="43.5" height="43.8333" stroke="white" stroke-width="1.5"/>
</g>
<path d="M460.607 56C460.607 58.8039 458.271 61.4533 454.237 63.4251C450.23 65.3842 444.667 66.607 438.5 66.607C432.333 66.607 426.77 65.3842 422.763 63.4251C418.729 61.4533 416.393 58.8039 416.393 56C416.393 53.1961 418.729 50.5467 422.763 48.5749C426.77 46.6158 432.333 45.393 438.5 45.393C444.667 45.393 450.23 46.6158 454.237 48.5749C458.271 50.5467 460.607 53.1961 460.607 56Z" fill="white" stroke="#F8F8F8" stroke-width="0.785949"/>
<ellipse cx="452.5" cy="71.5" rx="2.5" ry="3.5" fill="white"/>
<ellipse cx="452.5" cy="85.5" rx="2.5" ry="3.5" fill="white"/>
<ellipse cx="452.5" cy="100.5" rx="2.5" ry="3.5" fill="white"/>
<defs>
<filter id="filter0_d_567_426" x="105" y="281" width="144" height="144" filterUnits="userSpaceOnUse" color-interpolation-filters="sRGB">
<feFlood flood-opacity="0" result="BackgroundImageFix"/>
<feColorMatrix in="SourceAlpha" type="matrix" values="0 0 0 0 0 0 0 0 0 0 0 0 0 0 0 0 0 0 127 0" result="hardAlpha"/>
<feOffset dx="13" dy="5"/>
<feGaussianBlur stdDeviation="8.5"/>
<feColorMatrix type="matrix" values="0 0 0 0 0 0 0 0 0 0 0 0 0 0 0 0 0 0 0.15 0"/>
<feBlend mode="normal" in2="BackgroundImageFix" result="effect1_dropShadow_567_426"/>
<feBlend mode="normal" in="SourceGraphic" in2="effect1_dropShadow_567_426" result="shape"/>
</filter>
<filter id="filter1_d_567_426" x="109" y="293" width="118" height="119" filterUnits="userSpaceOnUse" color-interpolation-filters="sRGB">
<feFlood flood-opacity="0" result="BackgroundImageFix"/>
<feColorMatrix in="SourceAlpha" type="matrix" values="0 0 0 0 0 0 0 0 0 0 0 0 0 0 0 0 0 0 127 0" result="hardAlpha"/>
<feOffset dx="4" dy="5"/>
<feGaussianBlur stdDeviation="2"/>
<feColorMatrix type="matrix" values="0 0 0 0 0 0 0 0 0 0 0 0 0 0 0 0 0 0 0.25 0"/>
<feBlend mode="normal" in2="BackgroundImageFix" result="effect1_dropShadow_567_426"/>
<feBlend mode="normal" in="SourceGraphic" in2="effect1_dropShadow_567_426" result="shape"/>
</filter>
<filter id="filter2_d_567_426" x="648" y="281" width="144" height="144" filterUnits="userSpaceOnUse" color-interpolation-filters="sRGB">
<feFlood flood-opacity="0" result="BackgroundImageFix"/>
<feColorMatrix in="SourceAlpha" type="matrix" values="0 0 0 0 0 0 0 0 0 0 0 0 0 0 0 0 0 0 127 0" result="hardAlpha"/>
<feOffset dx="13" dy="5"/>
<feGaussianBlur stdDeviation="8.5"/>
<feColorMatrix type="matrix" values="0 0 0 0 0 0 0 0 0 0 0 0 0 0 0 0 0 0 0.15 0"/>
<feBlend mode="normal" in2="BackgroundImageFix" result="effect1_dropShadow_567_426"/>
<feBlend mode="normal" in="SourceGraphic" in2="effect1_dropShadow_567_426" result="shape"/>
</filter>
<filter id="filter3_d_567_426" x="652" y="293" width="118" height="119" filterUnits="userSpaceOnUse" color-interpolation-filters="sRGB">
<feFlood flood-opacity="0" result="BackgroundImageFix"/>
<feColorMatrix in="SourceAlpha" type="matrix" values="0 0 0 0 0 0 0 0 0 0 0 0 0 0 0 0 0 0 127 0" result="hardAlpha"/>
<feOffset dx="4" dy="5"/>
<feGaussianBlur stdDeviation="2"/>
<feColorMatrix type="matrix" values="0 0 0 0 0 0 0 0 0 0 0 0 0 0 0 0 0 0 0.25 0"/>
<feBlend mode="normal" in2="BackgroundImageFix" result="effect1_dropShadow_567_426"/>
<feBlend mode="normal" in="SourceGraphic" in2="effect1_dropShadow_567_426" result="shape"/>
</filter>
<filter id="filter4_d_567_426" x="365.284" y="498.284" width="172.995" height="172.995" filterUnits="userSpaceOnUse" color-interpolation-filters="sRGB">
<feFlood flood-opacity="0" result="BackgroundImageFix"/>
<feColorMatrix in="SourceAlpha" type="matrix" values="0 0 0 0 0 0 0 0 0 0 0 0 0 0 0 0 0 0 127 0" result="hardAlpha"/>
<feOffset dx="13" dy="5"/>
<feGaussianBlur stdDeviation="8.5"/>
<feColorMatrix type="matrix" values="0 0 0 0 0 0 0 0 0 0 0 0 0 0 0 0 0 0 0.15 0"/>
<feBlend mode="normal" in2="BackgroundImageFix" result="effect1_dropShadow_567_426"/>
<feBlend mode="normal" in="SourceGraphic" in2="effect1_dropShadow_567_426" result="shape"/>
</filter>
<filter id="filter5_d_567_426" x="369.284" y="510.284" width="146.995" height="147.995" filterUnits="userSpaceOnUse" color-interpolation-filters="sRGB">
<feFlood flood-opacity="0" result="BackgroundImageFix"/>
<feColorMatrix in="SourceAlpha" type="matrix" values="0 0 0 0 0 0 0 0 0 0 0 0 0 0 0 0 0 0 127 0" result="hardAlpha"/>
<feOffset dx="4" dy="5"/>
<feGaussianBlur stdDeviation="2"/>
<feColorMatrix type="matrix" values="0 0 0 0 0 0 0 0 0 0 0 0 0 0 0 0 0 0 0.25 0"/>
<feBlend mode="normal" in2="BackgroundImageFix" result="effect1_dropShadow_567_426"/>
<feBlend mode="normal" in="SourceGraphic" in2="effect1_dropShadow_567_426" result="shape"/>
</filter>
<filter id="filter6_d_567_426" x="380" y="281" width="144" height="144" filterUnits="userSpaceOnUse" color-interpolation-filters="sRGB">
<feFlood flood-opacity="0" result="BackgroundImageFix"/>
<feColorMatrix in="SourceAlpha" type="matrix" values="0 0 0 0 0 0 0 0 0 0 0 0 0 0 0 0 0 0 127 0" result="hardAlpha"/>
<feOffset dx="13" dy="5"/>
<feGaussianBlur stdDeviation="8.5"/>
<feColorMatrix type="matrix" values="0 0 0 0 0 0 0 0 0 0 0 0 0 0 0 0 0 0 0.15 0"/>
<feBlend mode="normal" in2="BackgroundImageFix" result="effect1_dropShadow_567_426"/>
<feBlend mode="normal" in="SourceGraphic" in2="effect1_dropShadow_567_426" result="shape"/>
</filter>
<filter id="filter7_d_567_426" x="384" y="293" width="118" height="119" filterUnits="userSpaceOnUse" color-interpolation-filters="sRGB">
<feFlood flood-opacity="0" result="BackgroundImageFix"/>
<feColorMatrix in="SourceAlpha" type="matrix" values="0 0 0 0 0 0 0 0 0 0 0 0 0 0 0 0 0 0 127 0" result="hardAlpha"/>
<feOffset dx="4" dy="5"/>
<feGaussianBlur stdDeviation="2"/>
<feColorMatrix type="matrix" values="0 0 0 0 0 0 0 0 0 0 0 0 0 0 0 0 0 0 0.25 0"/>
<feBlend mode="normal" in2="BackgroundImageFix" result="effect1_dropShadow_567_426"/>
<feBlend mode="normal" in="SourceGraphic" in2="effect1_dropShadow_567_426" result="shape"/>
</filter>
<filter id="filter8_d_567_426" x="384" y="23" width="118" height="119" filterUnits="userSpaceOnUse" color-interpolation-filters="sRGB">
<feFlood flood-opacity="0" result="BackgroundImageFix"/>
<feColorMatrix in="SourceAlpha" type="matrix" values="0 0 0 0 0 0 0 0 0 0 0 0 0 0 0 0 0 0 127 0" result="hardAlpha"/>
<feOffset dx="4" dy="5"/>
<feGaussianBlur stdDeviation="2"/>
<feColorMatrix type="matrix" values="0 0 0 0 0 0 0 0 0 0 0 0 0 0 0 0 0 0 0.25 0"/>
<feBlend mode="normal" in2="BackgroundImageFix" result="effect1_dropShadow_567_426"/>
<feBlend mode="normal" in="SourceGraphic" in2="effect1_dropShadow_567_426" result="shape"/>
</filter>
<radialGradient id="paint0_radial_567_426" cx="0" cy="0" r="1" gradientUnits="userSpaceOnUse" gradientTransform="translate(83.0534 278.806) rotate(40.0117) scale(193.164 864.283)">
<stop stop-color="#3A3A3A"/>
<stop offset="1" stop-color="#202020"/>
</radialGradient>
<radialGradient id="paint1_radial_567_426" cx="0" cy="0" r="1" gradientUnits="userSpaceOnUse" gradientTransform="translate(626.053 278.806) rotate(40.0117) scale(193.164 864.283)">
<stop stop-color="#3A3A3A"/>
<stop offset="1" stop-color="#202020"/>
</radialGradient>
<radialGradient id="paint2_radial_567_426" cx="0" cy="0" r="1" gradientUnits="userSpaceOnUse" gradientTransform="translate(332.617 588.092) rotate(-4.98826) scale(193.164 864.283)">
<stop stop-color="#3A3A3A"/>
<stop offset="1" stop-color="#202020"/>
</radialGradient>
<radialGradient id="paint3_radial_567_426" cx="0" cy="0" r="1" gradientUnits="userSpaceOnUse" gradientTransform="translate(358.053 278.806) rotate(40.0117) scale(193.164 864.283)">
<stop stop-color="#3A3A3A"/>
<stop offset="1" stop-color="#202020"/>
</radialGradient>
<radialGradient id="paint4_radial_567_426" cx="0" cy="0" r="1" gradientUnits="userSpaceOnUse" gradientTransform="translate(358.053 8.80645) rotate(40.0117) scale(193.164 864.283)">
<stop stop-color="#3A3A3A"/>
<stop offset="1" stop-color="#202020"/>
</radialGradient>
</defs>
</svg>
