<svg width="847" height="691" viewBox="0 0 847 691" fill="none" xmlns="http://www.w3.org/2000/svg">
<path d="M524.152 428.76C523.432 429.176 522.648 429.336 521.848 429.336C519.48 429.336 517.8 427.672 517.8 425.4C517.8 423.08 519.48 421.464 521.864 421.464C523.064 421.464 524.072 421.864 524.952 422.744L526.264 421.464C525.208 420.264 523.64 419.64 521.768 419.64C518.264 419.64 515.704 422.056 515.704 425.4C515.704 428.744 518.264 431.16 521.736 431.16C523.32 431.16 524.952 430.68 526.12 429.736V425.272H524.152V428.76ZM531.935 422.36C530.559 422.36 529.231 422.712 528.319 423.416L529.103 424.872C529.743 424.344 530.735 424.024 531.695 424.024C533.119 424.024 533.823 424.712 533.823 425.88V426.008H531.615C529.023 426.008 528.063 427.128 528.063 428.552C528.063 430.04 529.295 431.112 531.247 431.112C532.527 431.112 533.455 430.696 533.935 429.96V431H535.823V425.992C535.823 423.528 534.399 422.36 531.935 422.36ZM531.663 429.656C530.639 429.656 530.031 429.192 530.031 428.472C530.031 427.848 530.399 427.336 531.759 427.336H533.823V428.328C533.487 429.208 532.639 429.656 531.663 429.656ZM542.966 429.112C542.662 429.352 542.262 429.464 541.846 429.464C541.078 429.464 540.662 429.016 540.662 428.184V424.12H542.95V422.52H540.662V420.568H538.662V422.52H537.254V424.12H538.662V428.232C538.662 430.12 539.734 431.112 541.606 431.112C542.326 431.112 543.046 430.92 543.526 430.536L542.966 429.112ZM552.922 426.776C552.922 424.104 551.098 422.36 548.602 422.36C546.058 422.36 544.186 424.184 544.186 426.728C544.186 429.272 546.042 431.112 548.906 431.112C550.378 431.112 551.578 430.632 552.346 429.72L551.274 428.488C550.666 429.112 549.914 429.416 548.954 429.416C547.466 429.416 546.426 428.616 546.186 427.368H552.89C552.906 427.176 552.922 426.936 552.922 426.776ZM548.602 423.96C549.914 423.96 550.858 424.808 551.018 426.04H546.17C546.362 424.792 547.306 423.96 548.602 423.96ZM566.239 422.456L563.919 428.792L561.615 422.456H559.935L557.583 428.76L555.327 422.456H553.439L556.575 431H558.495L560.735 425.112L562.943 431H564.863L568.015 422.456H566.239ZM572.389 422.36C571.013 422.36 569.685 422.712 568.773 423.416L569.557 424.872C570.197 424.344 571.189 424.024 572.149 424.024C573.573 424.024 574.277 424.712 574.277 425.88V426.008H572.069C569.477 426.008 568.517 427.128 568.517 428.552C568.517 430.04 569.749 431.112 571.701 431.112C572.981 431.112 573.909 430.696 574.389 429.96V431H576.277V425.992C576.277 423.528 574.853 422.36 572.389 422.36ZM572.117 429.656C571.093 429.656 570.485 429.192 570.485 428.472C570.485 427.848 570.853 427.336 572.213 427.336H574.277V428.328C573.941 429.208 573.093 429.656 572.117 429.656ZM584.767 422.456L582.063 428.776L579.375 422.456H577.295L581.023 431.032L580.879 431.368C580.495 432.216 580.079 432.552 579.375 432.552C578.831 432.552 578.287 432.328 577.903 431.96L577.103 433.432C577.647 433.928 578.543 434.216 579.391 434.216C580.815 434.216 581.903 433.624 582.687 431.688L586.687 422.456H584.767ZM600.439 419.8V427.384L594.263 419.8H592.551V431H594.615V423.416L600.791 431H602.503V419.8H600.439ZM609.152 431.112C611.808 431.112 613.712 429.288 613.712 426.728C613.712 424.168 611.808 422.36 609.152 422.36C606.528 422.36 604.608 424.168 604.608 426.728C604.608 429.288 606.528 431.112 609.152 431.112ZM609.152 429.4C607.712 429.4 606.624 428.36 606.624 426.728C606.624 425.096 607.712 424.056 609.152 424.056C610.608 424.056 611.696 425.096 611.696 426.728C611.696 428.36 610.608 429.4 609.152 429.4ZM621.993 419.128V423.512C621.321 422.728 620.345 422.36 619.241 422.36C616.761 422.36 614.921 424.072 614.921 426.728C614.921 429.384 616.761 431.112 619.241 431.112C620.409 431.112 621.401 430.712 622.073 429.896V431H623.993V419.128H621.993ZM619.481 429.4C618.041 429.4 616.937 428.36 616.937 426.728C616.937 425.096 618.041 424.056 619.481 424.056C620.921 424.056 622.025 425.096 622.025 426.728C622.025 428.36 620.921 429.4 619.481 429.4ZM634.641 426.776C634.641 424.104 632.817 422.36 630.321 422.36C627.777 422.36 625.905 424.184 625.905 426.728C625.905 429.272 627.761 431.112 630.625 431.112C632.097 431.112 633.297 430.632 634.065 429.72L632.993 428.488C632.385 429.112 631.633 429.416 630.673 429.416C629.185 429.416 628.145 428.616 627.905 427.368H634.609C634.625 427.176 634.641 426.936 634.641 426.776ZM630.321 423.96C631.633 423.96 632.577 424.808 632.737 426.04H627.889C628.081 424.792 629.025 423.96 630.321 423.96Z" fill="#F7F7F7"/>
<path d="M525.504 151H530.4C534.032 151 536.512 148.76 536.512 145.4C536.512 142.04 534.032 139.8 530.4 139.8H525.504V151ZM527.584 149.24V141.56H530.304C532.8 141.56 534.416 143.08 534.416 145.4C534.416 147.72 532.8 149.24 530.304 149.24H527.584ZM546.531 151H548.963L543.971 144.808L548.675 139.8H546.339L540.803 145.544V139.8H538.723V151H540.803V148.136L542.579 146.312L546.531 151ZM557.621 148.76C556.901 149.176 556.117 149.336 555.317 149.336C552.949 149.336 551.269 147.672 551.269 145.4C551.269 143.08 552.949 141.464 555.333 141.464C556.533 141.464 557.541 141.864 558.421 142.744L559.733 141.464C558.677 140.264 557.109 139.64 555.237 139.64C551.733 139.64 549.173 142.056 549.173 145.4C549.173 148.744 551.733 151.16 555.205 151.16C556.789 151.16 558.421 150.68 559.589 149.736V145.272H557.621V148.76ZM574.642 139.8V147.384L568.466 139.8H566.754V151H568.818V143.416L574.994 151H576.706V139.8H574.642ZM583.355 151.112C586.011 151.112 587.915 149.288 587.915 146.728C587.915 144.168 586.011 142.36 583.355 142.36C580.731 142.36 578.811 144.168 578.811 146.728C578.811 149.288 580.731 151.112 583.355 151.112ZM583.355 149.4C581.915 149.4 580.827 148.36 580.827 146.728C580.827 145.096 581.915 144.056 583.355 144.056C584.811 144.056 585.899 145.096 585.899 146.728C585.899 148.36 584.811 149.4 583.355 149.4ZM596.196 139.128V143.512C595.524 142.728 594.548 142.36 593.444 142.36C590.964 142.36 589.124 144.072 589.124 146.728C589.124 149.384 590.964 151.112 593.444 151.112C594.612 151.112 595.604 150.712 596.276 149.896V151H598.196V139.128H596.196ZM593.684 149.4C592.244 149.4 591.14 148.36 591.14 146.728C591.14 145.096 592.244 144.056 593.684 144.056C595.124 144.056 596.228 145.096 596.228 146.728C596.228 148.36 595.124 149.4 593.684 149.4ZM608.844 146.776C608.844 144.104 607.02 142.36 604.524 142.36C601.98 142.36 600.108 144.184 600.108 146.728C600.108 149.272 601.964 151.112 604.828 151.112C606.3 151.112 607.5 150.632 608.268 149.72L607.196 148.488C606.588 149.112 605.836 149.416 604.876 149.416C603.388 149.416 602.348 148.616 602.108 147.368H608.812C608.828 147.176 608.844 146.936 608.844 146.776ZM604.524 143.96C605.836 143.96 606.78 144.808 606.94 146.04H602.092C602.284 144.792 603.228 143.96 604.524 143.96Z" fill="#F7F7F7"/>
<g filter="url(#filter0_d_4803_2276)">
<g filter="url(#filter1_d_4803_2276)">
<path d="M519 466C519 454.954 527.954 446 539 446H609C620.046 446 629 454.954 629 466V536C629 547.046 620.046 556 609 556H539C527.954 556 519 547.046 519 536V466Z" fill="url(#paint0_radial_4803_2276)"/>
</g>
</g>
<rect x="-0.846072" y="0.846072" width="32.4267" height="26.7402" rx="0.846072" transform="matrix(-1 0 0 1 589.374 485.828)" stroke="white" stroke-width="1.69214"/>
<path d="M558.998 478.923C558.998 478.607 558.821 478.316 558.539 478.171L546.07 471.746C545.507 471.456 544.837 471.865 544.837 472.498V528.711C544.837 529.399 545.615 529.8 546.175 529.399L558.644 520.477C558.866 520.318 558.998 520.062 558.998 519.789V478.923Z" fill="white" stroke="white" stroke-width="1.69214"/>
<path d="M589.33 478.92C589.33 478.603 589.507 478.313 589.789 478.167L602.258 471.742C602.821 471.452 603.491 471.861 603.491 472.494V528.707C603.491 529.395 602.713 529.796 602.153 529.395L589.684 520.473C589.462 520.314 589.33 520.058 589.33 519.785V478.92Z" fill="white" stroke="white" stroke-width="1.69214"/>
<g filter="url(#filter2_d_4803_2276)">
<g filter="url(#filter3_d_4803_2276)">
<path d="M501.142 243.142C493.332 235.332 493.332 222.668 501.142 214.858L550.64 165.36C558.45 157.55 571.113 157.55 578.924 165.36L628.421 214.858C636.232 222.668 636.232 235.332 628.421 243.142L578.924 292.64C571.113 300.45 558.45 300.45 550.64 292.64L501.142 243.142Z" fill="url(#paint1_radial_4803_2276)"/>
</g>
</g>
<circle cx="564.483" cy="268.116" r="5.60769" fill="white"/>
<circle cx="564.483" cy="229.487" r="9.34615" fill="white"/>
<circle cx="564.483" cy="189.608" r="5.60769" fill="white"/>
<circle cx="524.608" cy="205.807" r="5.60769" fill="white"/>
<circle cx="530.838" cy="250.67" r="5.60769" fill="white"/>
<circle cx="584.424" cy="240.701" r="5.60769" fill="white"/>
<circle cx="594.393" cy="213.287" r="5.60769" fill="white"/>
<line x1="565.616" y1="229.247" x2="586.801" y2="241.709" stroke="white" stroke-width="2"/>
<line x1="564.382" y1="230.964" x2="529.49" y2="252.149" stroke="white" stroke-width="2"/>
<line x1="563.333" y1="229.707" x2="523.456" y2="204.784" stroke="white" stroke-width="2"/>
<line x1="564.617" y1="229.239" x2="593.279" y2="213.039" stroke="white" stroke-width="2"/>
<line x1="564.863" y1="188.984" x2="564.863" y2="266.246" stroke="white" stroke-width="2"/>
<path d="M483.931 256.365C484.133 255.851 483.88 255.271 483.366 255.069L474.988 251.78C474.474 251.578 473.894 251.831 473.692 252.345C473.49 252.859 473.743 253.439 474.257 253.641L481.704 256.565L478.78 264.012C478.578 264.526 478.831 265.106 479.345 265.308C479.859 265.51 480.439 265.257 480.641 264.743L483.931 256.365ZM350.4 314.917L483.4 256.917L482.6 255.083L349.6 313.083L350.4 314.917Z" fill="#F7F7F7"/>
<path d="M487.463 463.886C487.952 463.631 488.142 463.027 487.886 462.537L483.72 454.56C483.464 454.07 482.86 453.88 482.371 454.136C481.881 454.392 481.692 454.996 481.947 455.485L485.651 462.577L478.56 466.28C478.07 466.536 477.88 467.14 478.136 467.629C478.392 468.119 478.996 468.308 479.485 468.053L487.463 463.886ZM362.431 424.954L486.701 463.954L487.299 462.046L363.03 423.046L362.431 424.954Z" fill="#F7F7F7"/>
<path d="M361.065 343.646C360.869 344.162 361.129 344.739 361.646 344.935L370.062 348.124C370.578 348.32 371.155 348.06 371.351 347.544C371.547 347.027 371.287 346.45 370.77 346.254L363.289 343.419L366.124 335.938C366.32 335.422 366.06 334.845 365.544 334.649C365.027 334.453 364.45 334.713 364.254 335.23L361.065 343.646ZM492.589 284.088L361.589 343.088L362.411 344.912L493.411 285.912L492.589 284.088Z" fill="#F7F7F7"/>
<path d="M350.546 452.109C350.054 452.359 349.858 452.961 350.109 453.454L354.191 461.474C354.442 461.967 355.044 462.163 355.536 461.912C356.028 461.662 356.224 461.059 355.974 460.567L352.345 453.438L359.474 449.809C359.967 449.558 360.163 448.956 359.912 448.464C359.662 447.972 359.059 447.776 358.567 448.026L350.546 452.109ZM477.309 493.049L351.309 452.049L350.691 453.951L476.691 494.951L477.309 493.049Z" fill="#F7F7F7"/>
<path d="M410.128 267.8V269.544H412.496V279H414.576V267.8H410.128Z" fill="#F7F7F7"/>
<path d="M428.56 333V331.608L433.008 327.384C433.381 327.032 433.659 326.723 433.84 326.456C434.021 326.189 434.139 325.944 434.192 325.72C434.256 325.485 434.288 325.267 434.288 325.064C434.288 324.552 434.112 324.157 433.76 323.88C433.408 323.592 432.891 323.448 432.208 323.448C431.664 323.448 431.168 323.544 430.72 323.736C430.283 323.928 429.904 324.221 429.584 324.616L428.128 323.496C428.565 322.909 429.152 322.456 429.888 322.136C430.635 321.805 431.467 321.64 432.384 321.64C433.195 321.64 433.899 321.773 434.496 322.04C435.104 322.296 435.568 322.664 435.888 323.144C436.219 323.624 436.384 324.195 436.384 324.856C436.384 325.219 436.336 325.581 436.24 325.944C436.144 326.296 435.963 326.669 435.696 327.064C435.429 327.459 435.04 327.901 434.528 328.392L430.704 332.024L430.272 331.24H436.816V333H428.56Z" fill="#F7F7F7"/>
<path d="M428.224 437.16C427.435 437.16 426.661 437.048 425.904 436.824C425.157 436.589 424.528 436.269 424.016 435.864L424.912 434.248C425.317 434.579 425.808 434.845 426.384 435.048C426.96 435.251 427.563 435.352 428.192 435.352C428.939 435.352 429.52 435.203 429.936 434.904C430.352 434.595 430.56 434.179 430.56 433.656C430.56 433.144 430.368 432.739 429.984 432.44C429.6 432.141 428.981 431.992 428.128 431.992H427.104V430.568L430.304 426.76L430.576 427.544H424.56V425.8H432.192V427.192L428.992 431L427.904 430.36H428.528C429.904 430.36 430.933 430.669 431.616 431.288C432.309 431.896 432.656 432.68 432.656 433.64C432.656 434.269 432.496 434.851 432.176 435.384C431.856 435.917 431.365 436.349 430.704 436.68C430.053 437 429.227 437.16 428.224 437.16Z" fill="#F7F7F7"/>
<path d="M405.544 487.456V486.016L411.064 478.8H413.288L407.848 486.016L406.808 485.696H415.688V487.456H405.544ZM411.688 490V487.456L411.752 485.696V483.44H413.704V490H411.688Z" fill="#F7F7F7"/>
<g filter="url(#filter4_d_4803_2276)">
<g filter="url(#filter5_d_4803_2276)">
<path d="M204 360C204 348.954 212.954 340 224 340H284C295.046 340 304 348.954 304 360V420C304 431.046 295.046 440 284 440H224C212.954 440 204 431.046 204 420V360Z" fill="url(#paint2_radial_4803_2276)"/>
</g>
<g clip-path="url(#clip0_4803_2276)">
<path d="M231.436 376.83C236.604 376.83 240.794 372.632 240.794 367.454C240.794 362.276 236.604 358.078 231.436 358.078C226.268 358.078 222.078 362.276 222.078 367.454C222.078 372.632 226.268 376.83 231.436 376.83Z" stroke="#F7F7F7" stroke-width="2.1" stroke-miterlimit="10"/>
<path d="M276.147 376.916C281.315 376.916 285.504 372.718 285.504 367.54C285.504 362.362 281.315 358.164 276.147 358.164C270.979 358.164 266.789 362.362 266.789 367.54C266.789 372.718 270.979 376.916 276.147 376.916Z" stroke="#F7F7F7" stroke-width="2.1" stroke-miterlimit="10"/>
<path d="M231.248 368.086C232.91 368.086 234.258 366.736 234.258 365.07C234.258 363.405 232.91 362.055 231.248 362.055C229.586 362.055 228.238 363.405 228.238 365.07C228.238 366.736 229.586 368.086 231.248 368.086Z" stroke="#F7F7F7" stroke-width="1.75" stroke-miterlimit="10"/>
<path d="M225.094 374.392V372.358C225.094 370.545 226.558 369.078 228.367 369.078H234.198C236.007 369.078 237.471 370.545 237.471 372.358V374.659" stroke="#F7F7F7" stroke-width="1.75" stroke-miterlimit="10"/>
<rect x="0.131058" y="1.23069" width="3.71384" height="8.7217" rx="1.85692" transform="matrix(0.777904 0.628384 -0.628123 0.778114 276.587 361.808)" stroke="#F7F7F7" stroke-width="1.75"/>
<rect x="-1.23475" y="-0.0781792" width="3.71392" height="8.72155" rx="1.85696" transform="matrix(-0.750263 0.66114 -0.660884 -0.750488 281.221 370.062)" stroke="#F7F7F7" stroke-width="1.75"/>
<path d="M276.569 421.834C281.737 421.834 285.926 417.636 285.926 412.458C285.926 407.28 281.737 403.082 276.569 403.082C271.401 403.082 267.211 407.28 267.211 412.458C267.211 417.636 271.401 421.834 276.569 421.834Z" stroke="#F7F7F7" stroke-width="2.1" stroke-miterlimit="10"/>
<path d="M231.764 421.923C236.932 421.923 241.122 417.726 241.122 412.548C241.122 407.37 236.932 403.172 231.764 403.172C226.596 403.172 222.406 407.37 222.406 412.548C222.406 417.726 226.596 421.923 231.764 421.923Z" stroke="#F7F7F7" stroke-width="2.1" stroke-miterlimit="10"/>
<path d="M282.001 412.401C282.001 412.23 281.993 412.059 281.977 411.89C281.955 411.644 281.782 411.442 281.549 411.359V411.359C280.792 411.089 280.434 410.223 280.778 409.497V409.497C280.885 409.273 280.863 409.007 280.704 408.817C280.486 408.556 280.246 408.315 279.985 408.097C279.794 407.938 279.528 407.917 279.304 408.023V408.023C278.578 408.368 277.713 408.009 277.443 407.252V407.252C277.36 407.02 277.158 406.847 276.912 406.824C276.572 406.793 276.23 406.793 275.89 406.824C275.644 406.847 275.442 407.02 275.359 407.252V407.252C275.089 408.009 274.223 408.368 273.497 408.023V408.023C273.273 407.917 273.007 407.938 272.817 408.097C272.556 408.315 272.315 408.556 272.097 408.817C271.938 409.007 271.917 409.273 272.023 409.497V409.497C272.368 410.223 272.009 411.089 271.252 411.359V411.359C271.02 411.442 270.847 411.644 270.824 411.89C270.793 412.23 270.793 412.572 270.824 412.912C270.847 413.158 271.02 413.36 271.252 413.443V413.443C272.009 413.713 272.368 414.578 272.023 415.304V415.304C271.917 415.528 271.938 415.794 272.097 415.985C272.315 416.246 272.556 416.486 272.817 416.704C273.007 416.863 273.273 416.885 273.497 416.778V416.778C274.223 416.434 275.089 416.792 275.359 417.549V417.549C275.442 417.782 275.644 417.954 275.89 417.977C276.23 418.009 276.572 418.009 276.912 417.977C277.158 417.954 277.36 417.782 277.443 417.549V417.549C277.713 416.792 278.578 416.434 279.304 416.778V416.778C279.528 416.885 279.794 416.863 279.985 416.704C280.246 416.486 280.486 416.246 280.704 415.985C280.863 415.794 280.885 415.528 280.778 415.304V415.304C280.434 414.578 280.792 413.713 281.549 413.443V413.443C281.782 413.36 281.955 413.158 281.977 412.912C281.993 412.742 282.001 412.572 282.001 412.401Z" stroke="#F7F7F7" stroke-width="1.4"/>
<path d="M276.401 414.048C277.311 414.048 278.048 413.311 278.048 412.401C278.048 411.491 277.311 410.754 276.401 410.754C275.491 410.754 274.754 411.491 274.754 412.401C274.754 413.311 275.491 414.048 276.401 414.048Z" stroke="#F7F7F7" stroke-width="1.4"/>
<path d="M227.617 412.21L230.803 415.402L236.253 409.941" stroke="#F7F7F7" stroke-width="1.75" stroke-linecap="round" stroke-linejoin="round"/>
<path d="M255.602 413.312V413.309C255.602 412.275 254.765 411.438 253.734 411.438H247.838C246.807 411.438 245.971 412.275 245.971 413.309V413.312C245.971 414.345 246.807 415.183 247.838 415.183H253.734C254.765 415.183 255.602 414.345 255.602 413.312Z" stroke="#F7F7F7" stroke-width="2.1" stroke-linecap="round" stroke-linejoin="round"/>
<path d="M262.176 413.265V413.262C262.176 412.228 261.34 411.391 260.308 411.391H254.412C253.381 411.391 252.545 412.228 252.545 413.262V413.265C252.545 414.299 253.381 415.136 254.412 415.136H260.308C261.34 415.136 262.176 414.299 262.176 413.265Z" stroke="#F7F7F7" stroke-width="2.1" stroke-linecap="round" stroke-linejoin="round"/>
<path d="M241.367 413.32H245.864" stroke="#F7F7F7" stroke-width="2.1" stroke-linecap="round" stroke-linejoin="round"/>
<path d="M262.176 413.156H266.643" stroke="#F7F7F7" stroke-width="2.1" stroke-linecap="round" stroke-linejoin="round"/>
<path d="M255.418 366.953V366.949C255.418 365.916 254.582 365.078 253.55 365.078H247.655C246.623 365.078 245.787 365.916 245.787 366.949V366.953C245.787 367.986 246.623 368.824 247.655 368.824H253.55C254.582 368.824 255.418 367.986 255.418 366.953Z" stroke="#F7F7F7" stroke-width="2.1" stroke-linecap="round" stroke-linejoin="round"/>
<path d="M261.996 366.902V366.899C261.996 365.865 261.16 365.027 260.128 365.027H254.233C253.201 365.027 252.365 365.865 252.365 366.899V366.902C252.365 367.935 253.201 368.773 254.233 368.773H260.128C261.16 368.773 261.996 367.935 261.996 366.902Z" stroke="#F7F7F7" stroke-width="2.1" stroke-linecap="round" stroke-linejoin="round"/>
<path d="M241.184 366.957H245.68" stroke="#F7F7F7" stroke-width="2.1" stroke-linecap="round" stroke-linejoin="round"/>
<path d="M261.992 366.793H266.46" stroke="#F7F7F7" stroke-width="2.1" stroke-linecap="round" stroke-linejoin="round"/>
<path d="M231.531 391.418H231.535C232.566 391.418 233.402 390.58 233.402 389.547V383.64C233.402 382.606 232.566 381.768 231.535 381.768H231.531C230.5 381.768 229.664 382.606 229.664 383.64V389.547C229.664 390.58 230.5 391.418 231.531 391.418Z" stroke="#F7F7F7" stroke-width="2.1" stroke-linecap="round" stroke-linejoin="round"/>
<path d="M231.578 398.008H231.582C232.613 398.008 233.449 397.17 233.449 396.137V390.229C233.449 389.196 232.613 388.358 231.582 388.358H231.578C230.547 388.358 229.711 389.196 229.711 390.229V396.137C229.711 397.17 230.547 398.008 231.578 398.008Z" stroke="#F7F7F7" stroke-width="2.1" stroke-linecap="round" stroke-linejoin="round"/>
<path d="M231.52 377.156V381.662" stroke="#F7F7F7" stroke-width="2.1" stroke-linecap="round" stroke-linejoin="round"/>
<path d="M231.691 398.004V402.48" stroke="#F7F7F7" stroke-width="2.1" stroke-linecap="round" stroke-linejoin="round"/>
<path d="M276.125 391.445H276.128C277.16 391.445 277.996 390.608 277.996 389.574V383.667C277.996 382.633 277.16 381.796 276.128 381.796H276.125C275.094 381.796 274.258 382.633 274.258 383.667V389.574C274.258 390.608 275.094 391.445 276.125 391.445Z" stroke="#F7F7F7" stroke-width="2.1" stroke-linecap="round" stroke-linejoin="round"/>
<path d="M276.176 398.039H276.179C277.211 398.039 278.047 397.201 278.047 396.168V390.261C278.047 389.227 277.211 388.389 276.179 388.389H276.176C275.145 388.389 274.308 389.227 274.308 390.261V396.168C274.308 397.201 275.145 398.039 276.176 398.039Z" stroke="#F7F7F7" stroke-width="2.1" stroke-linecap="round" stroke-linejoin="round"/>
<path d="M276.117 377.184V381.689" stroke="#F7F7F7" stroke-width="2.1" stroke-linecap="round" stroke-linejoin="round"/>
<path d="M276.281 398.035V402.511" stroke="#F7F7F7" stroke-width="2.1" stroke-linecap="round" stroke-linejoin="round"/>
<path d="M263.939 383.699H247V400.638H263.939V383.699Z" stroke="#F7F7F7" stroke-width="2.1" stroke-linecap="round" stroke-linejoin="round"/>
<path d="M260.92 379.648H243.203V397.145" stroke="#F7F7F7" stroke-width="2.1" stroke-linecap="round" stroke-linejoin="round"/>
<path d="M251.699 394.357C251.307 394.357 250.981 394.303 250.719 394.194C250.462 394.082 250.267 393.939 250.137 393.763C250.01 393.584 249.943 393.395 249.935 393.198C249.935 393.164 249.946 393.136 249.969 393.114C249.991 393.091 250.019 393.08 250.053 393.08H250.943C250.995 393.08 251.037 393.089 251.066 393.108C251.096 393.123 251.128 393.145 251.162 393.175C251.195 393.216 251.234 393.255 251.279 393.293C251.324 393.326 251.382 393.354 251.453 393.377C251.524 393.395 251.606 393.405 251.699 393.405C251.871 393.405 252.003 393.382 252.097 393.338C252.19 393.289 252.237 393.224 252.237 393.142C252.237 393.078 252.211 393.026 252.158 392.985C252.11 392.944 252.026 392.906 251.906 392.873C251.787 392.839 251.625 392.804 251.419 392.766C251.132 392.718 250.883 392.647 250.674 392.554C250.465 392.457 250.305 392.328 250.193 392.167C250.085 392.003 250.03 391.801 250.03 391.562C250.03 391.32 250.098 391.105 250.232 390.918C250.37 390.732 250.561 390.586 250.803 390.482C251.05 390.377 251.335 390.325 251.66 390.325C251.929 390.325 252.166 390.36 252.371 390.431C252.58 390.502 252.756 390.595 252.898 390.711C253.039 390.823 253.148 390.945 253.222 391.075C253.297 391.206 253.336 391.331 253.34 391.45C253.34 391.484 253.327 391.514 253.301 391.54C253.278 391.562 253.252 391.574 253.222 391.574H252.287C252.242 391.574 252.203 391.566 252.17 391.551C252.14 391.536 252.112 391.512 252.086 391.478C252.067 391.426 252.02 391.379 251.946 391.338C251.871 391.297 251.776 391.277 251.66 391.277C251.533 391.277 251.436 391.299 251.369 391.344C251.302 391.385 251.268 391.447 251.268 391.529C251.268 391.585 251.289 391.633 251.33 391.674C251.371 391.715 251.443 391.753 251.548 391.786C251.653 391.816 251.798 391.85 251.985 391.887C252.339 391.939 252.625 392.014 252.842 392.111C253.062 392.208 253.222 392.335 253.323 392.492C253.424 392.649 253.474 392.845 253.474 393.08C253.474 393.345 253.398 393.573 253.245 393.763C253.092 393.954 252.881 394.101 252.612 394.206C252.347 394.306 252.043 394.357 251.699 394.357ZM254.1 394.301C254.062 394.301 254.029 394.288 253.999 394.262C253.969 394.232 253.954 394.196 253.954 394.155V390.526C253.954 390.485 253.969 390.452 253.999 390.426C254.029 390.396 254.062 390.381 254.1 390.381H255.634C255.996 390.381 256.31 390.441 256.575 390.56C256.84 390.676 257.049 390.847 257.202 391.075C257.355 391.303 257.437 391.583 257.449 391.915C257.456 392.076 257.46 392.218 257.46 392.341C257.46 392.464 257.456 392.604 257.449 392.761C257.434 393.112 257.353 393.401 257.208 393.629C257.066 393.857 256.864 394.026 256.603 394.138C256.342 394.247 256.028 394.301 255.662 394.301H254.1ZM255.158 393.349H255.634C255.757 393.349 255.862 393.328 255.948 393.287C256.034 393.246 256.101 393.183 256.149 393.097C256.198 393.007 256.224 392.893 256.228 392.755C256.232 392.647 256.233 392.55 256.233 392.464C256.237 392.378 256.237 392.292 256.233 392.206C256.233 392.121 256.232 392.025 256.228 391.921C256.22 391.715 256.161 391.566 256.049 391.473C255.94 391.379 255.793 391.333 255.606 391.333H255.158V393.349ZM258.174 394.301C258.137 394.301 258.103 394.288 258.073 394.262C258.043 394.232 258.028 394.196 258.028 394.155V390.526C258.028 390.485 258.043 390.452 258.073 390.426C258.103 390.396 258.137 390.381 258.174 390.381H259.064C259.106 390.381 259.139 390.396 259.165 390.426C259.195 390.452 259.21 390.485 259.21 390.526V391.702L260.044 390.498C260.063 390.472 260.089 390.446 260.123 390.42C260.156 390.394 260.203 390.381 260.263 390.381H261.288C261.321 390.381 261.349 390.394 261.372 390.42C261.398 390.442 261.411 390.47 261.411 390.504C261.411 390.526 261.403 390.547 261.388 390.566L260.212 392.257L261.489 394.116C261.504 394.131 261.512 394.151 261.512 394.178C261.512 394.211 261.499 394.241 261.472 394.267C261.45 394.29 261.422 394.301 261.388 394.301H260.33C260.259 394.301 260.205 394.284 260.168 394.25C260.134 394.217 260.114 394.193 260.106 394.178L259.21 392.878V394.155C259.21 394.196 259.195 394.232 259.165 394.262C259.139 394.288 259.106 394.301 259.064 394.301H258.174Z" fill="#F7F7F7"/>
</g>
</g>
<path d="M215.014 464L220.054 452.8H222.102L227.158 464H224.982L220.646 453.904H221.478L217.158 464H215.014ZM217.334 461.408L217.894 459.776H223.942L224.502 461.408H217.334ZM231.85 464.112C231.125 464.112 230.485 463.979 229.93 463.712C229.375 463.435 228.943 463.019 228.634 462.464C228.325 461.899 228.17 461.189 228.17 460.336V455.456H230.17V460.064C230.17 460.832 230.341 461.408 230.682 461.792C231.034 462.165 231.53 462.352 232.17 462.352C232.639 462.352 233.045 462.256 233.386 462.064C233.738 461.872 234.01 461.584 234.202 461.2C234.405 460.816 234.506 460.341 234.506 459.776V455.456H236.506V464H234.602V461.696L234.938 462.4C234.65 462.955 234.229 463.381 233.674 463.68C233.119 463.968 232.511 464.112 231.85 464.112ZM242.341 464.112C241.402 464.112 240.677 463.872 240.164 463.392C239.653 462.901 239.397 462.181 239.397 461.232V453.568H241.397V461.184C241.397 461.589 241.498 461.904 241.701 462.128C241.914 462.352 242.207 462.464 242.581 462.464C243.029 462.464 243.402 462.347 243.701 462.112L244.261 463.536C244.026 463.728 243.738 463.872 243.397 463.968C243.055 464.064 242.703 464.112 242.341 464.112ZM237.989 457.12V455.52H243.685V457.12H237.989ZM250.754 455.36C251.436 455.36 252.044 455.493 252.578 455.76C253.122 456.027 253.548 456.437 253.858 456.992C254.167 457.536 254.322 458.24 254.322 459.104V464H252.322V459.36C252.322 458.603 252.14 458.037 251.778 457.664C251.426 457.291 250.93 457.104 250.29 457.104C249.82 457.104 249.404 457.2 249.042 457.392C248.679 457.584 248.396 457.872 248.194 458.256C248.002 458.629 247.906 459.104 247.906 459.68V464H245.906V452.128H247.906V457.76L247.474 457.056C247.772 456.512 248.204 456.096 248.77 455.808C249.346 455.509 250.007 455.36 250.754 455.36ZM264.945 464.16C264.07 464.16 263.233 464.037 262.433 463.792C261.633 463.536 260.998 463.211 260.529 462.816L261.249 461.2C261.697 461.552 262.251 461.845 262.913 462.08C263.574 462.315 264.251 462.432 264.945 462.432C265.531 462.432 266.006 462.368 266.369 462.24C266.731 462.112 266.998 461.941 267.169 461.728C267.339 461.504 267.425 461.253 267.425 460.976C267.425 460.635 267.302 460.363 267.057 460.16C266.811 459.947 266.491 459.781 266.097 459.664C265.713 459.536 265.281 459.419 264.801 459.312C264.331 459.205 263.857 459.083 263.377 458.944C262.907 458.795 262.475 458.608 262.081 458.384C261.697 458.149 261.382 457.84 261.137 457.456C260.891 457.072 260.769 456.581 260.769 455.984C260.769 455.376 260.929 454.821 261.249 454.32C261.579 453.808 262.075 453.403 262.737 453.104C263.409 452.795 264.257 452.64 265.281 452.64C265.953 452.64 266.619 452.725 267.281 452.896C267.942 453.067 268.518 453.312 269.009 453.632L268.353 455.248C267.851 454.949 267.334 454.731 266.801 454.592C266.267 454.443 265.755 454.368 265.265 454.368C264.689 454.368 264.219 454.437 263.857 454.576C263.505 454.715 263.243 454.896 263.073 455.12C262.913 455.344 262.833 455.6 262.833 455.888C262.833 456.229 262.95 456.507 263.185 456.72C263.43 456.923 263.745 457.083 264.129 457.2C264.523 457.317 264.961 457.435 265.441 457.552C265.921 457.659 266.395 457.781 266.865 457.92C267.345 458.059 267.777 458.24 268.161 458.464C268.555 458.688 268.87 458.992 269.105 459.376C269.35 459.76 269.473 460.245 269.473 460.832C269.473 461.429 269.307 461.984 268.977 462.496C268.657 462.997 268.161 463.403 267.489 463.712C266.817 464.011 265.969 464.16 264.945 464.16ZM271.535 464V452.8H276.431C277.647 452.8 278.714 453.035 279.631 453.504C280.549 453.973 281.263 454.624 281.775 455.456C282.287 456.288 282.543 457.269 282.543 458.4C282.543 459.52 282.287 460.501 281.775 461.344C281.263 462.176 280.549 462.827 279.631 463.296C278.714 463.765 277.647 464 276.431 464H271.535ZM273.615 462.24H276.335C277.178 462.24 277.903 462.08 278.511 461.76C279.13 461.44 279.605 460.992 279.935 460.416C280.277 459.84 280.447 459.168 280.447 458.4C280.447 457.621 280.277 456.949 279.935 456.384C279.605 455.808 279.13 455.36 278.511 455.04C277.903 454.72 277.178 454.56 276.335 454.56H273.615V462.24ZM286.61 461.36L286.498 458.896L292.37 452.8H294.706L289.826 457.984L288.674 459.248L286.61 461.36ZM284.754 464V452.8H286.834V464H284.754ZM292.562 464L288.274 458.896L289.65 457.376L294.994 464H292.562Z" fill="#F7F7F7"/>
<defs>
<filter id="filter0_d_4803_2276" x="515" y="434" width="144" height="144" filterUnits="userSpaceOnUse" color-interpolation-filters="sRGB">
<feFlood flood-opacity="0" result="BackgroundImageFix"/>
<feColorMatrix in="SourceAlpha" type="matrix" values="0 0 0 0 0 0 0 0 0 0 0 0 0 0 0 0 0 0 127 0" result="hardAlpha"/>
<feOffset dx="13" dy="5"/>
<feGaussianBlur stdDeviation="8.5"/>
<feColorMatrix type="matrix" values="0 0 0 0 0 0 0 0 0 0 0 0 0 0 0 0 0 0 0.15 0"/>
<feBlend mode="normal" in2="BackgroundImageFix" result="effect1_dropShadow_4803_2276"/>
<feBlend mode="normal" in="SourceGraphic" in2="effect1_dropShadow_4803_2276" result="shape"/>
</filter>
<filter id="filter1_d_4803_2276" x="519" y="446" width="118" height="119" filterUnits="userSpaceOnUse" color-interpolation-filters="sRGB">
<feFlood flood-opacity="0" result="BackgroundImageFix"/>
<feColorMatrix in="SourceAlpha" type="matrix" values="0 0 0 0 0 0 0 0 0 0 0 0 0 0 0 0 0 0 127 0" result="hardAlpha"/>
<feOffset dx="4" dy="5"/>
<feGaussianBlur stdDeviation="2"/>
<feColorMatrix type="matrix" values="0 0 0 0 0 0 0 0 0 0 0 0 0 0 0 0 0 0 0.25 0"/>
<feBlend mode="normal" in2="BackgroundImageFix" result="effect1_dropShadow_4803_2276"/>
<feBlend mode="normal" in="SourceGraphic" in2="effect1_dropShadow_4803_2276" result="shape"/>
</filter>
<filter id="filter2_d_4803_2276" x="491.285" y="147.504" width="172.992" height="172.992" filterUnits="userSpaceOnUse" color-interpolation-filters="sRGB">
<feFlood flood-opacity="0" result="BackgroundImageFix"/>
<feColorMatrix in="SourceAlpha" type="matrix" values="0 0 0 0 0 0 0 0 0 0 0 0 0 0 0 0 0 0 127 0" result="hardAlpha"/>
<feOffset dx="13" dy="5"/>
<feGaussianBlur stdDeviation="8.5"/>
<feColorMatrix type="matrix" values="0 0 0 0 0 0 0 0 0 0 0 0 0 0 0 0 0 0 0.15 0"/>
<feBlend mode="normal" in2="BackgroundImageFix" result="effect1_dropShadow_4803_2276"/>
<feBlend mode="normal" in="SourceGraphic" in2="effect1_dropShadow_4803_2276" result="shape"/>
</filter>
<filter id="filter3_d_4803_2276" x="495.285" y="159.504" width="146.992" height="147.992" filterUnits="userSpaceOnUse" color-interpolation-filters="sRGB">
<feFlood flood-opacity="0" result="BackgroundImageFix"/>
<feColorMatrix in="SourceAlpha" type="matrix" values="0 0 0 0 0 0 0 0 0 0 0 0 0 0 0 0 0 0 127 0" result="hardAlpha"/>
<feOffset dx="4" dy="5"/>
<feGaussianBlur stdDeviation="2"/>
<feColorMatrix type="matrix" values="0 0 0 0 0 0 0 0 0 0 0 0 0 0 0 0 0 0 0.25 0"/>
<feBlend mode="normal" in2="BackgroundImageFix" result="effect1_dropShadow_4803_2276"/>
<feBlend mode="normal" in="SourceGraphic" in2="effect1_dropShadow_4803_2276" result="shape"/>
</filter>
<filter id="filter4_d_4803_2276" x="200" y="328" width="134" height="134" filterUnits="userSpaceOnUse" color-interpolation-filters="sRGB">
<feFlood flood-opacity="0" result="BackgroundImageFix"/>
<feColorMatrix in="SourceAlpha" type="matrix" values="0 0 0 0 0 0 0 0 0 0 0 0 0 0 0 0 0 0 127 0" result="hardAlpha"/>
<feOffset dx="13" dy="5"/>
<feGaussianBlur stdDeviation="8.5"/>
<feColorMatrix type="matrix" values="0 0 0 0 0 0 0 0 0 0 0 0 0 0 0 0 0 0 0.15 0"/>
<feBlend mode="normal" in2="BackgroundImageFix" result="effect1_dropShadow_4803_2276"/>
<feBlend mode="normal" in="SourceGraphic" in2="effect1_dropShadow_4803_2276" result="shape"/>
</filter>
<filter id="filter5_d_4803_2276" x="204" y="340" width="108" height="109" filterUnits="userSpaceOnUse" color-interpolation-filters="sRGB">
<feFlood flood-opacity="0" result="BackgroundImageFix"/>
<feColorMatrix in="SourceAlpha" type="matrix" values="0 0 0 0 0 0 0 0 0 0 0 0 0 0 0 0 0 0 127 0" result="hardAlpha"/>
<feOffset dx="4" dy="5"/>
<feGaussianBlur stdDeviation="2"/>
<feColorMatrix type="matrix" values="0 0 0 0 0 0 0 0 0 0 0 0 0 0 0 0 0 0 0.25 0"/>
<feBlend mode="normal" in2="BackgroundImageFix" result="effect1_dropShadow_4803_2276"/>
<feBlend mode="normal" in="SourceGraphic" in2="effect1_dropShadow_4803_2276" result="shape"/>
</filter>
<radialGradient id="paint0_radial_4803_2276" cx="0" cy="0" r="1" gradientUnits="userSpaceOnUse" gradientTransform="translate(493.053 431.806) rotate(40.0117) scale(193.164 864.283)">
<stop stop-color="#3A3A3A"/>
<stop offset="1" stop-color="#202020"/>
</radialGradient>
<radialGradient id="paint1_radial_4803_2276" cx="0" cy="0" r="1" gradientUnits="userSpaceOnUse" gradientTransform="translate(458.617 237.311) rotate(-4.98826) scale(193.164 864.283)">
<stop stop-color="#3A3A3A"/>
<stop offset="1" stop-color="#202020"/>
</radialGradient>
<radialGradient id="paint2_radial_4803_2276" cx="0" cy="0" r="1" gradientUnits="userSpaceOnUse" gradientTransform="translate(180.412 327.097) rotate(40.0117) scale(175.603 785.712)">
<stop stop-color="#3A3A3A"/>
<stop offset="1" stop-color="#202020"/>
</radialGradient>
<clipPath id="clip0_4803_2276">
<rect width="65.8" height="65.8" fill="white" transform="translate(221.102 357.102)"/>
</clipPath>
</defs>
</svg>
