<svg width="800" height="800" viewBox="0 0 800 800" fill="none" xmlns="http://www.w3.org/2000/svg">
<g filter="url(#filter0_d_3784_4)">
<g filter="url(#filter1_d_3784_4)">
<g filter="url(#filter2_d_3784_4)">
<g filter="url(#filter3_d_3784_4)">
<path d="M62 387C62 356.624 86.6243 332 117 332C147.376 332 172 356.624 172 387C172 417.376 147.376 442 117 442C86.6243 442 62 417.376 62 387Z" fill="url(#paint0_radial_3784_4)"/>
</g>
</g>
</g>
</g>
<path d="M102.68 305.128V309.512C102.008 308.728 101.032 308.36 99.928 308.36C97.448 308.36 95.608 310.072 95.608 312.728C95.608 315.384 97.448 317.112 99.928 317.112C101.096 317.112 102.088 316.712 102.76 315.896V317H104.68V305.128H102.68ZM100.168 315.4C98.728 315.4 97.624 314.36 97.624 312.728C97.624 311.096 98.728 310.056 100.168 310.056C101.608 310.056 102.712 311.096 102.712 312.728C102.712 314.36 101.608 315.4 100.168 315.4ZM115.872 317H118.048L112.992 305.8H110.944L105.904 317H108.048L109.152 314.408H114.752L115.872 317ZM109.856 312.776L111.952 307.88L114.064 312.776H109.856ZM124.017 308.36C122.849 308.36 121.857 308.76 121.185 309.576V308.456H119.281V320.104H121.281V315.96C121.969 316.744 122.929 317.112 124.017 317.112C126.513 317.112 128.353 315.384 128.353 312.728C128.353 310.088 126.513 308.36 124.017 308.36ZM123.793 315.4C122.353 315.4 121.249 314.36 121.249 312.728C121.249 311.096 122.353 310.056 123.793 310.056C125.233 310.056 126.321 311.096 126.321 312.728C126.321 314.36 125.233 315.4 123.793 315.4ZM134.986 308.36C133.818 308.36 132.826 308.76 132.154 309.576V308.456H130.25V320.104H132.25V315.96C132.938 316.744 133.898 317.112 134.986 317.112C137.482 317.112 139.322 315.384 139.322 312.728C139.322 310.088 137.482 308.36 134.986 308.36ZM134.762 315.4C133.322 315.4 132.218 314.36 132.218 312.728C132.218 311.096 133.322 310.056 134.762 310.056C136.202 310.056 137.29 311.096 137.29 312.728C137.29 314.36 136.202 315.4 134.762 315.4Z" fill="white"/>
<path d="M353.152 314.76C352.432 315.176 351.648 315.336 350.848 315.336C348.48 315.336 346.8 313.672 346.8 311.4C346.8 309.08 348.48 307.464 350.864 307.464C352.064 307.464 353.072 307.864 353.952 308.744L355.264 307.464C354.208 306.264 352.64 305.64 350.768 305.64C347.264 305.64 344.704 308.056 344.704 311.4C344.704 314.744 347.264 317.16 350.736 317.16C352.32 317.16 353.952 316.68 355.12 315.736V311.272H353.152V314.76ZM360.935 308.36C359.559 308.36 358.231 308.712 357.319 309.416L358.103 310.872C358.743 310.344 359.735 310.024 360.695 310.024C362.119 310.024 362.823 310.712 362.823 311.88V312.008H360.615C358.023 312.008 357.063 313.128 357.063 314.552C357.063 316.04 358.295 317.112 360.247 317.112C361.527 317.112 362.455 316.696 362.935 315.96V317H364.823V311.992C364.823 309.528 363.399 308.36 360.935 308.36ZM360.663 315.656C359.639 315.656 359.031 315.192 359.031 314.472C359.031 313.848 359.399 313.336 360.759 313.336H362.823V314.328C362.487 315.208 361.639 315.656 360.663 315.656ZM371.966 315.112C371.662 315.352 371.262 315.464 370.846 315.464C370.078 315.464 369.662 315.016 369.662 314.184V310.12H371.95V308.52H369.662V306.568H367.662V308.52H366.254V310.12H367.662V314.232C367.662 316.12 368.734 317.112 370.606 317.112C371.326 317.112 372.046 316.92 372.526 316.536L371.966 315.112ZM381.922 312.776C381.922 310.104 380.098 308.36 377.602 308.36C375.058 308.36 373.186 310.184 373.186 312.728C373.186 315.272 375.042 317.112 377.906 317.112C379.378 317.112 380.578 316.632 381.346 315.72L380.274 314.488C379.666 315.112 378.914 315.416 377.954 315.416C376.466 315.416 375.426 314.616 375.186 313.368H381.89C381.906 313.176 381.922 312.936 381.922 312.776ZM377.602 309.96C378.914 309.96 379.858 310.808 380.018 312.04H375.17C375.362 310.792 376.306 309.96 377.602 309.96ZM395.239 308.456L392.919 314.792L390.615 308.456H388.935L386.583 314.76L384.327 308.456H382.439L385.575 317H387.495L389.735 311.112L391.943 317H393.863L397.015 308.456H395.239ZM401.389 308.36C400.013 308.36 398.685 308.712 397.773 309.416L398.557 310.872C399.197 310.344 400.189 310.024 401.149 310.024C402.573 310.024 403.277 310.712 403.277 311.88V312.008H401.069C398.477 312.008 397.517 313.128 397.517 314.552C397.517 316.04 398.749 317.112 400.701 317.112C401.981 317.112 402.909 316.696 403.389 315.96V317H405.277V311.992C405.277 309.528 403.853 308.36 401.389 308.36ZM401.117 315.656C400.093 315.656 399.485 315.192 399.485 314.472C399.485 313.848 399.853 313.336 401.213 313.336H403.277V314.328C402.941 315.208 402.093 315.656 401.117 315.656ZM413.767 308.456L411.063 314.776L408.375 308.456H406.295L410.023 317.032L409.879 317.368C409.495 318.216 409.079 318.552 408.375 318.552C407.831 318.552 407.287 318.328 406.903 317.96L406.103 319.432C406.647 319.928 407.543 320.216 408.391 320.216C409.815 320.216 410.903 319.624 411.687 317.688L415.687 308.456H413.767ZM429.439 305.8V313.384L423.263 305.8H421.551V317H423.615V309.416L429.791 317H431.503V305.8H429.439ZM438.152 317.112C440.808 317.112 442.712 315.288 442.712 312.728C442.712 310.168 440.808 308.36 438.152 308.36C435.528 308.36 433.608 310.168 433.608 312.728C433.608 315.288 435.528 317.112 438.152 317.112ZM438.152 315.4C436.712 315.4 435.624 314.36 435.624 312.728C435.624 311.096 436.712 310.056 438.152 310.056C439.608 310.056 440.696 311.096 440.696 312.728C440.696 314.36 439.608 315.4 438.152 315.4ZM450.993 305.128V309.512C450.321 308.728 449.345 308.36 448.241 308.36C445.761 308.36 443.921 310.072 443.921 312.728C443.921 315.384 445.761 317.112 448.241 317.112C449.409 317.112 450.401 316.712 451.073 315.896V317H452.993V305.128H450.993ZM448.481 315.4C447.041 315.4 445.937 314.36 445.937 312.728C445.937 311.096 447.041 310.056 448.481 310.056C449.921 310.056 451.025 311.096 451.025 312.728C451.025 314.36 449.921 315.4 448.481 315.4ZM463.641 312.776C463.641 310.104 461.817 308.36 459.321 308.36C456.777 308.36 454.905 310.184 454.905 312.728C454.905 315.272 456.761 317.112 459.625 317.112C461.097 317.112 462.297 316.632 463.065 315.72L461.993 314.488C461.385 315.112 460.633 315.416 459.673 315.416C458.185 315.416 457.145 314.616 456.905 313.368H463.609C463.625 313.176 463.641 312.936 463.641 312.776ZM459.321 309.96C460.633 309.96 461.577 310.808 461.737 312.04H456.889C457.081 310.792 458.025 309.96 459.321 309.96Z" fill="white"/>
<path d="M363.504 529H368.4C372.032 529 374.512 526.76 374.512 523.4C374.512 520.04 372.032 517.8 368.4 517.8H363.504V529ZM365.584 527.24V519.56H368.304C370.8 519.56 372.416 521.08 372.416 523.4C372.416 525.72 370.8 527.24 368.304 527.24H365.584ZM384.531 529H386.963L381.971 522.808L386.675 517.8H384.339L378.803 523.544V517.8H376.723V529H378.803V526.136L380.579 524.312L384.531 529ZM395.621 526.76C394.901 527.176 394.117 527.336 393.317 527.336C390.949 527.336 389.269 525.672 389.269 523.4C389.269 521.08 390.949 519.464 393.333 519.464C394.533 519.464 395.541 519.864 396.421 520.744L397.733 519.464C396.677 518.264 395.109 517.64 393.237 517.64C389.733 517.64 387.173 520.056 387.173 523.4C387.173 526.744 389.733 529.16 393.205 529.16C394.789 529.16 396.421 528.68 397.589 527.736V523.272H395.621V526.76ZM412.642 517.8V525.384L406.466 517.8H404.754V529H406.818V521.416L412.994 529H414.706V517.8H412.642ZM421.355 529.112C424.011 529.112 425.915 527.288 425.915 524.728C425.915 522.168 424.011 520.36 421.355 520.36C418.731 520.36 416.811 522.168 416.811 524.728C416.811 527.288 418.731 529.112 421.355 529.112ZM421.355 527.4C419.915 527.4 418.827 526.36 418.827 524.728C418.827 523.096 419.915 522.056 421.355 522.056C422.811 522.056 423.899 523.096 423.899 524.728C423.899 526.36 422.811 527.4 421.355 527.4ZM434.196 517.128V521.512C433.524 520.728 432.548 520.36 431.444 520.36C428.964 520.36 427.124 522.072 427.124 524.728C427.124 527.384 428.964 529.112 431.444 529.112C432.612 529.112 433.604 528.712 434.276 527.896V529H436.196V517.128H434.196ZM431.684 527.4C430.244 527.4 429.14 526.36 429.14 524.728C429.14 523.096 430.244 522.056 431.684 522.056C433.124 522.056 434.228 523.096 434.228 524.728C434.228 526.36 433.124 527.4 431.684 527.4ZM446.844 524.776C446.844 522.104 445.02 520.36 442.524 520.36C439.98 520.36 438.108 522.184 438.108 524.728C438.108 527.272 439.964 529.112 442.828 529.112C444.3 529.112 445.5 528.632 446.268 527.72L445.196 526.488C444.588 527.112 443.836 527.416 442.876 527.416C441.388 527.416 440.348 526.616 440.108 525.368H446.812C446.828 525.176 446.844 524.936 446.844 524.776ZM442.524 521.96C443.836 521.96 444.78 522.808 444.94 524.04H440.092C440.284 522.792 441.228 521.96 442.524 521.96Z" fill="white"/>
<g filter="url(#filter4_d_3784_4)">
<g filter="url(#filter5_d_3784_4)">
<path d="M628 352C628 340.954 636.954 332 648 332H718C729.046 332 738 340.954 738 352V422C738 433.046 729.046 442 718 442H648C636.954 442 628 433.046 628 422V352Z" fill="url(#paint1_radial_3784_4)"/>
</g>
</g>
<path d="M348.976 131.16C352.048 131.16 353.504 129.624 353.504 127.832C353.504 123.72 346.864 125.272 346.864 122.888C346.864 122.04 347.568 121.368 349.296 121.368C350.272 121.368 351.376 121.656 352.384 122.248L353.04 120.632C352.064 119.992 350.656 119.64 349.312 119.64C346.24 119.64 344.8 121.176 344.8 122.984C344.8 127.144 351.456 125.56 351.456 127.976C351.456 128.808 350.72 129.432 348.976 129.432C347.6 129.432 346.176 128.92 345.28 128.2L344.56 129.816C345.488 130.616 347.232 131.16 348.976 131.16ZM359.951 129.112C359.647 129.352 359.247 129.464 358.831 129.464C358.062 129.464 357.647 129.016 357.647 128.184V124.12H359.935V122.52H357.647V120.568H355.647V122.52H354.239V124.12H355.647V128.232C355.647 130.12 356.719 131.112 358.591 131.112C359.311 131.112 360.031 130.92 360.511 130.536L359.951 129.112ZM365.715 131.112C368.371 131.112 370.275 129.288 370.275 126.728C370.275 124.168 368.371 122.36 365.715 122.36C363.091 122.36 361.171 124.168 361.171 126.728C361.171 129.288 363.091 131.112 365.715 131.112ZM365.715 129.4C364.275 129.4 363.187 128.36 363.187 126.728C363.187 125.096 364.275 124.056 365.715 124.056C367.171 124.056 368.259 125.096 368.259 126.728C368.259 128.36 367.171 129.4 365.715 129.4ZM374.091 123.704V122.456H372.187V131H374.187V126.856C374.187 125.112 375.147 124.216 376.667 124.216C376.811 124.216 376.955 124.232 377.131 124.264V122.36C375.707 122.36 374.667 122.808 374.091 123.704ZM382.045 122.36C380.669 122.36 379.341 122.712 378.429 123.416L379.213 124.872C379.853 124.344 380.845 124.024 381.805 124.024C383.229 124.024 383.933 124.712 383.933 125.88V126.008H381.725C379.133 126.008 378.173 127.128 378.173 128.552C378.173 130.04 379.405 131.112 381.357 131.112C382.637 131.112 383.565 130.696 384.045 129.96V131H385.933V125.992C385.933 123.528 384.509 122.36 382.045 122.36ZM381.773 129.656C380.749 129.656 380.141 129.192 380.141 128.472C380.141 127.848 380.509 127.336 381.869 127.336H383.933V128.328C383.597 129.208 382.749 129.656 381.773 129.656ZM395.154 122.456V123.592C394.45 122.744 393.394 122.36 392.194 122.36C389.746 122.36 387.874 123.992 387.874 126.472C387.874 128.952 389.746 130.616 392.194 130.616C393.346 130.616 394.354 130.248 395.058 129.48V129.928C395.058 131.656 394.226 132.52 392.338 132.52C391.154 132.52 389.938 132.12 389.186 131.496L388.29 133C389.266 133.8 390.85 134.216 392.45 134.216C395.442 134.216 397.058 132.808 397.058 129.704V122.456H395.154ZM392.498 128.92C390.978 128.92 389.89 127.928 389.89 126.472C389.89 125.032 390.978 124.056 392.498 124.056C394.002 124.056 395.09 125.032 395.09 126.472C395.09 127.928 394.002 128.92 392.498 128.92ZM407.719 126.776C407.719 124.104 405.895 122.36 403.399 122.36C400.855 122.36 398.983 124.184 398.983 126.728C398.983 129.272 400.839 131.112 403.703 131.112C405.175 131.112 406.375 130.632 407.143 129.72L406.071 128.488C405.463 129.112 404.711 129.416 403.751 129.416C402.263 129.416 401.223 128.616 400.983 127.368H407.687C407.703 127.176 407.719 126.936 407.719 126.776ZM403.399 123.96C404.711 123.96 405.655 124.808 405.815 126.04H400.967C401.159 124.792 402.103 123.96 403.399 123.96ZM422.142 119.8V127.384L415.966 119.8H414.254V131H416.318V123.416L422.494 131H424.206V119.8H422.142ZM430.855 131.112C433.511 131.112 435.415 129.288 435.415 126.728C435.415 124.168 433.511 122.36 430.855 122.36C428.231 122.36 426.311 124.168 426.311 126.728C426.311 129.288 428.231 131.112 430.855 131.112ZM430.855 129.4C429.415 129.4 428.327 128.36 428.327 126.728C428.327 125.096 429.415 124.056 430.855 124.056C432.311 124.056 433.399 125.096 433.399 126.728C433.399 128.36 432.311 129.4 430.855 129.4ZM443.696 119.128V123.512C443.024 122.728 442.048 122.36 440.944 122.36C438.464 122.36 436.624 124.072 436.624 126.728C436.624 129.384 438.464 131.112 440.944 131.112C442.112 131.112 443.104 130.712 443.776 129.896V131H445.696V119.128H443.696ZM441.184 129.4C439.744 129.4 438.64 128.36 438.64 126.728C438.64 125.096 439.744 124.056 441.184 124.056C442.624 124.056 443.728 125.096 443.728 126.728C443.728 128.36 442.624 129.4 441.184 129.4ZM456.344 126.776C456.344 124.104 454.52 122.36 452.024 122.36C449.48 122.36 447.608 124.184 447.608 126.728C447.608 129.272 449.464 131.112 452.328 131.112C453.8 131.112 455 130.632 455.768 129.72L454.696 128.488C454.088 129.112 453.336 129.416 452.376 129.416C450.888 129.416 449.848 128.616 449.608 127.368H456.312C456.328 127.176 456.344 126.936 456.344 126.776ZM452.024 123.96C453.336 123.96 454.28 124.808 454.44 126.04H449.592C449.784 124.792 450.728 123.96 452.024 123.96ZM460.905 131.112C463.305 131.112 464.777 130.072 464.777 128.472C464.777 125.128 459.497 126.664 459.497 124.936C459.497 124.376 460.073 123.976 461.289 123.976C462.105 123.976 462.921 124.136 463.737 124.616L464.505 123.096C463.737 122.632 462.441 122.36 461.305 122.36C459.001 122.36 457.545 123.416 457.545 125.032C457.545 128.44 462.825 126.904 462.825 128.536C462.825 129.128 462.297 129.48 461.033 129.48C459.961 129.48 458.809 129.128 458.057 128.632L457.289 130.152C458.057 130.696 459.481 131.112 460.905 131.112Z" fill="white"/>
<path d="M646.44 311.176C647.304 310.712 647.88 309.864 647.88 308.712C647.88 306.936 646.44 305.8 643.752 305.8H638.504V317H644.072C646.952 317 648.456 315.88 648.456 313.96C648.456 312.504 647.64 311.56 646.44 311.176ZM643.528 307.432C644.968 307.432 645.784 307.944 645.784 308.984C645.784 310.008 644.968 310.52 643.528 310.52H640.584V307.432H643.528ZM643.944 315.368H640.584V312.136H643.944C645.512 312.136 646.36 312.632 646.36 313.752C646.36 314.872 645.512 315.368 643.944 315.368ZM650.484 317H652.484V305.128H650.484V317ZM658.949 317.112C661.605 317.112 663.509 315.288 663.509 312.728C663.509 310.168 661.605 308.36 658.949 308.36C656.325 308.36 654.405 310.168 654.405 312.728C654.405 315.288 656.325 317.112 658.949 317.112ZM658.949 315.4C657.509 315.4 656.421 314.36 656.421 312.728C656.421 311.096 657.509 310.056 658.949 310.056C660.405 310.056 661.493 311.096 661.493 312.728C661.493 314.36 660.405 315.4 658.949 315.4ZM669.341 317.112C671.005 317.112 672.333 316.392 672.989 315.112L671.453 314.216C670.941 315.032 670.173 315.4 669.325 315.4C667.853 315.4 666.733 314.392 666.733 312.728C666.733 311.08 667.853 310.056 669.325 310.056C670.173 310.056 670.941 310.424 671.453 311.24L672.989 310.344C672.333 309.048 671.005 308.36 669.341 308.36C666.637 308.36 664.717 310.168 664.717 312.728C664.717 315.288 666.637 317.112 669.341 317.112ZM681.088 317H683.52L679.616 312.04L683.184 308.456H680.784L676.64 312.296V305.128H674.64V317H676.64V314.744L678.128 313.336L681.088 317ZM688.373 317.112C690.037 317.112 691.365 316.392 692.021 315.112L690.485 314.216C689.973 315.032 689.205 315.4 688.357 315.4C686.885 315.4 685.765 314.392 685.765 312.728C685.765 311.08 686.885 310.056 688.357 310.056C689.205 310.056 689.973 310.424 690.485 311.24L692.021 310.344C691.365 309.048 690.037 308.36 688.373 308.36C685.669 308.36 683.749 310.168 683.749 312.728C683.749 315.288 685.669 317.112 688.373 317.112ZM698.519 308.36C697.335 308.36 696.327 308.744 695.671 309.448V305.128H693.671V317H695.671V312.68C695.671 310.968 696.631 310.104 698.055 310.104C699.335 310.104 700.087 310.84 700.087 312.36V317H702.087V312.104C702.087 309.528 700.567 308.36 698.519 308.36ZM707.889 308.36C706.513 308.36 705.185 308.712 704.273 309.416L705.057 310.872C705.697 310.344 706.689 310.024 707.649 310.024C709.073 310.024 709.777 310.712 709.777 311.88V312.008H707.569C704.977 312.008 704.017 313.128 704.017 314.552C704.017 316.04 705.249 317.112 707.201 317.112C708.481 317.112 709.409 316.696 709.889 315.96V317H711.777V311.992C711.777 309.528 710.353 308.36 707.889 308.36ZM707.617 315.656C706.593 315.656 705.985 315.192 705.985 314.472C705.985 313.848 706.353 313.336 707.713 313.336H709.777V314.328C709.441 315.208 708.593 315.656 707.617 315.656ZM715.351 307.048C716.103 307.048 716.631 306.504 716.631 305.8C716.631 305.144 716.087 304.648 715.351 304.648C714.615 304.648 714.071 305.176 714.071 305.848C714.071 306.52 714.615 307.048 715.351 307.048ZM714.343 317H716.343V308.456H714.343V317ZM723.816 308.36C722.568 308.36 721.528 308.776 720.872 309.56V308.456H718.968V317H720.968V312.68C720.968 310.968 721.928 310.104 723.352 310.104C724.632 310.104 725.384 310.84 725.384 312.36V317H727.384V312.104C727.384 309.528 725.864 308.36 723.816 308.36Z" fill="white"/>
<g filter="url(#filter6_d_3784_4)">
<g filter="url(#filter7_d_3784_4)">
<path d="M258 165C258 153.954 266.954 145 278 145H527C538.046 145 547 153.954 547 165V235C547 246.046 538.046 255 527 255H278C266.954 255 258 246.046 258 235V165Z" fill="url(#paint2_radial_3784_4)"/>
</g>
</g>
<g filter="url(#filter8_d_3784_4)">
<g filter="url(#filter9_d_3784_4)">
<path d="M348 352C348 340.954 356.954 332 368 332H438C449.046 332 458 340.954 458 352V422C458 433.046 449.046 442 438 442H368C356.954 442 348 433.046 348 422V352Z" fill="url(#paint3_radial_3784_4)"/>
</g>
</g>
<g filter="url(#filter10_d_3784_4)">
<g filter="url(#filter11_d_3784_4)">
<path d="M339.142 621.142C331.332 613.332 331.332 600.668 339.142 592.858L388.64 543.36C396.45 535.55 409.113 535.55 416.924 543.36L466.421 592.858C474.232 600.668 474.232 613.332 466.421 621.142L416.924 670.64C409.113 678.45 396.45 678.45 388.64 670.64L339.142 621.142Z" fill="url(#paint4_radial_3784_4)"/>
</g>
</g>
<path d="M682.949 388.139L656.357 397.07C654.57 397.671 654.529 400.183 656.296 400.841L682.887 410.738C683.341 410.907 683.841 410.905 684.293 410.734L710.423 400.836C712.175 400.173 712.134 397.68 710.361 397.074L684.232 388.142C683.816 388 683.365 387.999 682.949 388.139Z" stroke="white" stroke-width="1.5"/>
<path d="M682.949 380.754L656.357 389.686C654.57 390.286 654.529 392.798 656.296 393.456L682.887 403.353C683.341 403.522 683.841 403.52 684.293 403.349L710.423 393.452C712.175 392.788 712.134 390.295 710.361 389.689L684.232 380.757C683.816 380.615 683.365 380.614 682.949 380.754Z" fill="#313131" stroke="white" stroke-width="1.5"/>
<path d="M682.949 371.523L656.357 380.455C654.57 381.055 654.529 383.568 656.296 384.225L682.887 394.123C683.341 394.291 683.841 394.29 684.293 394.119L710.423 384.221C712.175 383.557 712.134 381.064 710.361 380.458L684.232 371.527C683.816 371.385 683.365 371.383 682.949 371.523Z" fill="#313131" stroke="white" stroke-width="1.5"/>
<path d="M682.949 363.216L656.357 372.148C654.57 372.748 654.529 375.26 656.296 375.918L682.887 385.815C683.341 385.984 683.841 385.982 684.293 385.811L710.423 375.914C712.175 375.25 712.134 372.757 710.361 372.151L684.232 363.219C683.816 363.077 683.365 363.076 682.949 363.216Z" fill="white" stroke="white" stroke-width="1.5"/>
<rect x="-0.846072" y="0.846072" width="32.4267" height="26.7402" rx="0.846072" transform="matrix(-1 0 0 1 418.374 371.828)" stroke="white" stroke-width="1.69214"/>
<path d="M387.998 364.921C387.998 364.604 387.821 364.314 387.539 364.168L375.07 357.743C374.507 357.453 373.837 357.862 373.837 358.495V414.708C373.837 415.396 374.615 415.797 375.175 415.396L387.644 406.474C387.866 406.315 387.998 406.059 387.998 405.786V364.921Z" fill="white" stroke="white" stroke-width="1.69214"/>
<path d="M418.33 364.918C418.33 364.601 418.507 364.311 418.789 364.165L431.258 357.74C431.821 357.45 432.491 357.859 432.491 358.492V414.705C432.491 415.394 431.713 415.794 431.153 415.393L418.684 406.471C418.462 406.312 418.33 406.056 418.33 405.783V364.918Z" fill="white" stroke="white" stroke-width="1.69214"/>
<circle cx="402.483" cy="646.115" r="5.60769" fill="white"/>
<circle cx="402.483" cy="607.485" r="9.34615" fill="white"/>
<circle cx="402.483" cy="567.608" r="5.60769" fill="white"/>
<circle cx="362.608" cy="583.808" r="5.60769" fill="white"/>
<circle cx="368.838" cy="628.669" r="5.60769" fill="white"/>
<circle cx="422.424" cy="618.7" r="5.60769" fill="white"/>
<circle cx="432.393" cy="591.284" r="5.60769" fill="white"/>
<line x1="403.616" y1="607.245" x2="424.801" y2="619.707" stroke="white" stroke-width="2"/>
<line x1="402.382" y1="608.962" x2="367.49" y2="630.147" stroke="white" stroke-width="2"/>
<line x1="401.333" y1="607.709" x2="361.456" y2="582.786" stroke="white" stroke-width="2"/>
<line x1="402.617" y1="607.237" x2="431.279" y2="591.037" stroke="white" stroke-width="2"/>
<line x1="402.863" y1="566.984" x2="402.863" y2="644.246" stroke="white" stroke-width="2"/>
<mask id="mask0_3784_4" style="mask-type:alpha" maskUnits="userSpaceOnUse" x="293" y="207" width="45" height="12">
<rect x="293" y="207" width="45" height="12" fill="#C4C4C4"/>
</mask>
<g mask="url(#mask0_3784_4)">
<path d="M337.25 207C337.25 209.592 335.079 212.15 331.08 214.104C327.132 216.035 321.624 217.25 315.5 217.25C309.376 217.25 303.868 216.035 299.92 214.104C295.921 212.15 293.75 209.592 293.75 207C293.75 204.408 295.921 201.85 299.92 199.896C303.868 197.965 309.376 196.75 315.5 196.75C321.624 196.75 327.132 197.965 331.08 199.896C335.079 201.85 337.25 204.408 337.25 207Z" stroke="#F8F8F8" stroke-width="1.5"/>
</g>
<mask id="mask1_3784_4" style="mask-type:alpha" maskUnits="userSpaceOnUse" x="293" y="222" width="45" height="12">
<rect x="293" y="222" width="45" height="12" fill="#C4C4C4"/>
</mask>
<g mask="url(#mask1_3784_4)">
<path d="M337.25 222C337.25 224.592 335.079 227.15 331.08 229.104C327.132 231.035 321.624 232.25 315.5 232.25C309.376 232.25 303.868 231.035 299.92 229.104C295.921 227.15 293.75 224.592 293.75 222C293.75 219.408 295.921 216.85 299.92 214.896C303.868 212.965 309.376 211.75 315.5 211.75C321.624 211.75 327.132 212.965 331.08 214.896C335.079 216.85 337.25 219.408 337.25 222Z" stroke="#F8F8F8" stroke-width="1.5"/>
</g>
<mask id="mask2_3784_4" style="mask-type:alpha" maskUnits="userSpaceOnUse" x="293" y="192" width="45" height="12">
<rect x="293" y="192" width="45" height="12" fill="#C4C4C4"/>
</mask>
<g mask="url(#mask2_3784_4)">
<path d="M337.25 192C337.25 194.592 335.079 197.15 331.08 199.104C327.132 201.035 321.624 202.25 315.5 202.25C309.376 202.25 303.868 201.035 299.92 199.104C295.921 197.15 293.75 194.592 293.75 192C293.75 189.408 295.921 186.85 299.92 184.896C303.868 182.965 309.376 181.75 315.5 181.75C321.624 181.75 327.132 182.965 331.08 184.896C335.079 186.85 337.25 189.408 337.25 192Z" stroke="#F8F8F8" stroke-width="1.5"/>
</g>
<mask id="mask3_3784_4" style="mask-type:alpha" maskUnits="userSpaceOnUse" x="289" y="175" width="54" height="53">
<path d="M294.5 199.611V227H290V176H342.5V226.056H336.5V179.306H294.5V199.611Z" fill="#C4C4C4" stroke="black"/>
</mask>
<g mask="url(#mask3_3784_4)">
<rect x="293.75" y="178.639" width="43.5" height="43.8333" stroke="white" stroke-width="1.5"/>
</g>
<path d="M337.607 178C337.607 180.804 335.271 183.453 331.237 185.425C327.23 187.384 321.667 188.607 315.5 188.607C309.333 188.607 303.77 187.384 299.763 185.425C295.729 183.453 293.393 180.804 293.393 178C293.393 175.196 295.729 172.547 299.763 170.575C303.77 168.616 309.333 167.393 315.5 167.393C321.667 167.393 327.23 168.616 331.237 170.575C335.271 172.547 337.607 175.196 337.607 178Z" fill="white" stroke="#F8F8F8" stroke-width="0.785949"/>
<ellipse cx="329.5" cy="193.5" rx="2.5" ry="3.5" fill="white"/>
<ellipse cx="329.5" cy="207.5" rx="2.5" ry="3.5" fill="white"/>
<ellipse cx="329.5" cy="222.5" rx="2.5" ry="3.5" fill="white"/>
<mask id="mask4_3784_4" style="mask-type:alpha" maskUnits="userSpaceOnUse" x="383" y="207" width="45" height="12">
<rect x="383" y="207" width="45" height="12" fill="#C4C4C4"/>
</mask>
<g mask="url(#mask4_3784_4)">
<path d="M427.25 207C427.25 209.592 425.079 212.15 421.08 214.104C417.132 216.035 411.624 217.25 405.5 217.25C399.376 217.25 393.868 216.035 389.92 214.104C385.921 212.15 383.75 209.592 383.75 207C383.75 204.408 385.921 201.85 389.92 199.896C393.868 197.965 399.376 196.75 405.5 196.75C411.624 196.75 417.132 197.965 421.08 199.896C425.079 201.85 427.25 204.408 427.25 207Z" stroke="#F8F8F8" stroke-width="1.5"/>
</g>
<mask id="mask5_3784_4" style="mask-type:alpha" maskUnits="userSpaceOnUse" x="383" y="222" width="45" height="12">
<rect x="383" y="222" width="45" height="12" fill="#C4C4C4"/>
</mask>
<g mask="url(#mask5_3784_4)">
<path d="M427.25 222C427.25 224.592 425.079 227.15 421.08 229.104C417.132 231.035 411.624 232.25 405.5 232.25C399.376 232.25 393.868 231.035 389.92 229.104C385.921 227.15 383.75 224.592 383.75 222C383.75 219.408 385.921 216.85 389.92 214.896C393.868 212.965 399.376 211.75 405.5 211.75C411.624 211.75 417.132 212.965 421.08 214.896C425.079 216.85 427.25 219.408 427.25 222Z" stroke="#F8F8F8" stroke-width="1.5"/>
</g>
<mask id="mask6_3784_4" style="mask-type:alpha" maskUnits="userSpaceOnUse" x="383" y="192" width="45" height="12">
<rect x="383" y="192" width="45" height="12" fill="#C4C4C4"/>
</mask>
<g mask="url(#mask6_3784_4)">
<path d="M427.25 192C427.25 194.592 425.079 197.15 421.08 199.104C417.132 201.035 411.624 202.25 405.5 202.25C399.376 202.25 393.868 201.035 389.92 199.104C385.921 197.15 383.75 194.592 383.75 192C383.75 189.408 385.921 186.85 389.92 184.896C393.868 182.965 399.376 181.75 405.5 181.75C411.624 181.75 417.132 182.965 421.08 184.896C425.079 186.85 427.25 189.408 427.25 192Z" stroke="#F8F8F8" stroke-width="1.5"/>
</g>
<mask id="mask7_3784_4" style="mask-type:alpha" maskUnits="userSpaceOnUse" x="379" y="175" width="54" height="53">
<path d="M384.5 199.611V227H380V176H432.5V226.056H426.5V179.306H384.5V199.611Z" fill="#C4C4C4" stroke="black"/>
</mask>
<g mask="url(#mask7_3784_4)">
<rect x="383.75" y="178.639" width="43.5" height="43.8333" stroke="white" stroke-width="1.5"/>
</g>
<path d="M427.607 178C427.607 180.804 425.271 183.453 421.237 185.425C417.23 187.384 411.667 188.607 405.5 188.607C399.333 188.607 393.77 187.384 389.763 185.425C385.729 183.453 383.393 180.804 383.393 178C383.393 175.196 385.729 172.547 389.763 170.575C393.77 168.616 399.333 167.393 405.5 167.393C411.667 167.393 417.23 168.616 421.237 170.575C425.271 172.547 427.607 175.196 427.607 178Z" fill="white" stroke="#F8F8F8" stroke-width="0.785949"/>
<ellipse cx="419.5" cy="193.5" rx="2.5" ry="3.5" fill="white"/>
<ellipse cx="419.5" cy="207.5" rx="2.5" ry="3.5" fill="white"/>
<ellipse cx="419.5" cy="222.5" rx="2.5" ry="3.5" fill="white"/>
<mask id="mask8_3784_4" style="mask-type:alpha" maskUnits="userSpaceOnUse" x="473" y="207" width="45" height="12">
<rect x="473" y="207" width="45" height="12" fill="#C4C4C4"/>
</mask>
<g mask="url(#mask8_3784_4)">
<path d="M517.25 207C517.25 209.592 515.079 212.15 511.08 214.104C507.132 216.035 501.624 217.25 495.5 217.25C489.376 217.25 483.868 216.035 479.92 214.104C475.921 212.15 473.75 209.592 473.75 207C473.75 204.408 475.921 201.85 479.92 199.896C483.868 197.965 489.376 196.75 495.5 196.75C501.624 196.75 507.132 197.965 511.08 199.896C515.079 201.85 517.25 204.408 517.25 207Z" stroke="#F8F8F8" stroke-width="1.5"/>
</g>
<mask id="mask9_3784_4" style="mask-type:alpha" maskUnits="userSpaceOnUse" x="473" y="222" width="45" height="12">
<rect x="473" y="222" width="45" height="12" fill="#C4C4C4"/>
</mask>
<g mask="url(#mask9_3784_4)">
<path d="M517.25 222C517.25 224.592 515.079 227.15 511.08 229.104C507.132 231.035 501.624 232.25 495.5 232.25C489.376 232.25 483.868 231.035 479.92 229.104C475.921 227.15 473.75 224.592 473.75 222C473.75 219.408 475.921 216.85 479.92 214.896C483.868 212.965 489.376 211.75 495.5 211.75C501.624 211.75 507.132 212.965 511.08 214.896C515.079 216.85 517.25 219.408 517.25 222Z" stroke="#F8F8F8" stroke-width="1.5"/>
</g>
<mask id="mask10_3784_4" style="mask-type:alpha" maskUnits="userSpaceOnUse" x="473" y="192" width="45" height="12">
<rect x="473" y="192" width="45" height="12" fill="#C4C4C4"/>
</mask>
<g mask="url(#mask10_3784_4)">
<path d="M517.25 192C517.25 194.592 515.079 197.15 511.08 199.104C507.132 201.035 501.624 202.25 495.5 202.25C489.376 202.25 483.868 201.035 479.92 199.104C475.921 197.15 473.75 194.592 473.75 192C473.75 189.408 475.921 186.85 479.92 184.896C483.868 182.965 489.376 181.75 495.5 181.75C501.624 181.75 507.132 182.965 511.08 184.896C515.079 186.85 517.25 189.408 517.25 192Z" stroke="#F8F8F8" stroke-width="1.5"/>
</g>
<mask id="mask11_3784_4" style="mask-type:alpha" maskUnits="userSpaceOnUse" x="469" y="175" width="54" height="53">
<path d="M474.5 199.611V227H470V176H522.5V226.056H516.5V179.306H474.5V199.611Z" fill="#C4C4C4" stroke="black"/>
</mask>
<g mask="url(#mask11_3784_4)">
<rect x="473.75" y="178.639" width="43.5" height="43.8333" stroke="white" stroke-width="1.5"/>
</g>
<path d="M517.607 178C517.607 180.804 515.271 183.453 511.237 185.425C507.23 187.384 501.667 188.607 495.5 188.607C489.333 188.607 483.77 187.384 479.763 185.425C475.729 183.453 473.393 180.804 473.393 178C473.393 175.196 475.729 172.547 479.763 170.575C483.77 168.616 489.333 167.393 495.5 167.393C501.667 167.393 507.23 168.616 511.237 170.575C515.271 172.547 517.607 175.196 517.607 178Z" fill="white" stroke="#F8F8F8" stroke-width="0.785949"/>
<ellipse cx="509.5" cy="193.5" rx="2.5" ry="3.5" fill="white"/>
<ellipse cx="509.5" cy="207.5" rx="2.5" ry="3.5" fill="white"/>
<ellipse cx="509.5" cy="222.5" rx="2.5" ry="3.5" fill="white"/>
<circle cx="161.584" cy="387.5" r="2.41558" fill="white"/>
<circle cx="73.4156" cy="387.5" r="2.41558" fill="white"/>
<circle cx="155.679" cy="365.457" r="2.41558" transform="rotate(-30 155.679 365.457)" fill="white"/>
<circle cx="79.3232" cy="409.542" r="2.41558" transform="rotate(-30 79.3232 409.542)" fill="white"/>
<circle cx="139.542" cy="349.322" r="2.41558" transform="rotate(-60 139.542 349.322)" fill="white"/>
<circle cx="95.456" cy="425.678" r="2.41558" transform="rotate(-60 95.456 425.678)" fill="white"/>
<circle cx="117.502" cy="343.415" r="2.41558" transform="rotate(-90 117.502 343.415)" fill="white"/>
<circle cx="117.502" cy="386.641" r="2.41558" transform="rotate(-90 117.502 386.641)" fill="white"/>
<circle cx="117.5" cy="386.845" r="5.89437" transform="rotate(-90 117.5 386.845)" fill="white"/>
<circle cx="117.502" cy="431.584" r="2.41558" transform="rotate(-90 117.502 431.584)" fill="white"/>
<circle cx="95.4545" cy="349.321" r="2.41558" transform="rotate(-120 95.4545 349.321)" fill="white"/>
<circle cx="139.54" cy="425.678" r="2.41558" transform="rotate(-120 139.54 425.678)" fill="white"/>
<circle cx="79.3229" cy="365.458" r="2.41558" transform="rotate(-150 79.3229 365.458)" fill="white"/>
<circle cx="155.678" cy="409.542" r="2.41558" transform="rotate(-150 155.678 409.542)" fill="white"/>
<line x1="80.25" y1="366.5" x2="80.25" y2="407.5" stroke="white" stroke-width="0.5"/>
<line x1="155.25" y1="366.5" x2="155.25" y2="407.5" stroke="white" stroke-width="0.5"/>
<line x1="117.02" y1="343.803" x2="154.462" y2="365.544" stroke="white" stroke-width="0.5"/>
<line y1="-0.25" x2="43.2956" y2="-0.25" transform="matrix(-0.864789 0.502136 0.502136 0.864789 118.105 344.02)" stroke="white" stroke-width="0.5"/>
<line x1="117.98" y1="431.197" x2="80.5384" y2="409.456" stroke="white" stroke-width="0.5"/>
<line y1="-0.25" x2="43.2956" y2="-0.25" transform="matrix(0.864789 -0.502135 -0.502135 -0.864789 116.895 430.98)" stroke="white" stroke-width="0.5"/>
<line x1="97" y1="350.25" x2="136" y2="350.25" stroke="white" stroke-width="0.5"/>
<line x1="73.8033" y1="387.978" x2="95.5436" y2="350.536" stroke="white" stroke-width="0.5"/>
<line y1="-0.25" x2="43.2956" y2="-0.25" transform="matrix(0.502136 0.864789 0.864789 -0.502136 74.0195 386.896)" stroke="white" stroke-width="0.5"/>
<line x1="161.197" y1="387.022" x2="139.456" y2="424.464" stroke="white" stroke-width="0.5"/>
<line y1="-0.25" x2="43.2956" y2="-0.25" transform="matrix(-0.502136 -0.864789 -0.864789 0.502136 160.98 388.104)" stroke="white" stroke-width="0.5"/>
<path d="M336.354 361.354C336.549 361.158 336.549 360.842 336.354 360.646L333.172 357.464C332.976 357.269 332.66 357.269 332.464 357.464C332.269 357.66 332.269 357.976 332.464 358.172L335.293 361L332.464 363.828C332.269 364.024 332.269 364.34 332.464 364.536C332.66 364.731 332.976 364.731 333.172 364.536L336.354 361.354ZM187 361.5H336V360.5H187V361.5Z" fill="white"/>
<path d="M241.128 522.8V524.544H243.496V534H245.576V522.8H241.128Z" fill="white"/>
<path d="M276.536 491.24L279.528 488.392C281.08 486.936 281.384 485.944 281.384 484.856C281.384 482.872 279.816 481.64 277.384 481.64C275.544 481.64 273.992 482.328 273.128 483.496L274.584 484.616C275.208 483.816 276.12 483.448 277.208 483.448C278.584 483.448 279.288 484.04 279.288 485.064C279.288 485.688 279.096 486.344 278.008 487.384L273.56 491.608V493H281.816V491.24H276.536Z" fill="white"/>
<path d="M263.472 348.424L266.192 345.192V343.8H258.56V345.544H263.648L261.104 348.568V349.992H262.128C263.824 349.992 264.56 350.648 264.56 351.656C264.56 352.696 263.68 353.352 262.192 353.352C260.928 353.352 259.712 352.92 258.912 352.248L258.016 353.864C259.056 354.68 260.64 355.16 262.224 355.16C265.232 355.16 266.656 353.528 266.656 351.64C266.656 349.96 265.584 348.696 263.472 348.424Z" fill="white"/>
<path d="M262.792 399.088C261.544 399.088 260.472 399.472 259.8 400.256V400.24C259.8 397.696 261.128 396.384 263.24 396.384C264.024 396.384 264.76 396.528 265.368 396.928L266.136 395.36C265.384 394.88 264.312 394.64 263.192 394.64C259.944 394.64 257.704 396.752 257.704 400.592C257.704 404.192 259.496 406.16 262.552 406.16C264.84 406.16 266.648 404.752 266.648 402.528C266.648 400.432 265 399.088 262.792 399.088ZM262.44 404.528C260.952 404.528 260.12 403.696 260.12 402.64C260.12 401.536 261.048 400.72 262.392 400.72C263.752 400.72 264.632 401.456 264.632 402.624C264.632 403.792 263.736 404.528 262.44 404.528Z" fill="white"/>
<path d="M547.688 350.696H545.704V348.44H543.752V350.696H540.088L545.288 343.8H543.064L537.544 351.016V352.456H543.688V355H545.704V352.456H547.688V350.696Z" fill="white"/>
<path d="M542.208 399.136H541.136L541.376 396.544H546.192V394.8H539.616L539.04 400.896H541.744C544.064 400.896 544.752 401.568 544.752 402.64C544.752 403.696 543.872 404.352 542.384 404.352C541.12 404.352 539.904 403.92 539.088 403.248L538.208 404.864C539.232 405.68 540.832 406.16 542.416 406.16C545.424 406.16 546.848 404.528 546.848 402.56C546.848 400.576 545.52 399.136 542.208 399.136Z" fill="white"/>
<path d="M186.646 388.646C186.451 388.842 186.451 389.158 186.646 389.354L189.828 392.536C190.024 392.731 190.34 392.731 190.536 392.536C190.731 392.34 190.731 392.024 190.536 391.828L187.707 389L190.536 386.172C190.731 385.976 190.731 385.66 190.536 385.464C190.34 385.269 190.024 385.269 189.828 385.464L186.646 388.646ZM336 388.5L187 388.5L187 389.5L336 389.5L336 388.5Z" fill="white"/>
<path d="M616.354 361.354C616.549 361.158 616.549 360.842 616.354 360.646L613.172 357.464C612.976 357.269 612.66 357.269 612.464 357.464C612.269 357.66 612.269 357.976 612.464 358.172L615.293 361L612.464 363.828C612.269 364.024 612.269 364.34 612.464 364.536C612.66 364.731 612.976 364.731 613.172 364.536L616.354 361.354ZM467 361.5H616V360.5H467V361.5Z" fill="white"/>
<path d="M466.646 388.646C466.451 388.842 466.451 389.158 466.646 389.354L469.828 392.536C470.024 392.731 470.34 392.731 470.536 392.536C470.731 392.34 470.731 392.024 470.536 391.828L467.707 389L470.536 386.172C470.731 385.976 470.731 385.66 470.536 385.464C470.34 385.269 470.024 385.269 469.828 385.464L466.646 388.646ZM616 388.5L467 388.5L467 389.5L616 389.5L616 388.5Z" fill="white"/>
<path d="M312.067 576.726C312.343 576.716 312.559 576.484 312.548 576.208L312.381 571.711C312.371 571.435 312.139 571.22 311.863 571.23C311.587 571.241 311.372 571.473 311.382 571.749L311.53 575.746L307.533 575.894C307.257 575.905 307.042 576.137 307.052 576.413C307.062 576.688 307.294 576.904 307.57 576.894L312.067 576.726ZM174.66 449.366L311.708 576.593L312.389 575.86L175.34 448.634L174.66 449.366Z" fill="white"/>
<path d="M194.933 428.273C194.657 428.284 194.441 428.516 194.452 428.792L194.619 433.289C194.629 433.565 194.861 433.78 195.137 433.77C195.413 433.759 195.628 433.527 195.618 433.251L195.47 429.254L199.467 429.106C199.743 429.095 199.958 428.863 199.948 428.587C199.938 428.311 199.706 428.096 199.43 428.106L194.933 428.273ZM332.34 555.634L195.292 428.407L194.611 429.14L331.66 556.366L332.34 555.634Z" fill="white"/>
<defs>
<filter id="filter0_d_3784_4" x="58" y="320" width="144" height="144" filterUnits="userSpaceOnUse" color-interpolation-filters="sRGB">
<feFlood flood-opacity="0" result="BackgroundImageFix"/>
<feColorMatrix in="SourceAlpha" type="matrix" values="0 0 0 0 0 0 0 0 0 0 0 0 0 0 0 0 0 0 127 0" result="hardAlpha"/>
<feOffset dx="13" dy="5"/>
<feGaussianBlur stdDeviation="8.5"/>
<feColorMatrix type="matrix" values="0 0 0 0 0 0 0 0 0 0 0 0 0 0 0 0 0 0 0.15 0"/>
<feBlend mode="normal" in2="BackgroundImageFix" result="effect1_dropShadow_3784_4"/>
<feBlend mode="normal" in="SourceGraphic" in2="effect1_dropShadow_3784_4" result="shape"/>
</filter>
<filter id="filter1_d_3784_4" x="58" y="320" width="144" height="144" filterUnits="userSpaceOnUse" color-interpolation-filters="sRGB">
<feFlood flood-opacity="0" result="BackgroundImageFix"/>
<feColorMatrix in="SourceAlpha" type="matrix" values="0 0 0 0 0 0 0 0 0 0 0 0 0 0 0 0 0 0 127 0" result="hardAlpha"/>
<feOffset dx="13" dy="5"/>
<feGaussianBlur stdDeviation="8.5"/>
<feColorMatrix type="matrix" values="0 0 0 0 0 0 0 0 0 0 0 0 0 0 0 0 0 0 0.15 0"/>
<feBlend mode="normal" in2="BackgroundImageFix" result="effect1_dropShadow_3784_4"/>
<feBlend mode="normal" in="SourceGraphic" in2="effect1_dropShadow_3784_4" result="shape"/>
</filter>
<filter id="filter2_d_3784_4" x="58" y="320" width="144" height="144" filterUnits="userSpaceOnUse" color-interpolation-filters="sRGB">
<feFlood flood-opacity="0" result="BackgroundImageFix"/>
<feColorMatrix in="SourceAlpha" type="matrix" values="0 0 0 0 0 0 0 0 0 0 0 0 0 0 0 0 0 0 127 0" result="hardAlpha"/>
<feOffset dx="13" dy="5"/>
<feGaussianBlur stdDeviation="8.5"/>
<feColorMatrix type="matrix" values="0 0 0 0 0 0 0 0 0 0 0 0 0 0 0 0 0 0 0.15 0"/>
<feBlend mode="normal" in2="BackgroundImageFix" result="effect1_dropShadow_3784_4"/>
<feBlend mode="normal" in="SourceGraphic" in2="effect1_dropShadow_3784_4" result="shape"/>
</filter>
<filter id="filter3_d_3784_4" x="62" y="332" width="118" height="119" filterUnits="userSpaceOnUse" color-interpolation-filters="sRGB">
<feFlood flood-opacity="0" result="BackgroundImageFix"/>
<feColorMatrix in="SourceAlpha" type="matrix" values="0 0 0 0 0 0 0 0 0 0 0 0 0 0 0 0 0 0 127 0" result="hardAlpha"/>
<feOffset dx="4" dy="5"/>
<feGaussianBlur stdDeviation="2"/>
<feColorMatrix type="matrix" values="0 0 0 0 0 0 0 0 0 0 0 0 0 0 0 0 0 0 0.25 0"/>
<feBlend mode="normal" in2="BackgroundImageFix" result="effect1_dropShadow_3784_4"/>
<feBlend mode="normal" in="SourceGraphic" in2="effect1_dropShadow_3784_4" result="shape"/>
</filter>
<filter id="filter4_d_3784_4" x="624" y="320" width="144" height="144" filterUnits="userSpaceOnUse" color-interpolation-filters="sRGB">
<feFlood flood-opacity="0" result="BackgroundImageFix"/>
<feColorMatrix in="SourceAlpha" type="matrix" values="0 0 0 0 0 0 0 0 0 0 0 0 0 0 0 0 0 0 127 0" result="hardAlpha"/>
<feOffset dx="13" dy="5"/>
<feGaussianBlur stdDeviation="8.5"/>
<feColorMatrix type="matrix" values="0 0 0 0 0 0 0 0 0 0 0 0 0 0 0 0 0 0 0.15 0"/>
<feBlend mode="normal" in2="BackgroundImageFix" result="effect1_dropShadow_3784_4"/>
<feBlend mode="normal" in="SourceGraphic" in2="effect1_dropShadow_3784_4" result="shape"/>
</filter>
<filter id="filter5_d_3784_4" x="628" y="332" width="118" height="119" filterUnits="userSpaceOnUse" color-interpolation-filters="sRGB">
<feFlood flood-opacity="0" result="BackgroundImageFix"/>
<feColorMatrix in="SourceAlpha" type="matrix" values="0 0 0 0 0 0 0 0 0 0 0 0 0 0 0 0 0 0 127 0" result="hardAlpha"/>
<feOffset dx="4" dy="5"/>
<feGaussianBlur stdDeviation="2"/>
<feColorMatrix type="matrix" values="0 0 0 0 0 0 0 0 0 0 0 0 0 0 0 0 0 0 0.25 0"/>
<feBlend mode="normal" in2="BackgroundImageFix" result="effect1_dropShadow_3784_4"/>
<feBlend mode="normal" in="SourceGraphic" in2="effect1_dropShadow_3784_4" result="shape"/>
</filter>
<filter id="filter6_d_3784_4" x="254" y="133" width="323" height="144" filterUnits="userSpaceOnUse" color-interpolation-filters="sRGB">
<feFlood flood-opacity="0" result="BackgroundImageFix"/>
<feColorMatrix in="SourceAlpha" type="matrix" values="0 0 0 0 0 0 0 0 0 0 0 0 0 0 0 0 0 0 127 0" result="hardAlpha"/>
<feOffset dx="13" dy="5"/>
<feGaussianBlur stdDeviation="8.5"/>
<feColorMatrix type="matrix" values="0 0 0 0 0 0 0 0 0 0 0 0 0 0 0 0 0 0 0.15 0"/>
<feBlend mode="normal" in2="BackgroundImageFix" result="effect1_dropShadow_3784_4"/>
<feBlend mode="normal" in="SourceGraphic" in2="effect1_dropShadow_3784_4" result="shape"/>
</filter>
<filter id="filter7_d_3784_4" x="258" y="145" width="297" height="119" filterUnits="userSpaceOnUse" color-interpolation-filters="sRGB">
<feFlood flood-opacity="0" result="BackgroundImageFix"/>
<feColorMatrix in="SourceAlpha" type="matrix" values="0 0 0 0 0 0 0 0 0 0 0 0 0 0 0 0 0 0 127 0" result="hardAlpha"/>
<feOffset dx="4" dy="5"/>
<feGaussianBlur stdDeviation="2"/>
<feColorMatrix type="matrix" values="0 0 0 0 0 0 0 0 0 0 0 0 0 0 0 0 0 0 0.25 0"/>
<feBlend mode="normal" in2="BackgroundImageFix" result="effect1_dropShadow_3784_4"/>
<feBlend mode="normal" in="SourceGraphic" in2="effect1_dropShadow_3784_4" result="shape"/>
</filter>
<filter id="filter8_d_3784_4" x="344" y="320" width="144" height="144" filterUnits="userSpaceOnUse" color-interpolation-filters="sRGB">
<feFlood flood-opacity="0" result="BackgroundImageFix"/>
<feColorMatrix in="SourceAlpha" type="matrix" values="0 0 0 0 0 0 0 0 0 0 0 0 0 0 0 0 0 0 127 0" result="hardAlpha"/>
<feOffset dx="13" dy="5"/>
<feGaussianBlur stdDeviation="8.5"/>
<feColorMatrix type="matrix" values="0 0 0 0 0 0 0 0 0 0 0 0 0 0 0 0 0 0 0.15 0"/>
<feBlend mode="normal" in2="BackgroundImageFix" result="effect1_dropShadow_3784_4"/>
<feBlend mode="normal" in="SourceGraphic" in2="effect1_dropShadow_3784_4" result="shape"/>
</filter>
<filter id="filter9_d_3784_4" x="348" y="332" width="118" height="119" filterUnits="userSpaceOnUse" color-interpolation-filters="sRGB">
<feFlood flood-opacity="0" result="BackgroundImageFix"/>
<feColorMatrix in="SourceAlpha" type="matrix" values="0 0 0 0 0 0 0 0 0 0 0 0 0 0 0 0 0 0 127 0" result="hardAlpha"/>
<feOffset dx="4" dy="5"/>
<feGaussianBlur stdDeviation="2"/>
<feColorMatrix type="matrix" values="0 0 0 0 0 0 0 0 0 0 0 0 0 0 0 0 0 0 0.25 0"/>
<feBlend mode="normal" in2="BackgroundImageFix" result="effect1_dropShadow_3784_4"/>
<feBlend mode="normal" in="SourceGraphic" in2="effect1_dropShadow_3784_4" result="shape"/>
</filter>
<filter id="filter10_d_3784_4" x="329.285" y="525.503" width="172.992" height="172.994" filterUnits="userSpaceOnUse" color-interpolation-filters="sRGB">
<feFlood flood-opacity="0" result="BackgroundImageFix"/>
<feColorMatrix in="SourceAlpha" type="matrix" values="0 0 0 0 0 0 0 0 0 0 0 0 0 0 0 0 0 0 127 0" result="hardAlpha"/>
<feOffset dx="13" dy="5"/>
<feGaussianBlur stdDeviation="8.5"/>
<feColorMatrix type="matrix" values="0 0 0 0 0 0 0 0 0 0 0 0 0 0 0 0 0 0 0.15 0"/>
<feBlend mode="normal" in2="BackgroundImageFix" result="effect1_dropShadow_3784_4"/>
<feBlend mode="normal" in="SourceGraphic" in2="effect1_dropShadow_3784_4" result="shape"/>
</filter>
<filter id="filter11_d_3784_4" x="333.285" y="537.503" width="146.992" height="147.994" filterUnits="userSpaceOnUse" color-interpolation-filters="sRGB">
<feFlood flood-opacity="0" result="BackgroundImageFix"/>
<feColorMatrix in="SourceAlpha" type="matrix" values="0 0 0 0 0 0 0 0 0 0 0 0 0 0 0 0 0 0 127 0" result="hardAlpha"/>
<feOffset dx="4" dy="5"/>
<feGaussianBlur stdDeviation="2"/>
<feColorMatrix type="matrix" values="0 0 0 0 0 0 0 0 0 0 0 0 0 0 0 0 0 0 0.25 0"/>
<feBlend mode="normal" in2="BackgroundImageFix" result="effect1_dropShadow_3784_4"/>
<feBlend mode="normal" in="SourceGraphic" in2="effect1_dropShadow_3784_4" result="shape"/>
</filter>
<radialGradient id="paint0_radial_3784_4" cx="0" cy="0" r="1" gradientUnits="userSpaceOnUse" gradientTransform="translate(36.0534 317.806) rotate(40.0117) scale(193.164 864.283)">
<stop stop-color="#343434"/>
<stop offset="1" stop-color="#242424"/>
</radialGradient>
<radialGradient id="paint1_radial_3784_4" cx="0" cy="0" r="1" gradientUnits="userSpaceOnUse" gradientTransform="translate(602.053 317.806) rotate(40.0117) scale(193.164 864.283)">
<stop stop-color="#3A3A3A"/>
<stop offset="1" stop-color="#202020"/>
</radialGradient>
<radialGradient id="paint2_radial_3784_4" cx="0" cy="0" r="1" gradientUnits="userSpaceOnUse" gradientTransform="translate(189.831 130.806) rotate(17.7194) scale(408.055 1074.9)">
<stop stop-color="#3A3A3A"/>
<stop offset="1" stop-color="#202020"/>
</radialGradient>
<radialGradient id="paint3_radial_3784_4" cx="0" cy="0" r="1" gradientUnits="userSpaceOnUse" gradientTransform="translate(322.053 317.806) rotate(40.0117) scale(193.164 864.283)">
<stop stop-color="#3A3A3A"/>
<stop offset="1" stop-color="#202020"/>
</radialGradient>
<radialGradient id="paint4_radial_3784_4" cx="0" cy="0" r="1" gradientUnits="userSpaceOnUse" gradientTransform="translate(296.617 615.311) rotate(-4.98826) scale(193.164 864.283)">
<stop stop-color="#3A3A3A"/>
<stop offset="1" stop-color="#202020"/>
</radialGradient>
</defs>
</svg>
